<?xml version="1.0" encoding="UTF-8"?>
<svg id="Layer_2" data-name="Layer 2" xmlns="http://www.w3.org/2000/svg" viewBox="0 0 251.71 168.27">
  <defs>
    <style>
      .cls-1 {
        fill: #ffb000;
        fill-rule: evenodd;
      }
    </style>
  </defs>
  <g id="Layer_4" data-name="Layer 4">
    <path id="_26._As-Samii_" data-name="26. As-Samii’" class="cls-1" d="M65.12,69.68c.6-2.21,1.2-4.41,1.81-6.62,25.79-14.82,57.78-27.49,92.76-39.13-1.76-4.12-3.43-7.4-8-11.69-1.14-1.39-2.67-1.42-3.03,1.39-2.43-1.81-5.21-3.3-7.82-4.24-1.39-5.95,2.19-7.15,8.21-3.72,3.83,2.4,7.01,5.68,9.57,10.05-.52-6.03-.31-10.5.86-12.68,2.1-4.87,7.57-2.31,7.87,1.2-.43,1.55-.51,1.14-.92,2.61-3.3-2.23-6.2-3.72-6.09,1.51-.08,4.88.45,9.56,1.09,14.2.02.28.01.53,0,.76,13.53-4.48,27.49-8.8,41.7-13.05-1.14,2.34-2.27,4.68-3.41,7.02-19.37,6.17-38.71,12.53-57.97,19.55,0,0,0,.02,0,.03-2.92,8.43-3.67,16.5.29,21.08,1.84,1.26,4.15,1.78,4.77-.78.15-1.5,1.11-1.95,1.27.45-.09,4.22-2.44,7.05-5.74,7.03-5.33-1.48-5.69-10.64-4.17-19.3-.42-.1,1.06-5.07,2.1-7.97-25.25,9.25-50.35,19.64-75.15,32.26h0ZM175.54,43.67c-.5,1.34-1.01,2.69-1.51,4.03.03,1.16.24,2.24.51,3.4-.11,2.28-.22,4.5-.39,6.71.95,4.51,3.46,8.5,8.51,5.91,1.48-1.44,2.77-3.2,3.33-6.07,2.28,3.09,5.25,6.23,9.31,1.89.73-2.19,1.2-4.53,1.69-6.89-.05-1.83-.57-3.69-1.54-5.43-.73-1.51.36-1.68,1.32-1.85.9-.12.36-.84-.27-1.49-1.2-1.37-2.16-2.61-3.17-4.08-.58-.94-1.45-1.06-1.76.12-.41,1.81-.26,3.19-.81,4.84,1.3,3.3,3.19,6.63,3.61,10.09-1.37,1.92-5.78-.33-6.13-3.63-.42-1.96-.66-4.04-.84-6.06-1.79-5.19-2.16-3.67-2.78-2.68-.57,1.73-.77,3.2-1.35,4.93.78,2.27,1.1,4.57.81,6.92-1.39,6.66-7.36,3.61-6.84-1.86.21-7.67-.02-12.07-1.68-8.8h0ZM143.66,161.69c16.41-7.02,33.03-12.59,49.73-17.63l-4.01,6.23c-16.15,4.24-32.03,9.88-47.61,17.21l1.9-5.81h0ZM109.03,63.22c.88-2,2.01-3.19,1.26.5-.25,1.32-.53,2.94-.57,4.26,3.57,1.61,5.99,4.13,8.32,6.37.63.57.46,7.67-.22,8.52-1.99,1.83-4.16,3.41-6.75,4.43-3.84.35-5.55-1.74-5.45-6.97.12-5.76,1.61-11.44,3.4-17.1h0ZM108.9,73.07c-3.36,7.52,1.83,12.86,7.26,4.98,0,0-7.22-4.98-7.26-4.98h0ZM210.61,133.71c1.12-1.61,1.48-1.79.53,1.4-2.71,7.82-3.41,15.3.27,19.55,1.7,1.16,3.85,1.65,4.42-.72.13-1.39,1.03-1.81,1.18.42-.08,3.91-2.27,6.54-5.32,6.52-4.95-1.37-5.27-9.87-3.87-17.89-.55-.13,2.44-9.38,2.79-9.27h0ZM244.79,24.68c.98-.02,2.69,1.04,4.5,2.84,1.23.44,2.04.8,1.67-1.21-3.37-9.12-6.54-17.26-11.1-25.77-1.38-2.97-2.81,7.01-4.65,10.94.54,1.15,1.08,2.3,1.62,3.44,3.4,37.09,9.27,79.6,8.89,109.69-1.86,9.06,1.38,5.9,3.14,1.81,2.66-10.94,3.33-22.87,2.51-34.8.57,0-5.78-67.07-6.59-66.95h0ZM26.49,47.46c8.24-5.39,18.67-12.55,27.25-20.91-.19-.11-.39-.23-.59-.35-16.61-6.75-38.08-.51-47.34,9.17,3.62,15.26,14.78,23.52,31.78,21.16,11.74-5.24,24.75-11.2,36.66-17.56-1.27,3.65-3.05,7.82-4.49,11.47-18.05,10.45-40.7,20.04-52.25,33.65,16.56,2.75,36.36-.32,54.02-1.24,14.77,2.51,25.92,10.74,24.63,28.06,11.48-7.28,14.41-8.84,11.15.65-1.91,12.84,8.36,20.51,22.51,12.72-4.61-7.7-4.98-15.43-2.57-27.17,1.87-9.22,6.58-13.76,11.98-19.99,6.02-4.47,9.21-1.46,12.4,8.14,2.24,11.55,15.62,13.57,22.86,4.62,5.82-6.67,7.4-8.68,5.43-2.59-2.53,12.27,14.49,10.97,18.74-.86,3.7-5.69,4.38-5.95,3.23-.57-2.7,7.8,11.23,14.28,18.75,5.54-3.18-23.35-6.35-46.69-9.53-70.04-.52-2.58-.85-4.37-1.96-6.75,2.22-3.49,2.49-9.73,4.71-12.64,3.49,6.51,8.56,15.57,11.27,22.28,2.57,9.85-3.1,1.27-5.83.92,3.09,18.11,4.42,31.9,6.73,50.2-.72,12.94-3.99,25.1-9.81,29.42-8.07,3.43-18.12,4.4-20.22-6.85-8.6,15.87-21.96,11.21-21.39-.98-10.96,19.41-27.14,9.15-29.73-4.87-3.09-8.73-13.46-1.15-15.24,10.37.64,7.94,3.99,12.45,7.42,16.74,9.2-7.53,14.56-9.8,21.93-6.49,12.11,6.82,4.59,38.39-6.35,31.51-7.26-2.76-11.21-4.75-17.93-11.83-20.33,16.91-35.47,4.21-32.07-15.64-3.33,2.7-5.1,3.39-8.44,6.09-7.33,27.72-40.98,48.63-66.05,44.81C6.48,160.94-.63,142.98.04,122.94c.29-23.74,9.73-41.27,22.67-53.71-12.29-4.3-15.07-7.84-18.59-14.43-7.77-14.99-1.43-28.98,11.21-36.06-.74-2.22-1.8-4.38-3.9-7.09-.71-1.21-1.87-1.41-2.49.7-1.64-1.68-3.59-3.16-5.47-4.19-.34-4.72,2.54-5.21,6.74-1.85,2.64,2.3,4.67,5.2,6.11,8.86.33-4.68,1.04-8.07,2.2-9.6,2.2-3.47,6.08-.85,5.88,1.88-.52,1.13-.53.81-1.02,1.89-2.26-2.11-4.3-3.6-4.84.42-.46,2.62-.67,5.2-.79,7.76.94-.43,1.9-.83,2.89-1.19,13.92-2.98,25.52.03,32.38,6.84.73.78,1.41,1.49,2.01,2.12,2.48-2.5,4.78-5.11,6.8-7.81-3.84-1.55-6.64-2.23-8.77-4.02-1.43-1.27-2.73-3.18-1.5-5.26.81-1.82,2.45-4.37,5.02-4.99,4.31-1.76,8.44,6.67,7.24,10.23l1.03.88c.68.26-.12,3.29-1,4.11-.48-.33-.15-.16-.88-.47-1.32,3.24-3.43,6.39-6.03,9.36,1.2,1.34,1.24,1.67-.61.69-8.35,9.19-21.25,16.66-29.7,20.28-2.14.99-3.03.8-.12-.82h0ZM53.75,8.87c1.28-1.91,4.46-2.37,5.46-.77.85,1.27,1.6,2.58,2.45,3.86.23,1.64-7.93-2.43-7.91-3.09h0ZM94.31,159.01l8.83-9.83,8.76,8.12,7.98-8.97,9.11,9.05-7.91,9.61-8.69-7.9-7.98,9.19-10.11-9.26h0ZM171.83,137.35c-3.68,1.77-1.42,2.01.23,1.8,8.69-1.97,16.54-5.21,23.53-11.53,5.43-4,8.72-4.59,10.73-4.13,3.43,3.51,6.53,2.93,10.43-.84.68-.62,1.25-.55,1.75-.15,5.65,1.19,8.74-.25,9.33-3.72-.27-4.22-1.39-6.15-2.69-4.64-1,1.6-1.51,3.1-.97,4.4-3.02.49-5.21.38-4.51-1.85.14-2.43-.84-1.91-1.64-.25-1.5,2.99-3.38,6.1-7.6,4.71-2.46-1.88-3.99-2.33-6.32-1.86-10.36,4.71-18.29,14.12-32.26,18.07h0ZM93.99,16.6c-1.65,1.18-1.66.44-1.46-.55.8-3.19,2.88-7.89,3.5-8.89,5.55-2.22,9.96-1.57,17.12-1.81,2.55.22,6.32.04,5.2,2.78-3.22,7.51-7.67,13.72-15.84,16.16-8.05,2.76-15.39,3.73-15.08,3.45,8.33-5.13,16.63-8.34,23.26-13.84-2.39-.5-8.82-.6-12.93.25-.49-.38-4.22,2.08-3.77,2.44h0ZM16.08,85.7c6.74,4.15,11.24,9.02,17.17,12.26-5.25,13.28-8.15,25.04,4.17,37.3,12.47,9.34,36.33-.5,52.34-9.62,1.77,2.2-13.34,15.14-24.45,21.83-15.62,7.2-28.26,11.2-44.07,3.68-10.58-5.84-17.18-20.26-18.16-33.76,1.34-17.27,8.19-27.39,13.01-31.68h0ZM34.67,98.26c13.34.8,25.24-3.32,35.46-2.16,9.51,1.52,18.41,5.07,22.65,17.97-13.1,5.79-28.48,15.66-45.53,11.14-11.51-1.55-15.45-11.03-12.58-26.96h0ZM144.72,126.26c1.32-.41,2.47-1.9,3.87-1.9,3.29,0,4.86-.5,7.74.91,2.22,1.07,2.14,2.39,3.79,4.05,1.07,1.07.08,2.64-1.32,2.64-2.8,0-5.35-1.57-7.58-2.64-1.07-.5-6.34-2.06-6.51-3.06h0Z"/>
  </g>
</svg>