<?xml version="1.0" encoding="UTF-8"?>
<svg id="Layer_2" data-name="Layer 2" xmlns="http://www.w3.org/2000/svg" viewBox="0 0 240.69 158.05">
  <defs>
    <style>
      .cls-1 {
        fill: #ffb000;
        fill-rule: evenodd;
      }
    </style>
  </defs>
  <g id="Layer_4" data-name="Layer 4">
    <path id="_29._Al-_Adl" data-name="29. Al-’Adl" class="cls-1" d="M118.27,76.61l1.27-7.27c24.54-15.45,50.3-28.09,76.3-40.15l-2.36,7.09c-14.92,6.43-29.19,13.33-42.65,20.82l-32.56,19.51h0ZM149.31,57.95c-10.58,5.95-20.65,12.27-30.13,19.02l30.13-19.02h0ZM6.99,84.74c-9.38,18.13-10.9,42.72,5.38,55.18,12.2,7.56,26.57,4.93,37.76.8,4.37,16,13.84,15.14,26.88,9.83,17.5-11.3,36.09-25.48,38.05-42.28,3.97,18.84,4.14,31.18,22.68,34.5,9.04.63,19.3-6.1,25.79-11.83,9.25,13.84,21.49,16.15,41.24,3.99,4.35-9.21,9.32-20.33,8.73-40.34-2.72-23.07-3.92-40.18-6.63-63.25.14-4.76,1.55-5.26,3.82-2.32,2.75,3.68,5.1,4.36,2.47-3.52C208.38,15.16,203.99-.05,200.94.29c-1.99,3.32-2.85,6.44-4.02,9.75,1.42,4.37,1.91,6.95,1.76,11.82,3.19,33.96,6.64,68.77,9.04,101.93-15.25,8.6-30.18,11.34-35.7,1.75,5.11-4.9,14.86-11.76,25.14-13.1.6-3.92,3.53-7.46,4.13-11.38-20.78-7.17-55.5-9.51-65.67-3.04-1.39,3.92-2.55,6.99-2.7,10.91-.85,1.82,4.9-1.8,9.49-.06,7.29,5.23,9.92,7.74,14.72,14.45-13.08,11.4-30.45,9.76-34.15-8.54-4.06-24.63-8.86-50.18-22.95-70.56-1.96,3.92-1.26,10.6-2.09,12.96,8.1,16.19,13.5,36.8,15.27,47.51-5.42,9.26-16.52,20.52-30.32,30.3-10.62,7.57-21.58,8.31-26.25,3.56,8.8-5.01,22.31-12.59,29.47-19.06,6.46-7.65,9.9-21.69,9.23-36.09-2.41-19-6.63-37.56-9.04-56.57,2.56.6,9.95,9.07,6.63,1.81-4.37-9.2-7.68-18.62-12.05-27.81-2.34-3.47-2.93,4.83-4.59,10.56.9,2.56,1.47,4.45,1.59,8.37,4.22,26.99,6.25,39.52,10.48,66.52,1.1,6.68,1.84,13.25,1.77,19.6-10.48,8.08-25.21,18.14-36.61,21.92-.67-6.86,2.53-15.59,6.08-21.43,4.81-6.75,1.56-6.96-1.51-2.04-5.19,8.8-7.74,16.92-8.21,25.04-11.14,3.91-27.55,4.82-35.88-1.97-12.62-10.88-11.58-26.07-5.2-40.91.85.62,1.81,1.1,2.88,1.4,5.86.04,10.04-5,10.2-12.49-.29-4.26-2-3.47-2.26-.8-1.09,4.54-5.2,3.61-8.46,1.39-7.03-8.14-5.69-22.47-.51-37.45,1.81-6.11,1.13-5.77-1.02-2.69-.69-.21-6.41,17.51-5.35,17.76-2.15,12.28-2.18,25.13,2.72,31.15h0ZM163.34,142.6c.49-.82.93-1.67,1.42-2.48-1.77-1.22-3.63-.27-5.62,1.83-1.5,2.01-1.99,3.77.14,5.11.85.34,1.57.36,2.8.33,1.38-.33-1.07,1.78-3.27,4.1-3.42,4.41-1.42,6.1,3.05,6.55,2.96-.19,5.39-.68,7.62-2.14,1.44-1.27,2.81-3.54,1.82-3.24-3.6,1.66-6.45,1.85-9.26,1.74-1-.25-3.78-.73-.91-3.35,1.22-1.34,2.46-2.58,3.68-3.93,1.09-1.87,1.21-3.15-.83-3.13-4.43.37-4.13-2.9-.64-1.4h0ZM113.29,138.55c.77-1.11,1.02-1.23.36.97-1.86,5.38-2.34,10.52.19,13.45,1.17.8,2.65,1.13,3.04-.5.09-.96.71-1.24.81.29-.05,2.69-1.56,4.5-3.66,4.49-3.41-.95-3.63-6.79-2.66-12.31-.38-.09,1.68-6.45,1.92-6.38h0ZM217.79,137c.77-1.11,1.02-1.23.36.97-1.86,5.38-2.34,10.52.19,13.45,1.17.8,2.65,1.13,3.04-.5.09-.96.7-1.24.81.29-.05,2.69-1.56,4.5-3.66,4.49-3.4-.94-3.63-6.79-2.66-12.31-.38-.09,1.68-6.45,1.92-6.38h0ZM136.42,19.71c1.14-1.64,1.51-1.83.54,1.44-2.77,8.01-3.48,15.66.28,20.02,1.74,1.19,3.94,1.68,4.52-.74.14-1.42,1.05-1.85,1.21.43-.08,4.01-2.32,6.69-5.45,6.68-5.07-1.41-5.4-10.1-3.96-18.32-.57-.13,2.5-9.6,2.86-9.49h0ZM150.2,55.96c1.11-1.59,1.49-1.82.63,1.14-.03.1-.06.2-.09.3-2.77,8.01-3.48,15.66.28,20.02,1.74,1.19,3.94,1.68,4.52-.74.14-1.42,1.05-1.85,1.21.43-.08,4.01-2.32,6.69-5.45,6.68-5.07-1.41-5.4-10.1-3.96-18.32-.39-.1.98-4.75,1.97-7.5.43-1.19.78-2.02.89-1.99h0ZM108.99,12.69c-1.79,1.28-1.8.48-1.59-.6.87-3.46,3.13-8.56,3.8-9.65,6.02-2.41,10.81-1.71,18.58-1.97,2.77.23,6.86.05,5.65,3.01-3.5,8.16-8.33,14.9-17.2,17.55-8.74,3-16.7,4.05-16.37,3.75,9.04-5.57,18.06-9.06,25.26-15.02-2.59-.54-9.58-.65-14.04.28-.53-.42-4.58,2.26-4.09,2.65h0ZM145.78,6.69c2.69,1.49,5.49,3.6,7.83,6.01.88-3.02,2.55-2.73,3.56-1,4.39,5.66,5.6,9.62,6.85,14.65.71,1.4,1.78.96,2.05-1.62.12-5.2.35-10.42,1.28-15.76.78-5.76,3.7-3.62,6.93-.6.7-1.54.72-1.08,1.46-2.71.28-3.9-5.26-7.65-8.42-2.68-1.67,2.19-2.67,7.05-3.15,13.75-2.05-5.23-4.96-9.39-8.75-12.69-6.01-4.81-10.14-4.11-9.65,2.65h0ZM180.66,58.76c.82-1.88,1.89-2.99,1.19.47-.24,1.25-.5,2.76-.53,4,3.35,1.51,5.63,3.88,7.82,5.98.59.54.43,7.2-.21,8-1.87,1.72-3.9,3.2-6.34,4.16-3.61.33-5.21-1.64-5.11-6.54.11-5.41,1.51-10.74,3.19-16.06h0ZM180.54,68.02c-3.16,7.06,1.72,12.08,6.82,4.68,0,0-6.78-4.68-6.82-4.68h0ZM233.9,27.36c1.08-.02,2.92,1.14,4.84,3.12,1.34.48,2.22.88,1.88-1.33-3.37-10.02-6.57-18.97-11.28-28.32-1.41-3.27-3.33,7.7-5.5,12.02.55,1.26,1.1,2.52,1.65,3.78,2.42,40.75,7.35,87.45,5.87,120.52-2.37,9.96,1.3,6.49,3.39,1.98,3.31-12.02,4.47-25.13,4-38.23.63,0-3.97-73.69-4.85-73.56h0ZM19.87,54.92c13.44-8.79,31.68-21.46,42.81-36.33-4.66-1.88-8.05-2.71-10.63-4.87-1.73-1.54-3.31-3.85-1.82-6.37.98-2.21,2.97-5.29,6.08-6.05,5.22-2.14,10.23,8.09,8.76,12.39l1.26,1.07c.82.32-.14,3.99-1.22,4.97-.58-.4-.18-.19-1.07-.56-6.72,16.51-30.26,30.84-44.03,36.74-2.59,1.19-3.67.97-.14-.99h0ZM52.89,8.17c1.55-2.31,5.4-2.87,6.62-.93,1.03,1.54,1.94,3.13,2.97,4.67.29,1.99-9.6-2.94-9.59-3.74h0ZM29.11,94.41c-2.56,6.21-2.88,11.54-1.66,16.27,3.32,5.87,6.41,2.54,9.55,1.05,1.63-2.24,1.79-5.44,2.1-9-2.42-3.92-6.89-5.44-9.99-8.32h0ZM28.91,100.72c.1,1.83.1,3.61.2,5.44,3.38,4.3,5.87,2.43,7.51.05.61-.15-6.8-5.65-7.71-5.49h0ZM10.45,14.98c-1.79,1.28-1.8.48-1.59-.6.87-3.46,3.13-8.56,3.8-9.65,6.02-2.41,10.81-1.71,18.58-1.97,2.77.23,6.86.05,5.65,3.01-3.5,8.16-8.33,14.9-17.2,17.55-8.74,3-16.7,4.05-16.37,3.75,9.04-5.57,18.06-9.06,25.26-15.02-2.59-.54-9.58-.65-14.03.28-.53-.42-4.58,2.26-4.09,2.65h0ZM34.63,66.27c2.69,1.49,5.49,3.6,7.83,6.01.88-3.02,2.55-2.73,3.56-1,4.39,5.66,5.6,9.62,6.85,14.65.71,1.4,1.77.96,2.05-1.62.11-5.2.35-10.42,1.28-15.76.78-5.76,3.7-3.62,6.93-.6.7-1.54.72-1.08,1.46-2.71.28-3.9-5.27-7.65-8.42-2.68-1.67,2.19-2.68,7.05-3.15,13.75-2.05-5.24-4.96-9.39-8.75-12.69-6.01-4.81-10.14-4.11-9.65,2.65h0ZM165.51,117.38c-3.26-3.65-6.44-7.47-9.49-11.54,7.91-.35,15.45.97,22.93,2.53-4.15,3.45-8.67,6.41-13.44,9.01h0Z"/>
  </g>
</svg>