<?xml version="1.0" encoding="UTF-8"?>
<svg id="Layer_2" data-name="Layer 2" xmlns="http://www.w3.org/2000/svg" viewBox="0 0 249.18 169.03">
  <defs>
    <style>
      .cls-1 {
        fill: #ffb000;
        fill-rule: evenodd;
      }
    </style>
  </defs>
  <g id="Layer_4" data-name="Layer 4">
    <path id="_37._Al-Kabiir" data-name="37. Al-Kabiir" class="cls-1" d="M7.84,119.25c-7.69,12.65-10.4,26.19-5.04,37.11,6.2,8,12.32,11.17,22.28,3.69,10.15-9.07,16.85-18.31,27-27.38,19.49-14.94,33.49-11.61,38.28-3.88,4.77,7.83,10.94,17.22,27.47,7.8,2.49-3.22,10.77-11.45,12-15.3.3,6.37,1.64,11.52,6.13,15.38,8.47,5.67,15.62,2.33,22-4.14,6-9.21,6.23-22.18-3.25-33.89,9.23,8.61,19.4,19.73,28.62,28.19,5.51,4.36,10.29,6.3,15.06,5.8-1.04,2.71-1.81,5.1-1.49,5.18-2.98,11.38-3.57,23.41,3.28,25.36,4.33.02,7.75-3.7,8.35-9.24.06-3.15-1.26-2.57-1.62-.59-1.1,3.36-4.08,2.67-6.35,1.03-3.88-4.99-3.23-13.14-.16-22.09,4.15-1.03,8.38-3.89,13.17-8.6,3.11-6.28,6.38-17.58,6.67-26.37-2.15-22.15-2.74-47.43-4.89-69.58l2.9,2.34c2.34,1.3,3.85,2.59,1.99-3.67-3.23-6.77-7.09-15.42-10.32-22.18-2.15,2.61-3.68,9.31-3.32,13.64,1.08,2.46.74,4.3,1.03,8.01,2.31,31.84,4.47,56.46,6.47,88.3-2.81,1.47-6.92,6-11.4,6.22-7.54,1.94-11.05,0-14.83-4.01-28.53-26.15-55.66-50.38-86.7-71.52,24.61-13.84,51.57-25.48,74.61-30.95,10.32-3.05,18.14.48,8.08,10.45-4.05,4.94-11.28,11.91-15.74,15.59-6.76,5.46-4.12,6.54.88,2.44,7.07-7.38,13.68-13.35,20.75-20.74,11.97-17.28,2.94-20.14-7.36-18.92-27.28,7.1-54.82,16.33-83.36,33.05-5.62,3.97-4.82,15.46-2.92,17.39,23.82,21.7,50.36,42.23,62.11,68.12-3.11,3.9-11.64,9.36-18.62,5.26-4.49-1.38-7.34-7.69-7.23-11.15,1.23-10.21,1.11-7.98-3.51-1.46-4.26,6.97-9.16,13.25-18.46,14.77-9.76.79-12.76-2.88-18.02-11.7-9.03-9.85-23.09-5.58-41.06,5.11-10.15,10.92-13.72,13.53-22.3,24.14-11.36,11.43-18.77,14.6-24.27,7.22-5.58-9.48-1.19-22.68,5.34-34.15,4.69-.85,8.24-5.31,8.92-11.62.08-4.01-1.6-3.27-2.06-.75-1.4,4.28-5.2,3.41-8.09,1.31-5.96-7.68-3.52-21.18,2.59-35.3,2.21-5.76,1.53-5.44-.74-2.54-.63-.19-7.48,16.5-6.51,16.74-3.72,14.18-4.51,29.15,3.61,32.13h0ZM242.79,30.69c1.02-.02,2.75,1.08,4.53,2.96,1.26.46,2.09.83,1.8-1.26-3.03-9.49-5.91-17.96-10.22-26.82-1.29-3.09-3.28,7.29-5.4,11.38.5,1.19,1,2.39,1.51,3.58,1.63,38.59,5.53,82.82,3.59,114.14-2.4,9.43,1.13,6.14,3.18,1.88,3.33-11.39,4.65-23.8,4.41-36.21.6,0-2.55-69.79-3.4-69.66h0ZM93.64,27.43c.72-1.72,1.44-3.43,2.17-5.15,13.69-8,29.13-14.54,44.99-20.73-.77,1.53-1.53,3.07-2.3,4.61-15.1,5.3-30.12,11.64-44.85,21.28h0ZM104.59,76.78c1.04-1.33,1.35-1.48.34,1.16-2.81,6.48-3.93,12.68-1.19,16.21,1.33.96,3.07,1.37,3.71-.6.21-1.15.98-1.5.95.35-.35,3.24-2.35,5.42-4.88,5.41-4-1.14-3.66-8.18-1.92-14.83-.45-.11,2.7-7.78,2.99-7.69h0ZM174.53,78.58c-1.49,1.06-1.49.4-1.32-.5.72-2.87,2.6-7.11,3.15-8.01,4.99-2,8.97-1.42,15.42-1.63,2.3.19,5.69.04,4.68,2.5-2.9,6.77-6.91,12.36-14.27,14.56-7.25,2.49-13.86,3.36-13.58,3.11,7.5-4.62,14.98-7.51,20.95-12.47-2.15-.45-7.94-.54-11.64.23-.44-.35-3.8,1.88-3.4,2.2h0ZM159.22,51.12c2.57.88,5.34,2.29,7.75,4.02.3-2.77,1.8-2.77,2.95-1.42,4.7,4.25,6.36,7.52,8.23,11.7.83,1.11,1.69.56,1.54-1.73-.7-4.55-1.31-9.13-1.32-13.92-.21-5.13,2.67-3.72,5.95-1.6.37-1.45.46-1.05.85-2.58-.36-3.44-5.77-5.86-7.75-1.04-1.11,2.16-1.24,6.55-.62,12.46-2.6-4.24-5.77-7.41-9.58-9.7-5.98-3.26-9.47-2.01-8,3.8h0ZM13,4.97c.83-1.89,1.9-3.01,1.19.47-.24,1.25-.5,2.78-.54,4.02,3.38,1.52,5.67,3.9,7.87,6.02.6.54.44,7.25-.21,8.05-1.89,1.73-3.93,3.22-6.38,4.19-3.63.33-5.25-1.65-5.15-6.58.12-5.45,1.52-10.81,3.21-16.16h0ZM12.88,14.29c-3.18,7.11,1.73,12.15,6.86,4.71,0,0-6.82-4.71-6.86-4.71h0ZM59.32,157.48l8.51-9.47,8.45,7.83,7.69-8.65,8.79,8.72-7.62,9.27-8.38-7.62-7.69,8.86-9.75-8.93h0ZM111.48,157.49l6.66-11.71,12.63,7.92-6.43,11.02c-3.78-3.25-7.85-6.01-12.86-7.24h0ZM154.15,141.23l-2.09,3.07c3.43,5.97,3.15,13.77-.49,23.22-.71,1.81.07,1.99.92.5,6.18-11.17,5.7-19.95,1.66-26.8h0ZM66.74,7.01c2.38,1.32,4.85,3.19,6.93,5.31.78-2.67,2.25-2.41,3.15-.89,3.88,5.01,4.95,8.51,6.06,12.96.63,1.24,1.57.85,1.81-1.43.1-4.6.31-9.22,1.13-13.94.69-5.09,3.28-3.2,6.14-.53.62-1.37.63-.96,1.29-2.4.25-3.45-4.65-6.77-7.44-2.37-1.47,1.94-2.37,6.23-2.79,12.16-1.82-4.63-4.39-8.31-7.74-11.22-5.32-4.26-8.97-3.64-8.54,2.34h0ZM53.61,24.37c1.45-1.85,1.88-2.05.47,1.61-3.89,8.98-5.44,17.57-1.65,22.45,1.84,1.33,4.26,1.89,5.15-.83.29-1.6,1.36-2.07,1.31.48-.48,4.49-3.26,7.51-6.76,7.49-5.54-1.58-5.07-11.33-2.66-20.55-.62-.15,3.74-10.77,4.14-10.65h0ZM3.41,57.21c14.27-9.33,33.61-22.77,45.42-38.55-4.94-2-8.54-2.87-11.28-5.17-1.84-1.63-3.51-4.09-1.94-6.76,1.04-2.35,3.16-5.61,6.46-6.42,5.54-2.27,10.85,8.58,9.3,13.15l1.33,1.14c.87.34-.15,4.23-1.29,5.28-.62-.43-.19-.2-1.14-.6C43.15,36.8,18.17,52,3.56,58.26c-2.74,1.27-3.89,1.03-.15-1.06h0ZM38.44,7.6c1.64-2.45,5.73-3.05,7.02-.99,1.09,1.63,2.06,3.32,3.15,4.96.3,2.11-10.19-3.12-10.17-3.96h0ZM51.48,90.93c-1.58,1.13-1.58.43-1.4-.53.77-3.05,2.76-7.54,3.35-8.5,5.3-2.12,9.52-1.5,16.37-1.73,2.44.21,6.04.04,4.97,2.66-3.08,7.18-7.34,13.12-15.15,15.46-7.7,2.64-14.72,3.57-14.42,3.3,7.97-4.9,15.91-7.98,22.25-13.24-2.28-.48-8.44-.57-12.36.24-.46-.37-4.03,1.99-3.61,2.34h0ZM29.16,59.48c.63-1.44,1.45-2.3.91.36-.18.96-.38,2.12-.41,3.07,2.58,1.16,4.33,2.98,6.01,4.6.45.41.33,5.54-.16,6.15-1.44,1.32-3,2.46-4.88,3.2-2.77.25-4.01-1.26-3.93-5.03.09-4.16,1.16-8.26,2.46-12.35h0ZM29.06,66.6c-2.43,5.43,1.32,9.29,5.24,3.6,0,0-5.22-3.6-5.24-3.6h0ZM106.95,43.64c-3.33-.62-2.73.42,3.64,3.87,8.4,2.74,17.04,5.35,25.32,7.39,5.9,1.09,6.76-2.03,2.7-5.75-4.81-1.76-8.09-3.16-12.9-4.92-4.27-2.31-5.26-3.78.94-3.4.82.12,1.64.23,2.46.35.66-.51,1-1.1,1.67-1.6-2.58.12-4.87.11-7.41.43-4.22.61-5.46,2.02-2.34,4.57,3.31,1.9,6.66,3.41,10.08,4.34,8.92,3.13,8.28,5.19,3.85,4.12-9.53-3.32-18.62-5.83-28-9.4h0Z"/>
  </g>
</svg>