<?xml version="1.0" encoding="UTF-8"?>
<svg id="Layer_2" data-name="Layer 2" xmlns="http://www.w3.org/2000/svg" viewBox="0 0 259.8 175.9">
  <defs>
    <style>
      .cls-1 {
        fill: #ffb000;
        fill-rule: evenodd;
      }
    </style>
  </defs>
  <g id="Layer_4" data-name="Layer 4">
    <path id="_70._Al-Muqtadir" data-name="70. Al-Muqtadir" class="cls-1" d="M2.37,127.68c-2.62,1.12-3.79-.81.33-2.31,28.1-7.88,54.21-21.64,76.33-35.89-.94-7.31-6.65-17.26-5.7-20-.59-4.15,1.1-6.21.51-10.36,4.75.75,10.49,15.61,14.05,23.61,6.44-3.85,8.2-7.58,13.21-11.43-2.21-11.33-11.99-22.92-17.92-34.78-1.37-3.02-3.66-5.51-5.29-7.73-.44-4,1.1-7.61,1.32-11.34,6.53,4.05,11.48,9.6,17.3,15.43,3.59,3.66,3.3,4.58-.89,3.29-3.25-1.2-4.1.51-1.12,4.09,2.52,4.15,4.91,6.84,7.43,10.99,3.9,7.26,4.07,17.34,1.25,27.43-3.71,5.48-7.54,10.31-13.11,14.2,3.15,13.6,5.3,24.93,5.23,37.46.58,15.02,7.64,18.42,15.48,21,7.61,0,15.79-6.85,23.43-15.12,3.24-3.98,4.97-3.81,3.38,3.5.51,8.1,8.93,12.49,21.05,6.6-2.98-9-3.32-11.55-1.09-18.52,3.12-10.94,5.08-13.3,9.34-16.53,14.94-7.38,20.37,6.99,17.63,19.08-3.63,13.29-4.51,13.34-10.9,19.24,9.8,7.07,24.48-1.02,35.98-13.7-1.31-7.45-1.71-16.94-1.74-26.98-.3-28.61-1.21-57.21-1.8-86.01-.5-3.11-1.42-5.25-3.03-8.36,1.71-4.4,1.63-6.73,3.56-9.99,3.22-1.64,9.98,15.99,13.28,25.29,1.49,5.76,2.26,6.9-1.31,3.81-1.86-6.78-5.01-3.2-4.08.13-.59,24.31,1.77,44.17,1.48,68.58.59,9.19-.22,20.96,2.24,28.6,10.27-7.32,18.95-7.7,24.47,6.07,4.24,8.82-2.56,22.42-6.95,24.68-9.56.96-18.04-5.15-23.4-15.66-18.56,16.55-37.48,26.79-48.28,9.61-17.18,8.8-29.81,9.58-30.69-8.48-10.69,13.94-27.8,25.41-37.34,8.82-4.67-6.97-6.49-16.93-7.26-28.51-.47-.49-.83,1.05-.95,1.81.34,7.38-8.21,19.05-20.18,27.11-16.35,13.39-34.99,20.28-42.36,4.69-4.77-12.79-1.36-23.93,5.15-37.18-9.17,1.45-18.4,2.63-28.06,3.75h0ZM102.58,99.43c.5-2.05,1-4.1,1.5-6.15,30.77-16.61,62.39-28.56,93.98-40.69-.95,1.8-1.9,3.6-2.85,5.4-31.16,12.11-62.28,24.48-92.63,41.44h0ZM65.91,175.9l2.64-5.49,22.14-15.7-2.01,6.35-22.77,14.84h0ZM4.94,56.21c18.28-5.79,43.06-14.65,58.19-29.75-6.33-4.69-10.94-7.37-14.45-11.5-2.36-2.88-4.5-6.75-2.48-9.5C47.54,2.91,50.25-.36,54.48.03c7.1-.51,13.9,15.68,11.91,20.87l1.71,2.03c1.11.81-.19,5.36-1.65,6.21-.79-.81-.25-.34-1.46-1.26-9.14,19.36-41.13,28.05-59.85,29.75-3.51.44-4.99-.36-.2-1.42h0ZM49.82,7.8c2.11-2.42,7.34-1.42,8.99,1.77,1.4,2.56,2.64,5.15,4.04,7.71.39,2.83-13.05-8.4-13.03-9.48h0ZM153.81,93.98l8.9-9.91,8.83,8.18,8.04-9.04,9.19,9.12-7.97,9.69-8.76-7.97-8.04,9.26-10.19-9.33h0ZM20.84,7.78c.78-1.78,1.8-2.85,1.13.44-.23,1.18-.47,2.62-.5,3.8,3.19,1.44,5.35,3.68,7.43,5.68.56.51.41,6.85-.2,7.61-1.78,1.63-3.71,3.04-6.03,3.95-3.43.31-4.96-1.56-4.86-6.22.11-5.14,1.43-10.21,3.04-15.27h0ZM20.73,16.58c-3,6.72,1.64,11.48,6.48,4.45,0,0-6.45-4.45-6.48-4.45h0ZM38.86,56.75c2.29-2.82,2.95-3.13.65,2.46-6.32,13.71-9.05,26.83-3.47,34.28,2.75,2.04,6.41,2.89,7.89-1.27.51-2.44,2.16-3.17,1.98.73-.93,6.86-5.29,11.47-10.65,11.43-8.4-2.41-7.26-17.3-3.18-31.38-.94-.23,6.16-16.45,6.77-16.26h0ZM252.29,34.45c1.19-.03,3.23,1.26,5.35,3.45,1.48.53,2.45.97,2.08-1.47-3.73-11.08-7.27-20.98-12.48-31.33-1.57-3.61-3.68,8.52-6.08,13.29.61,1.4,1.22,2.79,1.83,4.19,2.68,45.07,8.13,96.75,6.49,133.33-2.62,11.02,1.44,7.18,3.75,2.2,3.66-13.3,4.95-27.8,4.42-42.29.7,0-4.39-81.52-5.37-81.37h0ZM128.15,58.11c16.59-7.38,39.09-18.3,52.82-33.76-5.75-3.52-9.93-5.42-13.11-8.76-2.14-2.34-4.08-5.61-2.25-8.33,1.21-2.47,3.67-5.76,7.51-5.89,6.44-1.29,12.62,12.62,10.81,17.56l1.55,1.64c1.01.6-.18,4.88-1.5,5.82-.72-.65-.22-.28-1.32-.97-8.29,18.64-37.34,30.24-54.33,33.96-3.19.81-4.53.25-.18-1.26h0ZM168.9,8.95c1.91-2.45,6.67-2.15,8.16.56,1.27,2.16,2.4,4.37,3.67,6.53.35,2.53-11.85-6.1-11.83-7.09h0ZM111.55,110.13l8.9-9.9,8.83,8.18,8.04-9.04,9.19,9.12-7.97,9.69-8.76-7.97-8.04,9.26-10.19-9.33h0ZM118.78,16.59c-1.76,1.26-1.76.47-1.56-.59.85-3.39,3.07-8.4,3.73-9.47,5.91-2.36,10.61-1.68,18.24-1.93,2.72.23,6.73.05,5.54,2.96-3.43,8-8.18,14.62-16.88,17.22-8.58,2.94-16.39,3.98-16.07,3.68,8.88-5.46,17.72-8.89,24.79-14.75-2.54-.53-9.4-.64-13.77.27-.52-.41-4.5,2.22-4.02,2.6h0ZM222.42,140.11c3.99-2.75,10.86-1.68,14.49,9.46-11.52-3.57-12.04-6.22-14.49-9.46h0ZM166.83,142.53c4.46-2.92,8.91-5.83,13.37-8.75-2.96-10.86-7.32-16.56-14.74-10.91-7.7,5.16-3.36,12.38,1.37,19.65h0ZM32.73,123.33c18.82-2.06,33.78-14.28,49.52-24.43,2.07,9.82,4.91,19.83,3.91,28.88-7.15,8.77-15.87,17.23-30.23,24.56-9.53,3.28-24.99,11.27-28.47-6.61-1.08-6.46,1.3-14.15,5.26-22.4h0Z"/>
  </g>
</svg>