<?xml version="1.0" encoding="UTF-8"?>
<svg id="Layer_2" data-name="Layer 2" xmlns="http://www.w3.org/2000/svg" viewBox="0 0 259.8 175.27">
  <defs>
    <style>
      .cls-1 {
        fill: #ffb000;
        fill-rule: evenodd;
      }
    </style>
  </defs>
  <g id="Layer_4" data-name="Layer 4">
    <path id="_76._Al-Baathin" data-name="76. Al-Baathin" class="cls-1" d="M221.44,7.24c4.89,7.7,10.28,16.03,13.21,24.96-1.93-.93-1.39-.85-3.33-1.78-.75-1.38-3.71-1.88-3.73.9,2.7,32.1,4.99,64.39,7.19,96.73-.52,13.23-3.64,22.61-8.07,30.96-9.83,5.09-17.15,6.85-22.84,2.41-3.2-2.53-6.01-7.59-5.97-13.35-.7-.77-.85-1.19-1.55-1.97-24.12,15.74-54.25,21.26-86.61,23.26-14.99,1.17-27.35.51-43.86-4.65-1.34-1.01-3.44-1.5-5.31-1.63-10.9,3.74-20.1,5.01-28.18,4.61-13.58-1.88-24.7-7.25-28.89-22.47-3.77-15.07-2.35-28.83,3.07-41.03-7.12-2.29-7.57-14.81-5.5-26.65-.82-.2,3.64-14.02,4.18-13.86,1.67-2.4,2.21-2.67.79,2.1-4.04,11.69-5.09,22.86.4,29.21,2.54,1.74,5.75,2.46,6.6-1.08.2-2.08,1.53-2.7,1.76.62-.12,5.85-3.38,9.77-7.95,9.74-.01,0-.02,0-.04-.01-5.5,17.64-3.85,29.56,1.4,38.73,8.49,12.08,21.24,15.59,37.44,13.01,1.95-.69,2.1-1.78.3-3.41-11.57-12.29-11.49-34.59-11.6-57.02.06-7.81.02-15.63-.17-23.44-2.35,1.01-4.58,1.92-6.66,2.7-3.55,1.44-5.04,1.17-.2-1.2,2.18-1.25,4.46-2.57,6.79-3.95-.33-11.86-.99-23.72-2.09-35.57-1.26-7.3-2.72-12.89-4.49-18.63,1.16-2.71,2.21-5.52,3.37-8.23,7.02,17.39,8.74,37.09,8.89,59.03,16.17-9.85,34.27-22.33,46.31-36.46-6.39-2.27-11.05-3.26-14.59-5.88-2.38-1.85-4.54-4.64-2.5-7.68,1.35-2.67,4.08-6.38,8.35-7.3,7.17-2.58,14.05,9.75,12.03,14.94l1.72,1.29c1.12.39-.2,4.81-1.67,6-.8-.49-.25-.23-1.47-.68-7.43,16.04-29.85,30.38-48.17,39.06,0,7.99-.18,16.27-.36,24.84-1.49,23.21,1.75,42.96,18.09,53.12,3.25,1.01,7.32,2.68,10.24,3.35,13.91-3.99,28.33-13.92,39.14-22.77-.08-5.72-.98-10.28-3.22-14.68-3.05-8.04-6.48-15.35-9.97-22.5.54-3.63,1.08-7.27,1.62-10.9,5.02,13.39,13.19,22.63,26.01,23.73,4.91-5.95,6.42-13.67,6.46-20.95-1.16-22.42-2.32-44.85-3.48-67.27-1-2.09-2.01-4.17-3.02-6.26,1.55-3.09,3.09-6.19,4.64-9.28,4.02,9.74,8.04,19.48,12.06,29.23-1.55-1.47-3.09-2.94-4.64-4.41-1.98.27-3.65.97-3.25,4.64.46,16.08,1.76,32,2.22,48.08-.75,6.54.15,7.33,3.38,2.02,10.01-13.89,20.34-21.02,31.68-20.75,11.34,1.57,19.88,7.22,22.8,20.75-.27,10.02-5.85,18.45-9.97,20.88-1.43,5.13-34.29,16.03-35.66,14.35-1.09,1.87-27.06,1.01-30.85-1.36-3.59-2.78-4.38-1.25-3.54,1.86-.05,9.23-.58,17.4-5.07,24.85-6.33,4.93-13.73,9.79-20.94,13.39-3.03,1.96-4.53,3.55,1.97,4,16.94,2.45,35.44,1.83,55.13-1.65,18.97-4.15,36.54-9.18,51.85-16.99,2.78-1.24,6-3.1,8.79-4.34-1.21,4.79-1.09,9.64,2.09,13.45,5.91,7.18,18.19,4.69,25.94.26,1.16-4.95-.43-7.33.18-12.1-3.56-37.83-6.9-75.76-9.22-113.34-.93-2.4-1.67-2.6-2.6-4.99,0,0,3.34-10.6,3.11-10.6h0ZM116,146.42l1.47-4.24,80.36-27.87-2.12,4.4-79.71,27.71h0ZM89.95,40.77c1.03-1.47,1.35-1.64.49,1.29-2.48,7.17-3.12,14.02.24,17.91,1.56,1.07,3.53,1.51,4.05-.66.12-1.27.94-1.65,1.08.38-.07,3.59-2.08,5.99-4.88,5.97-4.53-1.26-4.83-9.04-3.54-16.39-.5-.12,2.23-8.6,2.56-8.5h0ZM181.05,167.08l8.11-9.12,8.69,8.38-7.99,8.93c-2.39-3.28-4.91-6.55-8.81-8.19h0ZM253.83,32.8c.83-1.26,1.8-1.41,2.91-.45,1.27.52,3.52,2.42,2.97,1.26-3.76-10.48-7.25-14.97-11.82-25.03-1.38-3.51-1.93,6.08-3.92,10.72.54,1.36,1.4,2.66,1.94,4.02,3.78,28.85,7.88,93.06,6.87,129.67-2.09,10.71.71,5.01,2.62.16,2.95-12.93,4.06-26,3.43-40.09-.7-.1-4.63-80.45-4.99-80.27h0ZM72.68,17.24c2.13-2.78,7.42-3.46,9.08-1.12,1.42,1.85,2.67,3.78,4.08,5.63.39,2.4-13.18-3.54-13.17-4.51h0ZM3.51,14.62C.58,20.5-.12,25.63.69,30.24c2.75,5.79,5.98,2.69,9.11,1.37,1.73-2.09,2.13-5.18,2.69-8.59-2.04-3.87-6.21-5.51-8.98-8.4h0ZM2.85,20.69c-.04,1.77-.18,3.48-.22,5.25,2.93,4.27,5.46,2.57,7.22.34.6-.12-6.12-5.7-7.01-5.59h0ZM156.86,12.62c2.62,1.45,5.34,3.5,7.62,5.84.86-2.94,2.48-2.65,3.46-.97,4.27,5.51,5.44,9.36,6.66,14.25.69,1.36,1.73.93,2-1.58.11-5.06.34-10.14,1.24-15.33.76-5.6,3.6-3.52,6.75-.58.68-1.5.7-1.05,1.42-2.63.28-3.79-5.12-7.45-8.19-2.61-1.62,2.13-2.6,6.85-3.07,13.38-2-5.09-4.82-9.13-8.51-12.34-5.85-4.68-9.87-4-9.39,2.58h0ZM194.35,33.27l-1.18,3.48c6.13,6.55,8.8,15.24,8.32,25.88-.1,2.03.84,2.21,1.23.54,2.68-12.62-1.22-22.38-8.38-29.9h0ZM54.92,111.45l6.99-9.85,10.69,8.65-6.72,9.25c-3.12-3.38-6.55-6.36-10.95-8.05h0ZM128.41,104.69c11.72.8,26.55-3.13,51.95-13.08,2.87-1.46,4.86-2.77,6.09-4.55-1.71-8.52-7.19-12.19-13.18-15.46-8.82-3.5-17.26-1.86-25.42,3.75-7.52,5.21-14.8,12.26-20.37,23.34-3.05,2.3-3.52,8.01.93,5.99h0Z"/>
  </g>
</svg>