<?xml version="1.0" encoding="UTF-8"?>
<svg id="Layer_2" data-name="Layer 2" xmlns="http://www.w3.org/2000/svg" viewBox="0 0 260.39 181.48">
  <defs>
    <style>
      .cls-1 {
        fill: #ffb000;
        fill-rule: evenodd;
      }
    </style>
  </defs>
  <g id="Layer_4" data-name="Layer 4">
    <path id="_93._An-Nuur" data-name="93. An-Nuur" class="cls-1" d="M31.01,64.04c5.01-6.53,4.13-8.29-3.84,1.38-11.57,16.53-20.82,33.9-18.76,54.28,5.02,27.32,28.1,28.87,43.66,8.35-10.72,36.43,6.03,58.69,34.5,52.37,18.17-7.3,35.78-17.76,50.56-31.84,5.76-4.23,8.14-11.5,10.86-24.82,8.24-3.76,16.58-8.14,24.62-14.24-1.15,11.88,2.23,21.2,12.29,25.43,8.29,1.44,18.96-2.28,25.89-7.37,4.74-11.7,8.63-20.55,7.85-41.33-2.06-19.36-3.27-38.34-4.95-58.66,1.9,2.22,3.02,2.24,4.92,4.46,3,3.77,3.32,2.18,2.06-2.56-4.6-8.89-9.05-17.77-13.65-26.66-1.9,3.33-3.34,7.77-5.24,11.1,1.9,4.76,3.01,6.69,2.71,14.13,2.74,30.38,5.18,57.72,6.77,87.72-9.34,5.7-19.26,7.47-28.05,3.94-5.27-3.97-7.27-11.81-6.29-19.04,1.77-4.84-.83-4.39-5.98.34-7.98,4.33-16.77,8.65-24.86,11.15-8.5-16.67-20.71-24.53-30.44-16.02-9.39,8.29-15.64,23.95-.03,30.95,7.16,2.7,15.82,3.19,23.96.48,1.58,4.15,1.5,6.46-3.38,9.87-21.58,16.71-42.32,32-61.53,31.07-27.97-6.41-26.21-37.88-11.13-58.07,14.49-22.37,30.56-39.6,47.68-43.85,8.13-.94,11.13,1.51,14.45,3.75,5.85,8.31,5.15-2.32,5.37-8.5-7.51-15.29-25.5-11.97-49.34,10.04-12.87,13.36-20.38,23.3-29.75,39.29-11.59,15.76-27.25,28.33-37.08,15.98-9.93-15.15-2.33-38.48,16.14-63.1h0ZM58.72,33.03c1.32-1.54,1.74-1.71.63,1.35-3.19,7.49-4.01,14.66.31,18.74,2.01,1.11,4.53,1.58,5.2-.7.16-1.33,1.21-1.73,1.39.4-.09,3.75-2.67,6.26-6.27,6.25-5.83-1.32-6.21-9.45-4.56-17.15-.65-.13,2.87-8.99,3.29-8.89h0ZM2.72,65.32c16.29-10.66,38.38-26,51.87-44.02-5.64-2.28-9.75-3.28-12.88-5.91-2.1-1.86-4.01-4.67-2.21-7.72,1.19-2.68,3.6-6.41,7.37-7.33,6.33-2.59,12.39,9.79,10.62,15.01l1.52,1.29c.99.39-.17,4.83-1.47,6.03-.7-.49-.22-.22-1.3-.68C48.09,42.02,19.57,59.38,2.89,66.53c-3.13,1.45-4.45,1.18-.17-1.2h0ZM42.72,8.67c1.88-2.79,6.55-3.48,8.02-1.13,1.25,1.86,2.35,3.8,3.6,5.66.35,2.41-11.63-3.56-11.62-4.53h0ZM84.29,114.23c1.32-1.54,1.74-1.71.62,1.35-3.18,7.5-4.01,14.66.32,18.74,2.01,1.11,4.53,1.58,5.2-.69.16-1.33,1.21-1.73,1.39.4-.09,3.75-2.67,6.26-6.27,6.25-5.82-1.32-6.21-9.45-4.55-17.15-.65-.13,2.87-8.99,3.29-8.89h0ZM160.02,149.27c1.33-1.77,1.74-1.97.5,1.54-3.46,8.61-4.69,16.84-.91,21.52,1.8,1.28,4.13,1.81,4.91-.8.23-1.53,1.24-1.99,1.27.46-.33,4.31-2.89,7.2-6.26,7.18-5.36-1.51-5.2-10.86-3.16-19.7-.6-.15,3.26-10.33,3.65-10.21h0ZM176.71,47.75c-.37.93-.74,1.86-1.11,2.79.02.8.18,1.55.38,2.35-.08,1.58-.16,3.11-.29,4.64.7,3.12,2.55,5.88,6.27,4.09,1.09-1,2.04-2.21,2.45-4.2,1.68,2.13,3.87,4.31,6.86,1.3.54-1.51.88-3.13,1.24-4.77-.04-1.26-.42-2.55-1.13-3.75-.54-1.05.27-1.16.97-1.28.67-.08.27-.58-.2-1.03-.88-.95-1.59-1.8-2.33-2.82-.43-.65-1.07-.73-1.3.08-.3,1.25-.19,2.2-.6,3.35.95,2.29,2.34,4.58,2.66,6.98-1.01,1.33-4.26-.22-4.52-2.51-.31-1.36-.49-2.8-.62-4.19-1.32-3.59-1.59-2.54-2.05-1.85-.43,1.19-.57,2.21-.99,3.41.58,1.57.81,3.16.6,4.78-1.02,4.61-5.42,2.5-5.04-1.29.16-5.3-.01-8.35-1.24-6.09h0ZM15.2,147.96c1.46-1.71,1.93-1.9.69,1.49-3.54,8.32-4.45,16.27.35,20.79,2.23,1.24,5.03,1.75,5.77-.77.17-1.48,1.34-1.92,1.54.44-.1,4.16-2.96,6.95-6.96,6.93-6.47-1.46-6.89-10.49-5.06-19.03-.72-.14,3.19-9.98,3.65-9.86h0ZM253.37,30.85c1.12-.02,3.02,1.18,5,3.23,1.38.5,2.29.91,1.94-1.37-3.49-10.35-6.79-19.6-11.66-29.27-1.46-3.37-3.44,7.96-5.68,12.42.57,1.3,1.14,2.61,1.71,3.91,2.5,42.11,7.59,90.38,6.07,124.55-2.45,10.29,1.35,6.7,3.5,2.05,3.42-12.42,4.62-25.97,4.13-39.51.65,0-4.1-76.15-5.02-76.02h0ZM135.61,65.32c16.29-10.66,38.38-26,51.87-44.02-5.64-2.28-9.75-3.28-12.88-5.91-2.1-1.86-4.01-4.67-2.21-7.72,1.19-2.68,3.6-6.41,7.37-7.33,6.33-2.59,12.39,9.79,10.62,15.01l1.52,1.29c.99.39-.17,4.83-1.47,6.03-.71-.49-.22-.22-1.3-.68-8.14,20.01-36.66,37.37-53.34,44.52-3.13,1.45-4.45,1.18-.17-1.2h0ZM175.61,8.67c1.88-2.79,6.55-3.48,8.02-1.13,1.25,1.86,2.35,3.8,3.6,5.66.34,2.41-11.63-3.56-11.62-4.53h0ZM100.31,18.33c-2.07,1.75-2.08.66-1.83-.82,1-4.71,3.61-11.66,4.38-13.14,6.95-3.28,12.47-2.33,21.44-2.68,3.19.32,7.91.06,6.51,4.1-4.04,11.11-9.61,20.29-19.84,23.9-10.08,4.08-19.27,5.51-18.89,5.1,10.44-7.58,20.84-12.33,29.14-20.46-2.99-.74-11.05-.88-16.19.38-.61-.57-5.28,3.08-4.72,3.61h0ZM184.57,153.94c2.84,1.67,5.74,4.05,8.11,6.74,1.23-3.39,3.04-3.06,4.01-1.12,4.35,6.36,5.34,10.8,6.28,16.45.66,1.57,1.87,1.07,2.4-1.82.57-5.84,1.29-11.7,2.77-17.7,1.36-6.46,4.4-4.06,7.7-.67.9-1.73.88-1.22,1.84-3.04.65-4.38-5.14-8.6-9.05-3.02-2.03,2.46-3.56,7.91-4.67,15.44-1.81-5.88-4.65-10.54-8.54-14.24-6.21-5.4-10.83-4.62-10.87,2.97h0ZM158.58,76.64l9.03-10.86,11.58,10.5-8.66,10.19c-3.3-4.05-7-7.64-11.94-9.83h0ZM113.83,109.33c9.72-8.04,14.57-.83,19.71,5.49-8.02,1.07-15.25.58-19.71-5.49h0Z"/>
  </g>
</svg>