<?xml version="1.0" encoding="UTF-8"?>
<svg id="Layer_2" data-name="Layer 2" xmlns="http://www.w3.org/2000/svg" xmlns:xlink="http://www.w3.org/1999/xlink" viewBox="0 0 372.17 145.08">
  <defs>
    <style>
      .cls-1 {
        fill: #1701e4;
      }

      .cls-2 {
        fill: none;
      }

      .cls-3 {
        fill: #ff5e00;
      }

      .cls-4 {
        clip-path: url(#clippath);
      }
    </style>
    <clipPath id="clippath">
      <rect class="cls-2" width="372.17" height="145.08"/>
    </clipPath>
  </defs>
  <g id="Layer_1-2" data-name="Layer 1">
    <g class="cls-4">
      <g id="a">
        <g>
          <path class="cls-3" d="M31.2,67.72c0,7.74-6.28,14.02-14.02,14.02s-14.02-6.28-14.02-14.02,6.28-14.02,14.02-14.02h0c7.74,0,14.02,6.28,14.02,14.02"/>
          <path class="cls-3" d="M68.72,67.72c0,7.74-6.28,14.02-14.02,14.02s-14.02-6.28-14.02-14.02,6.28-14.02,14.02-14.02h0c7.74,0,14.02,6.28,14.02,14.02"/>
          <path class="cls-3" d="M31.2,67.72c0,7.74-6.28,14.02-14.02,14.02s-14.02-6.28-14.02-14.02,6.28-14.02,14.02-14.02h0c7.74,0,14.02,6.28,14.02,14.02"/>
          <path class="cls-3" d="M4.29,95.78c0,17.48,14.16,31.65,31.64,31.65s31.65-14.16,31.65-31.64h0v-4.57H4.29v4.55Z"/>
          <rect class="cls-1" x="347.96" y="55.15" width="20.13" height="71.11"/>
          <path class="cls-1" d="M149.92,91.27c0,8.84-7.17,16.01-16.01,16.01s-16.01-7.17-16.01-16.01v-36.13h-20.13v36.14c-.19,19.96,15.84,36.29,35.8,36.48,19.96.19,36.29-15.84,36.48-35.8,0-.23,0-.45,0-.68v-36.14h-20.13v36.13Z"/>
          <rect class="cls-1" x="266.28" y="55.15" width="20.13" height="71.11"/>
          <path class="cls-1" d="M217.08,53.98c-19.95.02-36.12,16.19-36.14,36.14v36.14h20.13v-36.13c0-8.84,7.17-16.01,16.01-16.01s16.01,7.17,16.01,16.01h0v36.13h20.13v-36.14c-.02-19.95-16.19-36.12-36.14-36.14"/>
          <path class="cls-1" d="M320.12,55.08c0-8.84,7.17-16,16.01-16.01v-20.14c-19.95.02-36.12,16.19-36.14,36.14v71.2h20.13v-50.98h16.01v-20.13h-16.01v-.07Z"/>
        </g>
      </g>
    </g>
  </g>
</svg>