<?xml version="1.0" encoding="UTF-8"?>
<svg id="Layer_2" data-name="Layer 2" xmlns="http://www.w3.org/2000/svg" viewBox="0 0 461.35 139.52">
  <defs>
    <style>
      .cls-1 {
        fill: #0e67ce;
      }

      .cls-2 {
        fill: #1f252b;
      }

      .cls-3 {
        letter-spacing: -.01em;
      }

      .cls-4 {
        letter-spacing: 0em;
      }

      .cls-5 {
        fill: #3c4043;
      }

      .cls-6 {
        letter-spacing: -.05em;
      }

      .cls-7 {
        fill: #20262d;
      }

      .cls-8 {
        fill: #0f68ce;
      }

      .cls-9 {
        font-family: 'GoogleSansFlex_69.100wdth_850.150wght_7.000ROND', 'Google Sans Flex';
        font-size: 38.32px;
        font-variation-settings: 'opsz' 18, 'wdth' 69, 'wght' 850, 'GRAD' 0, 'ROND' 7, 'slnt' 0;
      }

      .cls-10 {
        fill: #a8a3a0;
      }

      .cls-11 {
        fill: #0f68cd;
      }

      .cls-12 {
        fill: #dbdbdb;
      }

      .cls-13 {
        fill: #292929;
      }

      .cls-14 {
        fill: #0a0a0a;
      }
    </style>
  </defs>
  <g id="Layer_1-2" data-name="Layer 1">
    <g>
      <path class="cls-7" d="M78.07,11.92c-10.78,16.69-22.79,32.69-33.73,49.3-2.74,4.17-4.92,8.36-6.18,13.24-7.46,28.89,16.75,56.19,46.36,51.65,20.32-3.12,32.98-21.31,40.89-38.69.06-.26.7-.34.79-.26.25.24-.54,5.93-.69,6.77-3.25,18.44-17.42,33.84-35.6,38.37-35.2,8.76-66.78-22.37-59.1-57.65,1.91-8.76,5.95-14.83,10.8-22.1,11.17-16.73,22.56-33.49,34.14-49.93.33-.47,1.44-2.23,1.74-2.43.45-.31.55-.28.57.17l-.32.16c-9.11,13.27-18.3,26.49-27.34,39.8-4.38,6.44-9.31,13.11-13.32,19.73-17.13,28.28-1.45,65.46,30.84,72.3,28.42,6.03,55.43-14.29,57.8-43.03l-.17-1.53c0,.25-.08.48-.18.7-10.35,22.03-27.65,42.74-54.88,37.75-28.97-5.3-43.3-38.74-27.54-63.7L77.75,11.92h.32Z"/>
      <path class="cls-7" d="M117.06,86.85c.39.38-.65,6.16-.85,7.09-7.02,32.44-48.91,41.85-69.17,15.36-11.23-14.69-10.05-32.2-.42-47.24,9.86-15.39,20.78-30.13,30.79-45.43.06-.69.86-.79.98-.13-.08,3.16.16,6.37-.12,9.5-8.53,13.09-17.84,25.7-26.32,38.82-2.88,4.45-5.12,8.39-6.21,13.68-4.83,23.3,15.48,44.14,38.92,39.4,15.61-3.15,25.06-17.63,31.68-30.89.11-.18.67-.21.72-.16ZM77.91,25.96v-9.39l-30.97,45.64c-16.93,23.45-3.84,56.81,24.84,61.65,22.31,3.77,44.1-13.38,44.97-36.13,0-.18.1-.61-.17-.57-6.44,13.32-16.12,27.77-31.6,31.05-24.26,5.15-45.3-17.14-39.3-41.07,1.08-4.33,2.95-7.82,5.31-11.53,8.57-13.46,18.19-26.31,26.93-39.66Z"/>
      <path class="cls-2" d="M96.29,103.95c4.88-4.45,8.56-11.01,11.71-16.77.52-.65.87-.34.86.37-.24,14.22-13.21,27.16-27.04,28.8-25.9,3.08-43.62-24.79-30.35-47.2,8.78-12.82,17.47-25.71,26.39-38.44.2-.06.34-.05.46.14.37.55-.06,7.45-.01,8.66-6.9,10.37-14.31,20.42-21.16,30.83-17.72,26.91,16.09,54.63,39.15,33.61ZM77.91,39.44v-8.26l-24.13,35.15c-17.7,23.09,3.35,56.36,32,48.84,12.52-3.28,22.1-14.83,22.62-27.84l-3.88,6.79c-7.96,14.6-25.46,23.19-40.71,13.33-12.86-8.31-15.35-24.51-7.11-37.08,6.84-10.45,14.32-20.51,21.21-30.93Z"/>
      <path class="cls-2" d="M91.23,100.01c-10.98,10.06-28.49,5.28-32.36-9.27-2.36-8.85,1.22-13.87,5.79-20.75,4.36-6.58,8.92-13.03,13.26-19.63v-6.66l-17.68,26.04c-13.38,16.77-1.71,40.66,20.17,39.1,10.63-.76,20.17-10.56,20.78-21.18-1.18,1.64-2.22,3.38-3.4,5.02-2.1,2.92-3.91,4.92-6.55,7.33.91-.77,1.7-2,2.41-2.81,2.7-3.09,5.18-6.35,7.24-9.93.34-.5.79-.29.79.29-.04,6.09-4.79,13.53-9.58,17.07-16.61,12.28-39.37-.86-37.92-21.23.41-5.68,2.76-9.31,5.74-13.84,5.13-7.8,10.4-15.59,15.72-23.26.3-.43,2.02-3.02,2.22-3.07.45-.12.51.19.55.53.12,1,.11,5.99-.18,6.73l-17.22,25.62c-10.14,19.54,13.24,38.27,30.23,23.89Z"/>
      <path class="cls-13" d="M83.53,85.65c-.05.18-.82.79-1.08.85-.9.2-3.92.29-4.18-.88l-.05-19.23c-.01-.75.52-1.24,1.22-1.34,1.39-.2,4.19-.36,4.16,1.59,2.25-2.03,5.94-2.21,8.48-.61,3.95,2.49,4.37,8.69.91,11.77-2.79,2.49-6.63,2.46-9.47.08v7.78ZM83.04,76.74c3.51,4.08,10.13,2.79,11.62-2.41,2.06-7.17-6.59-12.24-11.55-6.57-.23-.66.24-1.95-.67-2.21-.55-.16-3.74-.24-3.74.53v19.57c0,.56,2.77.45,3.3.41.35-.03,1.04-.1,1.04-.57v-8.74Z"/>
      <path class="cls-13" d="M128.93,77.71v7.78s-.49.65-.58.71c-.45.29-3.71.28-4.16.02-.13-.07-.48-.46-.52-.6l-.04-19.39c-.07-.62.5-1.1,1.06-1.18s2.62-.09,3.19,0c.77.13,1.07.92,1.13,1.59,3.01-2.75,7.52-2.28,10.11.8,1.48,1.75,1.7,3.61,1.53,5.87-.42,5.57-7.7,8.33-11.72,4.41ZM128.45,76.74c5.16,5.64,14.05.25,11.52-6.94-1.73-4.93-7.96-6.02-11.44-2.2-.23-.48.16-1.72-.44-1.98-.4-.17-3.3-.19-3.65-.02-.08.04-.32.29-.32.32v19.57s.4.44.48.48c.47.22,3.85.23,3.85-.48v-8.74Z"/>
      <path class="cls-13" d="M109.03,66.96c-.13-.95.18-1.77,1.22-1.91s3.64-.27,4.01.94l.08,12.29c-.05.6-.41,1.12-1.04,1.21-.6.08-3.54.07-3.89-.22-.5-.41-.28-1.18-.45-1.72-1.71,2.12-5.68,2.53-7.99,1.41-5.01-2.42-5.45-9.98-.81-12.94,2.67-1.7,6.64-1.35,8.88.94ZM109.52,67.92c-.19.21-1.32-1.11-1.53-1.28-3.43-2.67-8.37-1.14-10.09,2.74-2.85,6.43,4.61,12.76,10.09,8.48.21-.17,1.34-1.49,1.53-1.28.07.53-.19,2.13.27,2.42.39.24,3.68.41,3.98-.34l.05-12.56c-.17-.96-3.93-.67-4.15-.33-.31.49-.08,1.55-.15,2.14Z"/>
      <path class="cls-13" d="M116.63,65.4c.53-.49,3.12-.48,3.87-.36.51.08.88.42,1.02.91l.04,12.32c-.01.53-.39,1.05-.92,1.17-.89.2-4.15.36-4.34-.88l-.04-12.33c.03-.27.18-.65.38-.82ZM116.74,65.91v12.68c0,.12.39.36.57.4.5.09,3.19.06,3.54-.15.12-.07.32-.3.36-.44l.04-11.85c.06-.47-.27-.94-.74-1.03-.44-.08-2.76-.08-3.2,0-.19.04-.52.24-.57.4Z"/>
      <path class="cls-14" d="M78.07,11.92h-.32V.53l.32-.16c.16,3.84-.12,7.71,0,11.55Z"/>
      <path class="cls-8" d="M77.75,11.92l-34.79,50.65c-15.77,24.96-1.43,58.4,27.54,63.7,27.23,4.98,44.54-15.73,54.88-37.75.11-.22.18-.45.18-.7l.17,1.53c-2.37,28.73-29.38,49.05-57.8,43.03-32.29-6.85-47.97-44.02-30.84-72.3,4.01-6.62,8.94-13.29,13.32-19.73,9.05-13.31,18.24-26.53,27.34-39.8v11.39Z"/>
      <path class="cls-8" d="M77.91,25.96c-8.74,13.35-18.36,26.2-26.93,39.66-2.37,3.72-4.23,7.21-5.31,11.53-6,23.92,15.04,46.21,39.3,41.07,15.48-3.28,25.17-17.73,31.6-31.05.27-.04.17.39.17.57-.87,22.74-22.66,39.89-44.97,36.13-28.68-4.84-41.77-38.2-24.84-61.65l30.97-45.64v9.39Z"/>
      <path class="cls-8" d="M77.91,39.44c-6.9,10.42-14.37,20.48-21.21,30.93-8.24,12.57-5.75,28.77,7.11,37.08,15.25,9.85,32.75,1.27,40.71-13.33l3.88-6.79c-.52,13.01-10.1,24.56-22.62,27.84-28.65,7.52-49.69-25.75-32-48.84l24.13-35.15v8.26Z"/>
      <path class="cls-11" d="M91.23,100.01c2.63-2.41,4.45-4.41,6.55-7.33,1.18-1.64,2.21-3.39,3.4-5.02-.61,10.61-10.15,20.42-20.78,21.18-21.88,1.56-33.55-22.33-20.17-39.1l17.68-26.04v6.66c-4.33,6.6-8.9,13.05-13.26,19.63-4.57,6.89-8.15,11.9-5.79,20.75,3.88,14.55,21.38,19.34,32.36,9.27Z"/>
      <path class="cls-10" d="M83.04,76.74v8.74c0,.47-.69.54-1.04.57-.53.04-3.3.15-3.3-.41v-19.57c0-.77,3.19-.69,3.74-.53.92.26.45,1.56.67,2.21,4.95-5.67,13.61-.59,11.55,6.57-1.5,5.21-8.12,6.49-11.62,2.41ZM86.37,66.67c-1.55.32-3.66,2.63-3.81,4.21-.28,2.82.28,5.16,2.95,6.53,3.07,1.58,8.03-.26,8.45-3.96.54-4.8-2.88-7.75-7.59-6.78Z"/>
      <path class="cls-10" d="M128.45,76.74v8.74c0,.71-3.37.69-3.85.48-.08-.04-.48-.44-.48-.48v-19.57s.25-.28.32-.32c.36-.17,3.25-.15,3.65.02.6.25.21,1.49.44,1.98,3.47-3.81,9.7-2.73,11.44,2.2,2.53,7.19-6.36,12.58-11.52,6.94ZM132.26,66.51c-5.69.95-5.92,10.3.36,11.28,8.9,1.39,9.2-12.88-.36-11.28Z"/>
      <path class="cls-10" d="M109.52,67.92c.07-.59-.16-1.65.15-2.14.22-.34,3.98-.64,4.15.33l-.05,12.56c-.3.75-3.59.58-3.98.34-.46-.29-.2-1.89-.27-2.42-.19-.21-1.32,1.11-1.53,1.28-5.48,4.27-12.94-2.05-10.09-8.48,1.72-3.88,6.65-5.42,10.09-2.74.21.16,1.34,1.49,1.53,1.28ZM107.86,76.53c2.92-2.56,2.36-7.47-1.02-9.38-5.01-2.83-10.72,2.72-7.97,7.81,1.71,3.18,6.28,3.94,8.99,1.57Z"/>
      <path class="cls-10" d="M116.74,65.91c.04-.16.38-.36.57-.4.44-.08,2.76-.08,3.2,0,.47.09.79.56.74,1.03l-.04,11.85c-.04.14-.23.37-.36.44-.35.21-3.04.24-3.54.15-.18-.03-.57-.28-.57-.4v-12.68Z"/>
      <path class="cls-12" d="M.03,139.5c-.05-.58-.14-1.58.65-1.05.46.31-.04,1.23-.65,1.05Z"/>
      <path class="cls-5" d="M86.37,66.67c4.71-.96,8.13,1.98,7.59,6.78-.42,3.69-5.38,5.54-8.45,3.96-2.67-1.37-3.22-3.71-2.95-6.53.15-1.58,2.27-3.89,3.81-4.21ZM84.22,75.89c3.68,4,10.4.66,9.21-5.12-.77-3.77-6.33-4.9-8.96-2.45-.64.6-1.36,1.86-1.44,2.73-.18,1.87-.12,3.42,1.19,4.84Z"/>
      <path class="cls-5" d="M102.83,65.25c9.55-1.6,9.25,12.68.36,11.28-6.27-.98-6.04-10.33-.36-11.28ZM102.99,65.73c-5.27.89-5.43,9.44.32,10.35,8.01,1.26,8.38-11.82-.32-10.35Z"/>
      <path class="cls-5" d="M107.86,76.53c-2.71,2.38-7.28,1.61-8.99-1.57-2.75-5.09,2.97-10.64,7.97-7.81,3.37,1.9,3.93,6.82,1.02,9.38ZM102.74,67c-5.36,1-5.32,9.63.3,10.38,8.43,1.12,8.02-11.93-.3-10.38Z"/>
      <path class="cls-8" d="M84.22,75.89c-1.31-1.42-1.36-2.97-1.19-4.84.08-.87.81-2.13,1.44-2.73,2.62-2.46,8.18-1.32,8.96,2.45,1.19,5.79-5.54,9.12-9.21,5.12Z"/>
      <g>
        <path class="cls-5" d="M133.49,77.95c-1.61,0-3.11-.68-4.25-1.91-1.52-1.65-1.48-3.49-1.32-5.23.1-1.05.91-2.4,1.6-3.04.99-.93,2.39-1.44,3.95-1.44,2.4,0,5.25,1.3,5.84,4.15.4,1.96-.02,3.83-1.19,5.26-1.13,1.39-2.86,2.22-4.63,2.22Z"/>
        <path class="cls-8" d="M129.61,75.7c-1.31-1.42-1.36-2.97-1.19-4.84.08-.87.81-2.13,1.44-2.73,2.62-2.46,8.18-1.32,8.96,2.45,1.19,5.79-5.54,9.12-9.21,5.12Z"/>
      </g>
      <path class="cls-1" d="M102.99,65.73c8.7-1.47,8.33,11.62.32,10.35-5.75-.91-5.59-9.46-.32-10.35Z"/>
      <path class="cls-1" d="M102.74,67c8.32-1.55,8.73,11.5.3,10.38-5.61-.74-5.65-9.38-.3-10.38Z"/>
      <text class="cls-9" transform="translate(150.36 68.81)"><tspan x="0" y="0">PENGURU</tspan><tspan class="cls-3" x="166.6" y="0">S</tspan><tspan x="187.08" y="0">AN AIR </tspan><tspan class="cls-6" x="0" y="45.99">P</tspan><tspan class="cls-4" x="20.98" y="45.99">AHANG BERHAD</tspan></text>
    </g>
  </g>
</svg>