<?xml version="1.0" encoding="UTF-8"?>
<svg id="Layer_2" data-name="Layer 2" xmlns="http://www.w3.org/2000/svg" xmlns:xlink="http://www.w3.org/1999/xlink" viewBox="0 0 1576.93 568.05">
  <defs>
    <style>
      .cls-1 {
        fill: #010101;
      }

      .cls-2 {
        fill: url(#linear-gradient-2);
      }

      .cls-3 {
        fill: #146432;
      }

      .cls-4 {
        fill: url(#linear-gradient-10);
      }

      .cls-5 {
        fill: url(#linear-gradient-12);
      }

      .cls-6, .cls-7, .cls-8 {
        isolation: isolate;
      }

      .cls-6, .cls-9 {
        fill: #273896;
      }

      .cls-10 {
        stroke-miterlimit: 10;
      }

      .cls-10, .cls-11, .cls-12 {
        fill: #fff;
      }

      .cls-10, .cls-12 {
        stroke: #fff;
      }

      .cls-13 {
        fill: #293392;
      }

      .cls-14, .cls-8 {
        fill: #ddd7d7;
      }

      .cls-15 {
        fill: none;
      }

      .cls-16 {
        fill: url(#linear-gradient-4);
      }

      .cls-17 {
        fill: #20409b;
      }

      .cls-18 {
        fill: #168cb4;
      }

      .cls-19 {
        fill: url(#linear-gradient-3);
      }

      .cls-20 {
        fill: #fffe00;
      }

      .cls-21 {
        clip-path: url(#clippath-1);
      }

      .cls-22 {
        fill: url(#linear-gradient-5);
      }

      .cls-23 {
        fill: #006837;
        opacity: .34;
      }

      .cls-24 {
        fill: #1f419b;
      }

      .cls-25 {
        fill: url(#linear-gradient-8);
      }

      .cls-26 {
        fill: #1a93aa;
      }

      .cls-27 {
        fill: #e2eced;
      }

      .cls-28 {
        fill: url(#linear-gradient-7);
      }

      .cls-29 {
        fill: #b6480e;
      }

      .cls-30 {
        fill: url(#linear-gradient-9);
      }

      .cls-31 {
        fill: url(#linear-gradient-11);
      }

      .cls-32 {
        fill: url(#linear-gradient-6);
      }

      .cls-33 {
        fill: #0089cb;
      }

      .cls-34 {
        clip-path: url(#clippath-2);
      }

      .cls-35 {
        fill: url(#linear-gradient);
      }

      .cls-36 {
        clip-path: url(#clippath);
      }

      .cls-37 {
        fill: #156bb5;
      }

      .cls-38 {
        fill: #b93325;
      }

      .cls-39 {
        fill: #ff0;
      }
    </style>
    <linearGradient id="linear-gradient" x1="243.94" y1="189.88" x2="243.94" y2="300.82" gradientUnits="userSpaceOnUse">
      <stop offset="0" stop-color="#fa5707"/>
      <stop offset="1" stop-color="#fac821"/>
    </linearGradient>
    <linearGradient id="linear-gradient-2" x1="244.32" y1="177.13" x2="244.32" y2="189.88" xlink:href="#linear-gradient"/>
    <clipPath id="clippath">
      <path class="cls-15" d="M136.05,352.77l-.28.4v57.72l1,1h39.47l1-1v-26.7c-16.27-7.06-30.34-17.95-41.19-31.42Z"/>
    </clipPath>
    <linearGradient id="linear-gradient-3" x1="156.72" y1="150.96" x2="156.72" y2="198.56" xlink:href="#linear-gradient"/>
    <linearGradient id="linear-gradient-4" x1="156.88" y1="145.49" x2="156.88" y2="150.96" xlink:href="#linear-gradient"/>
    <linearGradient id="linear-gradient-5" x1="137.28" y1="172.02" x2="176.17" y2="172.02" xlink:href="#linear-gradient"/>
    <linearGradient id="linear-gradient-6" x1="137.28" y1="172.02" x2="176.17" y2="172.02" xlink:href="#linear-gradient"/>
    <clipPath id="clippath-1">
      <path class="cls-39" d="M208.83,392.5c-59.41-6.34-102.43-59.64-96.09-119.05s58.32-101.35,116.84-96.3c-10.03-3.61-20.65-6.11-31.73-7.29-74.59-7.96-141.52,46.06-149.48,120.65-7.96,74.59,46.06,141.52,120.65,149.48,68.87,7.35,131.2-38.14,146.63-103.87-20.21,37.6-61.75,61.19-106.81,56.38Z"/>
    </clipPath>
    <linearGradient id="linear-gradient-7" x1="114.91" y1="-69.18" x2="136.63" y2="202.45" gradientTransform="translate(64.65 201.66) rotate(6.09)" gradientUnits="userSpaceOnUse">
      <stop offset="0" stop-color="#0ab537"/>
      <stop offset="1" stop-color="#d3e909"/>
    </linearGradient>
    <linearGradient id="linear-gradient-8" x1="215.09" y1="-11.03" x2="66.58" y2="180.55" gradientTransform="translate(279.61 148.51) rotate(90)" xlink:href="#linear-gradient-7"/>
    <clipPath id="clippath-2">
      <path class="cls-15" d="M128.65,142.85v270.05h55.61V142.85h-55.61ZM177.24,410.89l-1,1h-39.47l-1-1v-57.72l.28-.4c10.85,13.48,24.92,24.37,41.19,31.42v26.7Z"/>
    </clipPath>
    <linearGradient id="linear-gradient-9" x1="156.72" y1="150.96" x2="156.72" y2="198.56" xlink:href="#linear-gradient"/>
    <linearGradient id="linear-gradient-10" x1="156.88" y1="145.49" x2="156.88" y2="150.96" xlink:href="#linear-gradient"/>
    <linearGradient id="linear-gradient-11" x1="137.28" y1="172.02" x2="176.17" y2="172.02" xlink:href="#linear-gradient"/>
    <linearGradient id="linear-gradient-12" x1="137.28" y1="172.02" x2="176.17" y2="172.02" xlink:href="#linear-gradient"/>
  </defs>
  <g id="Layer_1-2" data-name="Layer 1">
    <g>
      <g>
        <g>
          <path class="cls-12" d="M436.32,428.97c-2.14-2.27-3.21-5.98-3.21-11.12v-23.93l-14.8,35.42h-2.23l-18.11-36.77v36.77h-3.38v-44.61h8.25l16.36,33.19,13.86-33.19h8.85v33.12c0,4.24.36,7.34,1.08,9.33.72,1.98,2,3.15,3.85,3.51v1.69c-4.87,0-8.37-1.14-10.51-3.41Z"/>
          <path class="cls-12" d="M482.93,427.82c-2.3-1.19-4.17-3.53-5.61-7l-1.55-3.78h-17.98l-5.54,12.3h-3.51l19.94-44.61h3.04l15.14,36.09c1.71,4.19,4.06,6.44,7.03,6.76v1.69c-.81.22-1.89.34-3.24.34-2.84,0-5.41-.6-7.71-1.79ZM459.2,414h15.27l-7.43-17.64-7.84,17.64Z"/>
          <path class="cls-12" d="M503.07,429.51c-2.34-.65-4.26-1.6-5.75-2.84-1.49-1.24-2.23-2.67-2.23-4.29v-7.91h1.89c.68,4.6,2.1,7.91,4.26,9.94,2.16,2.03,5.18,3.04,9.06,3.04,2.61,0,4.69-.56,6.22-1.69,1.53-1.13,2.3-2.75,2.3-4.87,0-1.8-.56-3.33-1.69-4.6-1.13-1.26-2.88-2.64-5.27-4.12l-8.31-5c-3.02-1.76-5.17-3.58-6.46-5.47s-1.93-4.1-1.93-6.62c0-3.56,1.36-6.38,4.09-8.45,2.73-2.07,6.41-3.11,11.05-3.11,2.52,0,4.96.33,7.3.98,2.34.65,4.26,1.6,5.74,2.84,1.49,1.24,2.23,2.67,2.23,4.29v7.91h-1.89c-.77-4.6-2.19-7.91-4.26-9.94-2.07-2.03-4.87-3.04-8.38-3.04-2.43,0-4.36.59-5.78,1.76-1.42,1.17-2.13,2.77-2.13,4.8,0,1.76.55,3.21,1.66,4.36,1.1,1.15,2.9,2.44,5.37,3.89l8.31,4.93c3.15,1.85,5.42,3.64,6.79,5.37,1.37,1.74,2.06,3.82,2.06,6.25,0,3.92-1.48,7-4.43,9.23-2.95,2.23-7.13,3.35-12.54,3.35-2.52,0-4.96-.33-7.3-.98Z"/>
          <path class="cls-12" d="M528.55,436.57c2.16-.27,3.75-1.34,4.77-3.21,1.01-1.87,1.52-5.08,1.52-9.63v-39h8.79v39c0,4.01-.42,7.06-1.25,9.16-.83,2.09-2.31,3.57-4.43,4.43-2.12.86-5.25,1.28-9.4,1.28v-2.03Z"/>
          <path class="cls-12" d="M556.33,428.56c-.86-.52-1.46-1.4-1.82-2.64-.36-1.24-.54-3.03-.54-5.37v-35.82h8.79v35.82c0,2.3.31,4,.95,5.1.63,1.1,1.89,1.66,3.79,1.66h.68v2.03h-8.11c-1.62,0-2.86-.26-3.72-.78Z"/>
          <path class="cls-12" d="M575.59,393.52c0-2.3-.32-4-.95-5.1-.63-1.1-1.89-1.66-3.78-1.66h-.68v-2.03h18.38c9.1,0,16.03,1.93,20.78,5.78,4.75,3.85,7.13,9.27,7.13,16.25,0,4.46-1,8.39-3.01,11.79-2.01,3.4-4.98,6.05-8.92,7.94-3.94,1.89-8.69,2.84-14.23,2.84h-14.73v-35.82ZM590.12,426.64c3.15,0,5.96-.79,8.42-2.37,2.46-1.58,4.37-3.85,5.74-6.83,1.37-2.97,2.06-6.44,2.06-10.41s-.69-7.36-2.06-10.31c-1.38-2.95-3.3-5.24-5.78-6.86-2.48-1.62-5.32-2.43-8.52-2.43h-.54c-1.49,0-2.68.09-3.58.27l-1.49.2v38.25l1.49.27c.95.13,2.14.2,3.58.2h.68Z"/>
          <path class="cls-12" d="M670.55,427.82c-2.3-1.19-4.17-3.53-5.61-7l-1.55-3.78h-17.98l-5.54,12.3h-3.51l19.94-44.61h3.04l15.14,36.09c1.71,4.19,4.06,6.44,7.03,6.76v1.69c-.81.22-1.89.34-3.24.34-2.84,0-5.41-.6-7.71-1.79ZM646.83,414h15.27l-7.43-17.64-7.84,17.64Z"/>
          <path class="cls-12" d="M685.96,393.52c0-2.3-.32-4-.95-5.1-.63-1.1-1.89-1.66-3.78-1.66h-.68v-2.03h8.11c1.62,0,2.86.27,3.72.81.86.54,1.46,1.43,1.83,2.67.36,1.24.54,3.01.54,5.31v32.78h23.32v3.04h-32.1v-35.82Z"/>
          <path class="cls-12" d="M717.25,414.67v-6.42h18.86v6.42h-18.86Z"/>
          <path class="cls-12" d="M786.77,428.97c-2.14-2.27-3.21-5.98-3.21-11.12v-23.93l-14.8,35.42h-2.23l-18.11-36.77v36.77h-3.38v-44.61h8.25l16.36,33.19,13.86-33.19h8.85v33.12c0,4.24.36,7.34,1.08,9.33.72,1.98,2,3.15,3.85,3.51v1.69c-4.87,0-8.37-1.14-10.51-3.41Z"/>
          <path class="cls-12" d="M804.17,409.88v-16.36c0-2.3-.32-4-.95-5.1s-1.89-1.66-3.79-1.66v-2.03h7.44c1.62,0,2.86.27,3.72.81.86.54,1.46,1.43,1.83,2.67.36,1.24.54,3.01.54,5.31l.07,18.38c.04,4.78.98,8.48,2.8,11.12,1.83,2.64,4.47,3.95,7.94,3.95,4.6,0,7.94-1.36,10.04-4.09,2.09-2.73,3.14-7.06,3.14-13.01v-25.14h3.38v25.14c0,6.62-1.4,11.64-4.19,15.04s-7.37,5.1-13.72,5.1c-12.17,0-18.25-6.71-18.25-20.14Z"/>
          <path class="cls-12" d="M879.36,428.29c-2.59-1.15-5.37-3.28-8.35-6.39l-10.88-11.36v18.79h-8.79l-.07-35.82c0-2.3-.32-4-.95-5.1-.63-1.1-1.89-1.66-3.79-1.66h-.68v-2.03h8.11c1.58,0,2.8.27,3.68.81.88.54,1.51,1.44,1.89,2.7s.58,3.02.58,5.27v12.84l11.69-14.53c1.67-2.16,3.46-3.89,5.37-5.17,1.91-1.28,4.11-1.93,6.59-1.93h4.73v2.37c-2.79,0-5.19.35-7.2,1.05-2,.7-3.73,1.95-5.17,3.75l-10.07,12.44,15.61,16.22c1.67,1.85,3.55,3.46,5.64,4.83,2.1,1.38,3.8,2.15,5.1,2.33v1.62c-1.35.45-3,.68-4.93.68-2.84,0-5.55-.57-8.14-1.72Z"/>
          <path class="cls-12" d="M898.12,393.52c0-2.3-.32-4-.95-5.1-.63-1.1-1.89-1.66-3.79-1.66h-.68v-2.03h8.11c1.62,0,2.86.27,3.72.81.86.54,1.46,1.43,1.83,2.67.36,1.24.54,3.01.54,5.31v11.15h18.25v-19.94h8.79v35.82c0,2.3.31,4,.95,5.1.63,1.1,1.89,1.66,3.79,1.66h.68v2.03h-8.11c-1.62,0-2.86-.26-3.72-.78-.86-.52-1.46-1.4-1.83-2.64-.36-1.24-.54-3.03-.54-5.37v-12.84h-18.25v21.63h-8.79v-35.82Z"/>
          <path class="cls-12" d="M946.78,393.52c0-2.3-.32-4-.95-5.1-.63-1.1-1.89-1.66-3.79-1.66h-.68v-2.03h8.11c1.62,0,2.86.27,3.72.81.86.54,1.46,1.43,1.83,2.67.36,1.24.54,3.01.54,5.31v32.78h23.32v3.04h-32.1v-35.82Z"/>
          <path class="cls-12" d="M985.71,428.56c-.86-.52-1.46-1.4-1.83-2.64s-.54-3.03-.54-5.37v-35.82h8.79v35.82c0,2.3.31,4,.95,5.1.63,1.1,1.89,1.66,3.79,1.66h.68v2.03h-8.11c-1.62,0-2.86-.26-3.72-.78Z"/>
          <path class="cls-12" d="M1009.71,429.51c-2.34-.65-4.26-1.6-5.75-2.84-1.49-1.24-2.23-2.67-2.23-4.29v-7.91h1.89c.68,4.6,2.09,7.91,4.26,9.94,2.16,2.03,5.18,3.04,9.06,3.04,2.61,0,4.69-.56,6.22-1.69,1.53-1.13,2.3-2.75,2.3-4.87,0-1.8-.56-3.33-1.69-4.6-1.13-1.26-2.88-2.64-5.27-4.12l-8.31-5c-3.02-1.76-5.17-3.58-6.45-5.47s-1.93-4.1-1.93-6.62c0-3.56,1.36-6.38,4.09-8.45,2.73-2.07,6.41-3.11,11.05-3.11,2.52,0,4.96.33,7.3.98,2.34.65,4.26,1.6,5.75,2.84,1.49,1.24,2.23,2.67,2.23,4.29v7.91h-1.89c-.77-4.6-2.19-7.91-4.26-9.94-2.07-2.03-4.87-3.04-8.38-3.04-2.43,0-4.36.59-5.78,1.76-1.42,1.17-2.13,2.77-2.13,4.8,0,1.76.55,3.21,1.66,4.36,1.1,1.15,2.89,2.44,5.37,3.89l8.31,4.93c3.15,1.85,5.42,3.64,6.79,5.37,1.37,1.74,2.06,3.82,2.06,6.25,0,3.92-1.48,7-4.43,9.23s-7.13,3.35-12.54,3.35c-2.52,0-4.96-.33-7.3-.98Z"/>
          <path class="cls-12" d="M1044.18,428.56c-.86-.52-1.46-1.4-1.83-2.64s-.54-3.03-.54-5.37v-35.82h8.79v35.82c0,2.3.31,4,.95,5.1.63,1.1,1.89,1.66,3.79,1.66h.68v2.03h-8.11c-1.62,0-2.86-.26-3.72-.78Z"/>
          <path class="cls-12" d="M1067.02,395.88v33.46h-3.38v-36.5c0-1.89-.46-3.38-1.39-4.46-.92-1.08-2.49-1.62-4.7-1.62h-.34v-2.03h4.73c2.52,0,4.58.33,6.18.98,1.6.65,2.94,1.68,4.02,3.08l23.25,27.04v-31.09h3.38v44.81h-3.11l-28.66-33.66Z"/>
          <path class="cls-12" d="M1106.83,438.53c1.49-.99,2.78-2.2,3.89-3.62,1.1-1.42,1.66-3.03,1.66-4.83l-1.01.2c-1.31,0-2.32-.37-3.04-1.12s-1.08-1.75-1.08-3.01.36-2.26,1.08-3.01,1.73-1.12,3.04-1.12c1.4,0,2.49.52,3.28,1.55.79,1.04,1.18,2.28,1.18,3.72,0,2.66-.6,5-1.79,7.03-1.2,2.03-3.19,3.96-5.98,5.81l-1.22-1.62Z"/>
          <path class="cls-12" d="M1151.78,387.77h-4.8c-2.52,0-4.45.63-5.78,1.89-1.33,1.26-1.99,3.33-1.99,6.22h-2.03v-5.75c0-3.6,1.92-5.41,5.75-5.41h31.77v3.04h-14.13v41.57h-8.79v-41.57Z"/>
          <path class="cls-12" d="M1205.04,427.82c-2.3-1.19-4.17-3.53-5.61-7l-1.55-3.78h-17.98l-5.54,12.3h-3.51l19.94-44.61h3.04l15.14,36.09c1.71,4.19,4.06,6.44,7.03,6.76v1.69c-.81.22-1.89.34-3.24.34-2.84,0-5.41-.6-7.71-1.79ZM1181.31,414h15.28l-7.43-17.64-7.84,17.64Z"/>
          <path class="cls-12" d="M1260.77,428.97c-2.14-2.27-3.21-5.98-3.21-11.12v-23.93l-14.8,35.42h-2.23l-18.11-36.77v36.77h-3.38v-44.61h8.25l16.36,33.19,13.86-33.19h8.85v33.12c0,4.24.36,7.34,1.08,9.33.72,1.98,2,3.15,3.85,3.51v1.69c-4.87,0-8.37-1.14-10.51-3.41Z"/>
          <path class="cls-12" d="M1307.37,427.82c-2.3-1.19-4.17-3.53-5.61-7l-1.55-3.78h-17.98l-5.54,12.3h-3.51l19.94-44.61h3.04l15.14,36.09c1.71,4.19,4.06,6.44,7.03,6.76v1.69c-.81.22-1.89.34-3.24.34-2.84,0-5.41-.6-7.71-1.79ZM1283.64,414h15.28l-7.43-17.64-7.84,17.64Z"/>
          <path class="cls-12" d="M1326.36,395.88v33.46h-3.38v-36.5c0-1.89-.46-3.38-1.39-4.46-.92-1.08-2.49-1.62-4.7-1.62h-.34v-2.03h4.73c2.52,0,4.58.33,6.18.98,1.6.65,2.94,1.68,4.02,3.08l23.25,27.04v-31.09h3.38v44.81h-3.11l-28.66-33.66Z"/>
          <path class="cls-12" d="M1378.74,436.57c2.16-.27,3.75-1.34,4.76-3.21,1.01-1.87,1.52-5.08,1.52-9.63v-39h8.79v39c0,4.01-.42,7.06-1.25,9.16-.83,2.09-2.31,3.57-4.43,4.43-2.12.86-5.25,1.28-9.39,1.28v-2.03Z"/>
          <path class="cls-12" d="M1433.55,427.82c-2.3-1.19-4.17-3.53-5.61-7l-1.55-3.78h-17.98l-5.54,12.3h-3.51l19.94-44.61h3.04l15.14,36.09c1.71,4.19,4.06,6.44,7.03,6.76v1.69c-.81.22-1.89.34-3.24.34-2.84,0-5.41-.6-7.71-1.79ZM1409.83,414h15.28l-7.43-17.64-7.84,17.64Z"/>
          <path class="cls-12" d="M1456.8,411.5l-11.96-17.98c-1.35-1.94-2.83-3.63-4.43-5.07-1.6-1.44-3.12-2.23-4.56-2.37v-1.35h7.37c2.3,0,4.38.72,6.25,2.16,1.87,1.44,3.46,3.2,4.76,5.27l9.19,13.86,13.11-21.29h4.39l-15.34,24.94v19.67h-8.79v-17.84Z"/>
          <path class="cls-12" d="M1510.47,427.82c-2.3-1.19-4.17-3.53-5.61-7l-1.55-3.78h-17.98l-5.54,12.3h-3.51l19.94-44.61h3.04l15.14,36.09c1.71,4.19,4.06,6.44,7.03,6.76v1.69c-.81.22-1.89.34-3.24.34-2.84,0-5.41-.6-7.71-1.79ZM1486.74,414h15.28l-7.43-17.64-7.84,17.64Z"/>
          <path class="cls-12" d="M1539.33,407.04c0-8.07,1.58-14.02,4.73-17.88,3.15-3.85,7.88-5.78,14.19-5.78,2.34,0,4.91.38,7.71,1.15,1.12.32,2.16.7,3.11,1.15l-.41,1.89-3.11-.54c-2.75-.41-4.73-.61-5.95-.61-3.47,0-6.2,1.41-8.18,4.22-1.98,2.82-2.97,7.04-2.97,12.67.72-.58,1.58-1.13,2.57-1.62,2.16-1.08,4.46-1.62,6.89-1.62,5.05,0,8.67,1.34,10.88,4.02s3.31,6.48,3.31,11.39c0,2.7-.61,5.22-1.83,7.54-1.22,2.32-3.03,4.18-5.44,5.58-2.41,1.4-5.28,2.09-8.62,2.09-11.26,0-16.9-7.88-16.9-23.66ZM1561.19,424.17c1.19-2.32,1.79-5.21,1.79-8.68,0-4.15-.55-7.24-1.66-9.29-1.11-2.05-2.92-3.08-5.44-3.08-1.22,0-2.39.25-3.51.74-1.13.5-2.06,1.04-2.8,1.62-.74.59-1.12.95-1.12,1.08,0,7.25.68,12.58,2.03,15.98,1.35,3.4,3.27,5.1,5.75,5.1,2.12,0,3.77-1.16,4.97-3.48Z"/>
        </g>
        <g>
          <path class="cls-12" d="M579.45,497.65c1.18-1.18,2.16-2.11,2.92-2.79,3.08-2.87,5.77-5.54,8.05-7.99,2.28-2.45,4.29-5.1,6.02-7.96,1.73-2.85,2.6-5.52,2.6-8.02,0-3.08-.68-5.42-2.03-7-1.35-1.58-3-2.38-4.94-2.38-2.75,0-5.01.91-6.78,2.73-1.77,1.82-2.98,4.61-3.61,8.37h-2.22c0-2.24.08-4.06.25-5.45.17-1.4.59-2.54,1.27-3.42,1.18-1.44,2.89-2.64,5.13-3.61,2.24-.97,4.65-1.46,7.23-1.46,3.85,0,7.24.89,10.17,2.66,2.94,1.78,4.41,4.97,4.41,9.57,0,2.87-1,5.81-3.01,8.81-2.01,3-4.29,5.7-6.85,8.08-2.56,2.39-5.55,4.94-8.97,7.64-2.03,1.61-3.4,2.77-4.12,3.49h13.12c2.54,0,4.49-.6,5.86-1.81,1.37-1.21,2.06-2.93,2.06-5.17h1.9v4.75c0,3.38-1.8,5.07-5.39,5.07h-23.08v-4.12Z"/>
          <path class="cls-12" d="M617.93,500.35c-2.96-1.79-4.44-4.53-4.44-8.21,0-2.75.95-5.02,2.85-6.81,1.9-1.8,4.48-3.39,7.73-4.79-2.96-1.65-5.2-3.27-6.72-4.85-1.52-1.58-2.28-3.62-2.28-6.12,0-3.89,1.3-6.68,3.9-8.37s6.05-2.54,10.36-2.54,7.77.8,10.36,2.41c2.6,1.61,3.9,4.23,3.9,7.86,0,2.28-.77,4.27-2.31,5.96-1.54,1.69-3.62,3.09-6.24,4.18,3.21,1.73,5.71,3.53,7.48,5.39,1.77,1.86,2.66,4.21,2.66,7.04,0,3.97-1.45,6.89-4.34,8.75-2.9,1.86-6.73,2.79-11.51,2.79s-8.45-.9-11.41-2.69ZM634.64,498.25c1.33-1.29,2-3.12,2-5.48s-.79-4.35-2.38-5.96c-1.58-1.61-3.86-3.19-6.81-4.75-1.77.93-3.12,2.17-4.03,3.71-.91,1.54-1.36,3.67-1.36,6.37s.65,4.72,1.97,6.05c1.31,1.33,3.08,2,5.33,2s3.96-.64,5.29-1.93ZM634.26,474.2c.53-1.27.79-3.02.79-5.26,0-2.62-.58-4.51-1.74-5.67-1.16-1.16-2.48-1.74-3.96-1.74s-2.8.54-3.96,1.62c-1.16,1.08-1.74,2.8-1.74,5.17,0,1.86.75,3.57,2.25,5.13,1.5,1.56,3.46,2.9,5.86,3.99,1.14-.89,1.98-1.97,2.5-3.23Z"/>
          <path class="cls-12" d="M650.39,480.85c0-14.79,5.49-22.19,16.48-22.19s16.48,7.4,16.48,22.19-5.49,22.19-16.48,22.19-16.48-7.39-16.48-22.19ZM672.67,495.56c1.2-3.08,1.81-7.99,1.81-14.71s-.6-11.62-1.81-14.71c-1.2-3.08-3.14-4.63-5.8-4.63s-4.6,1.54-5.8,4.63-1.81,7.99-1.81,14.71.6,11.62,1.81,14.71c1.2,3.09,3.14,4.63,5.8,4.63s4.6-1.54,5.8-4.63Z"/>
          <path class="cls-12" d="M688.81,480.85c0-14.79,5.49-22.19,16.48-22.19s16.48,7.4,16.48,22.19-5.49,22.19-16.48,22.19-16.48-7.39-16.48-22.19ZM711.09,495.56c1.2-3.08,1.81-7.99,1.81-14.71s-.6-11.62-1.81-14.71c-1.2-3.08-3.14-4.63-5.8-4.63s-4.6,1.54-5.8,4.63-1.81,7.99-1.81,14.71.6,11.62,1.81,14.71c1.2,3.09,3.14,4.63,5.8,4.63s4.6-1.54,5.8-4.63Z"/>
          <path class="cls-12" d="M727.22,480.85c0-14.79,5.49-22.19,16.48-22.19s16.48,7.4,16.48,22.19-5.49,22.19-16.48,22.19-16.48-7.39-16.48-22.19ZM749.5,495.56c1.2-3.08,1.81-7.99,1.81-14.71s-.6-11.62-1.81-14.71c-1.2-3.08-3.14-4.63-5.8-4.63s-4.6,1.54-5.8,4.63-1.81,7.99-1.81,14.71.6,11.62,1.81,14.71c1.2,3.09,3.14,4.63,5.8,4.63s4.6-1.54,5.8-4.63Z"/>
          <path class="cls-12" d="M793.47,462.78h-4.5c-2.37,0-4.17.59-5.42,1.78-1.25,1.18-1.87,3.13-1.87,5.83h-1.9v-5.39c0-3.38,1.8-5.07,5.39-5.07h29.79v2.85h-13.25v38.99h-8.24v-38.99Z"/>
          <path class="cls-12" d="M821.23,468.17c0-2.16-.3-3.75-.89-4.79-.59-1.04-1.78-1.55-3.55-1.55h-.63v-1.9h27.96c3.59,0,5.39,1.69,5.39,5.07v5.39h-1.9c0-2.62-.67-4.54-2-5.77-1.33-1.23-3.31-1.84-5.93-1.84h-10.21v15.85h16.48v2.85h-16.48v17.43h10.84c2.41,0,4.42-.54,6.02-1.62,1.61-1.08,2.94-2.95,3.99-5.61l1.71.63-1.84,5.01c-.55,1.52-1.2,2.64-1.96,3.36-.76.72-1.95,1.08-3.55,1.08h-23.46v-33.6Z"/>
          <path class="cls-12" d="M897.08,501.42c-2.01-2.13-3.01-5.61-3.01-10.43v-22.44l-13.88,33.22h-2.09l-16.99-34.49v34.49h-3.17v-41.84h7.73l15.34,31.13,13-31.13h8.3v31.06c0,3.97.34,6.89,1.01,8.75.67,1.86,1.88,2.96,3.61,3.3v1.58c-4.56,0-7.85-1.07-9.86-3.2Z"/>
          <path class="cls-12" d="M914.23,468.17c0-2.16-.3-3.75-.89-4.79-.59-1.04-1.78-1.55-3.55-1.55h-.63v-1.9h27.96c3.59,0,5.39,1.69,5.39,5.07v5.39h-1.9c0-2.62-.67-4.54-2-5.77-1.33-1.23-3.31-1.84-5.93-1.84h-10.21v15.85h16.48v2.85h-16.48v17.43h10.84c2.41,0,4.42-.54,6.02-1.62,1.61-1.08,2.94-2.95,3.99-5.61l1.71.63-1.84,5.01c-.55,1.52-1.2,2.64-1.96,3.36-.76.72-1.95,1.08-3.55,1.08h-23.46v-33.6Z"/>
          <path class="cls-12" d="M975.4,500.35c-1.9-1.37-3.89-3.75-5.96-7.13l-6.34-10.59h-2.54v19.14h-8.3v-33.6c0-2.16-.3-3.75-.89-4.79-.59-1.04-1.78-1.55-3.55-1.55h-.63v-1.9h17.5c4.4,0,8.35.8,11.85,2.41,3.51,1.61,5.26,4.69,5.26,9.26,0,5.28-3.42,8.79-10.27,10.52l6.66,11.09c2.49,4.18,5.11,6.51,7.86,6.97v1.58c-.34.17-.95.32-1.84.44-.89.13-1.71.19-2.47.19-2.32,0-4.44-.69-6.34-2.06ZM964.37,480.09c2.37,0,4.38-.71,6.05-2.12,1.67-1.42,2.5-3.65,2.5-6.69s-.82-5.22-2.47-6.66c-1.65-1.44-3.57-2.16-5.77-2.16-1.23,0-2.18.08-2.85.25l-1.27.19v17.18h3.8Z"/>
          <path class="cls-12" d="M991.31,468.17c0-2.16-.3-3.75-.89-4.79-.59-1.04-1.78-1.55-3.55-1.55h-.63v-1.9h7.61c1.52,0,2.68.25,3.49.76.8.51,1.37,1.34,1.71,2.5.34,1.16.51,2.82.51,4.98v30.75h21.87v2.85h-30.11v-33.6Z"/>
          <path class="cls-12" d="M1030.78,500.12c-3.19-1.94-5.65-4.61-7.39-7.99-1.73-3.38-2.6-7.14-2.6-11.28s.87-7.9,2.6-11.28c1.73-3.38,4.19-6.04,7.39-7.99,3.19-1.94,6.84-2.92,10.94-2.92s7.73.97,10.9,2.92c3.17,1.94,5.62,4.61,7.35,7.99,1.73,3.38,2.6,7.14,2.6,11.28s-.87,7.9-2.6,11.28c-1.73,3.38-4.18,6.04-7.35,7.99s-6.8,2.92-10.9,2.92-7.75-.97-10.94-2.92ZM1050.65,495.15c2.11-3.36,3.17-8.12,3.17-14.29s-1.06-10.94-3.17-14.29c-2.11-3.36-5.09-5.04-8.94-5.04s-6.82,1.68-8.91,5.04c-2.09,3.36-3.14,8.12-3.14,14.29s1.05,10.94,3.14,14.29c2.09,3.36,5.06,5.04,8.91,5.04s6.82-1.68,8.94-5.04Z"/>
          <path class="cls-12" d="M1070.55,468.17c0-2.16-.3-3.75-.89-4.79-.59-1.04-1.78-1.55-3.55-1.55h-.63v-1.9h7.61c1.52,0,2.68.25,3.49.76.8.51,1.37,1.34,1.71,2.5.34,1.16.51,2.82.51,4.98v10.46h17.12v-18.7h8.24v33.6c0,2.16.29,3.75.89,4.79.59,1.04,1.78,1.55,3.55,1.55h.63v1.9h-7.61c-1.52,0-2.68-.24-3.49-.73-.8-.49-1.37-1.31-1.71-2.47-.34-1.16-.51-2.84-.51-5.04v-12.04h-17.12v20.29h-8.24v-33.6Z"/>
          <path class="cls-12" d="M1112.33,510.39c1.39-.93,2.61-2.06,3.65-3.39,1.04-1.33,1.55-2.84,1.55-4.53l-.95.19c-1.23,0-2.18-.35-2.85-1.05s-1.01-1.64-1.01-2.82.34-2.12,1.01-2.82,1.63-1.05,2.85-1.05c1.31,0,2.33.49,3.08,1.46.74.97,1.11,2.13,1.11,3.49,0,2.49-.56,4.69-1.68,6.59-1.12,1.9-2.99,3.72-5.61,5.45l-1.14-1.52Z"/>
          <path class="cls-12" d="M1145.8,468.17c0-2.16-.3-3.75-.89-4.79-.59-1.04-1.78-1.55-3.55-1.55h-.63v-1.9h17.43c4.35,0,8.29.86,11.82,2.57,3.53,1.71,5.29,5.1,5.29,10.17,0,3.3-.92,5.85-2.76,7.67-1.84,1.82-3.9,3.02-6.18,3.61-2.28.59-4.37.89-6.28.89h-6.02v16.93h-8.24v-33.6ZM1157.85,482.31c2.49,0,4.54-.76,6.15-2.28s2.41-4.08,2.41-7.67-.79-6.09-2.38-7.61-3.54-2.28-5.86-2.28c-1.23,0-2.18.08-2.85.25l-1.27.19v19.4h3.8Z"/>
          <path class="cls-12" d="M1204.88,500.35c-2.16-1.12-3.91-3.31-5.26-6.56l-1.46-3.55h-16.86l-5.2,11.54h-3.3l18.7-41.84h2.85l14.2,33.85c1.61,3.93,3.8,6.04,6.59,6.34v1.58c-.76.21-1.77.32-3.04.32-2.66,0-5.07-.56-7.23-1.68ZM1182.63,487.38h14.33l-6.97-16.54-7.35,16.54Z"/>
          <path class="cls-12" d="M1219.34,468.17c0-2.16-.3-3.75-.89-4.79-.59-1.04-1.78-1.55-3.55-1.55h-.63v-1.9h7.61c1.52,0,2.68.25,3.49.76.8.51,1.37,1.34,1.71,2.5.34,1.16.51,2.82.51,4.98v10.46h17.12v-18.7h8.24v33.6c0,2.16.29,3.75.89,4.79.59,1.04,1.78,1.55,3.55,1.55h.63v1.9h-7.61c-1.52,0-2.68-.24-3.49-.73-.8-.49-1.37-1.31-1.71-2.47-.34-1.16-.51-2.84-.51-5.04v-12.04h-17.12v20.29h-8.24v-33.6Z"/>
          <path class="cls-12" d="M1290.65,500.35c-2.16-1.12-3.91-3.31-5.26-6.56l-1.46-3.55h-16.86l-5.2,11.54h-3.3l18.7-41.84h2.85l14.2,33.85c1.61,3.93,3.8,6.04,6.59,6.34v1.58c-.76.21-1.77.32-3.04.32-2.66,0-5.07-.56-7.23-1.68ZM1268.4,487.38h14.33l-6.97-16.54-7.35,16.54Z"/>
          <path class="cls-12" d="M1308.47,470.39v31.38h-3.17v-34.23c0-1.78-.43-3.17-1.3-4.18-.87-1.01-2.34-1.52-4.41-1.52h-.32v-1.9h4.44c2.37,0,4.3.31,5.8.92s2.76,1.57,3.77,2.88l21.81,25.36v-29.16h3.17v42.03h-2.92l-26.88-31.57Z"/>
          <path class="cls-12" d="M1356.3,500.03c-3.49-2.01-6.21-4.75-8.18-8.24-1.97-3.49-2.95-7.34-2.95-11.57s.87-7.72,2.6-11c1.73-3.27,4.19-5.85,7.38-7.73,3.19-1.88,6.84-2.82,10.94-2.82,3.72,0,6.89.49,9.51,1.46,2.62.97,4.56,2.2,5.83,3.68.72.93,1.17,2.11,1.36,3.55.19,1.44.29,3.19.29,5.26h-1.9c-.8-3.84-2.27-6.66-4.41-8.43-2.13-1.78-5.06-2.66-8.78-2.66-4.73,0-8.24,1.78-10.52,5.33-2.28,3.55-3.42,8.01-3.42,13.38,0,7.23,1.26,12.42,3.77,15.56s5.91,4.72,10.17,4.72c3.3,0,6.15-.55,8.56-1.65v-11.28c0-2.24.84-4.09,2.54-5.55s4.95-2.19,9.76-2.19v1.58c-2.71,0-4.06,2.01-4.06,6.02v11.35c-2.41,1.48-4.99,2.56-7.73,3.23-2.75.67-5.77,1.01-9.07,1.01-4.31,0-8.21-1-11.7-3.01Z"/>
        </g>
        <g>
          <path class="cls-10" d="M673.07,251.62c1.38-2.16,2.54-3.94,3.67-5.74,6.17-9.83,12.71-19.38,20.82-27.74,5.94-6.13,12.65-11.3,20.57-14.61,8.13-3.39,16.45-3.76,24.72-.46,10.65,4.25,18.36,11.86,23.97,21.69,2.08,3.65,2.72,7.6,2.07,11.84-.88,5.71-3.11,10.81-6.2,15.6-.56.87-1.12,1.75-2.04,3.2,2.71-.6,4.8-.91,6.8-1.52,10.07-3.04,19.39-7.46,27.46-14.39,4.88-4.19,7.28-9.43,6.91-15.67-.42-7.08-1.28-14.14-2.26-21.16-1.58-11.37-3.33-22.71-5.16-34.04-4.58-28.24-9.22-56.47-13.89-84.69-.78-4.7-1.85-9.35-2.65-14.05-.22-1.29-.24-2.75.11-3.99,1.27-4.49,2.7-8.93,4.15-13.36.32-.98.95-1.86,1.4-2.71,1.97-.08,2.64,1.23,3.18,2.42.76,1.68,1.45,3.43,1.84,5.22,2.18,9.98,4.46,19.94,6.32,29.98,3.9,21.14,7.81,42.29,11.25,63.51,2.69,16.61,4.69,33.34,6.95,50.02,1.59,11.77,3.44,23.51,6.43,34.99,2.07,7.93,5.98,15.01,12.57,20.23,7.77,6.16,16.81,7.83,26.41,6.88,7.11-.7,13.94-2.85,20.58-5.36,8.82-3.33,17.49-7.07,26.23-10.64.34-.14.63-.4,1.29-.82-.88-.33-1.43-.61-2.01-.74-12.85-2.74-25.8-4.88-38.86-6.45-8.61-1.03-17.23-1.8-25.91-1.47-2.78.1-3.71-1.05-2.61-3.61,2-4.64,4.31-9.14,6.49-13.7,5.21-5.36,9.73-11.37,15.66-16.06,12.61-9.99,26.62-17.54,41.22-24.11,1.85-.83,3.69-1.67,5.77-2.62-.54-2.12-1.12-4.05-1.52-6.02-2.49-12.4-5.13-24.77-7.34-37.22-2.39-13.5-4.42-27.07-6.47-40.63-.99-6.54-1.7-13.12-2.45-19.69-.19-1.68-.47-3.19-1.65-4.53-1.33-1.51-1.44-3.3-.58-5.18,2.19-4.78,4.29-9.6,6.47-14.38.38-.83,1.01-1.55,1.77-2.7.81,1.17,1.43,1.9,1.86,2.73,6.23,11.91,11.58,24.23,16.58,36.7.61,1.52,1.04,3.15,1.3,4.78.26,1.64-.94,2.44-2.32,1.53-1.7-1.12-3.24-2.47-4.81-3.78-1.02-.86-1.96-1.83-3.47-2.51.16,1.28.27,2.56.47,3.83,3.13,19.1,6.09,38.24,9.5,57.29,1.35,7.54,3.67,14.91,5.58,22.35.19.74.55,1.43.89,2.29,2.98-.69,5.87-1.44,8.79-2.02,5.03-1,10.04-1.02,15.01.45,5.16,1.53,8.82,4.82,10.09,9.99,2.37,9.69,1.53,19.17-3.49,27.96-3.55,6.21-9.03,8.61-15.47,7.09-3.36-.79-6.29-2.5-8.96-4.71-4.79-3.97-8.39-8.91-11.63-14.14-.82-1.31-1.58-2.66-2.49-4.18-17.88,5.6-34.36,13.54-49.31,25.61.8.22,1.12.36,1.45.38,10.13.63,20.03,2.69,29.95,4.74,10.29,2.12,20.59,4.25,30.98,5.74,12.04,1.73,24.19,2.53,36.38,2.4,3.99-.04,7.98-.08,11.97-.1.78,0,1.56.01,2.33.13,1.15.17,1.81.84,1.41,2.04-1.88,5.64-3.82,11.25-6.96,16.35-.66,1.07-1.55,1.48-2.7,1.21-6.73-1.57-13.38-.23-20.02.67-10.08,1.36-19.81,4.19-29.23,7.91-12.49,4.93-24.8,10.32-37.28,15.26-7.69,3.04-15.63,5.42-23.78,6.96-8.9,1.68-17.49.53-25.55-3.51-6.5-3.26-11.45-8.33-15.08-14.64-4.41-7.66-7.34-15.87-8.86-24.58-.1-.56-.3-1.11-.59-2.12-.53.84-.92,1.3-1.14,1.84-1.72,4.14-3.59,8.18-6.23,11.86-4.18,5.83-9.75,10.01-15.81,13.62-10.52,6.27-22.01,9.74-34.02,11.7-13.48,2.2-27.04,3.33-40.7,3.29-3.5,0-7.01.36-10.5.23-9.37-.34-18.64-1.31-27.07-5.99-.58-.32-1.21-.55-1.74-.78-1.44,2.33-2.75,4.6-4.2,6.76-.73,1.09-1.55,2.4-3.24,1.89-1.16-.35-1.77-1.78-1.38-3.79.45-2.28,1.18-4.51,1.83-6.75.24-.83.58-1.63.93-2.59-5.23-4.82-9.6-10.2-11.69-17.77-.79,1.37-1.3,2.27-1.83,3.16-3.28,5.48-7.08,10.5-12.56,13.99-6.18,3.94-12.87,5.79-20.26,4.9-4.37-.53-8.64-1.28-12.61-3.35-4.71-2.47-8.26-6.06-10.9-10.64-3.51-6.09-5.15-12.82-6.28-19.63-1.6-9.59-2.78-19.25-4.23-28.87-.47-3.14-1.23-6.24-1.97-9.98-1.43,2.17-1.62,4.07-1.97,5.89-1.16,6.11-3.75,11.42-8.42,15.64-2.94,2.65-6.26,4.58-10.06,5.7-1.01.3-2.01.62-3.26,1,0,2.01.03,3.94,0,5.87-.1,5.84-.62,11.62-1.52,17.41-1.57,10.06-6.54,17.93-14.16,24.42-6.56,5.59-13.75,10.22-21.26,14.35-13.42,7.38-27.41,13.49-42.1,17.91-13.47,4.05-27.23,5.75-41.25,4.21-8.91-.97-17.34-3.51-24.63-9.04-6.54-4.95-11.24-11.24-13.95-18.99-3.37-9.6-3.49-19.47-2.21-29.41,1.3-10.12,4.38-19.74,8.69-28.96.9-1.92,2.18-3.66,3.4-5.41.42-.6,1.12-1.11,1.8-1.42.99-.45,1.87,0,1.88,1.07,0,1.43-.13,2.92-.54,4.29-1.11,3.73-2.43,7.39-3.61,11.1-2.22,7.02-3.26,14.2-2.93,21.58.46,10.21,4.65,18.51,12.57,24.97,7.37,6.01,16.04,8.65,25.28,9.58,10.65,1.06,21.16-.06,31.56-2.53,22.12-5.26,42.43-14.65,61.47-26.91,2.94-1.89,5.63-4.18,8.49-6.19,4.34-3.05,5.81-7.12,4.55-12.21-.96-3.87-1.76-7.8-3.04-11.56-2.11-6.16-4.58-12.2-6.82-18.32-.35-.96-.7-2.15-.44-3.07,1.21-4.4,2.61-8.75,4-13.1.22-.69.78-1.28,1.2-1.94,1.66.29,2.04,1.54,2.62,2.64,1.13,2.14,2.2,4.34,3.55,6.34,1.94,2.89,4.73,3.95,8.29,3.85,5.85-.17,10.71-2.21,14.06-6.99,1.59-2.26,2.65-4.97,3.57-7.6,1.32-3.76,2.24-7.66,3.44-11.46.46-1.47,1.1-2.92,1.87-4.26,1.15-1.99,2.38-2.18,3.88-.39,1.29,1.54,2.55,3.31,3.11,5.2,1.81,6.15,3.61,12.33,4.83,18.62,1.66,8.49,2.66,17.1,4.17,25.63.95,5.39,2.67,10.59,5.86,15.13,5.41,7.71,12.87,11.25,22.29,10.74,8.74-.47,15.26-4.71,20.19-11.69,2.58-3.66,5.04-7.4,7.66-11.03.78-1.08,1.79-2.07,2.88-2.83,1.7-1.18,2.92-.67,3.44,1.37.34,1.31.6,2.69.58,4.03-.09,5.07,2.49,8.95,5.67,12.42,1.94,2.11,4.45,3.68,6.92,5.65ZM679.57,254.96c.94.45,1.52.75,2.11,1.01,5.06,2.18,10.41,3.13,15.87,3.48,16.28,1.02,31.96-1.78,47.1-7.7,3.43-1.34,6.83-2.84,10.08-4.57,4.33-2.3,4.6-3.72,1.77-7.77-4.47-6.4-10.26-11.39-16.96-15.32-3.03-1.77-6.32-2.91-9.85-3.41-8.03-1.13-15.19,1.27-21.93,5.29-8.13,4.86-14.59,11.57-20.47,18.88-2.6,3.24-5.05,6.6-7.72,10.11ZM928.51,189.01c2.24,3.38,6,6.41,9.39,7.31,1.75.46,3.63.64,5.45.61,1.88-.03,2.28-.81,1.9-2.7-.42-2.14-1.89-3.4-3.75-4.1-3.76-1.42-7.71-1.8-11.72-1.6-.36.02-.71.26-1.28.49Z"/>
          <path class="cls-10" d="M1387.29,217.3c-12.41-1.8-24.82-3.59-37.22-5.41-12.27-1.79-24.66-2.72-37.23-5.09.63-1.48.88-2.43,1.38-3.2,3.01-4.65,6.08-9.27,9.12-13.89.72-1.09,1.72-1.71,2.95-2.2,12.37-4.95,23.15-12.3,32.43-21.86,5-5.15,8.72-11.16,12.16-17.41,2.1-3.82,4.53-7.5,7.1-11.02,1.29-1.76,3.1-3.24,4.93-4.45,2.19-1.44,4.23-1,5.47,1.28,1.29,2.36,2.13,4.98,2.97,7.55.75,2.3,1.07,4.75,1.87,7.04,2.39,6.87,6.75,9.75,13.96,9.46,7.66-.31,13.81-3.77,18.8-9.34,2.2-2.46,3.94-5.31,5.96-7.93,1.36-1.77,2.77-3.51,4.27-5.16.86-.94,1.93-1.7,3.46-1.06.9,1.43.4,2.93,0,4.42-.4,1.5-.97,2.97-1.24,4.49-.74,4.09,1.29,7.35,5.26,8.54,3.22.96,6.54,1.05,9.84.56,3.05-.46,5.44-2.02,6.92-4.82,1.37-2.58,2.71-5.17,4.15-7.71,1.2-2.11,2.45-4.2,3.81-6.21.94-1.39,1.04-1.32,3.48-1.88.22.98.53,1.96.64,2.96.14,1.25.09,2.53.15,3.79.29,5.94,3.29,9.85,9.01,11.41,4.8,1.31,9.44.34,13.94-1.47,6.08-2.44,9.98-7.34,13.55-12.47,3-4.31,5.71-8.82,8.56-13.23.37-.57.81-1.1,1.18-1.67.78-1.22,1.68-2,3.03-.69,1.93-2.52,3.65-4.86,5.47-7.13,2.31-2.88,5.3-4.85,8.75-6.11,5.78-2.11,11.54,0,15.09,4.09,5.86,6.76,8.85,14.69,9.85,23.56.53,4.72-.26,8.87-3,12.7-1.69,2.37-3.34,4.77-5.04,7.13-1.76,2.44-4.14,3.08-6.97,2.25-2.33-.69-4.71-1.26-6.97-2.13-7.55-2.93-14.88-6.3-21.5-11.04-.62-.45-1.31-.81-2.24-1.38-.52.91-1.02,1.7-1.44,2.54-2.5,4.88-5.62,9.32-9.13,13.51-4.52,5.39-10.1,9.05-16.98,10.66-4.44,1.04-8.87.96-13.22-.4-2.78-.87-5.04-2.53-6.56-5.06-1.24-2.07-2.41-4.18-3.77-6.56-.53.82-.97,1.4-1.32,2.03-1.82,3.25-4.02,6.21-6.89,8.62-3.97,3.33-8.58,4.94-13.73,4.78-5.95-.19-10.7-4.11-12.49-10.12-.19-.64-.35-1.29-.7-2.54-.84,1.23-1.44,2.03-1.97,2.88-2.06,3.34-4.51,6.3-7.62,8.76-4.09,3.23-8.64,5.02-13.82,5.64-3.78.45-7.37.19-10.83-1.36-4.54-2.03-7.32-5.71-9.09-10.2-.82-2.07-1.33-4.26-1.94-6.41-.27-.93-.41-1.9-.66-2.84-.41-1.49-.6-3.35-2.3-3.79-1.96-.5-3.34,1.01-4.28,2.46-2.32,3.59-4.6,7.22-6.62,10.98-5.22,9.73-11.8,18.29-20.59,25.06-.15.11-.23.3-.55.73.75.26,1.38.6,2.06.71,16.42,2.69,32.87,5.12,49.43,6.85,19.81,2.08,39.63,2.35,59.48.95,2.72-.19,5.44-.35,8.16-.47.75-.03,1.5.1,2.66.19-.16,1.1-.13,2.07-.46,2.89-2.01,4.95-4.12,9.87-6.18,14.81-1.11,2.66-2.86,3.74-5.93,3.41-10.17-1.1-20.18.42-30.14,2.38-10.24,2.02-20.23,4.94-30.04,8.44-18.14,6.48-36.19,13.25-54.41,19.52-11.87,4.09-24.13,6.9-36.4,9.57-13.51,2.94-27.14,5.06-40.89,6.55-13.76,1.49-27.58,2.12-41.4,1.78-13.03-.32-26.1-.87-38.79-4.36-7.26-2-14.26-4.63-20.17-9.52-4.49-3.7-8.02-8.18-10.77-13.29-2.55-4.75-4.3-9.78-5.21-15.1-.08-.47-.28-.92-.65-2.06-.45,1.76-.73,2.89-1.04,4.02-.99,3.7-2.54,7.04-5.06,10.05-9.6,11.45-21.13,20.65-33.21,29.25-9.22,6.56-18.67,12.73-29.15,17.11-6.74,2.82-13.61,5.33-21.08,5.38-4.32.03-8.54-.57-12.55-2.21-6.85-2.81-10.45-8.4-11.85-15.26-2.39-11.66-.85-23.05,3.62-34.04,1.61-3.96,3.08-8.01,5.83-11.39.79-.97,1.45-2.12,3.13-1.71.42,2-.12,3.87-.66,5.7-.99,3.36-2.13,6.67-3.1,10.04-1.47,5.1-1.94,10.33-1.45,15.61.65,7.01,5.5,11.83,12.64,12.8,6.02.82,11.83-.21,17.54-1.98,7.57-2.34,14.66-5.8,21.54-9.67,13.44-7.55,26.1-16.25,37.9-26.19,4.4-3.71,8.51-7.72,11.71-12.55.8-1.21,1.51-2.5,2.1-3.83.93-2.08,1.39-4.26.71-6.53-1.91-6.33-3.64-12.72-5.79-18.97-6.35-18.53-14.49-36.33-22.32-54.26-.92-2.11-1.48-4.18-1.19-6.48.58-4.73,1.06-9.47,1.67-14.2.11-.89.62-1.73,1.15-3.12,1.18,1.16,2.12,1.83,2.73,2.73,2.76,4.01,5.68,7.93,8.08,12.15,7.18,12.62,13.52,25.65,18.2,39.44,2.61,7.68,4.09,15.61,5.41,23.59,1.29,7.87,2.46,15.77,4.19,23.54,3.11,13.92,11.68,23.44,24.72,28.99,11.47,4.89,23.63,6.3,35.93,6.84,12.26.54,24.53.34,36.76-.59,10.09-.77,20.17-1.72,30.21-3.02,12.35-1.59,24.55-4.11,36.65-7.07,21.51-5.26,42.4-12.36,62.89-20.71.43-.17.82-.44,1.23-.66-.02-.24-.04-.47-.05-.71ZM1529.2,128.14c3.51,3.12,12.77,6.72,16.24,6.38-1.87-6.7-11.7-10.69-16.24-6.38Z"/>
          <path class="cls-10" d="M1003.71,275.43c-1.76-1.15-1.72-3.11-1.88-4.88-.3-3.29-.33-6.61-.62-9.9-.97-11.04-1.77-22.1-3.07-33.11-1.64-13.9-3.62-27.77-5.61-41.63-1.78-12.41-3.82-24.79-5.66-37.19-2.69-18.08-5.34-36.17-7.96-54.26-1.03-7.12-1.92-14.27-2.99-21.39-.16-1.08-.78-2.17-1.45-3.06-1.22-1.63-1.56-3.19-.72-5.14,2-4.64,3.82-9.36,5.78-14.03.43-1.03,1.14-1.94,1.97-3.33.96,1.27,1.78,2.08,2.28,3.06,6.46,12.66,12.54,25.49,17.11,38.98.54,1.59,1.41,3.23.74,4.99-1.37.75-2.4.11-3.26-.66-1.45-1.29-2.8-2.69-4.18-4.06-1-1-1.98-2.02-3.42-2.74.67,4.31,1.33,8.61,2.02,12.92,3.54,22.29,7.14,44.57,10.61,66.87,1.82,11.72,3.63,23.45,5.04,35.23,1.44,12.07,2.62,24.18,3.46,36.3.68,9.7-1.21,19.18-3.78,28.51-.54,1.97-1.15,3.92-1.87,5.83-.43,1.16-.96,2.38-2.54,2.68Z"/>
          <path class="cls-10" d="M414.7,139.15c-6.68-8.84-8.2-18.63-6.81-29.02,2.38-17.76,7.49-34.77,14.38-51.27.71-1.69,1.62-3.32,2.6-4.88.53-.84,1.43-1.46,2.06-2.08,1.62.62,1.66,1.74,1.49,2.8-.29,1.82-.56,3.68-1.17,5.4-4.35,12.32-7.47,24.97-10.36,37.68-1.29,5.67-2.04,11.51-.85,17.37.56,2.77,1.26,5.5,3.12,7.76,3.28,3.99,8.04,3.93,11.08-.22,1.38-1.88,2.55-3.9,3.85-5.84.54-.8,1.23-1.86,2.28-1.32.71.37,1.48,1.45,1.48,2.22.02,1.82-.26,3.68-.68,5.46-.47,1.98-1.15,3.92-1.88,5.83-.69,1.8-1.57,3.53-2.43,5.45,2.17,1.7,4.01,3.7,4.48,6.53.83,5.03.91,10.05-.16,15.08-.92,4.33-2.51,8.35-4.77,12.16-9.17,15.44-19.26,30.18-31.91,43.04-1.16,1.17-2.39,2.29-3.71,3.28-.82.61-1.93,1.38-2.9.44-.94-.91-.36-2.01.28-2.9,1.7-2.37,3.33-4.81,5.18-7.05,7.45-9.02,14.11-18.61,20.57-28.33,3.41-5.12,5.85-10.81,6.87-16.93.39-2.35.36-4.87-.02-7.23-.85-5.31-5.69-7.36-10.25-4.54-1.07.66-2.09,1.43-3.12,2.16-.71.51-1.39,1.07-2.12,1.55-1.05.7-2.17,1.63-3.42.56-1.25-1.07-.55-2.41.02-3.49.95-1.8,2.05-3.52,3.22-5.19,1.06-1.5,2.29-2.88,3.57-4.48Z"/>
          <path class="cls-10" d="M1576.3,48.9c-3.34,4.02-6.76,7.98-9.98,12.09-2.32,2.97-5.33,4.53-8.83,5.74-27.48,9.5-54.98,18.98-82.34,28.81-10.24,3.68-20.15,8.26-30.22,12.43-.27.11-.51.33-.79.37-.62.11-1.25.14-1.87.2-.01-.72-.29-1.59,0-2.14.88-1.62,1.84-3.22,3.03-4.62,2.01-2.37,4.21-4.58,6.33-6.85,4.12-4.39,9.55-6.68,14.9-8.96,28.03-11.94,56.75-22.02,85.81-31.12,6.96-2.18,14.01-4.05,21.02-6.06.81-.23,1.65-.39,2.47-.58.15.23.3.45.46.68Z"/>
          <path class="cls-10" d="M1515.21,258.5c-1.34,1.85-2.59,3.77-4.04,5.52-2.68,3.21-5.43,6.37-8.25,9.45-.75.81-1.81,1.49-2.86,1.86-28.81,10.15-57.66,20.17-86.44,30.4-7.42,2.64-14.62,5.87-21.9,8.88-2.96,1.23-5.83,2.64-8.78,3.9-.45.19-1.25.19-1.57-.08-.32-.27-.46-1.11-.28-1.53.55-1.24,1.13-2.52,1.98-3.54,2.3-2.76,4.7-5.45,7.17-8.06,3.47-3.67,7.73-6.19,12.38-8.06,11.73-4.72,23.42-9.52,35.22-14.07,24.35-9.37,49.17-17.33,74.27-24.4.91-.26,1.83-.46,2.75-.68.12.14.23.28.35.41Z"/>
          <path class="cls-10" d="M1351.48,72.06c-.2-.48-.26-.91-.5-1.14-2.22-2.04-1.59-4.13-.17-6.26.81-1.21,1.5-2.52,2.43-3.63,1.3-1.55,2.7-1.41,3.72.36.47.82.74,1.81.85,2.75.56,4.81.04,9.54-1.79,14.02-2.78,6.8-10.91,8.87-16.74,4.38-.83-.64-1.63-1.33-2.66-2.17-1.16,1.05-2.24,1.99-3.28,2.96-4.66,4.35-10.19,5.38-16.23,4.05-1.38-.3-2.74-1.05-3.9-1.87-5.13-3.64-10.74-4.05-16.71-2.93-4.94.93-9.05,3.49-13.07,6.21-7.09,4.79-14.21,9.56-21.12,14.61-12.44,9.08-26.31,15-41.09,18.9-4.59,1.21-9.31,1.91-14,2.73-1.27.22-3.13.53-3.39-1.24-.21-1.47,1.6-1.76,2.73-2.13,3.98-1.28,8.02-2.38,12-3.66,11.93-3.85,23.01-9.49,33.36-16.48,6.27-4.24,12.3-8.88,18.19-13.65,8.09-6.54,16.84-11.86,26.53-15.62,1.09-.42,2.2-.8,3.32-1.11,5.4-1.48,10.42-.85,14.85,2.78,3.82,3.13,8.14,3.41,12.67,2.14,3.46-.97,5.89-3.32,7.71-6.32.81-1.33,1.34-2.85,2.29-4.06.99-1.26,2.18-2.51,3.55-3.29,1.59-.91,2.64.03,2.33,1.89-.17,1.04-.64,2.04-.94,3.06-.64,2.18-.31,3.26,1.56,4.46,2.38,1.53,4.85,1.61,7.51.25Z"/>
          <path class="cls-10" d="M766,301.96c-2.68,3.31-5.49,6.52-7.99,9.96-2.89,3.96-6.75,6.06-11.32,7.62-24.85,8.52-49.67,17.11-74.38,25.99-9.6,3.45-18.92,7.7-28.35,11.61-.7.29-1.26.93-1.97,1.19-.47.17-1.24.13-1.6-.16-.33-.27-.51-1.06-.37-1.5.25-.82.71-1.6,1.21-2.31,4.82-6.89,10.63-12.58,18.49-16.02,13.73-6.03,27.68-11.46,41.77-16.55,20.32-7.34,40.85-13.99,61.65-19.85.82-.23,1.65-.39,2.48-.59.13.2.26.41.39.61Z"/>
          <path class="cls-10" d="M597.75,87.4c-1.47,1.54-3.1,1.17-4.6.36-2.64-1.43-5.27-2.89-7.76-4.56-2.09-1.41-3.57-3.35-3.38-6.31-4.89,4.96-9.19,10.54-15.11,14.23-6.02,3.76-12.24,7.2-18.52,10.5-6.18,3.25-12.75,5.52-20.09,7.15.43-1.01.51-1.62.86-1.93.65-.57,1.44-.98,2.19-1.44,12.56-7.81,25.26-15.43,37.01-24.45,4.94-3.79,9.75-7.76,14.37-11.93,3.56-3.21,7.01-2.61,10.14-.82,4.6,2.63,7.97,6.48,10.86,10.81,3.36,5.03,6.42,10.22,8.28,16.03.23.73.61,1.41,1.14,2.6.38-.96.7-1.48.8-2.04,1.33-6.98,2.62-13.96,3.93-20.94.82-4.37,2.64-8.34,4.98-12.07,1.85-2.94,4.44-3.84,7.8-2.99,3.53.9,6.3,2.99,8.64,5.68,1.29,1.48,1.74,3.19,1.19,5.16-.6,2.15-.93,4.38-1.6,6.5-.72,2.26-1.9,2.46-3.55.67-1.18-1.29-2.15-2.78-3.37-4.02-2.68-2.69-4.82-2.35-6.72.97-1.97,3.42-3.07,7.14-3.68,11.01-1.22,7.68-2.34,15.39-3.68,23.05-.4,2.27-1.26,4.49-2.15,6.63-.63,1.51-1.54,1.64-2.69.43-.98-1.03-1.87-2.27-2.42-3.58-1.21-2.86-2.28-5.79-3.22-8.75-1.89-5.95-4.76-11.27-9.65-15.95Z"/>
          <path class="cls-10" d="M1027.34,60.33c1.55,1.68,2.77,2.67,3.57,3.93,4.84,7.6,8.44,15.79,10.94,24.42,3.13,10.84,4.18,21.97,3.59,33.21-.38,7.2-1.48,14.29-4.27,21.06-3.73,9.05-6.13,18.44-6.76,28.25-.2,3.04-.06,6.03.93,8.94.98,2.88,3,4.3,5.92,4.21,2.71-.08,4.74-1.6,5.5-4.38.38-1.39.36-2.88.61-4.31.21-1.24.34-2.55.89-3.64.31-.61,1.38-1.14,2.11-1.14.51,0,1.05.94,1.52,1.51.17.21.21.55.24.83.69,6.67.5,13.26-2.48,19.42-1.63,3.36-4.44,5.29-8.29,5.6-2.62.21-4.85-.54-6.55-2.49-4.26-4.91-6.95-10.54-7.32-17.1-.63-11.14,1.36-21.92,4.99-32.38,2.69-7.75,5.28-15.49,5.47-23.77.24-10.61-.96-20.98-5.65-30.7-2.3-4.77-5.46-8.97-8.71-13.09-1.6-2.04-2.04-4.08-1.19-6.51.8-2.3,1.34-4.68,2.22-6.94.58-1.49,1.56-2.82,2.74-4.9Z"/>
          <path class="cls-10" d="M1530.75,285.91c-1.71,3.08-3.05,6-4.86,8.6-1.25,1.78-2.93,3.47-4.8,4.56-5.27,3.1-10.6,6.18-16.16,8.7-10.54,4.76-21.3,9.05-31.9,13.67-6.67,2.91-13.74,4.22-20.81,5.54-6.3,1.18-12.67,2.06-19.01,3.03-1.24.19-2.53.29-3.77.18-.5-.04-.95-.74-1.42-1.14.37-.39.67-.93,1.12-1.13,1.51-.65,3.09-1.16,4.63-1.74,18.46-6.98,36.95-13.88,55.37-20.98,10.54-4.06,20.76-8.84,30.4-14.76,4.34-2.66,7.56-6.31,9.59-11.04,2.17-5.07,5.36-9.47,9.58-13.05,2.48-2.1,4.68-2.22,7.48-.59,3.19,1.86,5.06,4.8,6.43,8.07,2.14,5.08,1.89,10.27.23,15.41-.89,2.74-2.21,3.44-5.05,3.27-5.9-.34-11.16-2.36-15.87-5.91-.38-.28-.82-.48-1.18-.69ZM1545.99,281.79c.55-3.67-.87-6.01-3.78-6.55-2.8-.52-4.15.2-4.78,2.65,2.61,1.77,5.43,3.09,8.56,3.91Z"/>
          <path class="cls-10" d="M764.23,351.95c-.51-2.05.49-3.2,1.34-4.34,4.92-6.56,10.8-11.75,18.56-15.02,21.89-9.22,44.15-17.42,66.79-24.58,8.9-2.82,17.88-5.38,26.83-8.06.55-.16,1.12-.26,2.11-.48-.45.83-.66,1.42-1.03,1.87-3.34,4.05-6.67,8.11-10.12,12.06-.65.74-1.75,1.19-2.72,1.53-24.14,8.47-48.33,16.77-72.4,25.42-9.14,3.28-18,7.35-27,11.04-.72.29-1.52.37-2.34.56Z"/>
          <path class="cls-10" d="M721.8,72.97c3.9-6.49,8.95-11.96,15.17-16.29,3.48-2.42,7.28-3.71,11.57-2.25,3.59,1.22,5.06,3.65,4.63,7.38-.66,5.77-4.11,9.73-8.44,13.11-5.08,3.97-10.8,6.67-17.19,7.47-4.49.56-9.14,1.29-13.55-.57-6.16-2.59-12.15-1.82-18.14.57-5.74,2.29-10.99,5.45-15.96,9.03-6.23,4.49-12.28,9.24-18.43,13.84-6.03,4.51-12.93,7.08-20.16,8.86-1.11.27-2.32.33-3.45.19-1.2-.14-1.51-1.28-.65-2.14.47-.47,1.1-.8,1.7-1.09.87-.43,1.78-.79,2.68-1.14,9.23-3.55,17.01-9.32,24.27-15.89,5.63-5.1,11.32-10.13,17.8-14.15,6.88-4.27,13.98-8.05,22.11-9.51,2.82-.5,5.36-.18,7.89,1.14,3.12,1.62,4.78,1.85,8.17,1.45ZM746.3,64.38c-2.18-1.59-4.5-1.59-6.56-.86-4.65,1.65-8.07,5-11.47,8.98,5.44-.7,16.33-5.6,18.02-8.12Z"/>
          <path class="cls-10" d="M724.35,129.61c-1.29-.12-2.7.07-3.83-.41-2.3-1-4.6-2.14-6.62-3.61-3.5-2.54-4.28-8.58-1.84-12.15,1.17-1.71,2.84-2.31,4.81-2.15,3.5.28,6.38,1.88,8.48,4.6,4.42,5.7,8.48,11.63,10.76,18.59.3.9.71,1.77,1.33,3.31.41-1.25.71-1.89.83-2.55.8-4.7,1.36-9.45,2.4-14.09.85-3.77,1.89-7.58,3.5-11.08,2.75-5.95,6.47-6.91,12.01-3.4,5.87,3.71,5.72,7.37,2.87,13.55-.7,1.51-1.82,1.44-2.94.07-.86-1.05-1.61-2.21-2.56-3.17-2.29-2.32-4.54-1.95-6,1.03-1.68,3.43-2.7,7.08-3.22,10.86-.7,5.01-1.35,10.02-2.07,15.03-.89,6.18-3.63,11.39-8.12,15.77-5.45,5.32-12.05,8.88-18.67,12.36-7.42,3.9-15.5,6.07-23.49,8.41-.21-.26-.41-.51-.62-.77.53-.26,1.13-.43,1.57-.8,5.14-4.19,10.5-8.06,16.34-11.23,8.32-4.52,16.23-9.62,23.41-15.82,2.34-2.02,2.36-1.96,1.37-4.84-.5-1.47-.88-2.98-1.3-4.48-1.44-5.19-4.31-9.51-8.39-13.02Z"/>
          <path class="cls-10" d="M1276.14,137.59c-9.59,12.48-22.77,19.06-36.5,24.76-2.93,1.22-6,2.06-9.2,2.6-.3-1.76.97-2.02,1.79-2.54,4.43-2.81,8.89-5.59,13.35-8.37,11-6.86,21.42-14.49,31.2-23,3.55-3.09,5.87-3.09,9.96-.61,3.69,2.24,6.3,5.45,8.65,8.94,2.83,4.21,5.36,8.57,6.97,13.42.21.62.54,1.2,1.08,2.37.3-1.08.5-1.64.61-2.22,1.09-5.63,2.23-11.25,3.22-16.9.63-3.61,2.03-6.9,3.86-10.01,2.27-3.87,5.35-4.7,9.42-2.77.18.08.36.16.53.25,6.22,3.3,7.76,8.38,4.4,14.58-.69,1.27-1.49,1.5-2.55.53-.92-.85-1.65-1.9-2.47-2.87-3.05-3.61-5.01-3.36-7.13.79-2.22,4.34-2.71,9.1-3.55,13.78-.78,4.4-1.23,8.86-1.98,13.26-.36,2.09-.93,4.18-1.69,6.17-.91,2.41-2.07,2.5-3.68.42-.59-.76-1.09-1.63-1.43-2.52-1.02-2.62-2.01-5.27-2.89-7.94-1.77-5.34-3.66-8.5-7.64-12.56-5.49.8-12.6-3.73-14.32-9.57Z"/>
          <path class="cls-10" d="M1218.19,128.73c1.34.65,1.4,1.85,1.25,3.01-.21,1.53-.44,3.11-.97,4.55-4.01,10.88-6.69,22.13-9.57,33.33-1.7,6.6-3.3,13.2-3.62,20.05-.21,4.61.1,9.15,1.93,13.45.6,1.41,1.34,2.84,2.32,4.02,2.66,3.23,7,3.77,10.07.96,2.04-1.86,3.51-4.35,5.2-6.59.52-.69.86-1.54,1.42-2.2,1.2-1.43,2.71-1.18,3.3.61.32.97.43,2.12.26,3.13-.9,5.51-2.61,10.79-5.42,15.62-2.43,4.18-5.75,7.32-10.86,7.97-4.9.62-9.26-1.62-11.71-5.93-5.12-9.03-6.07-18.66-4.74-28.79,2.26-17.17,7.06-33.64,13.28-49.74,1.4-3.61,3.07-7.13,4.75-10.63.62-1.28,1.49-2.53,3.11-2.82Z"/>
          <path class="cls-10" d="M1572.12,183.8c-.22,8.75-3.14,16.59-7.66,23.92-8.58,13.93-17.73,27.46-28.76,39.6-2.61,2.87-5.49,5.5-8.27,8.2-.48.47-1.07.94-1.69,1.11-.76.2-1.6.07-2.41.09.01-.82-.28-1.84.1-2.44,1.44-2.31,2.93-4.61,4.68-6.68,8.98-10.54,16.75-21.96,24.44-33.42,3.82-5.69,6.49-12,7.29-18.89.3-2.56.11-5.23-.2-7.81-.25-2.08-1.49-3.74-3.36-4.88-2.08-1.26-4.17-1.63-6.33-.34-1.66.99-3.27,2.08-4.88,3.16-1.13.75-2.15,1.71-3.37,2.28-.78.37-2.09.57-2.65.16-.53-.39-.59-1.7-.52-2.58.07-.84.44-1.72.91-2.44,3.58-5.47,7.34-10.83,13.12-14.23,5.98-3.51,12.84-2.21,16.55,2.65,1.07,1.41,1.74,3.27,2.12,5.02.53,2.45.6,5,.87,7.51Z"/>
          <path class="cls-10" d="M964.3,305.5c-1.13,2.24-2.03,4.18-3.07,6.03-2.04,3.62-5.36,5.92-8.91,7.75-6.31,3.25-12.68,6.4-19.16,9.3-6.3,2.82-12.78,5.25-19.15,7.92-6.16,2.59-12.72,3.54-19.21,4.76-4.88.91-9.79,1.62-14.69,2.38-1.05.16-2.14.18-3.19.1-.36-.03-.91-.52-.97-.88-.06-.34.29-.91.63-1.14.46-.32,1.08-.42,1.62-.63,14.94-5.61,29.89-11.18,44.8-16.84,9.47-3.6,18.72-7.7,27.61-12.57,1.45-.79,2.89-1.62,4.25-2.55,3.33-2.29,6.13-5.03,7.73-8.89,1.62-3.91,4.21-7.19,7.09-10.27,3.91-4.2,7.55-3.1,10.57.5,4.28,5.08,4.99,10.82,3.48,17-.82,3.35-2.09,4.15-5.44,3.78-5.13-.57-9.85-2.17-13.98-5.73ZM969.75,298.42c2.39,1.49,4.75,2.92,7.72,3.32-.21-3.39-.87-4.44-2.94-5.05-2.24-.66-3.31-.31-4.78,1.74Z"/>
          <path class="cls-10" d="M600.02,281.7c-3.46,5.92-6.73,11.5-10.14,17.34-6.08-3.69-11.93-7.24-18.03-10.94-2.77,4.57-5.41,8.94-8.18,13.52-6.7-4.04-13.15-7.94-19.78-11.94,3.41-5.88,6.66-11.49,10.09-17.41,6.11,3.63,12.08,7.18,18.36,10.91,2.55-4.48,5.02-8.83,7.65-13.45,6.72,4.01,13.19,7.88,20.03,11.96Z"/>
          <path class="cls-10" d="M856.16,124.8c-9.28-2.45-18.83-2.59-28.69-2.7.31-1.06.33-1.79.69-2.26,3.1-4.12,6.21-8.23,9.44-12.24.52-.64,1.64-.97,2.53-1.1,5.75-.84,11.46-.39,17.11.81,3.42.73,6.82,1.59,10.18,2.57,5.16,1.5,6.52,4.71,4.23,9.62-.25.53-.51,1.05-.81,1.55-2.51,4.11-5.78,7.56-9.3,10.8-4.35,3.99-9.78,5.52-15.39,6.47-3.64.61-7.33.95-11.01,1.29-1.56.14-3.75.89-4.28-1.23-.51-2.03,1.79-2.2,3.11-2.8,6.48-2.91,12.99-5.75,19.49-8.62.96-.43,1.9-.91,2.84-1.37-.04-.26-.09-.52-.13-.78Z"/>
          <path class="cls-10" d="M481.83,149.46c-2.47-.46-4.92-1.14-7.41-1.33-6.29-.47-12.6-.7-18.9-1.07-.72-.04-1.74-.18-2.03-.65-.27-.43.05-1.5.45-2.04,2.97-3.96,5.99-7.9,9.1-11.75.54-.67,1.56-1.13,2.43-1.3,4.05-.81,8.16-.75,12.19-.06,4.87.83,9.72,1.88,14.52,3.09,6.01,1.52,7.88,5.48,4.67,10.68-5.74,9.32-13.09,16.69-24.74,18.05-4.15.48-8.29,1.02-12.44,1.53-.19.02-.39.05-.58.04-1.21,0-2.5-.1-2.74-1.56-.21-1.28.9-1.84,1.89-2.27,5-2.16,10.02-4.26,15.01-6.43,2.41-1.04,4.78-2.17,7.16-3.29.58-.27,1.1-.68,1.65-1.03-.08-.21-.16-.42-.23-.63Z"/>
          <path class="cls-10" d="M1334.66,280.17c-.63-.32-.94-.58-1.28-.63-3.97-.56-7.96-.92-11.88.19-1.57.44-3,1.35-4.54,1.91-.55.2-1.52.23-1.83-.1-.43-.46-.75-1.46-.54-2,1.1-2.81,2.4-5.56,4.69-7.64,1.7-1.53,3.7-2.41,6.02-2.68,4.48-.52,8.93-.53,13.38.22.66.11,1.34.26,1.96.5,2.99,1.15,3.79,2.48,3.28,5.6-.61,3.79-2.48,7.01-5.17,9.61-2.79,2.69-5.89,5.07-8.86,7.57-1.86,1.56-3.75,3.09-5.63,4.64-.22.19-.43.4-.63.61-3.9,4.08-3.27,7,1.8,9.4,4.67,2.22,9.5,1.59,14.34,1.18,5.2-.44,10.09-2,14.77-4.3,1.13-.56,2.3-1.11,3.51-1.42,1.46-.37,2.26.65,1.65,2.05-.26.61-.7,1.17-1.15,1.67-4.11,4.58-9.05,7.99-14.87,9.98-6.09,2.08-12.35,2.69-18.7,1.32-1.41-.3-2.8-.82-4.13-1.39-4.08-1.75-5.81-5.05-5.66-9.32.24-7.19,3.34-13.13,8.51-17.97,2.48-2.32,5.26-4.32,7.9-6.47.96-.78,1.91-1.59,3.05-2.55Z"/>
          <path class="cls-10" d="M1415.18,84.86c-2.86-.52-5.69-1.27-8.57-1.49-5.71-.45-11.44-.59-17.16-.89-.8-.04-1.6-.24-2.84-.43.62-1.18.91-2,1.4-2.65,2.84-3.7,5.67-7.41,8.64-11.01.6-.72,1.74-1.18,2.71-1.37,4.15-.83,8.36-.61,12.47.05,4.59.74,9.11,1.95,13.64,3.03,6.26,1.5,7.16,5.72,4.25,10.56-2.96,4.94-6.76,9.27-11.37,12.79-3.74,2.85-8.26,3.88-12.74,4.69-4.01.72-8.09,1-12.15,1.42-1.22.13-2.78.45-3.2-1.17-.43-1.63,1.08-2.04,2.23-2.55,6.67-2.95,13.34-5.88,20-8.84.94-.42,1.84-.91,2.76-1.37-.03-.26-.06-.52-.08-.78Z"/>
          <path class="cls-10" d="M1165.78,88.74c-1.27-.15-2.68-.01-3.79-.52-2.38-1.08-4.65-2.42-6.87-3.81-2.13-1.33-3.26-3.33-3.07-5.9.14-1.83.2-3.72.68-5.47.74-2.73,2.52-3.7,5.33-3.28,3.56.52,6.33,2.5,8.66,5.04,4.91,5.36,8.6,11.51,11.24,18.29.44,1.14.98,2.24,1.48,3.36.22-.03.43-.05.65-.08.16-.9.33-1.8.47-2.71,1.16-7.3,2.23-14.64,4.68-21.65.82-2.34,2.11-4.57,3.49-6.66,1.5-2.28,3.84-2.81,6.46-2.2,3.75.88,6.33,3.29,8.37,6.38.3.45.48,1.13.4,1.66-.34,2.3-.68,4.61-1.24,6.86-.28,1.11-1.04,2.11-2.58,2.16-1.06-1.29-2.12-2.68-3.28-3.98-2.48-2.78-5.02-2.6-6.75.65-.94,1.78-1.68,3.76-2.04,5.73-1.3,6.98-2.35,14-3.61,20.99-.5,2.77-1.15,5.53-2,8.21-.76,2.42-2.18,2.64-3.67.55-1.05-1.48-1.77-3.23-2.45-4.93-1.52-3.78-2.78-7.68-4.43-11.41-1.3-2.94-3.24-5.53-6.11-7.28Z"/>
          <path class="cls-10" d="M1123.55,298.82c-4.47.41-7.76-1.59-10.57-4.35-2.23-2.19-2.23-7.09-.31-9.52,1.2-1.52,2.78-2.06,4.67-1.69,2.9.57,5.26,2.06,6.99,4.43,3.54,4.88,7.03,9.81,8.82,15.69.13.43.39.82.85,1.78.32-1.09.53-1.66.65-2.25,1.16-5.71,2.15-11.47,3.55-17.12.54-2.18,1.82-4.29,3.15-6.15,1.43-1.99,3.6-2.57,5.98-1.52.97.43,1.98.83,2.87,1.41,4.17,2.74,5.01,7.36,2.15,11.46-.79,1.14-1.63,1.18-2.59.08-.83-.95-1.5-2.06-2.42-2.9-1.9-1.74-3.63-1.49-4.6.9-1.13,2.77-2.09,5.67-2.66,8.6-.92,4.77-1.42,9.62-2.16,14.42-.66,4.25-2.48,8.02-5.5,11.06-2.12,2.12-4.43,4.11-6.88,5.83-8.87,6.24-18.9,9.89-29.23,12.84-.25.07-.56-.04-1.33-.12,1.08-.9,1.87-1.56,2.67-2.22,5.81-4.79,12.51-8.22,18.79-12.28,4.65-3,9.07-6.37,13.51-9.67,1.94-1.45,1.81-1.54,1.08-3.92-1.14-3.72-1.97-7.55-4.4-10.73-1.06-1.38-2.1-2.77-3.06-4.05Z"/>
          <path class="cls-10" d="M1097.04,82.78c-3.55-1.89-7.2-2.29-10.86-2.47-4.75-.23-9.5-.28-14.25-.48-.6-.02-1.46-.34-1.68-.78-.22-.43.06-1.33.41-1.8,2.94-3.87,5.87-7.74,8.99-11.46.63-.75,2.01-1.1,3.09-1.23,5.56-.65,11.06.04,16.49,1.2,2.85.61,5.69,1.28,8.48,2.12,4.57,1.37,5.94,4.35,4.17,8.76-.29.72-.59,1.45-1.01,2.09-3.12,4.76-7,8.82-11.59,12.17-3.22,2.35-7.14,3.07-10.94,3.77-4.09.75-8.28.99-12.43,1.45-.38.04-.85.15-1.15-.02-.62-.35-1.39-.76-1.63-1.34-.15-.37.4-1.25.87-1.61.68-.52,1.55-.78,2.35-1.13,6.13-2.7,12.27-5.39,18.41-8.1.78-.34,1.52-.76,2.28-1.14Z"/>
          <path class="cls-10" d="M859.37,62.4c-1.14-1.47-2.1-2.81-3.17-4.04-2.44-2.8-5-2.63-6.71.65-1.06,2.04-1.85,4.31-2.27,6.57-1.14,6.11-1.97,12.27-3.01,18.4-.42,2.49-1.03,4.94-1.62,7.39-.18.74-.5,1.48-.89,2.14-.86,1.44-1.9,1.55-2.97.19-.71-.9-1.31-1.95-1.72-3.02-1.07-2.81-1.98-5.69-3-8.52-1.64-4.53-3.99-8.62-7.61-12.07-2.29.85-4.36.12-6.33-1.04-1-.59-1.98-1.23-2.98-1.82-5.11-2.99-5.31-6.59-3.53-12.66.52-1.76,1.94-2.56,3.81-2.62,2.68-.08,5.05.88,6.92,2.62,2.33,2.17,4.57,4.51,6.45,7.07,3.05,4.16,5.56,8.67,7.36,13.54.3.81.72,1.57,1.3,2.81.3-.9.52-1.36.61-1.84,1.16-5.91,2.2-11.84,3.47-17.73.76-3.51,2.02-6.88,4.03-9.93,2.11-3.21,4.98-3.99,8.92-2.18,2.2,1.01,3.91,3.1,5.82,4.72.21.18.34.47.46.74,1.3,2.77-.4,8.56-3.31,10.63Z"/>
          <path class="cls-10" d="M1264.93,326c-1.7-.5-2.52-1.75-3.06-3.1-1.15-2.88-2.15-5.83-3.17-8.76-1.66-4.75-4.16-8.97-7.85-12.73-1.51,1.2-3.1.83-4.57.02-2.04-1.12-4.08-2.28-6-3.59-2.06-1.4-3.2-3.37-2.95-5.96.14-1.45.14-2.93.48-4.33.82-3.36,2.41-4.34,5.75-3.7,3.51.67,6.2,2.7,8.49,5.32,4.51,5.19,7.98,11.01,10.4,17.45.24.63.53,1.25.83,1.86.07.15.3.22.64.45.18-.55.4-1.04.5-1.55,1.09-5.53,2.12-11.08,3.24-16.61.74-3.64,1.95-7.14,3.97-10.29,2.32-3.63,4.81-4.47,9.26-2.28,2.1,1.03,3.94,2.87,5.48,4.69,2.09,2.46.39,9.04-2.79,10.95-.69-.84-1.38-1.74-2.14-2.57-.78-.86-1.52-1.81-2.47-2.43-1.87-1.23-3.6-.89-4.76,1.01-.85,1.39-1.58,2.96-1.91,4.54-1.1,5.23-2.04,10.49-2.97,15.76-.63,3.54-1.04,7.13-1.73,10.65-.37,1.86-.66,3.88-2.67,5.19Z"/>
          <path class="cls-10" d="M1493.23,208.68c-1.48,1.1-2.89.84-4.23.11-2.05-1.12-4.15-2.16-6.05-3.5-3.5-2.48-4.38-9.16-1.82-12.63,1.03-1.39,2.38-1.89,4.08-1.67,2.48.32,4.79,1.19,6.54,2.94,2.19,2.19,4.31,4.5,6.13,7,2.93,4.01,5.38,8.33,7.07,13.03.28.79.75,1.51,1.63,2.21.2-1.02.38-2.04.6-3.05,1.46-6.74,2.82-13.5,4.48-20.19.5-2.01,1.71-3.9,2.85-5.68,1.91-2.98,4.38-3.72,8.71-1.87,2.38,1.01,4.13,2.87,5.7,4.89,1.73,2.21.45,4.51.07,6.73-.29,1.67-.64,3.52-2.95,4.12-.45-.52-.96-1.07-1.44-1.65-.62-.74-1.17-1.56-1.85-2.25-2.67-2.69-5.04-2.39-6.63,1.01-.94,2.01-1.72,4.16-2.13,6.33-1.09,5.92-1.91,11.9-2.92,17.84-.42,2.49-.95,4.97-1.58,7.41-.31,1.19-.95,2.29-1.43,3.4-2.35.11-3.14-1.49-3.74-2.95-1.23-2.95-2.25-5.99-3.28-9.03-1.59-4.69-4.1-8.78-7.82-12.54Z"/>
          <path class="cls-10" d="M1069.04,196.52c.58-3.45,1.45-10.02,2.84-16.47,2.34-10.86,5.84-21.4,9.94-31.73.93-2.33,2.23-4.53,3.53-6.69.37-.61,1.38-.84,2.1-1.25.32.75.95,1.54.88,2.26-.15,1.63-.49,3.28-1.03,4.82-4.07,11.59-6.88,23.53-9.58,35.49-1.13,5.02-1.83,10.2-.72,15.35.45,2.07,1.08,4.17,2.07,6.02,2.59,4.85,7.94,5.1,11.07.63,1.17-1.67,2.23-3.42,3.33-5.14.5-.77,1.14-1.62,2.07-1.11.64.35.99,1.27,1.4,1.97.13.23.12.58.07.86-.96,6.64-2.64,13.01-7.62,17.89-3.4,3.33-8.84,3.92-12.65,1.44-1.11-.72-2.19-1.72-2.84-2.85-3.27-5.67-5.05-11.78-4.88-21.5Z"/>
          <path class="cls-10" d="M957.87,80.5c1.26.91,2.59,1.86,3.91,2.84,1.41,1.05,1.9,2.35,1.26,4.08-.72,1.96-1.33,3.97-2.13,6.41-1.49-1.12-2.54-1.94-3.63-2.71-1.1-.78-2.23-1.51-3.45-2.33-1.39,1.59-2.62,3.07-3.93,4.47-7.09,7.58-16.06,12.18-25.52,15.98-1.53.61-3.09,1.17-4.65,1.71-.92.32-1.85.62-2.81.78-1.06.17-2.27.3-2.76-.98-.44-1.17.55-1.79,1.35-2.3,2.05-1.31,4.11-2.6,6.23-3.79,7.13-3.99,14.47-7.64,20.72-13.03,1.82-1.57,3.73-3.08,4.91-5.42-1.79-.77-3.51-1.42-5.15-2.23-4.98-2.45-6.52-6.01-4.77-11.3,2-6.03,6.16-10.26,11.58-13.35.74-.42,1.62-.66,2.47-.83,4.05-.82,6.83.88,7.9,4.95.78,2.95.94,5.97.35,8.97-.52,2.66-1.23,5.28-1.89,8.07ZM952.01,78.16c.3-2.68.64-4.57.68-6.47.03-1.5-.52-2.9-2.2-3.38-1.84-.53-3.67-.4-5.33.58-2.13,1.26-2.31,3.81-.28,5.16,2.06,1.37,4.29,2.49,7.13,4.11Z"/>
          <path class="cls-10" d="M501.82,78.62c-1.1-1.43-1.87-2.55-2.75-3.57-3.01-3.47-5.84-3.19-7.43,1.07-1.28,3.43-2.1,7.07-2.77,10.68-1.11,5.92-1.89,11.9-2.9,17.84-.24,1.42-.73,2.83-1.32,4.15-.66,1.48-1.87,1.67-2.98.48-.71-.76-1.31-1.72-1.67-2.7-1.03-2.73-1.93-5.5-2.85-8.27-1.56-4.69-4.16-8.73-7.71-12.4-1.86,1.21-3.57.57-5.19-.39-2-1.19-3.98-2.42-5.89-3.75-1.61-1.13-2.45-2.73-2.29-4.76.12-1.64,0-3.34.37-4.92.73-3.19,2.71-4.49,5.81-3.56,2.08.62,4.22,1.61,5.87,2.99,5.32,4.47,8.76,10.33,11.55,16.61.77,1.74,1.52,3.49,2.27,5.24.2-.04.4-.08.61-.12.57-3.12,1.05-6.27,1.74-9.36,1.07-4.74,2.18-9.47,3.49-14.14.49-1.73,1.4-3.43,2.45-4.91,2.11-2.96,4.15-3.56,7.61-2.5,3.01.92,5.2,2.97,6.99,5.47.32.45.49,1.08.53,1.64.2,2.79-.57,5.4-1.83,7.84-.27.51-.98.8-1.7,1.36Z"/>
          <path class="cls-10" d="M555.71,326.21c-1.73-.14-2.27-1.55-3.15-2.53-2.7-2.99-4.19-2.94-5.57.87-1.31,3.62-2.05,7.47-2.81,11.27-.67,3.33-.95,6.74-1.54,10.09-.36,2.07-.7,4.22-2.38,5.8-1.6-.37-2.32-1.55-2.84-2.79-.89-2.15-1.69-4.35-2.45-6.55-1.12-3.25-2.64-6.28-4.98-8.82-.42-.45-1.07-.93-1.64-.96-4.86-.26-8.25-2.74-10.81-7.05-7.56,9.52-17.98,14.66-28.86,19.07-2.1.85-4.3,1.64-6.72,1.69-.29-1.49.83-1.76,1.58-2.23,3.78-2.4,7.57-4.78,11.36-7.15,8.1-5.06,15.77-10.71,22.97-16.99,3.43-2.99,4.93-2.97,8.83-.5,2.54,1.61,4.37,3.86,6.02,6.27,2.25,3.3,4.33,6.7,5.59,10.53.14.41.42.77,1,1.81.63-3.2,1.06-5.74,1.65-8.24.91-3.87,1.92-7.71,2.89-11.57.05-.19.14-.36.22-.54,1.13-2.43,2.36-4.81,5.48-5.02,2.46-.16,7.12,2.79,7.99,5.2.36,1.01.17,2.27.02,3.38-.25,1.78-.31,3.68-1.85,4.95Z"/>
          <path class="cls-10" d="M645.42,122.79c1.45.96,1.24,2.18.96,3.29-.5,1.98-1.21,3.9-1.73,5.87-2.56,9.67-5.3,19.3-7.53,29.04-1.03,4.52-1.07,9.28.54,13.82.26.73.55,1.46.95,2.12,2.38,3.88,6.21,4.21,9.05.7,1.09-1.35,1.86-2.96,2.91-4.35.41-.55,1.18-1.14,1.8-1.15,1.05,0,1.28,1,1.36,1.92.02.19.05.39.02.58-.68,5.83-2.45,11.22-6.76,15.41-3.65,3.54-10.71,3.46-13.69-2.63-3.22-6.57-3.85-13.39-2.92-20.45,1.82-13.79,6.16-26.86,11.41-39.67.73-1.78,1.59-3.54,3.63-4.49Z"/>
          <path class="cls-10" d="M618.06,291.59c1.58,1.74.79,3.27.39,4.69-1.3,4.58-2.82,9.1-4.02,13.7-1.54,5.92-3.05,11.86-4.21,17.86-.84,4.38-1.25,8.89.51,13.22.43,1.06,1.02,2.13,1.79,2.96,2.37,2.54,5.31,2.37,7.47-.4,1.07-1.38,1.94-2.92,3-4.3.36-.47,1.24-1.08,1.55-.93.59.28,1.12,1,1.36,1.66.21.59.17,1.39-.05,2-1.27,3.55-2.28,7.26-4.02,10.57-2.28,4.34-6.8,5.87-10.88,4.32-1.8-.68-3.16-1.85-4.07-3.56-3.2-6.05-4.21-12.46-3.28-19.21,1.7-12.4,5.36-24.27,9.87-35.89.66-1.71,1.59-3.33,2.57-4.89.45-.72,1.31-1.18,2.03-1.79Z"/>
          <path class="cls-10" d="M482.75,225.43c-6.74-4.09-13.1-7.96-19.81-12.03,3.39-5.81,6.69-11.45,10.16-17.4,6.74,4.1,13.25,8.06,19.92,12.12-3.45,5.81-6.75,11.37-10.27,17.31Z"/>
          <path class="cls-10" d="M873.88,164.02c-3.44,5.8-6.75,11.39-10.25,17.29-6.58-3.98-13.01-7.88-19.81-12,3.39-5.82,6.67-11.48,10.14-17.43,6.73,4.1,13.24,8.07,19.92,12.14Z"/>
          <path class="cls-10" d="M1420.29,258.01c3.49-5.97,6.76-11.54,10.19-17.39,6.66,4.05,13.09,7.97,19.88,12.1-3.4,5.81-6.7,11.43-10.28,17.29-6.64-4.03-13.08-7.93-19.79-12Z"/>
          <path class="cls-10" d="M1017.72,275.3c.82,1.98.25,3.59-.22,5.29-2.53,9.28-5.07,18.55-7.4,27.88-.92,3.71-.81,7.55.48,11.23.37,1.07.94,2.17,1.7,3,2.15,2.35,4.67,2.23,6.67-.26.97-1.21,1.67-2.63,2.64-3.84.42-.52,1.37-1.13,1.82-.97.54.19,1.03,1.13,1.12,1.8.1.83-.11,1.75-.4,2.56-.99,2.83-1.8,5.78-3.2,8.4-1.34,2.51-3.52,4.37-6.67,4.6-3.38.25-5.82-1.12-7.43-4.07-2.34-4.3-3.35-8.94-2.92-13.78.93-10.32,3.48-20.29,7.01-30.02,1.09-3.01,2.3-5.99,3.59-8.93.56-1.28,1.21-2.68,3.21-2.9Z"/>
          <path class="cls-10" d="M579.18,106.19c1.73,1.37,1.06,2.96.7,4.39-1.28,5.09-2.78,10.12-3.95,15.24-1.45,6.35-2.71,12.77-2.3,19.34.12,1.91.51,3.88,1.22,5.64.99,2.45,3.25,2.92,5.15,1.1,1.07-1.03,1.77-2.51,2.41-3.89.55-1.21.96-2.36,2.94-2.24.2.8.6,1.69.6,2.58-.01,3.33-.65,6.59-1.89,9.68-1.13,2.8-3.31,4.52-6.24,5.21-2.98.71-5.16-.26-6.61-2.94-2.41-4.45-3.76-9.23-3.38-14.29.33-4.25.86-8.51,1.73-12.68,1.32-6.37,3-12.67,4.54-18.99.63-2.59,1.71-4.97,3.53-6.95.43-.47,1.02-.79,1.56-1.19Z"/>
          <path class="cls-10" d="M543.95,118.9c1.46,1.51.79,2.92.39,4.29-1.61,5.51-3.37,10.97-4.82,16.52-1.27,4.88-2.83,9.76-2.58,14.89.1,2.11.56,4.23,1.1,6.28.48,1.83,1.86,2.95,3.75,3.28,1.93.34,3.07-.88,4.06-2.29.72-1.04,1.35-2.14,2.14-3.13.31-.39,1-.81,1.41-.71.43.1.83.74,1.04,1.23.18.41.15.96.08,1.43-.56,3.91-1.77,7.58-4.34,10.67-3.6,4.34-9.4,3.71-12.01-1.25-2.1-3.98-2.99-8.19-2.65-12.67.71-9.29,3.11-18.2,6.17-26.94,1-2.84,2.12-5.64,3.29-8.42.56-1.33,1.31-2.6,2.98-3.19Z"/>
          <path class="cls-10" d="M1199.77,317.13c1.72.85,1.88,2.18,1.49,3.37-1.04,3.12-2,6.33-3.55,9.2-1.45,2.69-4.08,4.19-7.32,3.89-3.04-.28-4.89-2.16-5.96-4.91-.46-1.17-.95-2.34-1.33-3.54-1.18-3.7-1.07-7.47-.6-11.26,1.31-10.71,4.64-20.86,8.56-30.84.69-1.76,1.33-3.69,3.67-4.84.29.72.73,1.34.73,1.97,0,.85-.3,1.71-.53,2.55-2.09,7.59-4.35,15.14-6.2,22.79-.79,3.26-.92,6.73-.95,10.11-.02,1.77.56,3.68,1.34,5.31,1.64,3.41,4.85,3.64,7.17.68.6-.76,1.06-1.64,1.65-2.4.57-.73,1.22-1.4,1.83-2.08Z"/>
          <path class="cls-10" d="M1343.38,303.85c-3.41-2.07-6.62-4.02-10.12-6.15,1.75-3,3.39-5.82,5.23-8.97,3.42,2.08,6.63,4.03,10.19,6.19-1.76,2.97-3.46,5.84-5.3,8.93Z"/>
        </g>
      </g>
      <g>
        <g id="outer">
          <g>
            <path d="M189.36,568.05c-2.1,0-4.25-.02-6.39-.07-2.14.05-4.29.07-6.39.07-27.99,0-51.93-4.48-71.17-13.31-6.04-2.77-10.77-7.81-13.23-13.91-12.65-2.5-23.1-8.45-31.12-17.72-7.49-8.66-12.44-20.03-14.73-33.84-22.01-10.39-35.54-26.05-40.23-46.6-4.53-19.81.01-40.31,4.4-60.14,4.88-22.06,9.49-42.9,1.02-58.52l-3.42-6.3c-.9-1.66-1.02-3.64-.32-5.4l2.64-6.67c9.47-23.94,3.52-44.53-2.78-66.33-5.4-18.67-10.5-36.31-5.8-55.37,4.54-18.43,17.42-33.36,39.32-45.56,3.03-28.17,19.17-46.99,45.87-53.49,10.49-28.47,34.03-37.15,51.39-43.56,11.39-4.2,21.23-7.83,28.72-15.77.05-.05.1-.11.15-.16,4.38-4.33,7.46-10.98,9.4-20.31.62-2.97,3.24-5.09,6.26-5.09.05,0,.1,0,.15,0,3.08.07,5.68,2.33,6.17,5.37,1.27,7.87,4.4,14.49,9.55,20.24,7.48,7.9,17.3,11.52,28.66,15.71,17.37,6.41,40.91,15.09,51.4,43.56,26.71,6.51,42.84,25.33,45.87,53.49,21.91,12.2,34.78,27.13,39.32,45.56,4.7,19.06-.4,36.7-5.8,55.37-6.3,21.8-12.25,42.39-2.78,66.33l2.64,6.67c.7,1.76.58,3.74-.32,5.4l-3.42,6.3c-8.47,15.63-3.86,36.46,1.02,58.52,4.39,19.83,8.93,40.33,4.4,60.14-4.69,20.54-18.22,36.21-40.23,46.6-2.29,13.81-7.24,25.18-14.72,33.84-8.02,9.28-18.48,15.23-31.13,17.72-2.46,6.11-7.19,11.15-13.24,13.92-19.22,8.83-43.16,13.31-71.15,13.31Z"/>
            <path class="cls-11" d="M189.36,561.66c-2.11,0-4.24-.02-6.39-.07-2.15.05-4.28.07-6.39.07-27.06,0-50.11-4.28-68.5-12.73-5.57-2.56-9.67-7.68-10.94-13.7,0-.02,0-.04-.01-.06-12.92-1.74-23.39-7.18-31.22-16.24-7.31-8.45-11.91-19.87-13.75-34.05-22.26-9.62-35.32-23.97-39.81-43.63-4.21-18.41.17-38.2,4.41-57.34,5.15-23.26,10.01-45.23.4-62.95l-3.42-6.3,2.64-6.67c10.28-25.97,3.74-48.58-2.58-70.46-5.15-17.83-10.02-34.67-5.73-52.06,4.32-17.52,16.86-31.37,39.19-43.1,1.9-28.39,17.69-46.74,44.69-52.01,8.84-28.33,30.74-36.4,48.72-43.03,11.64-4.29,22.63-8.35,31.15-17.37,5.87-5.8,9.18-14.04,11.16-23.56,1.45,8.98,5.13,16.85,11.16,23.56,8.52,9.03,19.51,13.08,31.15,17.37,17.98,6.63,39.87,14.71,48.72,43.03,27,5.27,42.8,23.62,44.69,52.01,22.33,11.73,34.87,25.59,39.19,43.1,4.29,17.4-.58,34.24-5.73,52.06-6.32,21.87-12.86,44.49-2.58,70.46l2.64,6.67-3.42,6.3c-9.61,17.72-4.75,39.69.4,62.95,4.23,19.14,8.61,38.93,4.41,57.34-4.49,19.66-17.55,34.01-39.81,43.63-1.83,14.17-6.44,25.59-13.74,34.05-7.83,9.06-18.31,14.5-31.23,16.24,0,.02,0,.04-.01.06-1.28,6.03-5.38,11.15-10.95,13.71-18.38,8.44-41.43,12.72-68.49,12.72Z"/>
          </g>
          <path class="cls-1" d="M335.29,313.64c-29.24-73.89,55.35-122.2-31.84-161.63,1.41-31.47-13.75-46.19-41.96-47.74-7.61-47.82-50.71-34.31-78.53-63.78-27.81,29.47-70.92,15.97-78.53,63.78-28.21,1.55-43.37,16.27-41.96,47.74-87.19,39.43-2.59,87.73-31.84,161.63,30.37,56.01-48.85,131.76,36.02,160.36,1.15,33.16,16.35,48.38,45.14,46.23-.14,4.31-.27,8.9.35,11.81.27,1.29,1.13,2.39,2.33,2.94,18.42,8.46,41.52,11.91,68.48,11.25,26.95.66,50.06-2.79,68.48-11.25,1.2-.55,2.06-1.65,2.33-2.94.62-2.91.48-7.5.35-11.81,28.79,2.15,43.99-13.06,45.14-46.23,84.87-28.6,5.65-104.35,36.02-160.36Z"/>
        </g>
        <g id="inner">
          <g id="tulisan">
            <g id="rumi_masjid" data-name="rumi masjid">
              <g>
                <path class="cls-14" d="M136.62,73.84c2.76-.57,4.14-.83,6.89-1.32.99,8.93,1.48,13.43,2.44,22.48.03,0,.05,0,.09-.01,1.46-9.35,2.2-14.05,3.68-23.47,2.74-.4,4.11-.59,6.83-.9-.4,13.03-.59,19.55-.99,32.58-1.79.14-2.68.22-4.47.39.28-9.81.43-14.72.71-24.53-.03,0-.05,0-.09.01-1.67,9.99-2.51,14.96-4.16,24.86-1.58.17-2.38.25-3.96.44-1.13-9.53-1.7-14.27-2.86-23.66-.04,0-.05,0-.09.02-.24,9.63-.36,14.45-.59,24.08-1.66.21-2.49.33-4.14.56.29-12.61.43-18.92.71-31.53Z"/>
                <path class="cls-14" d="M163.78,69.89c2.58-.21,3.86-.3,6.43-.44,1.53,13.08,2.29,19.65,3.79,32.82-1.88.04-2.83.06-4.71.13-.26-2.61-.38-3.91-.64-6.51,0,.04,0,.06,0,.1-2.15.09-3.22.14-5.37.27-.43,2.59-.64,3.88-1.07,6.47-1.75.1-2.63.16-4.38.28,2.36-13.21,3.56-19.84,5.95-33.13ZM168.24,91.54c-.63-6.47-.94-9.7-1.58-16.15-.03,0-.05,0-.09,0-1.04,6.56-1.56,9.83-2.59,16.38,1.7-.11,2.55-.15,4.26-.23Z"/>
                <path class="cls-14" d="M177.14,100.56c-1.12-1.42-1.64-3.46-1.55-6.14.03-.76.04-1.13.06-1.89,1.78-.03,2.67-.04,4.45-.04-.03.91-.05,1.36-.08,2.27-.07,2.14.7,3.21,2.33,3.22.8,0,1.41-.25,1.84-.76.43-.51.66-1.35.7-2.52.05-1.39-.2-2.61-.73-3.67-.53-1.06-1.55-2.34-3.03-3.83-1.87-1.88-3.17-3.58-3.89-5.1-.72-1.52-1.05-3.23-.98-5.15.09-2.61.76-4.65,2-6.1,1.25-1.45,3.01-2.18,5.29-2.16,2.25.02,3.92.79,5.02,2.26,1.1,1.47,1.61,3.55,1.52,6.22-.02.55-.03.82-.05,1.37-1.77-.07-2.66-.1-4.43-.13.02-.68.03-1.02.06-1.7.04-1.13-.13-1.96-.51-2.49-.38-.53-.96-.8-1.72-.81-1.57-.02-2.39,1.04-2.46,3.15-.04,1.2.21,2.31.76,3.35.55,1.04,1.57,2.31,3.06,3.81,1.9,1.92,3.19,3.68,3.88,5.24.69,1.56,1,3.39.93,5.46-.09,2.7-.76,4.76-2.02,6.17-1.26,1.42-3.04,2.1-5.35,2.09-2.28-.02-3.98-.72-5.1-2.14Z"/>
                <path class="cls-14" d="M190.97,102.41c.06-1.88.09-2.83.16-4.71.45.14.96.23,1.53.25.94.04,1.64-.18,2.11-.68.47-.49.72-1.27.76-2.34.33-10.09.5-15.14.83-25.23,1.86.14,2.79.21,4.65.39-.32,10-.48,15-.8,25-.09,2.69-.71,4.64-1.87,5.89-1.16,1.25-2.89,1.81-5.19,1.71-.85-.04-1.57-.13-2.17-.27Z"/>
                <path class="cls-14" d="M204.33,70.44c1.85.21,2.78.32,4.62.58-.39,12.99-.58,19.48-.97,32.47-1.87-.17-2.8-.25-4.67-.39.41-13.06.61-19.6,1.02-32.66Z"/>
                <path class="cls-14" d="M212.39,71.51c2.81.43,4.22.67,7.02,1.21,2.28.43,3.96,1.46,5.07,3.03,1.11,1.56,1.63,3.62,1.57,6.17-.14,6.37-.22,9.55-.36,15.91-.06,2.55-.68,4.39-1.86,5.54-1.19,1.15-2.93,1.57-5.25,1.28-2.84-.36-4.27-.52-7.12-.82.37-12.93.56-19.39.93-32.31ZM218.62,100.08c.76.1,1.35-.06,1.77-.48.42-.43.64-1.18.67-2.27.16-6.61.25-9.92.41-16.53.03-1.09-.16-1.91-.55-2.47-.39-.56-.96-.91-1.71-1.05-.94-.17-1.4-.25-2.34-.41-.25,9.16-.37,13.74-.62,22.91.95.12,1.42.18,2.37.31Z"/>
                <path class="cls-14" d="M101.35,117.14c2.38-.55,3.57-.81,5.95-1.32,1.8,10.32,2.67,15.58,4.38,26.27-1.71.18-2.57.28-4.28.48-.31-2.09-.46-3.13-.77-5.21v.08c-1.95.27-2.93.4-4.88.69-.3,2.09-.46,3.14-.76,5.22-1.58.2-2.38.3-3.96.51,1.67-10.48,2.54-15.83,4.31-26.7ZM106.13,133.88c-.76-5.15-1.15-7.71-1.94-12.77-.03,0-.05,0-.08.02-.76,5.38-1.13,8.05-1.86,13.36,1.55-.25,2.33-.37,3.88-.6Z"/>
                <path class="cls-14" d="M113.96,114.46c1.75-.34,2.63-.51,4.38-.82-.11,9.53-.17,14.3-.28,23.83,2.83-.31,4.25-.45,7.08-.73-.03,1.62-.04,2.43-.07,4.06-4.54.39-6.81.6-11.34,1.07.09-10.96.13-16.44.22-27.41Z"/>
                <path class="cls-14" d="M123.93,124.75c3.47-.46,5.21-.67,8.68-1.06-.03,1.65-.05,2.48-.09,4.13-3.46.35-5.2.55-8.66.96.03-1.62.04-2.42.06-4.04Z"/>
                <path class="cls-14" d="M135.5,110.95c2.5-.33,3.74-.48,6.24-.76.9,8.31,1.34,12.49,2.21,20.88.03,0,.05,0,.08,0,1.33-8.55,2-12.85,3.34-21.47,2.49-.24,3.74-.35,6.23-.54-.36,12-.54,18-.89,30.01-1.63.07-2.45.1-4.08.18.26-9.04.39-13.55.64-22.59-.03,0-.05,0-.08,0-1.52,9.14-2.28,13.69-3.78,22.74-1.44.08-2.16.11-3.6.2-1.02-8.86-1.54-13.27-2.59-22.01-.03,0-.05,0-.08,0-.22,8.88-.32,13.32-.54,22.2-1.5.09-2.25.14-3.75.25.26-11.63.39-17.45.65-29.09Z"/>
                <path class="cls-14" d="M157.47,137.36c-1.06-1.27-1.55-3.12-1.48-5.56.28-9.19.42-13.78.7-22.97,1.74-.12,2.62-.17,4.36-.27-.3,9.37-.45,14.05-.74,23.42-.03,1.04.13,1.78.5,2.23.36.45.9.66,1.61.64.71-.02,1.26-.26,1.66-.74.39-.47.61-1.23.64-2.27.31-9.4.46-14.1.76-23.51,1.68-.07,2.52-.1,4.19-.15-.31,9.29-.46,13.93-.77,23.22-.08,2.46-.7,4.36-1.84,5.7-1.15,1.34-2.77,2.03-4.86,2.08-2.1.05-3.67-.55-4.73-1.82Z"/>
                <path class="cls-14" d="M172.75,108.11c1.74-.04,2.61-.05,4.34-.06-.17,5.14-.26,7.72-.43,12.86,2.38-5.16,3.58-7.73,5.96-12.86,1.74.01,2.6.03,4.34.06-2.22,4.43-3.32,6.66-5.54,11.13,1.84,7.74,2.76,11.61,4.6,19.35-1.82-.02-2.72-.03-4.54-.04-1.28-5.45-1.93-8.17-3.21-13.61-.75,1.55-1.12,2.33-1.87,3.89-.13,3.89-.2,5.83-.33,9.72-1.73,0-2.6.01-4.33.03.41-12.19.61-18.28,1.02-30.48Z"/>
                <path class="cls-14" d="M189.09,108.16c1.73.05,2.6.08,4.33.15-.16,4.95-.24,7.43-.41,12.38,1.86.06,2.79.1,4.65.18.16-4.93.24-7.4.4-12.33,1.73.09,2.6.15,4.32.26-.38,12.07-.57,18.1-.94,30.17-1.74-.06-2.61-.09-4.36-.14.18-5.45.26-8.18.44-13.63-1.86-.08-2.79-.11-4.66-.16-.18,5.47-.27,8.21-.45,13.68-1.74-.04-2.61-.05-4.35-.08.41-12.18.61-18.28,1.02-30.46Z"/>
                <path class="cls-14" d="M205.61,109.02c1.73.13,2.59.21,4.32.36-.3,10.25-.45,15.37-.75,25.62,2.87.15,4.3.24,7.17.42-.04,1.69-.07,2.53-.11,4.22-4.62-.27-6.93-.38-11.55-.57.37-12.02.55-18.04.92-30.06Z"/>
                <path class="cls-14" d="M219.1,110.34c1.72.2,2.58.31,4.31.54-.28,11.67-.41,17.51-.69,29.18-1.75-.12-2.62-.17-4.37-.28.3-11.77.45-17.66.75-29.43Z"/>
                <path class="cls-14" d="M226.89,138.88c-1.06-1.34-1.56-3.18-1.51-5.53.01-.66.02-.99.04-1.66,1.65.15,2.47.23,4.12.39-.02.79-.02,1.18-.04,1.97-.04,1.86.7,2.85,2.21,2.99.74.07,1.31-.11,1.7-.52s.6-1.12.61-2.12c.02-1.19-.23-2.27-.74-3.23-.51-.97-1.48-2.17-2.87-3.61-1.76-1.83-2.97-3.47-3.66-4.89-.68-1.42-1-2.97-.96-4.66.05-2.29.64-4,1.76-5.1,1.12-1.1,2.72-1.49,4.81-1.15,2.06.33,3.6,1.21,4.64,2.61,1.04,1.4,1.54,3.23,1.51,5.5,0,.47,0,.7-.02,1.16-1.63-.25-2.45-.37-4.08-.6,0-.58.01-.88.02-1.46.02-.97-.15-1.71-.51-2.21-.36-.5-.89-.81-1.59-.91-1.44-.21-2.17.6-2.21,2.43-.02,1.04.23,2.05.75,3.02.52.97,1.48,2.19,2.87,3.64,1.78,1.86,3.01,3.48,3.68,4.87.67,1.39.99,2.97.96,4.73-.03,2.3-.62,4-1.77,5.13-1.15,1.13-2.8,1.62-4.95,1.45-2.13-.17-3.72-.91-4.78-2.24Z"/>
                <path class="cls-14" d="M241.15,113.68c1.72.32,2.57.48,4.29.82-.09,10.97-.14,16.46-.23,27.43-1.76-.18-2.64-.26-4.39-.42.13-11.13.2-16.69.34-27.82Z"/>
                <path class="cls-14" d="M248.63,115.15c2.15.45,3.22.68,5.37,1.16,1.66,6.73,2.51,10.05,4.23,16.57.03,0,.05,0,.08.01-.03-6.24-.04-9.36-.07-15.6,1.52.36,2.28.55,3.81.93.1,10.25.14,15.37.24,25.62-1.81-.22-2.72-.33-4.53-.55-2.14-7.88-3.19-11.91-5.25-20.1-.03,0-.05,0-.08-.01-.01,7.8-.02,11.7-.03,19.5-1.57-.17-2.35-.26-3.92-.42.06-10.84.09-16.27.15-27.11Z"/>
              </g>
            </g>
            <g id="jawi_masjid" data-name="jawi masjid">
              <path class="cls-20" d="M40.33,414.45c.65-2.82,1.94-5.27,4.58-6.74,2.88-1.6,5.95-2.77,9.33-2.87.36-.01.72.12,1.13.54-.57.15-1.13.31-1.7.44-2.45.56-4.9,1.17-6.79,2.92-2.61,2.43-3.22,5.78-1.61,9.14,2.01,4.19,5.12,7.48,9.02,10.07,2.28,1.51,4.61,2.95,6.95,4.37,1.76,1.07,2.75,1,4.18-.43.89-.88,1.86-1.85,2.29-2.96.82-2.11,2.44-2.37,4.52-2.43-.27.71-.51,1.31-.73,1.9-1.42,3.8,1.09,6.94,5.28,6.57.98-.09,1.94-.34,2.91-.44.64-.07,1.3-.01,2.02.1-1.61.95-2.58,2.19-2.19,4.04.5,2.41,1.62,4.45,3.99,5.56,1.28.6,2.66,1,3.99,1.5.48.18.95.39,1.68.7-1.67,1.4-2.42,2.93-1.7,5.05,1.12-.15,2.31-.43,3.5-.44,2.99-.03,6.02-.25,8.95.16,6.34.88,8.62,7.05,6.48,12.38-.34.86-1.1,1.55-1.81,2.51,1.33.33,2.69.85,4.09.99,2.18.22,4.39.31,6.58.24,1.83-.06,3.05-1.2,3.85-2.77,2.77-5.41,5.56-10.81,8.29-16.25,1.92-3.82,3.25-5.4,6.17-6.44-.72,1.67-1.36,3.37-2.17,5-3.09,6.22-6.3,12.39-9.29,18.65-.81,1.7-1.32,3.67-1.41,5.54-.18,3.45,2.84,6.85,6.4,6.97,5.37.18,10.75-.08,16.17-.44-2.92-1.29-5.43-3.19-8.68-3.74-2.23-.38-4.31-1.57-6.46-2.41-.67-.26-1.34-.52-2.02-.78,1.27-2.52,3.8-3.8,6.36-3.11,1.49.4,3.01.92,4.34,1.68,6.18,3.53,12.58,6.55,19.48,8.5,1.59.45,3.24.7,5.21,1.12-1.02,1.24-1.67,2.7-2.76,3.15-1.05.43-2.55-.18-3.89-.33-1.21,2.57.44,6.09,3.28,6.81,4.13,1.05,8.3,1.8,12.54.8,1.66-.39,3.24-1.09,4.84-1.69.67-.25,1.3-.63,2.11-1.04.18.59.32,1.03.44,1.47.77,2.99,3.25,4.63,6.33,4.19,3.76-.54,3.78-.64,3.42-4.42-.89-9.44-1.73-18.88-2.58-28.32-.01-.14.03-.32-.03-.43-1.26-2.22.57-3.71,1.23-5.48.14-.03.28-.06.42-.1,1.31,3.44,2.62,6.88,3.93,10.32-.21.15-.42.29-.62.44l-1.66-2.61c-.19.14-.38.29-.56.43.23,2.37.46,4.73.71,7.1.53,5.12,1.13,10.23,1.59,15.36.33,3.68-.73,7.05-2.88,10.07-.37.51-1.02.95-1.64,1.15-1.89.62-3.83,1.11-6.05,1.73-.28.54-.71,1.45-1.23,2.31-.88,1.44-1.71,1.53-2.92.33-2.05-2.02-2.44-4.41-1.6-7.06.26-.82.59-1.62,1-2.74-.59.28-.97.41-1.3.61-5.43,3.27-11.14,3.49-17.01,1.4-4.4-1.57-5.79-5.42-3.63-9.75.19-.38.41-.76.79-1.45-1.66-.16-3.16-.49-4.63-.42-4.87.23-9.73.71-14.6.9-3.58.14-7.17,0-10.75-.09-.93-.02-2.04,0-2.24-1.35-.02-.15-.39-.26-.6-.39-4.53-2.88-4.6-7.28-2.92-11.03.11-.25.25-.5.3-.9-3.08,1.8-6.18,3.3-9.92,2.85-5.45-.65-9.04-1.92-9.15-3.39-7.95-1.85-13.29-6.25-16.21-13.34-.75.08-1.48.16-2.22.23-.12-.15-.24-.31-.36-.46,3.15-.65,2.81-3.54,4.24-5.42-2.67-.95-5.57-1.24-7.31-3.73-1.68-2.39-2.42-4.82-.69-7.61-3.81.09-7.92.97-9.46-3.92-1.56.46-3.11,1.07-4.72,1.34-1.11.18-2.44.18-3.45-.25-6.84-2.92-12.8-6.99-16.77-13.34-.88-1.4-1.33-3.06-1.97-4.6,0-.58,0-1.16,0-1.73ZM87.46,452.96c.52,1.02.85,1.88,1.35,2.64,2.71,4.04,6.39,7,10.84,9.06,2.38,1.1,2.89.82,3.3-1.62.75-4.49-1.12-8.1-5.06-9.46-3.31-1.15-6.73-1.22-10.43-.6ZM177.63,496.64l.57-.2c0-.42.18-.97-.03-1.24-.69-.87-1.51-1.64-2.29-2.45-.13.07-.25.14-.38.21.71,1.23,1.41,2.46,2.12,3.68Z"/>
              <path class="cls-20" d="M313.36,391.9c.27,1.89-.29,3.48-1.37,5.12-3.02,4.54-5.84,9.22-8.74,13.84-.2.32-.43.63-.79,1.15-.36-1.69-.17-3.1.59-4.35,2.08-3.43,4.23-6.81,6.38-10.2,1.19-1.87,2.42-3.71,3.64-5.56.1,0,.2,0,.3,0Z"/>
              <path class="cls-20" d="M256.06,462.82c-2.38,1.13-5.15,1.84-7.04,3.5-2.35,2.06-5.19,3.19-7.67,4.94-1.09.77-1.47.51-1.64-.85-.45-3.54.62-5.25,4.11-6.9,5.79-2.74,11.57-5.49,17.29-8.37,1.73-.87,3.24-2.18,4.84-3.3.87-.61,1.72-1.26,2.86-2.11.38,1.56.78,2.87.96,4.21.04.3-.6.75-.99,1.05-.75.57-1.56,1.08-2.44,1.68,1.68,1.53,3.54,1.9,5.27,1.27,2.93-1.06,5.91-2.2,8.47-3.9,1.48-.98,2.21-3.09,3.16-4.75.59-1.04.97-2.19,1.54-3.5.68.87,1.19,1.62,1.79,2.28,1.19,1.31,2.9,1.36,4.18.16,1.86-1.75,2.93-3.83,2.82-6.42-.04-.87,0-1.74,0-2.62.16-.02.33-.05.49-.07.21.45.42.91.63,1.36.65,1.45,1.62,1.8,3.09,1.11,1.98-.92,2.43-1.85,2.1-4.03-.16-1.09-.2-2.21-.29-3.31.13-.03.26-.05.39-.08.21.25.43.5.61.77,1.21,1.78,3.59,2.06,4.98.38,2.16-2.62,4.21-5.35,4.93-8.76.13-.61.17-1.23.2-1.85.12-2.59.16-5.19.34-7.78.23-3.36,2.92-4.85,5.93-3.26,2.72,1.44,4.43,3.55,4.46,6.79.01,1.33-.5,2.02-1.71,2.23-2.32.4-4.65.72-6.98,1.07-.23.04-.47.05-.4.04-.38,2.79-.38,5.54-1.2,8.04-.87,2.65-2.34,5.18-3.92,7.52-.67,1-2.27,1.47-3.74.91-.59-.22-1.18-.46-1.92-.75.02,1.91.43,3.83-1.08,5.35-1.39,1.4-2.76,1.4-5.1-.15-.02,2.53-.32,4.88-2.28,6.76-2.36,2.28-4.52,1.39-6.74-.28-.75,1.44-1.36,2.79-2.12,4.06-1.68,2.81-8.61,7.23-13.06,6.2-1.46-.34-2.78-1.34-4.11-2.11-.67-.39-1.25-.94-2.02-1.53-1.91,1.5-3.56,3.62-5.1,5.84-3,4.33-6.03,8.64-9.08,12.95-.67.95-1.45,1.82-2.17,2.73-2.93,3.7-8.4,3.17-10.98-.02-.97-1.19-1.88-2.43-2.84-3.66-.57,6.2-4.92,10.16-8.86,14.3-1.49,1.57-3.27,2.96-5.14,4.08-1.32.8-3,1.38-4.54,1.41-3.01.06-4.71-1.6-5.36-4.55-.56-2.58-.6-5.15,0-7.73.11-.47.36-.9.87-1.27-.09,1.12-.23,2.23-.26,3.35-.06,2.04-.14,4.3,1.91,5.44,1.94,1.08,4.02.27,5.88-.72,4-2.14,7.23-5.1,9.83-8.75,1.15-1.62,2.43-3.15,3.67-4.71,1.17-1.47,1.54-2.96.39-4.62-3.08-4.45-6.06-8.97-9.24-13.35-1.27-1.75-1.61-3.6-1.77-5.58.12-.09.23-.17.35-.26,1.5,1.41,3.16,2.69,4.48,4.24,3.63,4.28,6.52,9.01,8.49,14.25.44,1.17.97,2.32,1.63,3.38,2.15,3.49,6.78,4.03,9.61,1.08,1.33-1.39,2.45-3,3.6-4.55,1.99-2.67,3.92-5.38,5.88-8.07-.08-.08-.16-.15-.24-.23ZM317.98,418.72c-1.73-1.38-3.43-1.56-4.61-.57-.32.27-.44.76-.65,1.16.39.1.81.34,1.18.28,1.29-.22,2.56-.54,4.09-.87Z"/>
              <path class="cls-20" d="M196.1,452.13c1.33,3.57,2.61,6.98,3.88,10.4-.21.15-.41.29-.62.44-.46-.81-.92-1.62-1.38-2.43-.23.16-.46.31-.69.47.14,1.74.29,3.48.43,5.22.58,7.05,1.2,14.09,1.72,21.15.23,3.07-.89,5.92-1.73,8.79-.13,0-.26,0-.39,0-.07-.47-.21-.94-.2-1.41.17-9.46-1.12-18.82-2.04-28.21-.29-2.92-.4-5.86-.7-8.78-.23-2.25.07-3.59,1.72-5.63Z"/>
              <path class="cls-20" d="M311,448.95c-1.54-1.15-1.12-2.08-.25-3.29.3.62.57,1.03.71,1.48.11.36.09.76.11,1.15.17,3.44-.93,4.27-4.35,3.18-.21.29-.44.59-.66.9-1.12,1.52-2.84,2.16-4.67,1.6-2.28-.71-4.26-.03-5.83,1.45-1.84,1.72-3.47,3.67-5.06,5.62-2.58,3.18-6.08,5.12-9.57,7.1-.78.44-1.64.76-2.46,1.13l-.18-.31c1.87-1.26,3.89-2.35,5.57-3.82,2.37-2.06,4.74-4.22,6.64-6.68,1.96-2.53,4.15-4.74,6.78-6.53,1.17-.8,2.48-1.02,3.92-.48,2.13.8,4.01-.14,4.81-2.28.25-.68.53-1.35.78-1.98.56.82.88,1.64,1.48,2.03.4.26,1.22-.12,2.22-.26Z"/>
              <path class="cls-20" d="M203.03,475.24c.48-.7.96-1.41,1.45-2.11,1.98-2.86,4.1-5.64,5.88-8.62.96-1.62,1.48-3.54,1.9-5.39.25-1.09.32-2.42-1.14-3.12-1.44-.69-2.43.11-3.45.87-.26.19-.51.37-.77.56-.13-.08-.25-.16-.38-.23.46-.87.85-1.78,1.39-2.6,1.32-1.98,3.31-2.88,4.92-2.36,1.14.36,1.78,1.08,2.04,2.23.49,2.15.28,4.26-.69,6.19-2.53,5.02-5.8,9.58-9.49,13.85-.36.41-.86.7-1.3,1.04l-.35-.31Z"/>
              <path class="cls-20" d="M259.09,440.06c-2.2-1.69-2.67-1.53-3.24,1.26-.25,1.22-.37,2.48-.46,3.72-.15,1.98-.94,3.64-2.51,4.88-2.38,1.88-4.93,3.46-8.1,3.96,1.66-1.14,3.33-2.26,4.98-3.41.88-.61,1.75-1.24,2.59-1.92,1.8-1.45,1.88-1.55.79-3.55-.67-1.22-1.17-2.77-3.15-2.72-.49.01-1.08-.49-1.46-.89-.75-.8-.9-1.9-.06-2.56.4-.31,1.75-.08,2.16.36,1.13,1.24,2.01,2.71,2.95,4.11.26.38.38.85.88,1.26.2-1.33.39-2.66.6-3.99.09-.57.22-1.13.37-1.69.49-1.83,1.28-2.48,2.53-2.1,1.41.44,1.75,1.43,1.12,3.28Z"/>
              <path class="cls-20" d="M165.34,459.51c.31-1.99.53-3.99.99-5.94.15-.64.84-1.47,1.43-1.6.6-.13,1.64.33,1.99.85.42.62.3,1.58.44,2.58-.54-.16-.65-.17-.72-.22-.55-.36-1.09-.72-1.63-1.08-.4.62-1,1.2-1.16,1.88-.33,1.39-.6,2.84-.58,4.27.03,2.12-.88,3.68-2.45,5-2.28,1.92-5.01,2.9-7.96,3.56.58-.41,1.14-.82,1.73-1.22,2.14-1.44,4.28-2.88,6.43-4.31.79-.53,1.09-1.15.58-2.07-.39-.71-.61-1.52-1.02-2.22-.52-.9-1.07-1.79-2.42-1.64-.4.05-.86-.2-1.25-.38-.99-.45-1.44-1.84-.84-2.7.68-.97,1.73-.73,2.3-.12,1.21,1.29,2.22,2.77,3.27,4.2.26.36.38.83.56,1.25.1-.03.21-.05.31-.08Z"/>
              <path class="cls-20" d="M156.95,474.7c6.41-2.55,13.41-3.14,19.83-6.22-.41-.49-.65-.83-.94-1.12-1.25-1.23-1.35-2.16-.08-3.29.88-.79,1.92-1.5,3.02-1.94,1.31-.52,2.34.36,1.99,1.69-.31,1.18-.97,2.27-1.55,3.56.14.18.43.54.88,1.1-.46.38-.9.75-1.43,1.19-1.05-.97-1.82-.27-2.77.26-3.67,2.07-7.75,2.97-11.87,3.7-2.35.42-4.72.71-7.07,1.05ZM178.43,466.72c.54-1.04,1.12-2.05.09-2.86-.3-.23-1.72.2-1.83.55-.37,1.26.87,1.64,1.73,2.31Z"/>
              <path class="cls-20" d="M293.99,409.68c-.49,1.78-1.04,3.55-1.45,5.35-.57,2.52-1.19,5.06-1.5,7.62-.15,1.27.12,2.7.59,3.92.75,1.91,2.65,1.99,3.84.3.35-.5.68-1.02,1.05-1.57,1.06,2.15-1.04,6.2-3.28,6.42-1.23.12-2.14-.42-2.68-1.59-1.2-2.6-1.4-5.29-.77-8.03.82-3.54,1.73-7.06,2.67-10.57.19-.7.64-1.34.97-2.01.19.05.37.11.56.16Z"/>
              <path class="cls-20" d="M277.47,472.63c-.33,1.66-1.01,2.73-2.28,3.7-3.82,2.95-7.47,6.11-11.2,9.17-1.01.83-2.03,1.64-3.05,2.45-.12-.07-.23-.14-.35-.21.49-.94.87-1.96,1.5-2.8,1.77-2.32,12.56-10.92,15.37-12.32Z"/>
              <path class="cls-20" d="M73.26,464.09c1.48-.02,3.04-.37,4.42-.02,5.14,1.29,10.22,2.8,15.31,4.25.78.22,1.53.51,2.3.77,0,.16,0,.32-.01.47-1.13.07-2.34.44-3.39.18-6.08-1.53-12.13-3.21-18.18-4.84-.18-.05-.34-.16-.52-.25l.06-.56Z"/>
              <path class="cls-20" d="M95.31,477.61c1.32-.78,2.67-1.24,4.16-.89,5.57,1.31,11.13,2.64,16.7,3.97.51.12.98.37,1.47.56,0,.17-.01.35-.02.52-1.31.04-2.67.34-3.92.08-5.7-1.21-11.36-2.57-17.04-3.88-.45-.11-.9-.24-1.35-.36Z"/>
              <path class="cls-20" d="M122.63,450.39c-.91-2.79-1.51-3.01-3.52-1.26-1.68,1.47-3.25,3.06-4.87,4.6-.14-.04-.28-.08-.42-.13.11-.74.2-1.49.35-2.23.16-.8.53-1.59.52-2.38,0-.66-.46-1.31-.64-1.98-.26-.98-.61-1.98-.62-2.97,0-.42.86-1.25,1.19-1.18.53.1,1.3.76,1.34,1.23.14,1.74.05,3.51,0,5.26-.01.44-.18.88-.3,1.4,1.87-1.41,3.54-2.81,5.35-4.01,1.42-.94,2.99-.06,2.87,1.61-.05.7-.81,1.35-1.25,2.02Z"/>
              <path class="cls-20" d="M277.43,431.64c-1.59.95-3.18,1.9-4.78,2.86-.84-2.25-.54-3.43,1.29-4.66.96-.65,2.02-1.18,3.1-1.63,1.45-.6,2.06-.16,2.28,1.35.5,3.38-1.42,5.48-4.18,7.18.85-1.6,1.71-3.19,2.56-4.79-.09-.1-.18-.2-.27-.3Z"/>
              <path class="cls-20" d="M143.54,454.26c1.94.14,3.7.27,5.45.39.06-.14.12-.28.18-.42-1.48-1.03-2.96-2.07-4.45-3.1,1.61-1.59,3.01-1.87,4.7-.77,1.13.74,2.15,1.66,3.17,2.56.74.66.6,1.35-.14,1.96-2.25,1.88-6.49,1.66-8.91-.63Z"/>
              <path class="cls-20" d="M217.05,472.01c.9-1.52,1.8-3.04,2.7-4.57-.07-.11-.14-.22-.21-.33-1.6.8-3.2,1.61-4.8,2.41-.57-2.5-.22-3.38,1.98-4.52.99-.51,2.07-.86,3.11-1.27,1.17-.45,1.74.18,1.79,1.19.1,1.7-.15,3.39-1.4,4.71-.9.95-1.91,1.8-2.88,2.7l-.29-.33Z"/>
              <path class="cls-20" d="M66.85,446.21c.79-.21,1.48-.4,2.3-.62.36,1.01.69,1.95,1.11,3.15-1,.22-2.15.84-2.77.51-.68-.36-.88-1.59-1.34-2.54-.72.21-1.41.4-2.25.64-.39-1.09-.75-2.11-1.23-3.44,1.11-.19,2.35-.77,2.94-.4.7.44.83,1.73,1.23,2.7Z"/>
              <path class="cls-20" d="M139.47,450.02c-.76,1.15-1.54,2.28-2.26,3.45-.66,1.07-1.42,2.12-1.82,3.28-.26.76.03,1.7.07,2.56.79-.08,1.57-.16,2.46-.24-.29,1.03-1.01,2.03-2.3,2.34-.42.1-1.5-.67-1.51-1.05-.02-1.29.13-2.65.54-3.87.88-2.6,2.65-4.67,4.48-6.67.11.07.23.14.34.21Z"/>
              <path class="cls-20" d="M81.81,424.62c.06-.16.05-.05,0,.01-1.24,1.3-2.62,1.72-3.45,1.07-.79-.61-.83-2.3.33-3.51,1.73-1.8,3.7-3.39,5.6-5.03.29-.25.76-.3,1.39-.53-1.7,1.52-3.18,2.84-4.65,4.16-.11.1-.26.17-.32.3-.41.92-.8,1.86-1.2,2.79.77.25,1.54.49,2.31.74Z"/>
              <path class="cls-20" d="M263.26,474.08c.58-1,1.02-1.78,1.54-2.68,1.05.58,2,1.11,3.1,1.73-.44.86-.85,1.65-1.4,2.71-1.07-.58-2.09-1.13-3.25-1.76Z"/>
              <path class="cls-20" d="M63.91,414.87c-.75.92-1.28,2.15-1.93,2.21-.76.07-2.05-.72-2.31-1.43-.24-.63.59-1.65.99-2.61,1.11.63,2.03,1.14,3.25,1.83Z"/>
              <path class="cls-20" d="M147.31,462.95c.85,3.4.63,3.71-2.31,3.52-.93-3.27-.79-3.49,2.31-3.52Z"/>
              <path class="cls-20" d="M145.42,540.03c2.12-.89,4.29-1.69,6.36-2.69,3.7-1.79,7.39-3.63,11.01-5.58,1.71-.92,3.26-2.14,4.88-3.23.85-.57,1-1.29.51-2.11-1.16.16-2.29.45-3.41.45-1.85,0-2.8-1.2-2.21-2.95.34-1.01,1.06-1.96,1.82-2.74.65-.67,1.58-.72,2.38,0,.18.16.43.26.56.44,2.12,2.82,5.18,3.03,8.24,2.69,2.92-.33,5.79-1.12,8.69-1.68,1-.19,1.15-.77.97-1.66-.59-2.94-1.22-5.88-1.66-8.85-.22-1.46-.84-2.96-.17-4.47.09-.21.22-.41.5-.94,1.01,1.89,1.9,3.56,2.79,5.23-.1.08-.2.16-.3.24-.39-.2-.79-.4-1.26-.64.43,2.47.87,4.86,1.24,7.26.12.79.16,1.6.1,2.39-.16,1.9-.98,3.28-2.93,3.97-3.02,1.06-6.04,2.12-9.28,2.04-1.58-.04-3.15-.34-4.89-.54,0,3.79-2.88,5.5-5.7,7.21-2.35,1.44-4.66,3.04-7.19,4.07-2.29.94-4.85,1.25-7.31,1.78-1.2.26-2.43.42-3.64.63-.03-.11-.07-.23-.1-.34ZM164.16,524h2.33c-1.19-1.07-1.57-1.08-2.33,0Z"/>
              <path class="cls-20" d="M152.27,513.66c-.39.21-.61.34-.91.5.34.27.61.49.95.78.7-1.2,1.3-2.37,2.06-3.44.71-1.01,1.52-1.97,2.41-2.82.37-.36,1.09-.61,1.55-.5.28.07.61.99.5,1.42-.39,1.57-.85,3.14-1.48,4.63-.48,1.12-1.26,2.12-2.02,3.37.26.18.54.35.78.54,1.91,1.51,2.11,3.55,1.48,5.66-.64,2.14-2.55,3-4.49,3.59-.94.29-1.67-.48-1.86-1.72-.25-1.68.13-3.27.83-4.79.33-.72.7-1.42,1.09-2.19-.35-.29-.68-.56-1.07-.88-1.99,2.79-4.01,5.43-7.28,6.83.36-.45.71-.9,1.09-1.34,1.57-1.81,3.15-3.61,4.73-5.4.5-.56.43-1.04-.06-1.57-.43-.47-.77-1.02-1.19-1.51-.84-.99-1.02-2.04-.49-3.55,1.12.8,2.2,1.56,3.39,2.41ZM157.23,522.57c-1.18-1.13-2.15-2.07-3.3-3.17-.63,1.39-1.22,2.51-1.65,3.69-.13.36.02,1.04.3,1.28.27.23.93.23,1.3.06,1.04-.48,2.01-1.1,3.36-1.87ZM154.43,516.69c1.03-1.6,2.07-3.19,3.06-4.81.17-.28.1-.7.14-1.06-.36.09-.83.07-1.05.3-.96,1.01-1.86,2.08-2.75,3.17-.91,1.11-.81,1.53.59,2.41Z"/>
              <g>
                <path class="cls-20" d="M199.66,518.44c2.69,3.75,6.66,3.83,10.47,4.07,5.53.34,10.92-.68,16.18-2.34,2.2-.69,2.51-1.56.94-3.3-1.01-1.12-.85-2.09-.34-3.34.26.2.51.33.67.53,1.53,1.88,1.72,4.08,1.04,6.25-.25.81-1.24,1.6-2.08,1.98-3.04,1.36-6.23,2.27-9.59,2.46-1.72.1-3.43.39-5.15.37-2.78-.03-5.56-.25-8.46-.4-.02.11-.07.41-.12.71-.23,1.55-.97,1.9-2.31,1.06-1.23-.77-1.94-1.88-2.03-3.36-.02-.38-.05-.77-.1-1.57-1.32,1.78-2.42,3.34-4.45,3.66-.02.32-.07.56-.05.79.3,3.38-1.16,5.79-4.03,7.46-2.21,1.29-4.41,2.6-6.58,3.96-2.79,1.75-5.91,2.36-9.08,2.87-1.45.23-2.89.48-4.33.72-.04-.1-.07-.2-.11-.3.54-.24,1.08-.49,1.62-.73,4.07-1.85,8.21-3.58,12.2-5.59,2.7-1.36,5.26-3.02,7.79-4.68,2.01-1.32,2.14-2.32.96-4.45-.16-.28-.3-.58-.51-.81-1.01-1.11-.85-2.3-.34-3.58.14.07.29.09.33.17,1.38,2.4,3.17,1.63,4.79.23.93-.8,1.7-1.78,2.66-2.81Z"/>
                <path class="cls-20" d="M213.93,513.76c.39-.63.72-1.17,1.15-1.87.91.48,1.79.95,2.94,1.56-.61.79-1.04,1.91-1.69,2.05-.68.14-1.58-.65-2.46-1.08-.39.6-.75,1.16-1.15,1.78-.88-.48-1.73-.94-2.77-1.51.57-.79.96-1.88,1.61-2.05.6-.16,1.47.66,2.38,1.12Z"/>
              </g>
            </g>
          </g>
          <g id="atap_n_kubah" data-name="atap n kubah">
            <rect class="cls-33" x="205.58" y="300.82" width="75.95" height="11.62"/>
            <polygon class="cls-18" points="304.46 326.26 181.61 326.26 205.58 312.44 281.53 312.44 304.46 326.26"/>
            <rect class="cls-29" x="181.61" y="326.26" width="122.85" height=".77"/>
            <rect class="cls-13" x="186.02" y="341.23" width="114.54" height="1.73"/>
            <rect class="cls-26" x="190.89" y="327.19" width="107.55" height="14.09"/>
            <rect class="cls-27" x="192.79" y="327.24" width="103.74" height="13.99"/>
            <g>
              <rect class="cls-38" x="193.72" y="331.18" width="19.09" height="9.21"/>
              <rect x="193.72" y="328.08" width="19.09" height=".87"/>
              <rect x="193.72" y="329.63" width="19.09" height=".87"/>
            </g>
            <g>
              <rect class="cls-24" x="214.42" y="331.18" width="19.09" height="9.21"/>
              <rect x="214.42" y="328.08" width="19.09" height=".87"/>
              <rect x="214.42" y="329.63" width="19.09" height=".87"/>
            </g>
            <g>
              <rect class="cls-3" x="235.11" y="331.18" width="19.09" height="9.21"/>
              <rect x="235.11" y="328.08" width="19.09" height=".87"/>
              <rect x="235.11" y="329.63" width="19.09" height=".87"/>
            </g>
            <g>
              <rect class="cls-17" x="255.81" y="331.18" width="19.09" height="9.21"/>
              <rect x="255.81" y="328.08" width="19.09" height=".87"/>
              <rect x="255.81" y="329.63" width="19.09" height=".87"/>
            </g>
            <g>
              <rect class="cls-38" x="276.51" y="331.18" width="19.09" height="9.21"/>
              <rect x="276.51" y="328.08" width="19.09" height=".87"/>
              <rect x="276.51" y="329.63" width="19.09" height=".87"/>
            </g>
            <path class="cls-37" d="M186.3,342.93l-65.89,29.52c54.32,35.75,111.1,41.45,178.03-.23l11.93-23.18-9.61-6.14-114.47.03Z"/>
            <g>
              <path class="cls-35" d="M276.02,256.41c-20.7-12.87-24.6-26.3-24.6-26.3l-5.95-13.19c-.35-.93-.61-1.97-.2-2.34,0,0,0,0-.01,0,.3-.3.53-.73.53-1.4,0-.56-.24-.94-.56-1.22,0,0,0,0,0,0,0,0,0,0,0,0-.23-.2-.48-.34-.73-.44-.08-.19.09-.38.26-.51.09-.05.17-.1.24-.16h0c.27-.21.47-.51.47-.98-.07-.53-.35-.87-.67-1.07,0-.02-.02-.04-.11-.07-.56-.38-.41-1.94-.41-1.94h0l.52-1.33-.87-15.56h-.53s-.89,15.6-.89,15.6l.49,1.3s.34,1.76-.31,1.96c-.05.02-.07.03-.07.04-.45.24-.87.62-.82,1.23.03.38.22.64.46.83h0s.01,0,.02,0c.1.08.2.14.32.19.16.13.27.31.11.52-.5.24-1.02.69-1.15,1.52,0,.74.26,1.21.6,1.52,0,0-.03-.02-.03-.02,0,0,.01,0,.03.03,0,0,0,0,0,0,.11.11.4.66-.39,2.58l-.42.93c-.07.14-.12.26-.2.42,0,0,0,0,0,0l-5.22,11.55s-8.77,15.07-25.12,26.83c-1.6,1.15-3.15,2.36-4.51,3.78-16.88,17.56-1.03,33.48,1.72,35.99v4.11h70.55v-3.91c.26.1.37.16.37.16,0,0,19.41-15.43,5.02-33.69-2.19-2.78-4.92-5.1-7.93-6.97Z"/>
              <path class="cls-2" d="M244.07,189.88c2.38,0,4.46-1.35,5.52-3.34-.6.68-1.38,1.18-2.26,1.49l.46-3.42,3.05-1.64-3.08-1.44-.52-3.43c.09.03.19.05.28.08-.99-.66-2.17-1.05-3.45-1.05-3.47,0-6.28,2.85-6.28,6.38s2.81,6.38,6.28,6.38ZM245.6,177.82c.57,0,1.12.11,1.63.28l-2.35,2.57-3.37-.48,1.62,3.03-1.56,3.13,3.36-.69,2.38,2.39c-.54.18-1.1.31-1.7.31-2.93,0-5.3-2.36-5.3-5.27s2.38-5.27,5.3-5.27Z"/>
            </g>
          </g>
          <g>
            <g class="cls-36">
              <g>
                <rect class="cls-8" x="142.98" y="200.16" width="28.57" height="31.27"/>
                <g>
                  <g>
                    <path class="cls-19" d="M170.49,179.5c-8.88-5.52-10.55-11.29-10.55-11.29l-2.55-5.66c-.15-.4-.26-.85-.09-1,0,0,0,0,0,0,.13-.13.23-.31.23-.6,0-.24-.1-.4-.24-.52,0,0,0,0,0,0,0,0,0,0,0,0-.1-.09-.21-.15-.31-.19-.03-.08.04-.16.11-.22.04-.02.07-.04.11-.07h0c.11-.09.2-.22.2-.42-.03-.23-.15-.37-.29-.46,0,0-.01-.02-.05-.03-.24-.16-.18-.83-.18-.83h0l.22-.57-.37-6.68h-.23s-.38,6.69-.38,6.69l.21.56s.15.76-.13.84c-.02,0-.03.01-.03.02-.19.1-.37.26-.35.53.01.16.09.27.2.35h0s0,0,0,0c.04.03.09.06.14.08.07.06.11.13.05.22-.21.1-.44.3-.49.65,0,.32.11.52.26.65,0,0-.01,0-.01,0,0,0,0,0,.01.01,0,0,0,0,0,0,.05.05.17.28-.17,1.11l-.18.4c-.03.06-.05.11-.09.18,0,0,0,0,0,0l-2.24,4.96s-3.76,6.47-10.78,11.51c-.68.49-1.35,1.01-1.94,1.62-7.24,7.54-.44,14.36.74,15.44v1.76h30.27v-1.68c.11.04.16.07.16.07,0,0,8.33-6.62,2.15-14.45-.94-1.19-2.11-2.19-3.4-2.99Z"/>
                    <path class="cls-16" d="M156.78,150.96c1.02,0,1.91-.58,2.37-1.43-.26.29-.59.51-.97.64l.2-1.47,1.31-.7-1.32-.62-.22-1.47s.08.02.12.03c-.43-.28-.93-.45-1.48-.45-1.49,0-2.69,1.22-2.69,2.74s1.2,2.74,2.69,2.74ZM157.43,145.78c.25,0,.48.05.7.12l-1.01,1.1-1.45-.21.7,1.3-.67,1.34,1.44-.3,1.02,1.03c-.23.08-.47.13-.73.13-1.26,0-2.28-1.01-2.28-2.26s1.02-2.26,2.28-2.26Z"/>
                  </g>
                  <g>
                    <path d="M140.66,199.2v-2.13c-1.14-1.09-3.89-4.16-4.02-8.23-.09-2.78,1.08-5.45,3.46-7.93.66-.69,1.39-1.24,2.02-1.7,6.81-4.9,10.56-11.25,10.6-11.32l1.92-4.25h-.04s.34-.68.34-.68l.25-.54c.11-.28.15-.45.17-.54-.21-.26-.32-.59-.31-.97.04-.29.14-.54.28-.74-.1-.15-.15-.32-.17-.51-.03-.38.12-.72.43-.97l.03-.12.09-.03s0-.1-.02-.15l-.24-.63.42-7.44,1.44.02.42,7.41-.23.61c0,.06,0,.12,0,.17l.29.09-.03.23c.13.17.22.38.25.61,0,.27-.05.49-.15.67.2.24.29.52.29.84,0,.36-.11.68-.31.93.01.07.04.21.13.45l2.54,5.62c.05.14,1.78,5.7,10.31,11,1.42.88,2.62,1.94,3.57,3.14,6.15,7.81-1.3,14.54-2.18,15.28v1.82h-31.55Z"/>
                    <path d="M156.78,151.6c-1.84,0-3.33-1.51-3.33-3.38s1.5-3.38,3.33-3.38c.65,0,1.29.19,1.83.56l-.24.46.4-.06.17,1.13,2.17,1.01-2.14,1.15-.02.19.77.54c-.59,1.09-1.71,1.77-2.93,1.77Z"/>
                  </g>
                  <g>
                    <path class="cls-22" d="M170.49,179.5c-8.88-5.52-10.55-11.29-10.55-11.29l-2.55-5.66c-.15-.4-.26-.85-.09-1,0,0,0,0,0,0,.13-.13.23-.31.23-.6,0-.24-.1-.4-.24-.52,0,0,0,0,0,0,0,0,0,0,0,0-.1-.09-.21-.15-.31-.19-.03-.08.04-.16.11-.22.04-.02.07-.04.11-.07h0c.11-.09.2-.22.2-.42-.03-.23-.15-.37-.29-.46,0,0-.01-.02-.05-.03-.24-.16-.18-.83-.18-.83h0l.22-.57-.37-6.68h-.23s-.38,6.69-.38,6.69l.21.56s.15.76-.13.84c-.02,0-.03.01-.03.02-.19.1-.37.26-.35.53.01.16.09.27.2.35h0s0,0,0,0c.04.03.09.06.14.08.07.06.11.13.05.22-.21.1-.44.3-.49.65,0,.32.11.52.26.65,0,0-.01,0-.01,0,0,0,0,0,.01.01,0,0,0,0,0,0,.05.05.17.28-.17,1.11l-.18.4c-.03.06-.05.11-.09.18,0,0,0,0,0,0l-2.24,4.96s-3.76,6.47-10.78,11.51c-.68.49-1.35,1.01-1.94,1.62-7.24,7.54-.44,14.36.74,15.44v1.76h30.27v-1.68c.11.04.16.07.16.07,0,0,8.33-6.62,2.15-14.45-.94-1.19-2.11-2.19-3.4-2.99Z"/>
                    <path class="cls-32" d="M156.78,150.96c1.02,0,1.91-.58,2.37-1.43-.26.29-.59.51-.97.64l.2-1.47,1.31-.7-1.32-.62-.22-1.47s.08.02.12.03c-.43-.28-.93-.45-1.48-.45-1.49,0-2.69,1.22-2.69,2.74s1.2,2.74,2.69,2.74ZM157.43,145.78c.25,0,.48.05.7.12l-1.01,1.1-1.45-.21.7,1.3-.67,1.34,1.44-.3,1.02,1.03c-.23.08-.47.13-.73.13-1.26,0-2.28-1.01-2.28-2.26s1.02-2.26,2.28-2.26Z"/>
                  </g>
                </g>
                <rect class="cls-8" x="140.35" y="235.02" width="32.79" height="72.02"/>
                <rect class="cls-6" x="139" y="198.25" width="35.45" height="3.04"/>
                <rect class="cls-6" x="134.22" y="228.75" width="46.2" height="7.82"/>
                <rect class="cls-6" x="130.65" y="305.98" width="51.61" height="5.67"/>
                <rect class="cls-8" x="136.77" y="310.62" width="39.47" height="100.28"/>
                <rect class="cls-9" x="149.12" y="249.7" width="14.44" height="45.48"/>
                <rect class="cls-9" x="149.6" y="322.52" width="14.68" height="31.63"/>
                <g class="cls-7">
                  <rect class="cls-9" x="149.37" y="204.38" width="14.26" height="20.05"/>
                  <rect class="cls-11" x="149.98" y="204.99" width="13.04" height="18.83"/>
                </g>
                <rect class="cls-9" x="150.91" y="218.19" width="11.34" height="4.72"/>
                <path class="cls-9" d="M156.58,206.43c-3.84,2.75-5.37,6.28-5.67,10.21h11.34c-.26-4.08-2.03-7.53-5.67-10.21Z"/>
              </g>
            </g>
            <g>
              <path class="cls-39" d="M208.83,392.5c-59.41-6.34-102.43-59.64-96.09-119.05s58.32-101.35,116.84-96.3c-10.03-3.61-20.65-6.11-31.73-7.29-74.59-7.96-141.52,46.06-149.48,120.65-7.96,74.59,46.06,141.52,120.65,149.48,68.87,7.35,131.2-38.14,146.63-103.87-20.21,37.6-61.75,61.19-106.81,56.38Z"/>
              <g class="cls-21">
                <path class="cls-28" d="M208.83,392.5c-59.41-6.34-102.43-59.64-96.09-119.05s58.32-101.35,116.84-96.3c-10.03-3.61-20.65-6.11-31.73-7.29-74.59-7.96-141.52,46.06-149.48,120.65-7.96,74.59,46.06,141.52,120.65,149.48,68.87,7.35,131.2-38.14,146.63-103.87-20.21,37.6-61.75,61.19-106.81,56.38Z"/>
                <ellipse class="cls-23" cx="200.99" cy="297.17" rx="123.3" ry="120.76" transform="translate(-115.83 465.48) rotate(-83.91)"/>
                <ellipse class="cls-25" cx="201.69" cy="294.65" rx="120.72" ry="121.2" transform="translate(-112.69 463.93) rotate(-83.91)"/>
              </g>
            </g>
            <g class="cls-34">
              <g>
                <rect class="cls-8" x="142.98" y="200.16" width="28.57" height="31.27"/>
                <g>
                  <g>
                    <path class="cls-30" d="M170.49,179.5c-8.88-5.52-10.55-11.29-10.55-11.29l-2.55-5.66c-.15-.4-.26-.85-.09-1,0,0,0,0,0,0,.13-.13.23-.31.23-.6,0-.24-.1-.4-.24-.52,0,0,0,0,0,0,0,0,0,0,0,0-.1-.09-.21-.15-.31-.19-.03-.08.04-.16.11-.22.04-.02.07-.04.11-.07h0c.11-.09.2-.22.2-.42-.03-.23-.15-.37-.29-.46,0,0-.01-.02-.05-.03-.24-.16-.18-.83-.18-.83h0l.22-.57-.37-6.68h-.23s-.38,6.69-.38,6.69l.21.56s.15.76-.13.84c-.02,0-.03.01-.03.02-.19.1-.37.26-.35.53.01.16.09.27.2.35h0s0,0,0,0c.04.03.09.06.14.08.07.06.11.13.05.22-.21.1-.44.3-.49.65,0,.32.11.52.26.65,0,0-.01,0-.01,0,0,0,0,0,.01.01,0,0,0,0,0,0,.05.05.17.28-.17,1.11l-.18.4c-.03.06-.05.11-.09.18,0,0,0,0,0,0l-2.24,4.96s-3.76,6.47-10.78,11.51c-.68.49-1.35,1.01-1.94,1.62-7.24,7.54-.44,14.36.74,15.44v1.76h30.27v-1.68c.11.04.16.07.16.07,0,0,8.33-6.62,2.15-14.45-.94-1.19-2.11-2.19-3.4-2.99Z"/>
                    <path class="cls-4" d="M156.78,150.96c1.02,0,1.91-.58,2.37-1.43-.26.29-.59.51-.97.64l.2-1.47,1.31-.7-1.32-.62-.22-1.47s.08.02.12.03c-.43-.28-.93-.45-1.48-.45-1.49,0-2.69,1.22-2.69,2.74s1.2,2.74,2.69,2.74ZM157.43,145.78c.25,0,.48.05.7.12l-1.01,1.1-1.45-.21.7,1.3-.67,1.34,1.44-.3,1.02,1.03c-.23.08-.47.13-.73.13-1.26,0-2.28-1.01-2.28-2.26s1.02-2.26,2.28-2.26Z"/>
                  </g>
                  <g>
                    <path d="M140.66,199.2v-2.13c-1.14-1.09-3.89-4.16-4.02-8.23-.09-2.78,1.08-5.45,3.46-7.93.66-.69,1.39-1.24,2.02-1.7,6.81-4.9,10.56-11.25,10.6-11.32l1.92-4.25h-.04s.34-.68.34-.68l.25-.54c.11-.28.15-.45.17-.54-.21-.26-.32-.59-.31-.97.04-.29.14-.54.28-.74-.1-.15-.15-.32-.17-.51-.03-.38.12-.72.43-.97l.03-.12.09-.03s0-.1-.02-.15l-.24-.63.42-7.44,1.44.02.42,7.41-.23.61c0,.06,0,.12,0,.17l.29.09-.03.23c.13.17.22.38.25.61,0,.27-.05.49-.15.67.2.24.29.52.29.84,0,.36-.11.68-.31.93.01.07.04.21.13.45l2.54,5.62c.05.14,1.78,5.7,10.31,11,1.42.88,2.62,1.94,3.57,3.14,6.15,7.81-1.3,14.54-2.18,15.28v1.82h-31.55Z"/>
                    <path d="M156.78,151.6c-1.84,0-3.33-1.51-3.33-3.38s1.5-3.38,3.33-3.38c.65,0,1.29.19,1.83.56l-.24.46.4-.06.17,1.13,2.17,1.01-2.14,1.15-.02.19.77.54c-.59,1.09-1.71,1.77-2.93,1.77Z"/>
                  </g>
                  <g>
                    <path class="cls-31" d="M170.49,179.5c-8.88-5.52-10.55-11.29-10.55-11.29l-2.55-5.66c-.15-.4-.26-.85-.09-1,0,0,0,0,0,0,.13-.13.23-.31.23-.6,0-.24-.1-.4-.24-.52,0,0,0,0,0,0,0,0,0,0,0,0-.1-.09-.21-.15-.31-.19-.03-.08.04-.16.11-.22.04-.02.07-.04.11-.07h0c.11-.09.2-.22.2-.42-.03-.23-.15-.37-.29-.46,0,0-.01-.02-.05-.03-.24-.16-.18-.83-.18-.83h0l.22-.57-.37-6.68h-.23s-.38,6.69-.38,6.69l.21.56s.15.76-.13.84c-.02,0-.03.01-.03.02-.19.1-.37.26-.35.53.01.16.09.27.2.35h0s0,0,0,0c.04.03.09.06.14.08.07.06.11.13.05.22-.21.1-.44.3-.49.65,0,.32.11.52.26.65,0,0-.01,0-.01,0,0,0,0,0,.01.01,0,0,0,0,0,0,.05.05.17.28-.17,1.11l-.18.4c-.03.06-.05.11-.09.18,0,0,0,0,0,0l-2.24,4.96s-3.76,6.47-10.78,11.51c-.68.49-1.35,1.01-1.94,1.62-7.24,7.54-.44,14.36.74,15.44v1.76h30.27v-1.68c.11.04.16.07.16.07,0,0,8.33-6.62,2.15-14.45-.94-1.19-2.11-2.19-3.4-2.99Z"/>
                    <path class="cls-5" d="M156.78,150.96c1.02,0,1.91-.58,2.37-1.43-.26.29-.59.51-.97.64l.2-1.47,1.31-.7-1.32-.62-.22-1.47s.08.02.12.03c-.43-.28-.93-.45-1.48-.45-1.49,0-2.69,1.22-2.69,2.74s1.2,2.74,2.69,2.74ZM157.43,145.78c.25,0,.48.05.7.12l-1.01,1.1-1.45-.21.7,1.3-.67,1.34,1.44-.3,1.02,1.03c-.23.08-.47.13-.73.13-1.26,0-2.28-1.01-2.28-2.26s1.02-2.26,2.28-2.26Z"/>
                  </g>
                </g>
                <rect class="cls-8" x="140.35" y="235.02" width="32.79" height="72.02"/>
                <rect class="cls-6" x="139" y="198.25" width="35.45" height="3.04"/>
                <rect class="cls-6" x="134.22" y="228.75" width="46.2" height="7.82"/>
                <rect class="cls-6" x="130.65" y="305.98" width="51.61" height="5.67"/>
                <rect class="cls-8" x="136.77" y="310.62" width="39.47" height="100.28"/>
                <rect class="cls-9" x="149.12" y="249.7" width="14.44" height="45.48"/>
                <rect class="cls-9" x="149.6" y="322.52" width="14.68" height="31.63"/>
                <g class="cls-7">
                  <rect class="cls-9" x="149.37" y="204.38" width="14.26" height="20.05"/>
                  <rect class="cls-11" x="149.98" y="204.99" width="13.04" height="18.83"/>
                </g>
                <rect class="cls-9" x="150.91" y="218.19" width="11.34" height="4.72"/>
                <path class="cls-9" d="M156.58,206.43c-3.84,2.75-5.37,6.28-5.67,10.21h11.34c-.26-4.08-2.03-7.53-5.67-10.21Z"/>
              </g>
            </g>
          </g>
        </g>
      </g>
    </g>
  </g>
</svg>