<?xml version="1.0" encoding="UTF-8"?>
<svg id="Layer_2" data-name="Layer 2" xmlns="http://www.w3.org/2000/svg" xmlns:xlink="http://www.w3.org/1999/xlink" viewBox="0 0 826.08 781.54">
  <defs>
    <style>
      .cls-1 {
        fill: #010101;
      }

      .cls-2 {
        fill: url(#linear-gradient-2);
      }

      .cls-3 {
        fill: #146432;
      }

      .cls-4 {
        fill: url(#linear-gradient-10);
      }

      .cls-5 {
        fill: url(#linear-gradient-12);
      }

      .cls-6, .cls-7, .cls-8 {
        isolation: isolate;
      }

      .cls-6, .cls-9 {
        fill: #273896;
      }

      .cls-10 {
        fill: #293392;
      }

      .cls-11 {
        fill: #fff;
      }

      .cls-12, .cls-8 {
        fill: #ddd7d7;
      }

      .cls-13 {
        fill: none;
      }

      .cls-14 {
        fill: url(#linear-gradient-4);
      }

      .cls-15 {
        fill: #20409b;
      }

      .cls-16 {
        fill: #168cb4;
      }

      .cls-17 {
        fill: url(#linear-gradient-3);
      }

      .cls-18 {
        fill: #fffe00;
      }

      .cls-19 {
        clip-path: url(#clippath-1);
      }

      .cls-20 {
        fill: url(#linear-gradient-5);
      }

      .cls-21 {
        fill: #006837;
        opacity: .34;
      }

      .cls-22 {
        fill: #1f419b;
      }

      .cls-23 {
        fill: url(#linear-gradient-8);
      }

      .cls-24 {
        fill: #1a93aa;
      }

      .cls-25 {
        fill: #e2eced;
      }

      .cls-26 {
        fill: url(#linear-gradient-7);
      }

      .cls-27 {
        fill: #b6480e;
      }

      .cls-28 {
        fill: url(#linear-gradient-9);
      }

      .cls-29 {
        fill: url(#linear-gradient-11);
      }

      .cls-30 {
        fill: url(#linear-gradient-6);
      }

      .cls-31 {
        fill: #0089cb;
      }

      .cls-32 {
        clip-path: url(#clippath-2);
      }

      .cls-33 {
        fill: url(#linear-gradient);
      }

      .cls-34 {
        clip-path: url(#clippath);
      }

      .cls-35 {
        fill: #156bb5;
      }

      .cls-36 {
        fill: #b93325;
      }

      .cls-37 {
        fill: #ff0;
      }
    </style>
    <linearGradient id="linear-gradient" x1="461.51" y1="144.68" x2="461.51" y2="229.21" gradientUnits="userSpaceOnUse">
      <stop offset="0" stop-color="#fa5707"/>
      <stop offset="1" stop-color="#fac821"/>
    </linearGradient>
    <linearGradient id="linear-gradient-2" x1="461.8" y1="134.96" x2="461.8" y2="144.68" xlink:href="#linear-gradient"/>
    <clipPath id="clippath">
      <path class="cls-13" d="M379.18,268.63l-.33.47v43.98l1,1h30.07l1-1v-20.24c-12.56-5.4-23.41-13.8-31.75-24.21Z"/>
    </clipPath>
    <linearGradient id="linear-gradient-3" x1="395.05" y1="115.02" x2="395.05" y2="151.29" xlink:href="#linear-gradient"/>
    <linearGradient id="linear-gradient-4" x1="395.18" y1="110.85" x2="395.18" y2="115.02" xlink:href="#linear-gradient"/>
    <linearGradient id="linear-gradient-5" x1="380.24" y1="131.07" x2="409.87" y2="131.07" xlink:href="#linear-gradient"/>
    <linearGradient id="linear-gradient-6" x1="380.24" y1="131.07" x2="409.87" y2="131.07" xlink:href="#linear-gradient"/>
    <clipPath id="clippath-1">
      <path class="cls-37" d="M434.76,299.07c-45.27-4.83-78.05-45.44-73.22-90.71,4.77-44.7,44.44-77.23,89.02-73.38-7.65-2.75-15.74-4.65-24.18-5.55-56.84-6.07-107.83,35.09-113.9,91.93-6.07,56.84,35.09,107.83,91.93,113.9,52.48,5.6,99.97-29.06,111.72-79.14-15.4,28.65-47.05,46.63-81.38,42.96Z"/>
    </clipPath>
    <linearGradient id="linear-gradient-7" x1="425.34" y1="-387.9" x2="441.89" y2="-180.93" gradientTransform="translate(-46.55 451.1) rotate(6.09)" gradientUnits="userSpaceOnUse">
      <stop offset="0" stop-color="#0ab537"/>
      <stop offset="1" stop-color="#d3e909"/>
    </linearGradient>
    <linearGradient id="linear-gradient-8" x1="501.67" y1="-343.58" x2="388.52" y2="-197.61" gradientTransform="translate(153.51 -224.63) rotate(90)" xlink:href="#linear-gradient-7"/>
    <clipPath id="clippath-2">
      <path class="cls-13" d="M373.19,108.36v206.71h43.33V108.36h-43.33ZM410.93,313.08l-1,1h-30.07l-1-1v-43.98l.33-.47c8.34,10.41,19.18,18.81,31.75,24.21v20.24Z"/>
    </clipPath>
    <linearGradient id="linear-gradient-9" x1="395.05" y1="115.02" x2="395.05" y2="151.29" xlink:href="#linear-gradient"/>
    <linearGradient id="linear-gradient-10" x1="395.18" y1="110.85" x2="395.18" y2="115.02" xlink:href="#linear-gradient"/>
    <linearGradient id="linear-gradient-11" x1="380.24" y1="131.07" x2="409.87" y2="131.07" xlink:href="#linear-gradient"/>
    <linearGradient id="linear-gradient-12" x1="380.24" y1="131.07" x2="409.87" y2="131.07" xlink:href="#linear-gradient"/>
  </defs>
  <g id="Layer_1-2" data-name="Layer 1">
    <g>
      <g>
        <g id="outer">
          <g>
            <path d="M419.92,432.83c-1.6,0-3.23-.02-4.87-.06-1.63.04-3.27.06-4.87.06-21.33,0-39.57-3.41-54.22-10.14-4.6-2.11-8.21-5.95-10.08-10.6-9.64-1.9-17.6-6.44-23.71-13.5-5.71-6.6-9.48-15.26-11.22-25.78-16.77-7.92-27.08-19.85-30.65-35.5-3.45-15.1,0-30.72,3.35-45.82,3.72-16.81,7.23-32.68.78-44.59l-2.6-4.8c-.69-1.27-.78-2.78-.25-4.12l2.01-5.08c7.22-18.24,2.68-33.93-2.12-50.54-4.11-14.23-8-27.67-4.42-42.19,3.46-14.04,13.27-25.41,29.96-34.71,1.15-10.64,4.77-19.56,10.79-26.56,6-6.98,14.12-11.75,24.17-14.2,7.99-21.69,25.93-28.31,39.16-33.19,8.68-3.2,16.18-5.97,21.88-12.01.04-.04.08-.08.12-.12,3.34-3.3,5.68-8.36,7.16-15.48.47-2.26,2.47-3.88,4.77-3.88.04,0,.07,0,.11,0,2.35.05,4.33,1.78,4.7,4.1.97,5.99,3.35,11.04,7.28,15.42,5.7,6.02,13.18,8.78,21.84,11.97,13.24,4.88,31.17,11.5,39.16,33.19,10.05,2.45,18.17,7.22,24.17,14.2,6.02,7,9.64,15.92,10.79,26.56,16.69,9.3,26.5,20.67,29.96,34.71,3.58,14.52-.31,27.96-4.42,42.19-4.8,16.61-9.34,32.3-2.12,50.54l2.01,5.08c.53,1.34.44,2.85-.25,4.12l-2.6,4.8c-6.46,11.91-2.94,27.78.78,44.59,3.34,15.11,6.8,30.73,3.35,45.83-3.58,15.65-13.88,27.59-30.65,35.5-1.74,10.52-5.51,19.18-11.22,25.78-6.11,7.07-14.08,11.6-23.72,13.5-1.87,4.65-5.48,8.49-10.09,10.6-14.65,6.73-32.89,10.14-54.21,10.14Z"/>
            <path class="cls-11" d="M419.92,427.95c-1.6,0-3.23-.02-4.87-.06-1.64.04-3.26.06-4.87.06-20.62,0-38.18-3.26-52.19-9.7-4.25-1.95-7.37-5.85-8.34-10.44,0-.01,0-.03,0-.04-9.84-1.33-17.82-5.47-23.79-12.38-5.57-6.44-9.08-15.14-10.47-25.94-16.96-7.33-26.91-18.26-30.33-33.24-3.2-14.03.13-29.11,3.36-43.69,3.92-17.72,7.63-34.46.3-47.96l-2.6-4.8,2.01-5.08c7.83-19.79,2.85-37.02-1.97-53.68-3.93-13.59-7.64-26.42-4.37-39.67,3.29-13.35,12.84-23.9,29.86-32.84,1.45-21.63,13.48-35.61,34.06-39.63,6.74-21.58,23.42-27.74,37.12-32.79,8.87-3.27,17.24-6.36,23.74-13.24,4.47-4.42,7-10.7,8.51-17.95,1.11,6.84,3.91,12.84,8.51,17.95,6.49,6.88,14.87,9.97,23.74,13.24,13.7,5.05,30.38,11.21,37.12,32.79,20.58,4.02,32.61,18,34.06,39.63,17.01,8.94,26.57,19.49,29.86,32.84,3.27,13.25-.44,26.09-4.37,39.67-4.82,16.67-9.8,33.9-1.97,53.68l2.01,5.08-2.6,4.8c-7.32,13.51-3.62,30.24.3,47.96,3.23,14.58,6.56,29.66,3.36,43.69-3.42,14.98-13.37,25.91-30.33,33.24-1.4,10.8-4.91,19.5-10.47,25.94-5.97,6.9-13.95,11.05-23.79,12.38,0,.02,0,.03,0,.04-.98,4.59-4.1,8.5-8.35,10.44-14,6.43-31.56,9.7-52.18,9.7Z"/>
          </g>
          <path class="cls-1" d="M531.12,238.98c-22.28-56.3,42.18-93.11-24.26-123.15,1.08-23.98-10.48-35.2-31.97-36.38-5.8-36.43-38.64-26.14-59.83-48.6-21.19,22.46-54.04,12.17-59.83,48.6-21.49,1.18-33.05,12.4-31.97,36.38-66.43,30.04-1.97,66.85-24.26,123.15,23.14,42.67-37.22,100.39,27.45,122.19.88,25.27,12.46,36.86,34.39,35.22-.1,3.28-.21,6.78.26,9,.21.99.86,1.82,1.78,2.24,14.03,6.45,31.64,9.08,52.17,8.57,20.54.51,38.14-2.12,52.17-8.57.92-.42,1.57-1.25,1.78-2.24.47-2.22.37-5.71.26-9,21.94,1.64,33.52-9.95,34.39-35.22,64.67-21.79,4.31-79.51,27.45-122.19Z"/>
        </g>
        <g id="inner">
          <g id="tulisan">
            <g id="rumi_masjid" data-name="rumi masjid">
              <g>
                <path class="cls-12" d="M379.74,56.26c2.1-.43,3.15-.63,5.25-1,.75,6.81,1.12,10.23,1.86,17.13.03,0,.04,0,.07,0,1.11-7.12,1.67-10.7,2.8-17.88,2.09-.31,3.13-.45,5.21-.69-.3,9.93-.45,14.89-.75,24.82-1.36.11-2.05.17-3.41.29.22-7.47.32-11.21.54-18.69-.03,0-.04,0-.07,0-1.28,7.61-1.91,11.4-3.17,18.95-1.21.13-1.81.19-3.02.34-.86-7.26-1.29-10.87-2.18-18.03-.03,0-.04,0-.07.01-.18,7.34-.27,11.01-.45,18.35-1.26.16-1.89.25-3.16.43.22-9.61.33-14.42.54-24.03Z"/>
                <path class="cls-12" d="M400.43,53.25c1.96-.16,2.94-.23,4.9-.33,1.16,9.97,1.74,14.97,2.89,25.01-1.44.03-2.15.05-3.59.1-.2-1.99-.29-2.98-.49-4.96,0,.03,0,.04,0,.07-1.63.07-2.45.11-4.09.21-.33,1.97-.49,2.96-.81,4.93-1.34.08-2,.12-3.34.22,1.8-10.06,2.71-15.12,4.53-25.24ZM403.83,69.75c-.48-4.93-.72-7.39-1.2-12.31-.03,0-.04,0-.07,0-.79,5-1.19,7.49-1.98,12.48,1.3-.08,1.95-.12,3.24-.18Z"/>
                <path class="cls-12" d="M410.62,76.62c-.85-1.08-1.25-2.64-1.18-4.68.02-.58.03-.86.05-1.44,1.36-.02,2.04-.03,3.39-.03-.02.69-.03,1.04-.06,1.73-.06,1.63.54,2.44,1.77,2.45.61,0,1.08-.19,1.4-.58.33-.39.51-1.03.54-1.92.04-1.06-.15-1.99-.56-2.8-.41-.81-1.18-1.79-2.31-2.92-1.43-1.43-2.42-2.73-2.97-3.88-.55-1.15-.8-2.46-.75-3.92.07-1.99.58-3.54,1.53-4.65.95-1.1,2.3-1.66,4.03-1.64,1.71.02,2.99.6,3.83,1.72.84,1.12,1.22,2.7,1.16,4.74-.01.42-.02.63-.03,1.04-1.35-.05-2.02-.07-3.38-.1.02-.52.03-.78.04-1.3.03-.86-.1-1.49-.39-1.9-.29-.4-.73-.61-1.31-.61-1.19-.01-1.82.8-1.87,2.4-.03.91.16,1.76.58,2.56.42.79,1.19,1.76,2.33,2.9,1.45,1.46,2.43,2.8,2.95,3.99.52,1.19.76,2.58.71,4.16-.07,2.06-.58,3.63-1.54,4.7-.96,1.08-2.32,1.6-4.07,1.59-1.74-.01-3.03-.55-3.89-1.63Z"/>
                <path class="cls-12" d="M421.15,78.03c.05-1.44.07-2.15.12-3.59.34.11.73.17,1.16.19.71.03,1.25-.14,1.61-.52.36-.38.55-.97.58-1.78.25-7.69.38-11.54.63-19.23,1.42.1,2.13.16,3.54.3-.24,7.62-.36,11.43-.61,19.05-.07,2.05-.54,3.54-1.43,4.48-.89.95-2.2,1.38-3.96,1.3-.65-.03-1.2-.1-1.65-.21Z"/>
                <path class="cls-12" d="M431.33,53.67c1.41.16,2.12.25,3.52.44-.3,9.9-.44,14.85-.74,24.74-1.42-.13-2.13-.19-3.56-.3.31-9.95.46-14.93.77-24.88Z"/>
                <path class="cls-12" d="M437.47,54.49c2.14.33,3.21.51,5.35.92,1.74.33,3.02,1.11,3.86,2.31.84,1.19,1.24,2.76,1.2,4.7-.11,4.85-.16,7.28-.27,12.13-.04,1.94-.52,3.34-1.42,4.22-.9.88-2.24,1.2-4,.97-2.17-.27-3.25-.4-5.42-.62.28-9.85.42-14.77.71-24.62ZM442.22,76.25c.58.08,1.03-.04,1.35-.37.32-.33.49-.9.51-1.73.13-5.04.19-7.56.31-12.59.02-.83-.12-1.46-.42-1.89-.3-.43-.73-.69-1.31-.8-.71-.13-1.07-.19-1.78-.31-.19,6.98-.28,10.47-.47,17.45.72.09,1.08.14,1.8.24Z"/>
                <path class="cls-12" d="M352.86,89.25c1.81-.42,2.72-.62,4.53-1.01,1.37,7.86,2.04,11.87,3.34,20.01-1.3.14-1.96.21-3.26.36-.23-1.59-.35-2.39-.59-3.97v.06c-1.49.2-2.23.31-3.72.52-.23,1.6-.35,2.39-.58,3.98-1.21.15-1.81.23-3.02.39,1.27-7.99,1.93-12.06,3.29-20.34ZM356.5,102.01c-.58-3.93-.88-5.87-1.48-9.73-.02,0-.04,0-.06.01-.58,4.1-.86,6.14-1.42,10.18,1.18-.19,1.77-.28,2.96-.46Z"/>
                <path class="cls-12" d="M362.47,87.21c1.34-.26,2-.39,3.34-.63-.08,7.26-.13,10.89-.21,18.16,2.16-.24,3.23-.35,5.39-.55-.02,1.24-.03,1.85-.05,3.09-3.46.29-5.19.46-8.64.82.07-8.35.1-12.53.17-20.88Z"/>
                <path class="cls-12" d="M370.07,95.06c2.65-.35,3.97-.51,6.62-.8-.03,1.26-.04,1.89-.07,3.15-2.64.27-3.96.42-6.6.73.02-1.23.03-1.85.05-3.08Z"/>
                <path class="cls-12" d="M378.89,84.54c1.9-.25,2.85-.37,4.75-.58.68,6.33,1.02,9.51,1.69,15.91.02,0,.04,0,.06,0,1.01-6.52,1.52-9.79,2.55-16.36,1.9-.18,2.85-.27,4.74-.41-.27,9.15-.41,13.72-.68,22.86-1.24.05-1.87.08-3.11.14.2-6.88.29-10.33.49-17.21-.02,0-.04,0-.06,0-1.16,6.96-1.74,10.43-2.88,17.33-1.1.06-1.65.09-2.75.15-.78-6.75-1.17-10.11-1.97-16.77-.02,0-.04,0-.06,0-.17,6.77-.25,10.15-.41,16.91-1.14.07-1.72.11-2.86.19.2-8.86.3-13.3.5-22.16Z"/>
                <path class="cls-12" d="M395.62,104.66c-.81-.97-1.18-2.38-1.13-4.23.21-7,.32-10.5.54-17.51,1.33-.09,1.99-.13,3.32-.21-.23,7.14-.34,10.71-.57,17.85-.03.79.1,1.36.38,1.7.28.34.69.51,1.23.49.54-.02.96-.2,1.26-.56.3-.36.46-.94.49-1.73.23-7.16.35-10.75.58-17.91,1.28-.05,1.92-.08,3.19-.12-.23,7.08-.35,10.61-.59,17.69-.06,1.88-.53,3.33-1.4,4.35-.87,1.02-2.11,1.54-3.71,1.58-1.6.04-2.8-.42-3.61-1.39Z"/>
                <path class="cls-12" d="M407.27,82.37c1.32-.03,1.99-.04,3.31-.05-.13,3.92-.2,5.88-.33,9.8,1.82-3.93,2.72-5.89,4.54-9.8,1.32.01,1.98.02,3.3.05-1.69,3.38-2.53,5.08-4.22,8.48,1.4,5.89,2.1,8.85,3.5,14.75-1.38-.02-2.08-.02-3.46-.03-.98-4.15-1.47-6.23-2.45-10.37-.57,1.18-.85,1.78-1.42,2.96-.1,2.96-.15,4.44-.25,7.41-1.32,0-1.98,0-3.3.02.31-9.29.47-13.93.78-23.22Z"/>
                <path class="cls-12" d="M419.72,82.41c1.32.04,1.98.06,3.3.11-.12,3.77-.19,5.66-.31,9.43,1.42.05,2.13.07,3.55.14.12-3.76.18-5.64.3-9.4,1.32.07,1.98.11,3.29.2-.29,9.2-.43,13.79-.72,22.99-1.33-.05-1.99-.07-3.32-.11.13-4.15.2-6.23.33-10.39-1.42-.06-2.13-.08-3.55-.13-.14,4.17-.21,6.25-.34,10.42-1.33-.03-1.99-.04-3.31-.06.31-9.28.47-13.93.78-23.21Z"/>
                <path class="cls-12" d="M432.3,83.07c1.32.1,1.97.16,3.29.28-.23,7.81-.34,11.71-.57,19.52,2.19.12,3.28.18,5.47.32-.03,1.29-.05,1.93-.09,3.22-3.52-.2-5.28-.29-8.8-.43.28-9.16.42-13.74.7-22.9Z"/>
                <path class="cls-12" d="M442.59,84.07c1.31.15,1.97.24,3.28.41-.21,8.89-.31,13.34-.52,22.23-1.33-.09-2-.13-3.33-.21.23-8.97.34-13.46.57-22.43Z"/>
                <path class="cls-12" d="M448.52,105.82c-.81-1.02-1.19-2.43-1.15-4.22.01-.51.02-.76.03-1.26,1.26.11,1.88.17,3.14.3-.01.6-.02.9-.03,1.5-.03,1.42.53,2.18,1.68,2.28.57.05,1-.08,1.3-.39s.45-.85.47-1.61c.02-.91-.17-1.73-.56-2.46-.39-.74-1.13-1.65-2.18-2.75-1.34-1.39-2.27-2.65-2.79-3.73-.52-1.08-.76-2.26-.73-3.55.04-1.75.49-3.05,1.34-3.89.86-.84,2.08-1.13,3.66-.88,1.57.25,2.74.92,3.53,1.99.79,1.07,1.17,2.46,1.15,4.19,0,.35,0,.53-.01.89-1.24-.19-1.87-.28-3.11-.46,0-.45.01-.67.02-1.11.01-.74-.12-1.3-.39-1.69-.27-.38-.68-.61-1.21-.69-1.09-.16-1.66.46-1.68,1.85-.02.79.17,1.56.57,2.3.4.74,1.12,1.67,2.19,2.77,1.36,1.41,2.3,2.65,2.8,3.71.51,1.06.75,2.26.73,3.61-.02,1.75-.47,3.05-1.35,3.91-.87.86-2.13,1.23-3.77,1.1-1.62-.13-2.83-.69-3.64-1.71Z"/>
                <path class="cls-12" d="M459.38,86.62c1.31.24,1.96.37,3.27.63-.07,8.36-.11,12.54-.18,20.9-1.34-.13-2.01-.2-3.35-.32.1-8.48.15-12.72.26-21.2Z"/>
                <path class="cls-12" d="M465.08,87.74c1.64.34,2.46.52,4.09.89,1.27,5.13,1.91,7.66,3.23,12.63.02,0,.04,0,.06,0-.02-4.76-.03-7.13-.06-11.89,1.16.28,1.74.42,2.9.71.07,7.81.11,11.71.18,19.52-1.38-.17-2.07-.25-3.45-.42-1.63-6-2.43-9.07-4-15.31-.02,0-.04,0-.06-.01-.01,5.94-.02,8.92-.03,14.86-1.19-.13-1.79-.2-2.99-.32.05-8.26.07-12.39.11-20.66Z"/>
              </g>
            </g>
            <g id="jawi_masjid" data-name="jawi masjid">
              <path class="cls-18" d="M306.37,315.79c.49-2.15,1.48-4.02,3.49-5.13,2.2-1.22,4.53-2.11,7.11-2.19.27,0,.55.09.86.41-.43.11-.86.23-1.29.33-1.87.43-3.74.89-5.17,2.23-1.99,1.85-2.45,4.41-1.23,6.97,1.53,3.19,3.9,5.7,6.87,7.67,1.74,1.15,3.52,2.25,5.3,3.33,1.34.82,2.09.76,3.19-.32.67-.67,1.42-1.41,1.75-2.26.63-1.61,1.86-1.81,3.44-1.85-.21.54-.39,1-.56,1.45-1.08,2.89.83,5.29,4.03,5,.74-.07,1.48-.26,2.22-.34.49-.05.99,0,1.54.08-1.23.72-1.96,1.66-1.67,3.08.38,1.83,1.24,3.39,3.04,4.24.98.46,2.02.76,3.04,1.15.37.14.73.3,1.28.53-1.27,1.07-1.84,2.23-1.3,3.85.85-.11,1.76-.32,2.67-.33,2.27-.02,4.58-.19,6.82.12,4.83.67,6.57,5.37,4.94,9.44-.26.65-.84,1.18-1.38,1.92,1.01.25,2.05.65,3.12.76,1.66.17,3.34.23,5.01.18,1.39-.04,2.32-.91,2.93-2.11,2.11-4.13,4.24-8.24,6.32-12.38,1.46-2.91,2.48-4.12,4.7-4.91-.55,1.27-1.04,2.57-1.65,3.81-2.35,4.74-4.8,9.44-7.08,14.21-.62,1.3-1,2.79-1.08,4.22-.14,2.63,2.16,5.22,4.88,5.31,4.09.14,8.19-.06,12.32-.33-2.23-.98-4.14-2.43-6.61-2.85-1.7-.29-3.28-1.2-4.92-1.83-.51-.2-1.02-.4-1.54-.6.97-1.92,2.9-2.89,4.84-2.37,1.14.31,2.29.7,3.31,1.28,4.71,2.69,9.59,4.99,14.84,6.47,1.21.34,2.47.53,3.97.85-.78.95-1.27,2.06-2.1,2.4-.8.33-1.94-.13-2.96-.25-.92,1.96.34,4.64,2.5,5.19,3.15.8,6.32,1.37,9.56.61,1.26-.3,2.47-.83,3.69-1.29.51-.19.99-.48,1.61-.79.14.45.25.78.33,1.12.59,2.28,2.48,3.53,4.83,3.19,2.87-.41,2.88-.48,2.61-3.37-.68-7.19-1.32-14.39-1.97-21.58,0-.11.03-.24-.02-.33-.96-1.69.43-2.83.93-4.17.11-.02.22-.05.32-.07,1,2.62,2,5.24,3,7.86-.16.11-.32.22-.47.33-.42-.66-.85-1.33-1.27-1.99-.14.11-.29.22-.43.33.18,1.8.35,3.61.54,5.41.4,3.9.86,7.8,1.21,11.7.25,2.8-.56,5.37-2.2,7.67-.28.39-.78.72-1.25.88-1.44.47-2.92.85-4.61,1.32-.22.41-.54,1.11-.94,1.76-.67,1.1-1.3,1.16-2.23.25-1.56-1.54-1.86-3.36-1.22-5.38.2-.62.45-1.23.76-2.08-.45.21-.74.32-.99.47-4.14,2.49-8.49,2.66-12.96,1.07-3.35-1.19-4.41-4.13-2.77-7.43.15-.29.31-.58.6-1.1-1.27-.13-2.4-.38-3.53-.32-3.71.18-7.41.54-11.12.68-2.73.11-5.46,0-8.19-.07-.71-.02-1.56,0-1.71-1.03-.02-.12-.3-.19-.45-.29-3.45-2.2-3.5-5.55-2.22-8.41.09-.19.19-.38.23-.69-2.34,1.37-4.71,2.51-7.56,2.17-4.15-.5-6.89-1.46-6.97-2.58-6.06-1.41-10.13-4.76-12.35-10.16-.57.06-1.13.12-1.69.18-.09-.12-.19-.23-.28-.35,2.4-.5,2.14-2.7,3.23-4.13-2.03-.72-4.24-.95-5.57-2.84-1.28-1.82-1.84-3.67-.53-5.8-2.9.07-6.04.74-7.21-2.99-1.19.35-2.37.82-3.6,1.02-.85.14-1.86.13-2.63-.19-5.21-2.23-9.75-5.32-12.77-10.16-.67-1.07-1.01-2.33-1.5-3.5,0-.44,0-.88,0-1.32ZM342.28,345.13c.4.78.65,1.44,1.03,2.01,2.06,3.08,4.87,5.34,8.26,6.9,1.81.84,2.2.63,2.51-1.24.58-3.42-.85-6.17-3.85-7.21-2.53-.87-5.13-.93-7.95-.46ZM410.99,378.41l.44-.15c0-.32.13-.74-.02-.94-.52-.67-1.15-1.25-1.74-1.87-.1.05-.19.11-.29.16.54.94,1.08,1.87,1.62,2.81Z"/>
              <path class="cls-18" d="M514.41,298.61c.2,1.44-.22,2.65-1.05,3.9-2.3,3.46-4.45,7.03-6.66,10.55-.15.24-.32.48-.6.88-.28-1.29-.13-2.36.45-3.32,1.58-2.61,3.22-5.19,4.86-7.77.9-1.42,1.85-2.83,2.77-4.24.08,0,.15,0,.23,0Z"/>
              <path class="cls-18" d="M470.74,352.65c-1.81.86-3.92,1.4-5.36,2.67-1.79,1.57-3.95,2.43-5.85,3.76-.83.59-1.12.39-1.25-.65-.35-2.7.47-4,3.13-5.26,4.41-2.09,8.82-4.18,13.17-6.38,1.32-.67,2.47-1.66,3.69-2.52.66-.47,1.31-.96,2.18-1.61.29,1.19.59,2.19.73,3.21.03.23-.45.57-.75.8-.57.44-1.19.82-1.86,1.28,1.28,1.17,2.7,1.45,4.02.97,2.23-.81,4.51-1.68,6.45-2.97,1.12-.75,1.68-2.35,2.41-3.62.45-.79.74-1.67,1.17-2.67.52.67.9,1.23,1.36,1.73.91,1,2.21,1.04,3.19.12,1.42-1.33,2.23-2.92,2.15-4.89-.03-.66,0-1.33,0-1.99.13-.02.25-.04.38-.05.16.35.32.69.48,1.04.5,1.1,1.23,1.37,2.35.85,1.51-.7,1.85-1.41,1.6-3.07-.12-.83-.15-1.68-.22-2.52.1-.02.2-.04.3-.06.16.19.33.38.47.58.92,1.36,2.74,1.57,3.8.29,1.65-1.99,3.2-4.08,3.76-6.67.1-.46.13-.94.15-1.41.09-1.98.12-3.96.26-5.93.18-2.56,2.23-3.7,4.52-2.48,2.07,1.1,3.38,2.7,3.4,5.17,0,1.01-.38,1.54-1.31,1.7-1.77.31-3.54.55-5.32.82-.18.03-.36.04-.3.03-.29,2.12-.29,4.22-.92,6.13-.66,2.02-1.79,3.94-2.99,5.73-.51.76-1.73,1.12-2.85.69-.45-.17-.9-.35-1.46-.57.01,1.46.33,2.92-.82,4.08-1.06,1.07-2.1,1.07-3.89-.11-.02,1.93-.24,3.72-1.73,5.15-1.8,1.74-3.44,1.06-5.13-.22-.57,1.1-1.04,2.13-1.62,3.1-1.28,2.14-6.56,5.51-9.95,4.72-1.11-.26-2.12-1.02-3.14-1.61-.51-.29-.95-.71-1.54-1.17-1.46,1.14-2.71,2.76-3.88,4.45-2.29,3.3-4.6,6.59-6.92,9.86-.51.72-1.1,1.39-1.65,2.08-2.23,2.82-6.4,2.41-8.37-.02-.74-.91-1.43-1.85-2.16-2.79-.44,4.72-3.75,7.74-6.75,10.89-1.14,1.2-2.49,2.25-3.91,3.11-1.01.61-2.29,1.05-3.46,1.08-2.29.05-3.59-1.22-4.08-3.47-.43-1.96-.46-3.93,0-5.89.08-.36.28-.69.66-.97-.07.85-.17,1.7-.2,2.55-.04,1.56-.11,3.28,1.45,4.14,1.48.82,3.06.21,4.48-.55,3.05-1.63,5.51-3.88,7.49-6.67.88-1.23,1.85-2.4,2.8-3.59.89-1.12,1.17-2.25.3-3.52-2.35-3.39-4.62-6.83-7.04-10.17-.97-1.34-1.23-2.75-1.35-4.25.09-.07.18-.13.26-.2,1.14,1.07,2.41,2.05,3.41,3.23,2.77,3.26,4.97,6.86,6.47,10.86.33.89.74,1.77,1.24,2.58,1.64,2.66,5.17,3.07,7.32.82,1.02-1.06,1.86-2.28,2.74-3.46,1.51-2.04,2.99-4.1,4.48-6.15-.06-.06-.12-.12-.18-.17ZM517.93,319.04c-1.32-1.05-2.61-1.18-3.52-.43-.24.2-.33.58-.49.88.3.08.62.26.9.21.98-.16,1.95-.41,3.11-.66Z"/>
              <path class="cls-18" d="M425.06,344.5c1.02,2.72,1.99,5.32,2.96,7.92-.16.11-.31.22-.47.33-.35-.62-.7-1.23-1.05-1.85-.17.12-.35.24-.52.36.11,1.33.22,2.65.33,3.98.44,5.37.91,10.74,1.31,16.11.17,2.34-.68,4.51-1.32,6.7-.1,0-.2,0-.3,0-.05-.36-.16-.72-.15-1.08.13-7.21-.85-14.34-1.56-21.49-.22-2.23-.3-4.47-.53-6.69-.18-1.71.05-2.74,1.31-4.29Z"/>
              <path class="cls-18" d="M512.61,342.07c-1.17-.88-.86-1.59-.19-2.51.23.47.43.79.54,1.13.09.27.07.58.09.87.13,2.62-.71,3.25-3.31,2.42-.16.22-.33.45-.51.68-.85,1.16-2.16,1.65-3.55,1.22-1.74-.54-3.25-.02-4.44,1.1-1.4,1.31-2.65,2.79-3.86,4.28-1.97,2.42-4.63,3.9-7.29,5.41-.6.34-1.25.58-1.87.86l-.13-.24c1.42-.96,2.96-1.79,4.24-2.91,1.8-1.57,3.61-3.21,5.06-5.09,1.49-1.93,3.16-3.61,5.16-4.98.89-.61,1.89-.78,2.99-.36,1.62.61,3.05-.11,3.66-1.73.19-.52.4-1.03.6-1.51.43.63.67,1.25,1.13,1.55.31.19.93-.09,1.69-.2Z"/>
              <path class="cls-18" d="M430.34,362.11c.37-.54.73-1.07,1.1-1.61,1.51-2.18,3.13-4.3,4.48-6.57.73-1.23,1.13-2.7,1.45-4.11.19-.83.24-1.85-.87-2.37-1.1-.52-1.85.08-2.63.66-.2.14-.39.28-.59.43-.1-.06-.19-.12-.29-.18.35-.66.65-1.36,1.06-1.98,1.01-1.51,2.52-2.19,3.75-1.8.87.28,1.35.82,1.55,1.7.37,1.64.21,3.25-.53,4.72-1.93,3.83-4.42,7.3-7.23,10.55-.27.31-.66.53-.99.79l-.26-.23Z"/>
              <path class="cls-18" d="M473.05,335.31c-1.68-1.28-2.03-1.16-2.47.96-.19.93-.28,1.89-.35,2.83-.11,1.51-.71,2.77-1.91,3.72-1.81,1.43-3.76,2.64-6.17,3.02,1.27-.86,2.54-1.72,3.79-2.6.67-.47,1.34-.95,1.97-1.46,1.37-1.11,1.44-1.18.6-2.71-.51-.93-.89-2.11-2.4-2.08-.37,0-.82-.37-1.11-.68-.57-.61-.68-1.45-.04-1.95.3-.24,1.34-.06,1.64.28.86.95,1.53,2.06,2.25,3.13.2.29.29.65.67.96.15-1.01.29-2.03.46-3.04.07-.43.17-.86.28-1.29.37-1.4.98-1.89,1.93-1.6,1.08.33,1.34,1.09.86,2.5Z"/>
              <path class="cls-18" d="M401.62,350.12c.24-1.51.4-3.04.75-4.53.11-.48.64-1.12,1.09-1.22.46-.1,1.25.25,1.52.64.32.47.23,1.2.34,1.97-.41-.12-.49-.13-.55-.17-.42-.27-.83-.55-1.24-.82-.3.47-.76.91-.88,1.43-.25,1.06-.46,2.17-.45,3.25.02,1.62-.67,2.8-1.87,3.81-1.74,1.46-3.82,2.21-6.06,2.71.44-.31.87-.63,1.32-.93,1.63-1.1,3.26-2.19,4.9-3.28.6-.4.83-.88.44-1.58-.3-.54-.47-1.16-.78-1.69-.4-.68-.82-1.37-1.84-1.25-.3.04-.65-.15-.95-.29-.76-.34-1.1-1.4-.64-2.06.52-.74,1.32-.56,1.76-.09.92.98,1.69,2.11,2.49,3.2.2.27.29.63.42.95.08-.02.16-.04.24-.06Z"/>
              <path class="cls-18" d="M395.23,361.7c4.88-1.95,10.22-2.39,15.11-4.74-.31-.37-.49-.63-.72-.85-.95-.94-1.03-1.64-.06-2.51.67-.6,1.46-1.14,2.3-1.48,1-.4,1.78.27,1.52,1.29-.23.9-.74,1.73-1.18,2.71.11.13.33.41.67.84-.35.29-.69.57-1.09.91-.8-.74-1.38-.21-2.11.2-2.79,1.58-5.91,2.26-9.04,2.82-1.79.32-3.59.54-5.39.8ZM411.59,355.62c.41-.79.86-1.56.07-2.18-.23-.18-1.31.15-1.39.42-.28.96.66,1.25,1.32,1.76Z"/>
              <path class="cls-18" d="M499.65,312.15c-.37,1.36-.79,2.71-1.1,4.08-.44,1.92-.91,3.85-1.14,5.8-.12.97.09,2.06.45,2.98.57,1.45,2.02,1.51,2.92.23.27-.38.52-.78.8-1.2.81,1.64-.79,4.72-2.5,4.89-.94.09-1.63-.32-2.04-1.21-.91-1.98-1.07-4.03-.59-6.12.62-2.7,1.32-5.38,2.03-8.05.14-.54.49-1.02.74-1.53.14.04.28.08.43.12Z"/>
              <path class="cls-18" d="M487.05,360.12c-.25,1.26-.77,2.08-1.73,2.82-2.91,2.25-5.69,4.65-8.53,6.99-.77.63-1.55,1.25-2.32,1.87-.09-.05-.18-.11-.27-.16.38-.72.66-1.5,1.15-2.13,1.35-1.77,9.57-8.32,11.71-9.39Z"/>
              <path class="cls-18" d="M331.46,353.61c1.13-.02,2.32-.28,3.37-.01,3.91.98,7.78,2.14,11.67,3.24.59.17,1.17.39,1.75.59,0,.12,0,.24,0,.36-.86.06-1.79.33-2.58.13-4.63-1.17-9.24-2.45-13.85-3.69-.14-.04-.26-.12-.39-.19l.04-.43Z"/>
              <path class="cls-18" d="M348.26,363.91c1.01-.59,2.03-.94,3.17-.68,4.24,1,8.48,2.01,12.72,3.03.39.09.75.28,1.12.43,0,.13,0,.27-.01.4-1,.03-2.04.26-2.98.06-4.34-.92-8.66-1.96-12.98-2.96-.35-.08-.69-.18-1.03-.28Z"/>
              <path class="cls-18" d="M369.08,343.18c-.7-2.12-1.15-2.29-2.68-.96-1.28,1.12-2.48,2.33-3.71,3.51-.11-.03-.22-.06-.32-.1.09-.57.16-1.14.27-1.7.12-.61.4-1.21.4-1.81,0-.5-.35-1-.49-1.51-.2-.75-.47-1.51-.47-2.26,0-.32.65-.95.9-.9.4.08.99.58,1.02.93.11,1.33.04,2.67,0,4.01,0,.34-.14.67-.23,1.07,1.42-1.08,2.69-2.14,4.08-3.05,1.09-.71,2.28-.04,2.19,1.23-.04.53-.62,1.03-.95,1.54Z"/>
              <path class="cls-18" d="M487.03,328.88c-1.21.72-2.42,1.45-3.64,2.18-.64-1.71-.41-2.61.98-3.55.73-.49,1.54-.9,2.36-1.24,1.1-.46,1.57-.12,1.74,1.03.38,2.58-1.08,4.18-3.18,5.47.65-1.22,1.3-2.43,1.95-3.65-.07-.08-.14-.15-.2-.23Z"/>
              <path class="cls-18" d="M385.01,346.13c1.48.11,2.82.2,4.15.3.05-.11.09-.21.14-.32-1.13-.79-2.26-1.57-3.39-2.36,1.22-1.22,2.29-1.42,3.58-.58.86.56,1.64,1.27,2.41,1.95.56.5.46,1.02-.1,1.49-1.71,1.43-4.95,1.26-6.79-.48Z"/>
              <path class="cls-18" d="M441.02,359.65c.68-1.16,1.37-2.32,2.05-3.48-.05-.08-.11-.17-.16-.25-1.22.61-2.44,1.23-3.66,1.84-.43-1.9-.17-2.57,1.51-3.44.75-.39,1.58-.66,2.37-.97.89-.34,1.32.13,1.37.9.07,1.3-.12,2.58-1.07,3.59-.68.73-1.46,1.37-2.19,2.06l-.22-.25Z"/>
              <path class="cls-18" d="M326.58,339.99c.6-.16,1.13-.3,1.75-.47.27.77.53,1.48.85,2.4-.77.17-1.64.64-2.11.39-.52-.28-.67-1.21-1.02-1.94-.55.16-1.07.31-1.71.49-.3-.83-.57-1.61-.94-2.62.84-.14,1.79-.59,2.24-.3.53.34.63,1.32.94,2.06Z"/>
              <path class="cls-18" d="M381.91,342.89c-.58.88-1.17,1.74-1.72,2.63-.5.81-1.08,1.61-1.39,2.5-.2.58.02,1.3.06,1.95.6-.06,1.2-.12,1.87-.19-.22.78-.77,1.55-1.75,1.78-.32.08-1.15-.51-1.15-.8-.01-.99.1-2.02.41-2.95.67-1.98,2.02-3.56,3.41-5.08.09.05.17.11.26.16Z"/>
              <path class="cls-18" d="M337.98,323.54c.04-.12.04-.04,0,.01-.95.99-1.99,1.31-2.63.82-.6-.47-.63-1.75.25-2.68,1.32-1.38,2.82-2.58,4.27-3.83.22-.19.58-.23,1.06-.4-1.3,1.16-2.42,2.16-3.55,3.17-.08.07-.2.13-.24.23-.31.7-.61,1.41-.91,2.12.59.19,1.17.37,1.76.56Z"/>
              <path class="cls-18" d="M476.23,361.23c.44-.76.78-1.36,1.18-2.04.8.44,1.53.85,2.36,1.31-.34.65-.65,1.25-1.06,2.07-.82-.44-1.59-.86-2.48-1.34Z"/>
              <path class="cls-18" d="M324.33,316.11c-.57.7-.98,1.64-1.47,1.68-.58.05-1.56-.55-1.76-1.09-.18-.48.45-1.26.76-1.99.85.48,1.55.87,2.48,1.39Z"/>
              <path class="cls-18" d="M387.89,352.74c.64,2.59.48,2.82-1.76,2.68-.71-2.49-.6-2.66,1.76-2.68Z"/>
              <path class="cls-18" d="M386.44,411.47c1.62-.68,3.27-1.29,4.84-2.05,2.82-1.36,5.63-2.77,8.39-4.25,1.3-.7,2.48-1.63,3.72-2.46.65-.43.76-.98.39-1.61-.88.12-1.74.34-2.6.34-1.41,0-2.13-.92-1.69-2.24.26-.77.81-1.49,1.39-2.08.49-.51,1.2-.55,1.81,0,.14.12.32.2.43.34,1.62,2.15,3.95,2.31,6.28,2.05,2.23-.25,4.41-.85,6.62-1.28.76-.15.87-.58.74-1.26-.45-2.24-.93-4.48-1.27-6.74-.17-1.11-.64-2.25-.13-3.41.07-.16.17-.31.38-.72.77,1.44,1.45,2.71,2.13,3.99-.08.06-.15.12-.23.18-.3-.15-.6-.3-.96-.49.33,1.89.66,3.7.95,5.53.09.6.13,1.22.07,1.82-.12,1.45-.74,2.5-2.23,3.02-2.3.81-4.6,1.62-7.07,1.55-1.2-.03-2.4-.26-3.72-.41,0,2.89-2.19,4.19-4.34,5.5-1.79,1.09-3.55,2.31-5.48,3.1-1.75.72-3.7.95-5.57,1.36-.92.2-1.85.32-2.77.48-.03-.09-.05-.17-.08-.26ZM400.73,399.26h1.77c-.91-.81-1.2-.82-1.77,0Z"/>
              <path class="cls-18" d="M391.66,391.38c-.3.16-.46.26-.69.38.26.21.46.38.73.59.54-.91.99-1.81,1.57-2.62.54-.77,1.16-1.5,1.83-2.15.28-.27.83-.47,1.18-.38.21.05.46.75.38,1.08-.3,1.2-.65,2.39-1.13,3.53-.36.86-.96,1.62-1.54,2.57.2.14.41.26.6.41,1.45,1.15,1.61,2.71,1.12,4.32-.49,1.63-1.94,2.28-3.42,2.74-.71.22-1.27-.36-1.42-1.31-.19-1.28.1-2.49.63-3.65.25-.55.54-1.08.83-1.67-.27-.22-.52-.43-.82-.67-1.52,2.13-3.06,4.14-5.55,5.2.28-.34.54-.69.83-1.02,1.2-1.38,2.4-2.75,3.6-4.12.38-.43.33-.79-.04-1.2-.33-.36-.59-.78-.91-1.15-.64-.75-.78-1.55-.37-2.71.85.61,1.68,1.19,2.58,1.84ZM395.44,398.17c-.9-.86-1.64-1.57-2.52-2.41-.48,1.06-.93,1.91-1.25,2.81-.1.28.01.79.23.98.2.18.71.18.99.05.79-.37,1.53-.84,2.56-1.43ZM393.31,393.69c.78-1.22,1.58-2.43,2.33-3.67.13-.21.07-.53.1-.8-.27.07-.63.05-.8.23-.73.77-1.42,1.59-2.09,2.41-.69.85-.62,1.17.45,1.83Z"/>
              <g>
                <path class="cls-18" d="M427.77,395.02c2.05,2.86,5.07,2.92,7.98,3.1,4.22.26,8.32-.52,12.33-1.78,1.67-.53,1.91-1.19.72-2.52-.77-.85-.65-1.59-.26-2.55.2.15.39.25.51.4,1.17,1.43,1.31,3.11.79,4.76-.19.62-.95,1.22-1.59,1.51-2.32,1.03-4.75,1.73-7.31,1.88-1.31.08-2.62.3-3.92.28-2.12-.03-4.24-.19-6.45-.3-.01.08-.05.31-.09.54-.18,1.18-.74,1.45-1.76.81-.94-.59-1.47-1.44-1.55-2.56-.02-.29-.04-.59-.08-1.19-1,1.36-1.85,2.54-3.39,2.79-.02.24-.05.42-.04.6.23,2.57-.88,4.41-3.07,5.68-1.68.98-3.36,1.98-5.01,3.02-2.12,1.33-4.51,1.8-6.92,2.19-1.1.18-2.2.36-3.3.55-.03-.08-.06-.15-.09-.23.41-.19.82-.37,1.24-.56,3.1-1.41,6.25-2.73,9.3-4.26,2.06-1.03,4.01-2.3,5.94-3.57,1.53-1,1.63-1.77.73-3.39-.12-.21-.23-.44-.39-.62-.77-.84-.65-1.75-.26-2.73.11.05.22.07.25.13,1.05,1.83,2.41,1.24,3.65.18.71-.61,1.29-1.36,2.02-2.14Z"/>
                <path class="cls-18" d="M438.64,391.46c.3-.48.55-.89.88-1.42.69.37,1.36.72,2.24,1.19-.46.6-.79,1.45-1.29,1.56-.52.11-1.2-.5-1.87-.82-.3.46-.57.89-.88,1.36-.67-.37-1.32-.72-2.11-1.15.43-.6.73-1.43,1.22-1.56.45-.12,1.12.5,1.82.86Z"/>
              </g>
            </g>
          </g>
          <g id="atap_n_kubah" data-name="atap n kubah">
            <rect class="cls-31" x="432.28" y="229.21" width="57.87" height="8.85"/>
            <polygon class="cls-16" points="507.63 248.59 414.02 248.59 432.28 238.06 490.15 238.06 507.63 248.59"/>
            <rect class="cls-27" x="414.02" y="248.59" width="93.6" height=".59"/>
            <rect class="cls-10" x="417.38" y="260" width="87.27" height="1.32"/>
            <rect class="cls-24" x="421.09" y="249.3" width="81.95" height="10.73"/>
            <rect class="cls-25" x="422.54" y="249.34" width="79.05" height="10.66"/>
            <g>
              <rect class="cls-36" x="423.25" y="252.34" width="14.54" height="7.01"/>
              <rect x="423.25" y="249.98" width="14.54" height=".67"/>
              <rect x="423.25" y="251.16" width="14.54" height=".67"/>
            </g>
            <g>
              <rect class="cls-22" x="439.02" y="252.34" width="14.54" height="7.01"/>
              <rect x="439.02" y="249.98" width="14.54" height=".67"/>
              <rect x="439.02" y="251.16" width="14.54" height=".67"/>
            </g>
            <g>
              <rect class="cls-3" x="454.79" y="252.34" width="14.54" height="7.01"/>
              <rect x="454.79" y="249.98" width="14.54" height=".67"/>
              <rect x="454.79" y="251.16" width="14.54" height=".67"/>
            </g>
            <g>
              <rect class="cls-15" x="470.56" y="252.34" width="14.54" height="7.01"/>
              <rect x="470.56" y="249.98" width="14.54" height=".67"/>
              <rect x="470.56" y="251.16" width="14.54" height=".67"/>
            </g>
            <g>
              <rect class="cls-36" x="486.33" y="252.34" width="14.54" height="7.01"/>
              <rect x="486.33" y="249.98" width="14.54" height=".67"/>
              <rect x="486.33" y="251.16" width="14.54" height=".67"/>
            </g>
            <path class="cls-35" d="M417.59,261.3l-50.2,22.49c41.39,27.24,84.65,31.59,135.65-.18l9.09-17.66-7.32-4.68-87.22.02Z"/>
            <g>
              <path class="cls-33" d="M485.95,195.37c-15.77-9.8-18.74-20.04-18.74-20.04l-4.53-10.05c-.26-.7-.46-1.5-.15-1.78,0,0,0,0,0,0,.23-.23.41-.55.41-1.07,0-.42-.18-.72-.42-.93,0,0,0,0,0,0,0,0,0,0,0,0-.17-.15-.37-.26-.56-.34-.06-.15.07-.29.2-.39.07-.03.13-.08.19-.12h0c.2-.16.36-.39.35-.75-.05-.41-.27-.66-.51-.82,0-.02-.02-.03-.08-.05-.42-.29-.31-1.48-.31-1.48h0l.39-1.01-.67-11.86h-.4s-.68,11.89-.68,11.89l.38.99s.26,1.34-.24,1.5c-.04.01-.05.02-.06.03-.34.18-.66.47-.62.94.02.29.17.49.35.63h0s0,0,.01,0c.08.06.16.11.24.15.12.1.2.24.09.4-.38.18-.78.53-.88,1.16,0,.56.2.92.45,1.16,0,0-.02-.02-.02-.02,0,0,0,0,.02.02,0,0,0,0,0,0,.08.09.31.5-.3,1.97l-.32.71c-.05.11-.09.2-.15.32,0,0,0,0,0,0l-3.97,8.8s-6.68,11.48-19.14,20.45c-1.22.87-2.4,1.8-3.44,2.88-12.86,13.38-.79,25.51,1.31,27.43v3.13h53.76v-2.98c.19.08.28.12.28.12,0,0,14.79-11.76,3.83-25.67-1.67-2.12-3.75-3.89-6.04-5.31Z"/>
              <path class="cls-2" d="M461.61,144.68c1.82,0,3.39-1.03,4.21-2.54-.46.52-1.05.9-1.72,1.13l.35-2.61,2.32-1.25-2.35-1.1-.4-2.61c.07.02.15.04.22.06-.76-.5-1.66-.8-2.63-.8-2.64,0-4.78,2.17-4.78,4.86s2.14,4.86,4.78,4.86ZM462.77,135.49c.44,0,.85.08,1.24.21l-1.79,1.96-2.57-.37,1.24,2.31-1.19,2.39,2.56-.53,1.81,1.82c-.41.14-.84.24-1.3.24-2.23,0-4.04-1.8-4.04-4.02s1.81-4.02,4.04-4.02Z"/>
            </g>
          </g>
          <g>
            <g class="cls-34">
              <g>
                <rect class="cls-8" x="384.58" y="152.51" width="21.77" height="23.83"/>
                <g>
                  <g>
                    <path class="cls-17" d="M405.54,136.77c-6.77-4.21-8.04-8.6-8.04-8.6l-1.95-4.31c-.11-.3-.2-.64-.07-.77,0,0,0,0,0,0,.1-.1.17-.24.17-.46,0-.18-.08-.31-.18-.4,0,0,0,0,0,0,0,0,0,0,0,0-.07-.07-.16-.11-.24-.14-.02-.06.03-.12.09-.17.03-.01.05-.03.08-.05h0c.09-.07.15-.17.15-.32-.02-.17-.11-.28-.22-.35,0,0,0-.01-.04-.02-.18-.12-.13-.63-.13-.63h0l.17-.43-.29-5.09h-.17s-.29,5.1-.29,5.1l.16.43s.11.58-.1.64c-.02,0-.02.01-.02.01-.15.08-.28.2-.27.4,0,.13.07.21.15.27h0s0,0,0,0c.03.02.07.05.1.06.05.04.09.1.04.17-.16.08-.33.23-.38.5,0,.24.08.4.2.5,0,0,0,0,0,0,0,0,0,0,.01,0,0,0,0,0,0,0,.04.04.13.21-.13.84l-.14.31s-.04.09-.06.14c0,0,0,0,0,0l-1.7,3.78s-2.87,4.93-8.21,8.77c-.52.38-1.03.77-1.48,1.23-5.52,5.74-.34,10.94.56,11.77v1.34h23.06v-1.28c.08.03.12.05.12.05,0,0,6.35-5.04,1.64-11.01-.72-.91-1.61-1.67-2.59-2.28Z"/>
                    <path class="cls-14" d="M395.1,115.02c.78,0,1.46-.44,1.81-1.09-.2.22-.45.39-.74.49l.15-1.12,1-.54-1.01-.47-.17-1.12s.06.02.09.03c-.33-.22-.71-.34-1.13-.34-1.13,0-2.05.93-2.05,2.08s.92,2.08,2.05,2.08ZM395.6,111.08c.19,0,.36.04.53.09l-.77.84-1.1-.16.53.99-.51,1.02,1.1-.23.78.78c-.18.06-.36.1-.56.1-.96,0-1.73-.77-1.73-1.72s.78-1.72,1.73-1.72Z"/>
                  </g>
                  <g>
                    <path d="M382.82,151.78v-1.62c-.87-.83-2.97-3.18-3.06-6.28-.07-2.12.82-4.15,2.64-6.04.5-.52,1.06-.95,1.54-1.29,5.19-3.74,8.05-8.57,8.07-8.62l1.88-4.18c.09-.21.12-.34.13-.41-.16-.2-.24-.45-.24-.74.03-.22.1-.41.21-.57-.07-.12-.12-.25-.13-.39-.02-.28.09-.54.32-.73l.02-.08.09-.03c0-.05,0-.11-.02-.16l-.18-.44.32-5.67h1.09s.32,5.66.32,5.66l-.18.46c0,.05,0,.09,0,.13l.19.06v.16c.1.14.17.3.2.49,0,.2-.03.36-.11.5l.03.03v.04c.12.17.18.37.18.59,0,.27-.08.52-.23.71,0,.06.03.17.1.34l1.93,4.28c.04.11,1.36,4.34,7.86,8.38,1.08.67,2,1.48,2.72,2.39,4.69,5.95-.99,11.08-1.66,11.65v1.38h-24.04ZM395.82,123.46s.02-.02.03-.03c0,0-.01.01-.02.02l-.19-.19.17.2Z"/>
                    <path d="M395.1,115.51c-1.4,0-2.54-1.15-2.54-2.57s1.14-2.57,2.54-2.57c.5,0,.98.15,1.4.42l-.19.35.3-.05.13.86,1.65.77-1.63.88-.02.14.59.41c-.45.83-1.3,1.35-2.24,1.35Z"/>
                  </g>
                  <g>
                    <path class="cls-20" d="M405.54,136.77c-6.77-4.21-8.04-8.6-8.04-8.6l-1.95-4.31c-.11-.3-.2-.64-.07-.77,0,0,0,0,0,0,.1-.1.17-.24.17-.46,0-.18-.08-.31-.18-.4,0,0,0,0,0,0,0,0,0,0,0,0-.07-.07-.16-.11-.24-.14-.02-.06.03-.12.09-.17.03-.01.05-.03.08-.05h0c.09-.07.15-.17.15-.32-.02-.17-.11-.28-.22-.35,0,0,0-.01-.04-.02-.18-.12-.13-.63-.13-.63h0l.17-.43-.29-5.09h-.17s-.29,5.1-.29,5.1l.16.43s.11.58-.1.64c-.02,0-.02.01-.02.01-.15.08-.28.2-.27.4,0,.13.07.21.15.27h0s0,0,0,0c.03.02.07.05.1.06.05.04.09.1.04.17-.16.08-.33.23-.38.5,0,.24.08.4.2.5,0,0,0,0,0,0,0,0,0,0,.01,0,0,0,0,0,0,0,.04.04.13.21-.13.84l-.14.31s-.04.09-.06.14c0,0,0,0,0,0l-1.7,3.78s-2.87,4.93-8.21,8.77c-.52.38-1.03.77-1.48,1.23-5.52,5.74-.34,10.94.56,11.77v1.34h23.06v-1.28c.08.03.12.05.12.05,0,0,6.35-5.04,1.64-11.01-.72-.91-1.61-1.67-2.59-2.28Z"/>
                    <path class="cls-30" d="M395.1,115.02c.78,0,1.46-.44,1.81-1.09-.2.22-.45.39-.74.49l.15-1.12,1-.54-1.01-.47-.17-1.12s.06.02.09.03c-.33-.22-.71-.34-1.13-.34-1.13,0-2.05.93-2.05,2.08s.92,2.08,2.05,2.08ZM395.6,111.08c.19,0,.36.04.53.09l-.77.84-1.1-.16.53.99-.51,1.02,1.1-.23.78.78c-.18.06-.36.1-.56.1-.96,0-1.73-.77-1.73-1.72s.78-1.72,1.73-1.72Z"/>
                  </g>
                </g>
                <rect class="cls-8" x="382.58" y="179.07" width="24.98" height="54.87"/>
                <rect class="cls-6" x="381.55" y="151.06" width="27.01" height="2.32"/>
                <rect class="cls-6" x="377.91" y="174.3" width="35.2" height="5.96"/>
                <rect class="cls-6" x="375.19" y="233.14" width="39.33" height="4.32"/>
                <rect class="cls-8" x="379.85" y="236.68" width="30.07" height="76.4"/>
                <rect class="cls-9" x="389.27" y="190.26" width="11.01" height="34.65"/>
                <rect class="cls-9" x="389.63" y="245.74" width="11.19" height="24.1"/>
                <g class="cls-7">
                  <rect class="cls-9" x="389.45" y="155.73" width="10.87" height="15.28"/>
                  <rect class="cls-11" x="389.92" y="156.19" width="9.94" height="14.35"/>
                </g>
                <rect class="cls-9" x="390.63" y="166.25" width="8.64" height="3.59"/>
                <path class="cls-9" d="M394.95,157.29c-2.93,2.1-4.1,4.78-4.32,7.78h8.64c-.2-3.11-1.54-5.74-4.32-7.78Z"/>
              </g>
            </g>
            <g>
              <path class="cls-37" d="M434.76,299.07c-45.27-4.83-78.05-45.44-73.22-90.71,4.77-44.7,44.44-77.23,89.02-73.38-7.65-2.75-15.74-4.65-24.18-5.55-56.84-6.07-107.83,35.09-113.9,91.93-6.07,56.84,35.09,107.83,91.93,113.9,52.48,5.6,99.97-29.06,111.72-79.14-15.4,28.65-47.05,46.63-81.38,42.96Z"/>
              <g class="cls-19">
                <path class="cls-26" d="M434.76,299.07c-45.27-4.83-78.05-45.44-73.22-90.71,4.77-44.7,44.44-77.23,89.02-73.38-7.65-2.75-15.74-4.65-24.18-5.55-56.84-6.07-107.83,35.09-113.9,91.93-6.07,56.84,35.09,107.83,91.93,113.9,52.48,5.6,99.97-29.06,111.72-79.14-15.4,28.65-47.05,46.63-81.38,42.96Z"/>
                <ellipse class="cls-21" cx="428.78" cy="226.43" rx="93.95" ry="92.02" transform="translate(158.13 628.76) rotate(-83.91)"/>
                <ellipse class="cls-23" cx="429.32" cy="224.51" rx="91.99" ry="92.35" transform="translate(160.52 627.58) rotate(-83.91)"/>
              </g>
            </g>
            <g class="cls-32">
              <g>
                <rect class="cls-8" x="384.58" y="152.51" width="21.77" height="23.83"/>
                <g>
                  <g>
                    <path class="cls-28" d="M405.54,136.77c-6.77-4.21-8.04-8.6-8.04-8.6l-1.95-4.31c-.11-.3-.2-.64-.07-.77,0,0,0,0,0,0,.1-.1.17-.24.17-.46,0-.18-.08-.31-.18-.4,0,0,0,0,0,0,0,0,0,0,0,0-.07-.07-.16-.11-.24-.14-.02-.06.03-.12.09-.17.03-.01.05-.03.08-.05h0c.09-.07.15-.17.15-.32-.02-.17-.11-.28-.22-.35,0,0,0-.01-.04-.02-.18-.12-.13-.63-.13-.63h0l.17-.43-.29-5.09h-.17s-.29,5.1-.29,5.1l.16.43s.11.58-.1.64c-.02,0-.02.01-.02.01-.15.08-.28.2-.27.4,0,.13.07.21.15.27h0s0,0,0,0c.03.02.07.05.1.06.05.04.09.1.04.17-.16.08-.33.23-.38.5,0,.24.08.4.2.5,0,0,0,0,0,0,0,0,0,0,.01,0,0,0,0,0,0,0,.04.04.13.21-.13.84l-.14.31s-.04.09-.06.14c0,0,0,0,0,0l-1.7,3.78s-2.87,4.93-8.21,8.77c-.52.38-1.03.77-1.48,1.23-5.52,5.74-.34,10.94.56,11.77v1.34h23.06v-1.28c.08.03.12.05.12.05,0,0,6.35-5.04,1.64-11.01-.72-.91-1.61-1.67-2.59-2.28Z"/>
                    <path class="cls-4" d="M395.1,115.02c.78,0,1.46-.44,1.81-1.09-.2.22-.45.39-.74.49l.15-1.12,1-.54-1.01-.47-.17-1.12s.06.02.09.03c-.33-.22-.71-.34-1.13-.34-1.13,0-2.05.93-2.05,2.08s.92,2.08,2.05,2.08ZM395.6,111.08c.19,0,.36.04.53.09l-.77.84-1.1-.16.53.99-.51,1.02,1.1-.23.78.78c-.18.06-.36.1-.56.1-.96,0-1.73-.77-1.73-1.72s.78-1.72,1.73-1.72Z"/>
                  </g>
                  <g>
                    <path d="M382.82,151.78v-1.62c-.87-.83-2.97-3.18-3.06-6.28-.07-2.12.82-4.15,2.64-6.04.5-.52,1.06-.95,1.54-1.29,5.19-3.74,8.05-8.57,8.07-8.62l1.88-4.18c.09-.21.12-.34.13-.41-.16-.2-.24-.45-.24-.74.03-.22.1-.41.21-.57-.07-.12-.12-.25-.13-.39-.02-.28.09-.54.32-.73l.02-.08.09-.03c0-.05,0-.11-.02-.16l-.18-.44.32-5.67h1.09s.32,5.66.32,5.66l-.18.46c0,.05,0,.09,0,.13l.19.06v.16c.1.14.17.3.2.49,0,.2-.03.36-.11.5l.03.03v.04c.12.17.18.37.18.59,0,.27-.08.52-.23.71,0,.06.03.17.1.34l1.93,4.28c.04.11,1.36,4.34,7.86,8.38,1.08.67,2,1.48,2.72,2.39,4.69,5.95-.99,11.08-1.66,11.65v1.38h-24.04ZM395.82,123.46s.02-.02.03-.03c0,0-.01.01-.02.02l-.19-.19.17.2Z"/>
                    <path d="M395.1,115.51c-1.4,0-2.54-1.15-2.54-2.57s1.14-2.57,2.54-2.57c.5,0,.98.15,1.4.42l-.19.35.3-.05.13.86,1.65.77-1.63.88-.02.14.59.41c-.45.83-1.3,1.35-2.24,1.35Z"/>
                  </g>
                  <g>
                    <path class="cls-29" d="M405.54,136.77c-6.77-4.21-8.04-8.6-8.04-8.6l-1.95-4.31c-.11-.3-.2-.64-.07-.77,0,0,0,0,0,0,.1-.1.17-.24.17-.46,0-.18-.08-.31-.18-.4,0,0,0,0,0,0,0,0,0,0,0,0-.07-.07-.16-.11-.24-.14-.02-.06.03-.12.09-.17.03-.01.05-.03.08-.05h0c.09-.07.15-.17.15-.32-.02-.17-.11-.28-.22-.35,0,0,0-.01-.04-.02-.18-.12-.13-.63-.13-.63h0l.17-.43-.29-5.09h-.17s-.29,5.1-.29,5.1l.16.43s.11.58-.1.64c-.02,0-.02.01-.02.01-.15.08-.28.2-.27.4,0,.13.07.21.15.27h0s0,0,0,0c.03.02.07.05.1.06.05.04.09.1.04.17-.16.08-.33.23-.38.5,0,.24.08.4.2.5,0,0,0,0,0,0,0,0,0,0,.01,0,0,0,0,0,0,0,.04.04.13.21-.13.84l-.14.31s-.04.09-.06.14c0,0,0,0,0,0l-1.7,3.78s-2.87,4.93-8.21,8.77c-.52.38-1.03.77-1.48,1.23-5.52,5.74-.34,10.94.56,11.77v1.34h23.06v-1.28c.08.03.12.05.12.05,0,0,6.35-5.04,1.64-11.01-.72-.91-1.61-1.67-2.59-2.28Z"/>
                    <path class="cls-5" d="M395.1,115.02c.78,0,1.46-.44,1.81-1.09-.2.22-.45.39-.74.49l.15-1.12,1-.54-1.01-.47-.17-1.12s.06.02.09.03c-.33-.22-.71-.34-1.13-.34-1.13,0-2.05.93-2.05,2.08s.92,2.08,2.05,2.08ZM395.6,111.08c.19,0,.36.04.53.09l-.77.84-1.1-.16.53.99-.51,1.02,1.1-.23.78.78c-.18.06-.36.1-.56.1-.96,0-1.73-.77-1.73-1.72s.78-1.72,1.73-1.72Z"/>
                  </g>
                </g>
                <rect class="cls-8" x="382.58" y="179.07" width="24.98" height="54.87"/>
                <rect class="cls-6" x="381.55" y="151.06" width="27.01" height="2.32"/>
                <rect class="cls-6" x="377.91" y="174.3" width="35.2" height="5.96"/>
                <rect class="cls-6" x="375.19" y="233.14" width="39.33" height="4.32"/>
                <rect class="cls-8" x="379.85" y="236.68" width="30.07" height="76.4"/>
                <rect class="cls-9" x="389.27" y="190.26" width="11.01" height="34.65"/>
                <rect class="cls-9" x="389.63" y="245.74" width="11.19" height="24.1"/>
                <g class="cls-7">
                  <rect class="cls-9" x="389.45" y="155.73" width="10.87" height="15.28"/>
                  <rect class="cls-11" x="389.92" y="156.19" width="9.94" height="14.35"/>
                </g>
                <rect class="cls-9" x="390.63" y="166.25" width="8.64" height="3.59"/>
                <path class="cls-9" d="M394.95,157.29c-2.93,2.1-4.1,4.78-4.32,7.78h8.64c-.2-3.11-1.54-5.74-4.32-7.78Z"/>
              </g>
            </g>
          </g>
        </g>
      </g>
      <g>
        <g>
          <path d="M29.98,723.62c-1.49-1.59-2.24-4.18-2.24-7.76v-16.71l-10.34,24.73h-1.56l-12.65-25.68v25.68H.83v-31.15h5.76l11.42,23.17,9.68-23.17h6.18v23.13c0,2.96.25,5.13.76,6.51.5,1.39,1.4,2.2,2.69,2.45v1.18c-3.4,0-5.85-.8-7.34-2.38Z"/>
          <path d="M62.52,722.82c-1.6-.83-2.91-2.46-3.92-4.89l-1.09-2.64h-12.56l-3.87,8.59h-2.45l13.92-31.15h2.12l10.57,25.2c1.2,2.93,2.83,4.5,4.91,4.72v1.18c-.57.16-1.32.24-2.27.24-1.98,0-3.78-.42-5.38-1.25ZM45.95,713.16h10.67l-5.19-12.32-5.48,12.32Z"/>
          <path d="M76.59,723.99c-1.64-.46-2.97-1.12-4.01-1.98-1.04-.86-1.56-1.86-1.56-3v-5.52h1.32c.47,3.21,1.46,5.52,2.97,6.94,1.51,1.42,3.62,2.12,6.33,2.12,1.82,0,3.27-.39,4.34-1.18,1.07-.79,1.6-1.92,1.6-3.4,0-1.26-.39-2.33-1.18-3.21-.79-.88-2.01-1.84-3.68-2.88l-5.81-3.49c-2.11-1.23-3.61-2.5-4.51-3.82s-1.35-2.86-1.35-4.63c0-2.49.95-4.45,2.86-5.9,1.9-1.45,4.48-2.17,7.72-2.17,1.76,0,3.46.23,5.1.68,1.64.46,2.97,1.12,4.01,1.98,1.04.87,1.56,1.86,1.56,3v5.52h-1.32c-.54-3.21-1.53-5.52-2.97-6.94-1.45-1.42-3.4-2.12-5.85-2.12-1.7,0-3.04.41-4.04,1.23-.99.82-1.49,1.93-1.49,3.35,0,1.23.38,2.24,1.16,3.04.77.8,2.02,1.71,3.75,2.71l5.81,3.45c2.2,1.29,3.78,2.54,4.74,3.75.96,1.21,1.44,2.67,1.44,4.37,0,2.74-1.03,4.89-3.09,6.44-2.06,1.56-4.98,2.34-8.76,2.34-1.76,0-3.46-.23-5.1-.68Z"/>
          <path d="M94.38,728.93c1.51-.19,2.62-.94,3.33-2.24.71-1.31,1.06-3.55,1.06-6.73v-27.23h6.14v27.23c0,2.8-.29,4.93-.87,6.4-.58,1.46-1.61,2.49-3.09,3.09-1.48.6-3.67.9-6.56.9v-1.42Z"/>
          <path d="M113.78,723.33c-.6-.36-1.02-.98-1.27-1.84-.25-.87-.38-2.12-.38-3.75v-25.02h6.14v25.02c0,1.6.22,2.79.66,3.56.44.77,1.32,1.16,2.64,1.16h.47v1.42h-5.66c-1.13,0-2-.18-2.6-.54Z"/>
          <path d="M127.23,698.86c0-1.6-.22-2.79-.66-3.56-.44-.77-1.32-1.16-2.64-1.16h-.47v-1.42h12.84c6.36,0,11.19,1.34,14.51,4.04,3.32,2.69,4.98,6.47,4.98,11.35,0,3.12-.7,5.86-2.1,8.24-1.4,2.38-3.48,4.22-6.23,5.55-2.75,1.32-6.07,1.98-9.94,1.98h-10.29v-25.02ZM137.38,721.99c2.2,0,4.16-.55,5.88-1.65,1.71-1.1,3.05-2.69,4.01-4.77.96-2.08,1.44-4.5,1.44-7.27s-.48-5.14-1.44-7.2c-.96-2.06-2.31-3.66-4.04-4.79-1.73-1.13-3.71-1.7-5.95-1.7h-.38c-1.04,0-1.87.06-2.5.19l-1.04.14v26.72l1.04.19c.66.09,1.49.14,2.5.14h.47Z"/>
          <path d="M193.55,722.82c-1.6-.83-2.91-2.46-3.92-4.89l-1.09-2.64h-12.56l-3.87,8.59h-2.45l13.92-31.15h2.12l10.57,25.2c1.2,2.93,2.83,4.5,4.91,4.72v1.18c-.57.16-1.32.24-2.27.24-1.98,0-3.78-.42-5.38-1.25ZM176.98,713.16h10.67l-5.19-12.32-5.48,12.32Z"/>
          <path d="M204.31,698.86c0-1.6-.22-2.79-.66-3.56-.44-.77-1.32-1.16-2.64-1.16h-.47v-1.42h5.66c1.13,0,2,.19,2.6.57.6.38,1.02,1,1.27,1.86.25.87.38,2.1.38,3.71v22.89h16.28v2.12h-22.42v-25.02Z"/>
          <path d="M226.16,713.63v-4.48h13.17v4.48h-13.17Z"/>
          <path d="M274.71,723.62c-1.49-1.59-2.24-4.18-2.24-7.76v-16.71l-10.34,24.73h-1.56l-12.65-25.68v25.68h-2.36v-31.15h5.76l11.42,23.17,9.68-23.17h6.18v23.13c0,2.96.25,5.13.75,6.51.5,1.39,1.4,2.2,2.69,2.45v1.18c-3.4,0-5.85-.8-7.34-2.38Z"/>
          <path d="M286.86,710.28v-11.42c0-1.6-.22-2.79-.66-3.56s-1.32-1.16-2.64-1.16v-1.42h5.19c1.13,0,2,.19,2.6.57.6.38,1.02,1,1.27,1.86.25.87.38,2.1.38,3.71l.05,12.84c.03,3.34.68,5.92,1.96,7.77,1.27,1.84,3.12,2.76,5.55,2.76,3.21,0,5.55-.95,7.01-2.86,1.46-1.9,2.19-4.93,2.19-9.09v-17.56h2.36v17.56c0,4.63-.98,8.13-2.93,10.5-1.95,2.38-5.14,3.56-9.58,3.56-8.5,0-12.74-4.69-12.74-14.07Z"/>
          <path d="M339.37,723.15c-1.81-.8-3.75-2.29-5.83-4.46l-7.6-7.93v13.12h-6.14l-.05-25.02c0-1.6-.22-2.79-.66-3.56-.44-.77-1.32-1.16-2.64-1.16h-.47v-1.42h5.66c1.1,0,1.96.19,2.57.57.61.38,1.05,1.01,1.32,1.89s.4,2.11.4,3.68v8.97l8.17-10.15c1.16-1.51,2.41-2.71,3.75-3.61,1.34-.9,2.87-1.34,4.6-1.34h3.3v1.65c-1.95,0-3.63.24-5.03.73-1.4.49-2.6,1.36-3.61,2.62l-7.03,8.68,10.9,11.33c1.16,1.29,2.48,2.41,3.94,3.37,1.46.96,2.65,1.5,3.56,1.63v1.13c-.94.31-2.09.47-3.45.47-1.98,0-3.88-.4-5.69-1.2Z"/>
          <path d="M352.47,698.86c0-1.6-.22-2.79-.66-3.56-.44-.77-1.32-1.16-2.64-1.16h-.47v-1.42h5.66c1.13,0,2,.19,2.6.57.6.38,1.02,1,1.27,1.86.25.87.38,2.1.38,3.71v7.79h12.74v-13.92h6.14v25.02c0,1.6.22,2.79.66,3.56.44.77,1.32,1.16,2.64,1.16h.47v1.42h-5.66c-1.13,0-2-.18-2.6-.54-.6-.36-1.02-.98-1.27-1.84-.25-.87-.38-2.12-.38-3.75v-8.97h-12.74v15.1h-6.14v-25.02Z"/>
          <path d="M386.45,698.86c0-1.6-.22-2.79-.66-3.56-.44-.77-1.32-1.16-2.64-1.16h-.47v-1.42h5.66c1.13,0,2,.19,2.6.57.6.38,1.02,1,1.27,1.86.25.87.38,2.1.38,3.71v22.89h16.28v2.12h-22.42v-25.02Z"/>
          <path d="M413.64,723.33c-.6-.36-1.02-.98-1.27-1.84s-.38-2.12-.38-3.75v-25.02h6.14v25.02c0,1.6.22,2.79.66,3.56.44.77,1.32,1.16,2.64,1.16h.47v1.42h-5.66c-1.13,0-2-.18-2.6-.54Z"/>
          <path d="M430.4,723.99c-1.64-.46-2.97-1.12-4.01-1.98-1.04-.86-1.56-1.86-1.56-3v-5.52h1.32c.47,3.21,1.46,5.52,2.97,6.94,1.51,1.42,3.62,2.12,6.32,2.12,1.82,0,3.27-.39,4.34-1.18,1.07-.79,1.6-1.92,1.6-3.4,0-1.26-.39-2.33-1.18-3.21-.79-.88-2.01-1.84-3.68-2.88l-5.81-3.49c-2.11-1.23-3.61-2.5-4.51-3.82s-1.35-2.86-1.35-4.63c0-2.49.95-4.45,2.86-5.9,1.9-1.45,4.48-2.17,7.72-2.17,1.76,0,3.46.23,5.1.68,1.64.46,2.97,1.12,4.01,1.98,1.04.87,1.56,1.86,1.56,3v5.52h-1.32c-.54-3.21-1.53-5.52-2.97-6.94-1.45-1.42-3.4-2.12-5.85-2.12-1.7,0-3.04.41-4.04,1.23-.99.82-1.49,1.93-1.49,3.35,0,1.23.39,2.24,1.16,3.04.77.8,2.02,1.71,3.75,2.71l5.81,3.45c2.2,1.29,3.78,2.54,4.74,3.75.96,1.21,1.44,2.67,1.44,4.37,0,2.74-1.03,4.89-3.09,6.44-2.06,1.56-4.98,2.34-8.76,2.34-1.76,0-3.46-.23-5.1-.68Z"/>
          <path d="M454.47,723.33c-.6-.36-1.02-.98-1.27-1.84s-.38-2.12-.38-3.75v-25.02h6.14v25.02c0,1.6.22,2.79.66,3.56.44.77,1.32,1.16,2.64,1.16h.47v1.42h-5.66c-1.13,0-2-.18-2.6-.54Z"/>
          <path d="M470.42,700.51v23.36h-2.36v-25.49c0-1.32-.32-2.36-.97-3.12-.65-.75-1.74-1.13-3.28-1.13h-.24v-1.42h3.3c1.76,0,3.2.23,4.32.68,1.12.46,2.05,1.17,2.81,2.15l16.24,18.88v-21.71h2.36v31.29h-2.17l-20.01-23.51Z"/>
          <path d="M498.22,730.3c1.04-.69,1.94-1.53,2.71-2.53.77-.99,1.16-2.12,1.16-3.38l-.71.14c-.91,0-1.62-.26-2.12-.78s-.75-1.22-.75-2.1.25-1.58.75-2.1,1.21-.78,2.12-.78c.97,0,1.74.36,2.29,1.09.55.72.83,1.59.83,2.6,0,1.86-.42,3.49-1.25,4.91-.83,1.42-2.23,2.77-4.18,4.06l-.85-1.13Z"/>
          <path d="M529.61,694.85h-3.35c-1.76,0-3.11.44-4.04,1.32-.93.88-1.39,2.33-1.39,4.34h-1.42v-4.01c0-2.52,1.34-3.78,4.01-3.78h22.18v2.12h-9.87v29.03h-6.14v-29.03Z"/>
          <path d="M566.8,722.82c-1.61-.83-2.91-2.46-3.92-4.89l-1.09-2.64h-12.56l-3.87,8.59h-2.45l13.92-31.15h2.12l10.57,25.2c1.2,2.93,2.83,4.5,4.91,4.72v1.18c-.57.16-1.32.24-2.27.24-1.98,0-3.78-.42-5.38-1.25ZM550.24,713.16h10.67l-5.19-12.32-5.48,12.32Z"/>
          <path d="M605.72,723.62c-1.49-1.59-2.24-4.18-2.24-7.76v-16.71l-10.34,24.73h-1.56l-12.65-25.68v25.68h-2.36v-31.15h5.76l11.42,23.17,9.68-23.17h6.18v23.13c0,2.96.25,5.13.75,6.51.5,1.39,1.4,2.2,2.69,2.45v1.18c-3.4,0-5.85-.8-7.34-2.38Z"/>
          <path d="M638.26,722.82c-1.61-.83-2.91-2.46-3.92-4.89l-1.09-2.64h-12.56l-3.87,8.59h-2.45l13.92-31.15h2.12l10.57,25.2c1.2,2.93,2.83,4.5,4.91,4.72v1.18c-.57.16-1.32.24-2.27.24-1.98,0-3.78-.42-5.38-1.25ZM621.7,713.16h10.67l-5.19-12.32-5.48,12.32Z"/>
          <path d="M651.53,700.51v23.36h-2.36v-25.49c0-1.32-.32-2.36-.97-3.12-.65-.75-1.74-1.13-3.28-1.13h-.24v-1.42h3.3c1.76,0,3.2.23,4.32.68,1.12.46,2.05,1.17,2.81,2.15l16.24,18.88v-21.71h2.36v31.29h-2.17l-20.01-23.51Z"/>
          <path d="M688.11,728.93c1.51-.19,2.62-.94,3.33-2.24.71-1.31,1.06-3.55,1.06-6.73v-27.23h6.14v27.23c0,2.8-.29,4.93-.87,6.4-.58,1.46-1.61,2.49-3.09,3.09-1.48.6-3.67.9-6.56.9v-1.42Z"/>
          <path d="M726.39,722.82c-1.61-.83-2.91-2.46-3.92-4.89l-1.09-2.64h-12.56l-3.87,8.59h-2.45l13.92-31.15h2.12l10.57,25.2c1.2,2.93,2.83,4.5,4.91,4.72v1.18c-.57.16-1.32.24-2.27.24-1.98,0-3.78-.42-5.38-1.25ZM709.82,713.16h10.67l-5.19-12.32-5.48,12.32Z"/>
          <path d="M742.62,711.42l-8.35-12.56c-.94-1.35-1.98-2.53-3.09-3.54-1.12-1.01-2.18-1.56-3.19-1.65v-.94h5.14c1.61,0,3.06.5,4.37,1.51,1.31,1.01,2.41,2.23,3.33,3.68l6.42,9.68,9.16-14.87h3.07l-10.71,17.42v13.74h-6.14v-12.46Z"/>
          <path d="M780.1,722.82c-1.61-.83-2.91-2.46-3.92-4.89l-1.09-2.64h-12.56l-3.87,8.59h-2.45l13.92-31.15h2.12l10.57,25.2c1.2,2.93,2.83,4.5,4.91,4.72v1.18c-.57.16-1.32.24-2.27.24-1.98,0-3.78-.42-5.38-1.25ZM763.53,713.16h10.67l-5.19-12.32-5.48,12.32Z"/>
          <path d="M800.25,708.3c0-5.63,1.1-9.79,3.3-12.48,2.2-2.69,5.51-4.04,9.91-4.04,1.64,0,3.43.27,5.38.8.79.22,1.51.49,2.17.8l-.28,1.32-2.17-.38c-1.92-.28-3.3-.42-4.15-.42-2.42,0-4.33.98-5.71,2.95-1.39,1.97-2.08,4.92-2.08,8.85.5-.41,1.1-.79,1.79-1.13,1.51-.76,3.12-1.13,4.81-1.13,3.52,0,6.06.94,7.6,2.81,1.54,1.87,2.31,4.52,2.31,7.95,0,1.89-.42,3.64-1.27,5.26-.85,1.62-2.12,2.92-3.8,3.89-1.68.97-3.69,1.46-6.02,1.46-7.87,0-11.8-5.51-11.8-16.52ZM815.52,720.27c.83-1.62,1.25-3.64,1.25-6.06,0-2.89-.39-5.06-1.16-6.49-.77-1.43-2.04-2.15-3.8-2.15-.85,0-1.67.17-2.45.52-.79.35-1.44.72-1.96,1.13-.52.41-.78.66-.78.76,0,5.07.47,8.79,1.42,11.16.94,2.38,2.28,3.56,4.01,3.56,1.48,0,2.64-.81,3.47-2.43Z"/>
        </g>
        <g>
          <path d="M129.93,771.58c.83-.83,1.51-1.48,2.04-1.95,2.15-2.01,4.03-3.87,5.62-5.58,1.59-1.71,3-3.56,4.21-5.56,1.21-1.99,1.82-3.86,1.82-5.6,0-2.15-.47-3.79-1.42-4.89-.94-1.11-2.1-1.66-3.45-1.66-1.92,0-3.5.63-4.74,1.9-1.24,1.27-2.08,3.22-2.52,5.84h-1.55c0-1.56.06-2.83.18-3.81.12-.97.41-1.77.89-2.39.83-1,2.02-1.84,3.59-2.52,1.56-.68,3.25-1.02,5.05-1.02,2.69,0,5.05.62,7.11,1.86,2.05,1.24,3.08,3.47,3.08,6.69,0,2.01-.7,4.06-2.1,6.15-1.4,2.1-3,3.98-4.78,5.64-1.79,1.67-3.87,3.45-6.26,5.34-1.42,1.12-2.38,1.93-2.88,2.43h9.16c1.77,0,3.14-.42,4.09-1.26.96-.84,1.44-2.04,1.44-3.61h1.33v3.32c0,2.36-1.25,3.54-3.76,3.54h-16.11v-2.88Z"/>
          <path d="M156.8,773.46c-2.07-1.25-3.1-3.17-3.1-5.73,0-1.92.66-3.5,1.99-4.76,1.33-1.25,3.13-2.37,5.4-3.34-2.07-1.15-3.63-2.28-4.69-3.39-1.06-1.11-1.59-2.53-1.59-4.27,0-2.71.91-4.66,2.72-5.84,1.82-1.18,4.23-1.77,7.24-1.77s5.42.56,7.24,1.68c1.82,1.12,2.72,2.95,2.72,5.49,0,1.59-.54,2.98-1.62,4.16-1.08,1.18-2.53,2.16-4.36,2.92,2.24,1.21,3.98,2.46,5.22,3.76,1.24,1.3,1.86,2.94,1.86,4.91,0,2.77-1.01,4.81-3.03,6.11-2.02,1.3-4.7,1.95-8.04,1.95s-5.9-.63-7.97-1.88ZM168.47,772c.93-.9,1.39-2.18,1.39-3.83s-.55-3.04-1.66-4.16c-1.11-1.12-2.69-2.23-4.76-3.32-1.24.65-2.18,1.51-2.81,2.59-.64,1.08-.95,2.56-.95,4.45s.46,3.3,1.37,4.23c.91.93,2.15,1.39,3.72,1.39s2.77-.45,3.7-1.35ZM168.2,755.2c.37-.89.55-2.11.55-3.67,0-1.83-.41-3.15-1.22-3.96-.81-.81-1.73-1.22-2.77-1.22s-1.96.38-2.77,1.13c-.81.75-1.22,1.96-1.22,3.61,0,1.3.52,2.49,1.57,3.59,1.05,1.09,2.41,2.02,4.09,2.79.8-.62,1.38-1.37,1.75-2.26Z"/>
          <path d="M179.47,759.85c0-10.33,3.84-15.49,11.51-15.49s11.51,5.17,11.51,15.49-3.84,15.49-11.51,15.49-11.51-5.16-11.51-15.49ZM195.03,770.12c.84-2.15,1.26-5.58,1.26-10.27s-.42-8.12-1.26-10.27c-.84-2.15-2.19-3.23-4.05-3.23s-3.21,1.08-4.05,3.23c-.84,2.15-1.26,5.58-1.26,10.27s.42,8.12,1.26,10.27c.84,2.16,2.19,3.23,4.05,3.23s3.21-1.08,4.05-3.23Z"/>
          <path d="M206.29,759.85c0-10.33,3.84-15.49,11.51-15.49s11.51,5.17,11.51,15.49-3.84,15.49-11.51,15.49-11.51-5.16-11.51-15.49ZM221.86,770.12c.84-2.15,1.26-5.58,1.26-10.27s-.42-8.12-1.26-10.27c-.84-2.15-2.19-3.23-4.05-3.23s-3.21,1.08-4.05,3.23c-.84,2.15-1.26,5.58-1.26,10.27s.42,8.12,1.26,10.27c.84,2.16,2.19,3.23,4.05,3.23s3.21-1.08,4.05-3.23Z"/>
          <path d="M233.12,759.85c0-10.33,3.84-15.49,11.51-15.49s11.51,5.17,11.51,15.49-3.84,15.49-11.51,15.49-11.51-5.16-11.51-15.49ZM248.68,770.12c.84-2.15,1.26-5.58,1.26-10.27s-.42-8.12-1.26-10.27c-.84-2.15-2.19-3.23-4.05-3.23s-3.21,1.08-4.05,3.23c-.84,2.15-1.26,5.58-1.26,10.27s.42,8.12,1.26,10.27c.84,2.16,2.19,3.23,4.05,3.23s3.21-1.08,4.05-3.23Z"/>
          <path d="M279.38,747.23h-3.14c-1.65,0-2.92.41-3.79,1.24-.87.83-1.31,2.18-1.31,4.07h-1.33v-3.76c0-2.36,1.25-3.54,3.76-3.54h20.81v1.99h-9.25v27.23h-5.76v-27.23Z"/>
          <path d="M298.77,751c0-1.51-.21-2.62-.62-3.34-.41-.72-1.24-1.08-2.48-1.08h-.44v-1.33h19.52c2.51,0,3.76,1.18,3.76,3.54v3.76h-1.33c0-1.83-.46-3.17-1.39-4.03-.93-.86-2.31-1.28-4.14-1.28h-7.13v11.07h11.51v1.99h-11.51v12.17h7.57c1.68,0,3.08-.38,4.21-1.13,1.12-.75,2.05-2.06,2.79-3.92l1.19.44-1.28,3.5c-.38,1.06-.84,1.84-1.37,2.35-.53.5-1.36.75-2.48.75h-16.38v-23.46Z"/>
          <path d="M351.74,774.22c-1.4-1.49-2.1-3.92-2.1-7.28v-15.67l-9.7,23.2h-1.46l-11.87-24.08v24.08h-2.21v-29.22h5.4l10.71,21.74,9.08-21.74h5.8v21.69c0,2.77.24,4.81.71,6.11.47,1.3,1.31,2.07,2.52,2.3v1.11c-3.19,0-5.48-.75-6.88-2.24Z"/>
          <path d="M363.72,751c0-1.51-.21-2.62-.62-3.34-.41-.72-1.24-1.08-2.48-1.08h-.44v-1.33h19.52c2.51,0,3.76,1.18,3.76,3.54v3.76h-1.33c0-1.83-.46-3.17-1.39-4.03-.93-.86-2.31-1.28-4.14-1.28h-7.13v11.07h11.51v1.99h-11.51v12.17h7.57c1.68,0,3.08-.38,4.21-1.13,1.12-.75,2.05-2.06,2.79-3.92l1.19.44-1.28,3.5c-.38,1.06-.84,1.84-1.37,2.35-.53.5-1.36.75-2.48.75h-16.38v-23.46Z"/>
          <path d="M406.44,773.46c-1.33-.96-2.72-2.62-4.16-4.98l-4.43-7.39h-1.77v13.37h-5.8v-23.46c0-1.51-.21-2.62-.62-3.34-.41-.72-1.24-1.08-2.48-1.08h-.44v-1.33h12.22c3.07,0,5.83.56,8.28,1.68,2.45,1.12,3.67,3.28,3.67,6.46,0,3.69-2.39,6.14-7.17,7.35l4.65,7.75c1.74,2.92,3.57,4.54,5.49,4.87v1.11c-.24.12-.66.22-1.28.31-.62.09-1.2.13-1.73.13-1.62,0-3.1-.48-4.43-1.44ZM398.74,759.32c1.65,0,3.06-.49,4.23-1.48,1.17-.99,1.75-2.55,1.75-4.67s-.58-3.64-1.73-4.65c-1.15-1-2.49-1.51-4.03-1.51-.86,0-1.52.06-1.99.18l-.89.13v12h2.66Z"/>
          <path d="M417.55,751c0-1.51-.21-2.62-.62-3.34-.41-.72-1.24-1.08-2.48-1.08h-.44v-1.33h5.31c1.06,0,1.87.18,2.44.53.56.35.96.94,1.19,1.75.24.81.35,1.97.35,3.48v21.47h15.27v1.99h-21.03v-23.46Z"/>
          <path d="M445.11,773.31c-2.23-1.36-3.95-3.22-5.16-5.58-1.21-2.36-1.81-4.99-1.81-7.88s.6-5.52,1.81-7.88c1.21-2.36,2.93-4.22,5.16-5.58,2.23-1.36,4.77-2.04,7.64-2.04s5.4.68,7.61,2.04c2.21,1.36,3.92,3.22,5.14,5.58,1.21,2.36,1.82,4.99,1.82,7.88s-.61,5.52-1.82,7.88c-1.21,2.36-2.92,4.22-5.14,5.58-2.21,1.36-4.75,2.04-7.61,2.04s-5.41-.68-7.64-2.04ZM458.99,769.83c1.48-2.35,2.21-5.67,2.21-9.98s-.74-7.64-2.21-9.98c-1.48-2.35-3.56-3.52-6.24-3.52s-4.76,1.17-6.22,3.52c-1.46,2.35-2.19,5.67-2.19,9.98s.73,7.64,2.19,9.98c1.46,2.35,3.53,3.52,6.22,3.52s4.77-1.17,6.24-3.52Z"/>
          <path d="M472.89,751c0-1.51-.21-2.62-.62-3.34-.41-.72-1.24-1.08-2.48-1.08h-.44v-1.33h5.31c1.06,0,1.87.18,2.44.53.56.35.96.94,1.19,1.75.24.81.35,1.97.35,3.48v7.3h11.95v-13.06h5.76v23.46c0,1.51.21,2.62.62,3.34.41.72,1.24,1.09,2.48,1.09h.44v1.33h-5.31c-1.06,0-1.87-.17-2.43-.51-.56-.34-.96-.91-1.2-1.73-.24-.81-.35-1.98-.35-3.52v-8.41h-11.95v14.17h-5.76v-23.46Z"/>
          <path d="M502.06,780.48c.97-.65,1.82-1.44,2.55-2.37.72-.93,1.08-1.99,1.08-3.17l-.66.13c-.86,0-1.52-.24-1.99-.73s-.71-1.14-.71-1.97.24-1.48.71-1.97,1.14-.73,1.99-.73c.91,0,1.63.34,2.15,1.02.52.68.77,1.49.77,2.44,0,1.74-.39,3.28-1.17,4.6-.78,1.33-2.09,2.6-3.92,3.81l-.8-1.06Z"/>
          <path d="M525.44,751c0-1.51-.21-2.62-.62-3.34-.41-.72-1.24-1.08-2.48-1.08h-.44v-1.33h12.17c3.04,0,5.79.6,8.26,1.79,2.46,1.2,3.7,3.56,3.7,7.11,0,2.3-.64,4.09-1.93,5.36-1.28,1.27-2.72,2.11-4.32,2.52-1.59.41-3.05.62-4.38.62h-4.21v11.82h-5.76v-23.46ZM533.85,760.87c1.74,0,3.17-.53,4.29-1.59,1.12-1.06,1.68-2.85,1.68-5.36s-.55-4.25-1.66-5.31c-1.11-1.06-2.47-1.59-4.1-1.59-.86,0-1.52.06-1.99.18l-.89.13v13.55h2.66Z"/>
          <path d="M566.7,773.46c-1.51-.78-2.73-2.31-3.67-4.58l-1.02-2.48h-11.78l-3.63,8.06h-2.3l13.06-29.22h1.99l9.92,23.64c1.12,2.74,2.66,4.22,4.6,4.43v1.11c-.53.15-1.24.22-2.13.22-1.86,0-3.54-.39-5.05-1.17ZM551.16,764.41h10.01l-4.87-11.55-5.14,11.55Z"/>
          <path d="M576.79,751c0-1.51-.21-2.62-.62-3.34-.41-.72-1.24-1.08-2.48-1.08h-.44v-1.33h5.31c1.06,0,1.87.18,2.44.53.56.35.96.94,1.19,1.75.24.81.35,1.97.35,3.48v7.3h11.95v-13.06h5.76v23.46c0,1.51.21,2.62.62,3.34.41.72,1.24,1.09,2.48,1.09h.44v1.33h-5.31c-1.06,0-1.87-.17-2.43-.51-.56-.34-.96-.91-1.2-1.73-.24-.81-.35-1.98-.35-3.52v-8.41h-11.95v14.17h-5.76v-23.46Z"/>
          <path d="M626.59,773.46c-1.51-.78-2.73-2.31-3.67-4.58l-1.02-2.48h-11.78l-3.63,8.06h-2.3l13.06-29.22h1.99l9.92,23.64c1.12,2.74,2.66,4.22,4.6,4.43v1.11c-.53.15-1.24.22-2.13.22-1.86,0-3.54-.39-5.05-1.17ZM611.05,764.41h10.01l-4.87-11.55-5.14,11.55Z"/>
          <path d="M639.03,752.54v21.91h-2.21v-23.91c0-1.24-.3-2.21-.91-2.92-.61-.71-1.63-1.06-3.08-1.06h-.22v-1.33h3.1c1.65,0,3,.21,4.05.64s1.93,1.1,2.63,2.01l15.23,17.71v-20.36h2.21v29.35h-2.04l-18.77-22.05Z"/>
          <path d="M672.43,773.24c-2.44-1.4-4.34-3.32-5.71-5.76-1.37-2.43-2.06-5.13-2.06-8.08s.6-5.39,1.82-7.68c1.21-2.29,2.93-4.09,5.16-5.4,2.23-1.31,4.77-1.97,7.64-1.97,2.6,0,4.81.34,6.64,1.02,1.83.68,3.19,1.54,4.07,2.57.5.65.82,1.48.95,2.48.13,1,.2,2.23.2,3.67h-1.33c-.56-2.68-1.59-4.65-3.08-5.89-1.49-1.24-3.53-1.86-6.13-1.86-3.31,0-5.76,1.24-7.35,3.72-1.59,2.48-2.39,5.59-2.39,9.34,0,5.05.88,8.67,2.63,10.87s4.12,3.3,7.11,3.3c2.3,0,4.29-.38,5.98-1.15v-7.88c0-1.56.59-2.86,1.77-3.87,1.18-1.02,3.45-1.53,6.82-1.53v1.11c-1.89,0-2.83,1.4-2.83,4.21v7.92c-1.68,1.03-3.48,1.79-5.4,2.26-1.92.47-4.03.71-6.33.71-3.01,0-5.73-.7-8.17-2.1Z"/>
        </g>
        <g>
          <path d="M195.31,599.76c.97-1.51,1.77-2.75,2.56-4.01,4.31-6.86,8.88-13.53,14.54-19.37,4.15-4.28,8.83-7.89,14.37-10.2,5.68-2.37,11.48-2.63,17.26-.32,7.44,2.97,12.82,8.28,16.74,15.15,1.45,2.55,1.9,5.31,1.44,8.27-.61,3.99-2.17,7.55-4.33,10.89-.39.61-.78,1.22-1.43,2.24,1.89-.42,3.35-.64,4.75-1.06,7.03-2.12,13.54-5.21,19.17-10.05,3.41-2.93,5.08-6.59,4.83-10.94-.29-4.94-.9-9.87-1.58-14.78-1.11-7.94-2.32-15.86-3.61-23.77-3.2-19.72-6.44-39.43-9.7-59.14-.54-3.28-1.29-6.53-1.85-9.81-.15-.9-.17-1.92.08-2.79.88-3.13,1.89-6.24,2.9-9.33.22-.69.66-1.3.98-1.89,1.38-.05,1.85.86,2.22,1.69.53,1.17,1.01,2.39,1.29,3.64,1.52,6.97,3.12,13.92,4.41,20.94,2.73,14.77,5.46,29.53,7.85,44.36,1.88,11.6,3.28,23.28,4.85,34.93,1.11,8.22,2.4,16.42,4.49,24.44,1.44,5.54,4.18,10.48,8.78,14.13,5.43,4.3,11.74,5.47,18.45,4.81,4.97-.49,9.73-1.99,14.37-3.74,6.16-2.33,12.22-4.94,18.31-7.43.24-.1.44-.28.9-.57-.61-.23-1-.43-1.4-.51-8.98-1.92-18.02-3.41-27.13-4.5-6.01-.72-12.03-1.26-18.1-1.03-1.94.07-2.59-.73-1.82-2.52,1.4-3.24,3.01-6.38,4.54-9.57,3.64-3.75,6.8-7.94,10.93-11.22,8.81-6.98,18.59-12.25,28.78-16.84,1.29-.58,2.58-1.17,4.03-1.83-.38-1.48-.78-2.83-1.06-4.21-1.74-8.66-3.58-17.3-5.12-25.99-1.67-9.43-3.09-18.9-4.52-28.37-.69-4.57-1.19-9.16-1.71-13.75-.13-1.17-.33-2.22-1.15-3.16-.93-1.06-1-2.3-.4-3.62,1.53-3.34,2.99-6.7,4.52-10.04.27-.58.7-1.08,1.24-1.88.56.82,1,1.33,1.3,1.9,4.35,8.32,8.09,16.92,11.58,25.63.43,1.06.73,2.2.91,3.34.18,1.15-.65,1.71-1.62,1.07-1.18-.78-2.27-1.73-3.36-2.64-.71-.6-1.37-1.28-2.42-1.75.11.89.19,1.79.33,2.68,2.18,13.34,4.25,26.7,6.63,40.01.94,5.27,2.56,10.41,3.89,15.61.13.52.38,1,.62,1.6,2.08-.48,4.1-1.01,6.14-1.41,3.51-.7,7.01-.71,10.48.31,3.61,1.07,6.16,3.36,7.05,6.98,1.65,6.76,1.07,13.39-2.44,19.53-2.48,4.34-6.31,6.01-10.8,4.95-2.35-.55-4.39-1.75-6.26-3.29-3.35-2.77-5.86-6.22-8.13-9.87-.57-.92-1.11-1.86-1.74-2.92-12.49,3.91-24,9.45-34.43,17.88.56.15.78.25,1.01.27,7.08.44,13.99,1.88,20.92,3.31,7.18,1.48,14.38,2.96,21.63,4.01,8.41,1.21,16.9,1.77,25.41,1.68,2.79-.03,5.57-.05,8.36-.07.54,0,1.09,0,1.63.09.8.12,1.27.59.99,1.42-1.31,3.94-2.67,7.85-4.86,11.42-.46.74-1.08,1.03-1.89.85-4.7-1.1-9.34-.16-13.98.47-7.04.95-13.83,2.93-20.42,5.52-8.72,3.44-17.32,7.21-26.04,10.65-5.37,2.12-10.91,3.78-16.6,4.86-6.21,1.18-12.21.37-17.84-2.45-4.54-2.27-8-5.82-10.53-10.22-3.08-5.35-5.13-11.08-6.19-17.17-.07-.39-.21-.77-.41-1.48-.37.59-.64.91-.8,1.29-1.2,2.89-2.51,5.72-4.35,8.28-2.92,4.07-6.81,6.99-11.04,9.51-7.35,4.38-15.37,6.8-23.76,8.17-9.41,1.54-18.88,2.33-28.42,2.3-2.45,0-4.9.25-7.34.16-6.55-.24-13.02-.92-18.9-4.18-.41-.22-.85-.38-1.21-.55-1,1.63-1.92,3.21-2.93,4.72-.51.76-1.09,1.67-2.26,1.32-.81-.24-1.24-1.24-.96-2.64.32-1.59.83-3.15,1.28-4.72.17-.58.4-1.14.65-1.81-3.65-3.37-6.71-7.12-8.17-12.41-.55.96-.91,1.59-1.28,2.2-2.29,3.82-4.94,7.33-8.77,9.77-4.32,2.75-8.99,4.05-14.15,3.42-3.05-.37-6.04-.89-8.8-2.34-3.29-1.72-5.77-4.23-7.61-7.43-2.45-4.26-3.6-8.95-4.39-13.71-1.12-6.7-1.94-13.44-2.95-20.16-.33-2.19-.86-4.36-1.38-6.97-1,1.51-1.13,2.84-1.38,4.11-.81,4.27-2.62,7.97-5.88,10.92-2.05,1.85-4.37,3.2-7.03,3.98-.7.21-1.4.43-2.28.7,0,1.41.02,2.75,0,4.1-.07,4.08-.43,8.11-1.06,12.16-1.1,7.02-4.57,12.52-9.89,17.05-4.58,3.9-9.61,7.14-14.85,10.02-9.37,5.15-19.14,9.42-29.4,12.5-9.41,2.83-19.01,4.01-28.81,2.94-6.22-.68-12.11-2.45-17.2-6.31-4.57-3.46-7.85-7.85-9.74-13.26-2.35-6.7-2.44-13.6-1.54-20.54.91-7.07,3.06-13.79,6.07-20.23.63-1.34,1.52-2.56,2.37-3.78.29-.42.78-.77,1.26-.99.69-.31,1.31,0,1.31.75,0,1-.09,2.04-.38,2.99-.78,2.6-1.7,5.16-2.52,7.75-1.55,4.9-2.28,9.92-2.05,15.07.32,7.13,3.25,12.93,8.78,17.44,5.14,4.19,11.2,6.04,17.65,6.69,7.43.74,14.78-.04,22.04-1.77,15.45-3.68,29.63-10.23,42.93-18.79,2.05-1.32,3.93-2.92,5.93-4.32,3.03-2.13,4.06-4.97,3.18-8.53-.67-2.7-1.23-5.45-2.13-8.08-1.47-4.3-3.2-8.52-4.77-12.79-.25-.67-.49-1.5-.31-2.14.85-3.07,1.82-6.11,2.8-9.15.16-.48.54-.89.84-1.36,1.16.2,1.42,1.07,1.83,1.84.79,1.5,1.54,3.03,2.48,4.43,1.36,2.02,3.3,2.76,5.79,2.69,4.09-.12,7.48-1.54,9.82-4.88,1.11-1.58,1.85-3.47,2.5-5.31.92-2.63,1.56-5.35,2.4-8,.32-1.03.77-2.04,1.31-2.98.8-1.39,1.66-1.53,2.71-.27.9,1.07,1.78,2.31,2.17,3.63,1.27,4.29,2.52,8.61,3.37,13,1.16,5.93,1.86,11.94,2.91,17.9.67,3.76,1.87,7.39,4.09,10.57,3.78,5.38,8.99,7.85,15.57,7.5,6.1-.33,10.66-3.29,14.1-8.16,1.8-2.55,3.52-5.17,5.35-7.7.54-.75,1.25-1.44,2.01-1.97,1.18-.82,2.04-.47,2.4.96.23.92.42,1.88.4,2.82-.06,3.54,1.74,6.25,3.96,8.67,1.35,1.47,3.11,2.57,4.83,3.95ZM199.85,602.1c.66.32,1.06.53,1.48.7,3.54,1.52,7.27,2.19,11.08,2.43,11.37.71,22.32-1.24,32.89-5.38,2.4-.94,4.77-1.98,7.04-3.19,3.02-1.61,3.21-2.6,1.24-5.43-3.12-4.47-7.17-7.96-11.85-10.7-2.11-1.24-4.42-2.03-6.88-2.38-5.61-.79-10.61.88-15.32,3.7-5.68,3.39-10.19,8.08-14.3,13.18-1.82,2.26-3.52,4.61-5.39,7.06ZM373.69,556.04c1.57,2.36,4.19,4.48,6.56,5.11,1.22.32,2.54.44,3.81.42,1.32-.02,1.59-.57,1.33-1.88-.3-1.49-1.32-2.38-2.62-2.87-2.63-.99-5.39-1.26-8.18-1.12-.25.01-.5.18-.89.34Z"/>
          <path d="M694.08,575.8c-8.67-1.26-17.33-2.51-26-3.78-8.57-1.25-17.22-1.9-26-3.55.44-1.04.61-1.69.96-2.24,2.1-3.25,4.24-6.47,6.37-9.7.5-.76,1.2-1.19,2.06-1.54,8.64-3.46,16.16-8.59,22.65-15.27,3.5-3.6,6.09-7.79,8.49-12.16,1.47-2.67,3.16-5.24,4.96-7.69.9-1.23,2.16-2.26,3.45-3.11,1.53-1,2.95-.7,3.82.89.9,1.65,1.49,3.48,2.07,5.27.53,1.61.75,3.32,1.31,4.91,1.67,4.8,4.72,6.81,9.75,6.61,5.35-.22,9.64-2.63,13.13-6.52,1.53-1.71,2.75-3.71,4.16-5.54.95-1.24,1.94-2.45,2.98-3.6.6-.66,1.34-1.18,2.42-.74.63,1,.28,2.04,0,3.08-.28,1.05-.68,2.07-.87,3.14-.51,2.85.9,5.13,3.68,5.96,2.25.67,4.57.73,6.87.39,2.13-.32,3.8-1.41,4.83-3.36.96-1.8,1.89-3.61,2.9-5.38.84-1.48,1.71-2.93,2.66-4.34.66-.97.72-.92,2.43-1.31.15.68.37,1.37.45,2.06.1.88.07,1.76.11,2.65.2,4.15,2.3,6.88,6.29,7.97,3.35.92,6.59.24,9.74-1.02,4.25-1.7,6.97-5.12,9.46-8.71,2.1-3.01,3.99-6.16,5.98-9.24.26-.4.57-.77.82-1.17.55-.85,1.17-1.4,2.12-.48,1.35-1.76,2.55-3.4,3.82-4.98,1.61-2.01,3.7-3.39,6.11-4.27,4.04-1.47,8.06,0,10.54,2.85,4.09,4.72,6.18,10.26,6.88,16.46.37,3.3-.19,6.2-2.1,8.87-1.18,1.65-2.33,3.33-3.52,4.98-1.23,1.7-2.89,2.15-4.86,1.57-1.63-.48-3.29-.88-4.86-1.49-5.27-2.04-10.39-4.4-15.01-7.71-.44-.31-.91-.56-1.57-.96-.36.64-.71,1.19-1.01,1.77-1.74,3.41-3.92,6.51-6.38,9.44-3.16,3.76-7.05,6.32-11.86,7.44-3.1.72-6.2.67-9.24-.28-1.94-.61-3.52-1.77-4.58-3.54-.87-1.44-1.68-2.92-2.63-4.58-.37.57-.67.98-.92,1.41-1.27,2.27-2.81,4.33-4.81,6.02-2.77,2.33-5.99,3.45-9.59,3.34-4.16-.13-7.47-2.87-8.72-7.07-.13-.45-.25-.9-.49-1.77-.59.86-1.01,1.42-1.37,2.01-1.44,2.33-3.15,4.4-5.32,6.12-2.86,2.25-6.04,3.51-9.65,3.94-2.64.32-5.15.13-7.57-.95-3.17-1.42-5.11-3.99-6.35-7.12-.57-1.45-.93-2.98-1.35-4.48-.19-.65-.28-1.33-.46-1.98-.28-1.04-.42-2.34-1.61-2.64-1.37-.35-2.33.7-2.99,1.72-1.62,2.51-3.21,5.04-4.62,7.67-3.64,6.79-8.24,12.77-14.38,17.5-.1.08-.16.21-.38.51.52.18.97.42,1.44.49,11.47,1.88,22.96,3.57,34.52,4.79,13.84,1.45,27.67,1.64,41.54.66,1.9-.13,3.8-.24,5.7-.33.52-.02,1.05.07,1.86.13-.11.77-.09,1.45-.32,2.02-1.41,3.46-2.88,6.89-4.32,10.34-.78,1.86-2,2.61-4.14,2.38-7.1-.77-14.1.29-21.05,1.66-7.15,1.41-14.13,3.45-20.98,5.9-12.67,4.53-25.27,9.25-38,13.63-8.29,2.85-16.85,4.82-25.42,6.68-9.43,2.05-18.96,3.53-28.55,4.58-9.61,1.04-19.26,1.48-28.91,1.25-9.1-.22-18.22-.61-27.09-3.04-5.07-1.39-9.96-3.24-14.09-6.64-3.13-2.58-5.6-5.71-7.52-9.28-1.78-3.32-3-6.83-3.64-10.55-.06-.33-.2-.64-.45-1.44-.32,1.23-.51,2.02-.72,2.81-.69,2.59-1.77,4.92-3.53,7.02-6.7,8-14.75,14.42-23.19,20.43-6.44,4.58-13.04,8.89-20.35,11.95-4.71,1.97-9.5,3.72-14.72,3.76-3.02.02-5.96-.39-8.77-1.55-4.79-1.96-7.29-5.86-8.28-10.66-1.67-8.14-.6-16.1,2.53-23.77,1.12-2.76,2.15-5.59,4.07-7.96.55-.68,1.01-1.48,2.18-1.19.29,1.4-.08,2.7-.46,3.98-.69,2.35-1.49,4.66-2.17,7.01-1.02,3.56-1.35,7.21-1.01,10.9.45,4.89,3.84,8.26,8.83,8.94,4.2.57,8.26-.15,12.25-1.38,5.28-1.64,10.23-4.05,15.04-6.75,9.39-5.28,18.23-11.35,26.46-18.29,3.08-2.59,5.94-5.39,8.18-8.76.56-.84,1.05-1.75,1.47-2.68.65-1.45.97-2.98.49-4.56-1.33-4.42-2.55-8.88-4.04-13.25-4.43-12.94-10.12-25.37-15.59-37.89-.64-1.47-1.03-2.92-.83-4.53.41-3.3.74-6.62,1.17-9.92.08-.62.43-1.21.8-2.18.82.81,1.48,1.28,1.91,1.9,1.93,2.8,3.96,5.54,5.64,8.48,5.02,8.81,9.44,17.91,12.71,27.54,1.82,5.36,2.86,10.9,3.77,16.47.9,5.49,1.71,11.01,2.93,16.44,2.17,9.72,8.15,16.37,17.26,20.25,8.01,3.41,16.5,4.4,25.09,4.78,8.56.38,17.13.23,25.67-.41,7.05-.53,14.09-1.2,21.1-2.11,8.63-1.11,17.14-2.87,25.6-4.94,15.02-3.67,29.61-8.63,43.92-14.46.3-.12.57-.31.86-.46-.01-.17-.02-.33-.04-.5ZM793.18,513.53c2.45,2.18,8.92,4.69,11.34,4.46-1.31-4.68-8.17-7.46-11.34-4.46Z"/>
          <path d="M426.21,616.39c-1.23-.81-1.2-2.17-1.31-3.4-.21-2.3-.23-4.62-.43-6.92-.68-7.71-1.24-15.44-2.14-23.12-1.14-9.71-2.53-19.39-3.91-29.07-1.24-8.67-2.67-17.31-3.96-25.97-1.88-12.63-3.73-25.26-5.56-37.89-.72-4.97-1.34-9.96-2.09-14.94-.11-.75-.54-1.51-1.01-2.14-.85-1.14-1.09-2.23-.5-3.59,1.4-3.24,2.67-6.54,4.04-9.79.3-.72.79-1.36,1.37-2.32.67.88,1.24,1.45,1.59,2.14,4.51,8.84,8.76,17.8,11.95,27.22.38,1.11.99,2.26.52,3.49-.96.53-1.67.08-2.28-.46-1.01-.9-1.96-1.88-2.92-2.84-.7-.7-1.39-1.41-2.39-1.91.47,3.01.93,6.02,1.41,9.02,2.47,15.57,4.99,31.12,7.41,46.7,1.27,8.19,2.54,16.38,3.52,24.6,1.01,8.43,1.83,16.88,2.42,25.35.47,6.77-.84,13.4-2.64,19.91-.38,1.37-.8,2.74-1.3,4.07-.3.81-.67,1.66-1.77,1.87Z"/>
          <path d="M14.87,521.22c-4.67-6.18-5.73-13.01-4.76-20.27,1.66-12.4,5.23-24.28,10.04-35.8.49-1.18,1.13-2.32,1.82-3.41.37-.59,1-1.02,1.44-1.45,1.13.43,1.16,1.22,1.04,1.96-.2,1.27-.39,2.57-.81,3.77-3.04,8.6-5.22,17.44-7.23,26.31-.9,3.96-1.42,8.04-.59,12.13.39,1.94.88,3.84,2.18,5.42,2.29,2.79,5.61,2.75,7.73-.15.96-1.31,1.78-2.73,2.69-4.08.38-.56.86-1.3,1.59-.92.5.26,1.03,1.01,1.04,1.55.01,1.27-.18,2.57-.48,3.81-.33,1.38-.8,2.74-1.31,4.07-.48,1.26-1.1,2.47-1.7,3.81,1.52,1.19,2.8,2.59,3.13,4.56.58,3.51.64,7.02-.11,10.53-.64,3.02-1.75,5.83-3.33,8.49-6.4,10.78-13.45,21.08-22.28,30.06-.81.82-1.67,1.6-2.59,2.29-.57.43-1.35.96-2.03.31-.66-.64-.25-1.4.2-2.03,1.19-1.66,2.32-3.36,3.62-4.93,5.2-6.3,9.85-12.99,14.37-19.78,2.38-3.58,4.08-7.55,4.8-11.82.28-1.64.25-3.4-.01-5.05-.59-3.71-3.98-5.14-7.16-3.17-.75.46-1.46,1-2.18,1.51-.5.35-.97.75-1.48,1.08-.73.49-1.51,1.14-2.38.39-.87-.75-.38-1.68.01-2.43.66-1.25,1.43-2.46,2.25-3.62.74-1.05,1.6-2.01,2.5-3.13Z"/>
          <path d="M826.08,458.2c-2.33,2.81-4.72,5.57-6.97,8.45-1.62,2.08-3.72,3.16-6.17,4.01-19.19,6.63-38.39,13.26-57.5,20.12-7.15,2.57-14.08,5.77-21.1,8.68-.19.08-.36.23-.55.26-.43.07-.87.1-1.31.14,0-.5-.2-1.11,0-1.49.61-1.13,1.29-2.25,2.11-3.23,1.4-1.66,2.94-3.2,4.42-4.78,2.88-3.07,6.67-4.67,10.4-6.26,19.58-8.34,39.63-15.38,59.93-21.73,4.86-1.52,9.78-2.83,14.68-4.23.57-.16,1.15-.27,1.73-.4.11.16.21.32.32.47Z"/>
          <path d="M783.41,604.57c-.94,1.29-1.81,2.63-2.82,3.85-1.87,2.24-3.79,4.45-5.76,6.6-.52.57-1.26,1.04-1.99,1.3-20.12,7.09-40.27,14.09-60.37,21.23-5.18,1.84-10.21,4.1-15.29,6.2-2.06.86-4.07,1.84-6.13,2.72-.32.14-.87.14-1.1-.06-.22-.19-.32-.78-.2-1.07.38-.86.79-1.76,1.39-2.47,1.61-1.93,3.28-3.81,5-5.63,2.42-2.56,5.4-4.32,8.64-5.63,8.19-3.3,16.36-6.65,24.6-9.82,17-6.55,34.33-12.1,51.87-17.04.63-.18,1.28-.32,1.92-.48.08.1.16.19.25.29Z"/>
          <path d="M669.07,474.37c-.14-.33-.18-.64-.35-.79-1.55-1.43-1.11-2.88-.12-4.37.56-.85,1.05-1.76,1.69-2.54.9-1.09,1.89-.99,2.6.25.33.57.52,1.26.59,1.92.39,3.36.03,6.66-1.25,9.79-1.94,4.75-7.62,6.19-11.69,3.06-.58-.45-1.14-.93-1.86-1.52-.81.73-1.56,1.39-2.29,2.07-3.26,3.04-7.12,3.76-11.34,2.83-.96-.21-1.91-.73-2.72-1.31-3.58-2.54-7.5-2.83-11.67-2.04-3.45.65-6.32,2.44-9.13,4.34-4.95,3.34-9.92,6.68-14.75,10.2-8.69,6.34-18.37,10.47-28.69,13.2-3.2.84-6.5,1.33-9.78,1.9-.89.16-2.19.37-2.36-.86-.15-1.02,1.11-1.23,1.9-1.49,2.78-.9,5.6-1.66,8.38-2.56,8.33-2.69,16.07-6.63,23.3-11.51,4.38-2.96,8.59-6.2,12.7-9.53,5.65-4.57,11.76-8.28,18.53-10.91.76-.29,1.53-.56,2.32-.77,3.77-1.03,7.27-.59,10.37,1.94,2.67,2.19,5.69,2.38,8.85,1.49,2.41-.68,4.11-2.32,5.39-4.41.56-.93.94-1.99,1.6-2.83.69-.88,1.52-1.75,2.48-2.3,1.11-.63,1.85.02,1.63,1.32-.12.73-.44,1.42-.65,2.14-.45,1.52-.22,2.27,1.09,3.12,1.66,1.07,3.39,1.13,5.24.18Z"/>
          <path d="M260.2,634.92c-1.87,2.31-3.83,4.56-5.58,6.95-2.02,2.76-4.71,4.23-7.9,5.32-17.35,5.95-34.68,11.95-51.95,18.15-6.71,2.41-13.21,5.37-19.8,8.11-.49.2-.88.65-1.37.83-.33.12-.87.09-1.12-.11-.23-.19-.35-.74-.26-1.05.18-.57.5-1.12.84-1.61,3.37-4.81,7.42-8.78,12.91-11.19,9.59-4.21,19.33-8.01,29.17-11.56,14.19-5.12,28.53-9.77,43.05-13.86.57-.16,1.15-.28,1.73-.41.09.14.18.29.27.43Z"/>
          <path d="M142.71,485.08c-1.03,1.07-2.16.82-3.21.25-1.84-1-3.68-2.02-5.42-3.19-1.46-.98-2.49-2.34-2.36-4.41-3.42,3.46-6.42,7.36-10.55,9.94-4.2,2.62-8.55,5.03-12.94,7.33-4.31,2.27-8.9,3.85-14.03,4.99.3-.71.36-1.13.6-1.35.45-.4,1.01-.68,1.53-1.01,8.77-5.45,17.64-10.77,25.85-17.08,3.45-2.65,6.81-5.42,10.04-8.33,2.49-2.24,4.9-1.82,7.08-.58,3.21,1.84,5.57,4.53,7.59,7.55,2.34,3.51,4.48,7.13,5.78,11.19.16.51.43.98.79,1.81.27-.67.49-1.03.56-1.43.93-4.87,1.83-9.75,2.75-14.62.57-3.05,1.84-5.83,3.48-8.43,1.29-2.05,3.1-2.68,5.44-2.09,2.47.63,4.4,2.09,6.04,3.96.9,1.03,1.22,2.23.83,3.61-.42,1.5-.65,3.06-1.12,4.54-.5,1.58-1.33,1.72-2.48.47-.83-.9-1.5-1.94-2.36-2.8-1.87-1.88-3.36-1.64-4.7.68-1.37,2.39-2.14,4.99-2.57,7.69-.85,5.37-1.63,10.74-2.57,16.1-.28,1.58-.88,3.14-1.5,4.63-.44,1.06-1.07,1.15-1.88.3-.69-.72-1.31-1.59-1.69-2.5-.84-2-1.59-4.04-2.25-6.11-1.32-4.15-3.33-7.87-6.74-11.14Z"/>
          <path d="M442.71,466.18c1.08,1.18,1.93,1.87,2.49,2.74,3.38,5.31,5.89,11.02,7.64,17.06,2.19,7.57,2.92,15.34,2.51,23.19-.26,5.03-1.03,9.98-2.98,14.7-2.61,6.32-4.28,12.88-4.72,19.73-.14,2.12-.04,4.21.65,6.24.69,2.01,2.09,3,4.14,2.94,1.89-.06,3.31-1.12,3.84-3.06.27-.97.25-2.01.43-3.01.15-.86.24-1.78.62-2.54.21-.43.97-.8,1.47-.8.36,0,.73.66,1.06,1.05.12.14.15.38.17.58.48,4.66.35,9.26-1.73,13.56-1.13,2.35-3.1,3.7-5.79,3.91-1.83.15-3.39-.38-4.57-1.74-2.97-3.43-4.85-7.36-5.11-11.94-.44-7.78.95-15.31,3.48-22.61,1.88-5.41,3.68-10.82,3.82-16.6.17-7.41-.67-14.65-3.95-21.44-1.61-3.33-3.81-6.26-6.08-9.14-1.12-1.42-1.42-2.85-.83-4.55.56-1.6.94-3.27,1.55-4.85.4-1.04,1.09-1.97,1.91-3.42Z"/>
          <path d="M794.26,623.71c-1.19,2.15-2.13,4.19-3.4,6-.87,1.24-2.05,2.42-3.35,3.19-3.68,2.16-7.4,4.32-11.29,6.07-7.36,3.33-14.87,6.32-22.28,9.55-4.66,2.03-9.6,2.94-14.53,3.87-4.4.83-8.85,1.44-13.28,2.12-.87.13-1.77.2-2.63.13-.35-.03-.66-.52-.99-.8.26-.27.47-.65.78-.79,1.06-.45,2.16-.81,3.23-1.22,12.89-4.87,25.81-9.69,38.67-14.65,7.36-2.84,14.5-6.17,21.23-10.31,3.03-1.86,5.28-4.4,6.7-7.71,1.52-3.54,3.74-6.61,6.69-9.11,1.73-1.47,3.27-1.55,5.22-.41,2.23,1.3,3.53,3.35,4.49,5.63,1.49,3.55,1.32,7.17.16,10.76-.62,1.92-1.55,2.4-3.53,2.29-4.12-.24-7.8-1.65-11.08-4.12-.26-.2-.57-.34-.82-.48ZM804.9,620.84c.39-2.56-.61-4.2-2.64-4.58-1.96-.36-2.9.14-3.34,1.85,1.82,1.23,3.8,2.16,5.97,2.73Z"/>
          <path d="M258.97,669.83c-.36-1.43.34-2.24.93-3.03,3.44-4.58,7.54-8.2,12.96-10.49,15.29-6.44,30.83-12.16,46.64-17.17,6.22-1.97,12.49-3.76,18.73-5.63.38-.11.78-.18,1.47-.34-.31.58-.46.99-.72,1.3-2.34,2.83-4.66,5.66-7.07,8.42-.45.52-1.22.83-1.9,1.07-16.86,5.92-33.75,11.71-50.56,17.75-6.38,2.29-12.57,5.14-18.85,7.71-.5.2-1.06.26-1.64.39Z"/>
          <path d="M229.34,475.01c2.72-4.53,6.25-8.35,10.59-11.38,2.43-1.69,5.09-2.59,8.08-1.57,2.51.85,3.53,2.55,3.24,5.16-.46,4.03-2.87,6.8-5.89,9.16-3.55,2.77-7.54,4.66-12.01,5.21-3.14.39-6.38.9-9.47-.4-4.3-1.81-8.48-1.27-12.67.4-4.01,1.6-7.68,3.8-11.15,6.31-4.35,3.14-8.57,6.45-12.87,9.66-4.21,3.15-9.03,4.94-14.08,6.18-.77.19-1.62.23-2.41.13-.84-.1-1.06-.89-.46-1.49.33-.33.77-.56,1.19-.76.61-.3,1.24-.55,1.87-.8,6.45-2.48,11.88-6.51,16.95-11.1,3.93-3.56,7.91-7.08,12.43-9.88,4.81-2.98,9.77-5.62,15.44-6.64,1.97-.35,3.75-.12,5.51.8,2.18,1.13,3.34,1.29,5.7,1.01ZM246.44,469c-1.52-1.11-3.14-1.11-4.58-.6-3.25,1.15-5.64,3.49-8.01,6.27,3.8-.49,11.4-3.91,12.59-5.67Z"/>
          <path d="M231.11,514.56c-.9-.08-1.89.05-2.67-.29-1.61-.7-3.21-1.5-4.62-2.52-2.44-1.78-2.99-5.99-1.29-8.48.81-1.19,1.98-1.61,3.36-1.5,2.44.19,4.45,1.31,5.92,3.21,3.08,3.98,5.92,8.12,7.52,12.98.21.63.49,1.23.93,2.31.29-.87.5-1.32.58-1.78.56-3.28.95-6.6,1.68-9.84.59-2.63,1.32-5.3,2.45-7.73,1.92-4.16,4.51-4.82,8.39-2.38,4.1,2.59,3.99,5.15,2.01,9.46-.49,1.05-1.27,1.01-2.05.05-.6-.73-1.13-1.54-1.79-2.21-1.6-1.62-3.17-1.36-4.19.72-1.18,2.39-1.88,4.94-2.25,7.59-.49,3.5-.94,7-1.45,10.49-.62,4.32-2.53,7.95-5.67,11.02-3.81,3.71-8.42,6.2-13.04,8.63-5.18,2.72-10.82,4.24-16.41,5.87-.14-.18-.29-.36-.43-.53.37-.18.79-.3,1.1-.56,3.59-2.93,7.34-5.63,11.41-7.84,5.81-3.16,11.34-6.72,16.35-11.05,1.64-1.41,1.64-1.37.96-3.38-.35-1.03-.62-2.08-.91-3.13-1-3.63-3.01-6.64-5.86-9.09Z"/>
          <path d="M616.46,520.13c-6.7,8.72-15.9,13.31-25.49,17.29-2.04.85-4.19,1.44-6.43,1.81-.21-1.23.68-1.41,1.25-1.77,3.1-1.97,6.21-3.9,9.32-5.84,7.68-4.79,14.96-10.12,21.79-16.06,2.48-2.16,4.1-2.16,6.96-.43,2.58,1.56,4.4,3.81,6.04,6.24,1.98,2.94,3.74,5.99,4.87,9.37.14.43.38.84.76,1.66.21-.75.35-1.14.43-1.55.76-3.93,1.56-7.86,2.25-11.8.44-2.52,1.42-4.82,2.69-6.99,1.58-2.7,3.74-3.28,6.58-1.94.12.06.25.11.37.17,4.35,2.3,5.42,5.85,3.07,10.18-.48.88-1.04,1.05-1.78.37-.64-.59-1.15-1.33-1.72-2-2.13-2.52-3.5-2.35-4.98.55-1.55,3.03-1.9,6.36-2.48,9.62-.55,3.07-.86,6.19-1.38,9.26-.25,1.46-.65,2.92-1.18,4.31-.64,1.69-1.44,1.75-2.57.3-.41-.53-.76-1.14-1-1.76-.71-1.83-1.4-3.68-2.02-5.54-1.24-3.73-2.55-5.94-5.33-8.77-3.83.56-8.8-2.61-10-6.68Z"/>
          <path d="M575.99,513.94c.93.45.98,1.29.87,2.1-.15,1.07-.31,2.17-.68,3.18-2.8,7.6-4.67,15.46-6.68,23.28-1.18,4.61-2.3,9.22-2.52,14-.15,3.22.07,6.39,1.35,9.39.42.99.94,1.98,1.62,2.8,1.86,2.25,4.89,2.63,7.03.67,1.42-1.3,2.45-3.04,3.63-4.6.37-.48.6-1.08.99-1.54.84-1,1.89-.82,2.31.43.22.68.3,1.48.18,2.19-.63,3.85-1.82,7.53-3.78,10.91-1.7,2.92-4.01,5.11-7.58,5.57-3.42.43-6.47-1.13-8.17-4.14-3.57-6.3-4.24-13.03-3.31-20.1,1.58-11.99,4.93-23.5,9.27-34.73.98-2.52,2.14-4.98,3.31-7.42.43-.9,1.04-1.77,2.17-1.97Z"/>
          <path d="M823.15,552.41c-.16,6.11-2.19,11.59-5.35,16.71-5.99,9.73-12.38,19.17-20.09,27.65-1.82,2-3.83,3.84-5.78,5.73-.33.33-.75.66-1.18.77-.53.14-1.12.05-1.68.06,0-.58-.19-1.28.07-1.7,1-1.61,2.04-3.22,3.27-4.66,6.27-7.36,11.7-15.34,17.07-23.34,2.67-3.97,4.53-8.38,5.09-13.19.21-1.79.08-3.65-.14-5.45-.17-1.45-1.04-2.61-2.35-3.41-1.45-.88-2.91-1.14-4.42-.24-1.16.69-2.28,1.45-3.41,2.2-.79.53-1.5,1.2-2.35,1.59-.54.26-1.46.4-1.85.11-.37-.27-.41-1.19-.36-1.8.05-.58.31-1.2.63-1.7,2.5-3.82,5.12-7.56,9.17-9.94,4.18-2.45,8.97-1.54,11.56,1.85.75.98,1.22,2.28,1.48,3.51.37,1.71.42,3.49.61,5.25Z"/>
          <path d="M398.69,637.39c-.79,1.56-1.41,2.92-2.15,4.21-1.43,2.53-3.74,4.13-6.22,5.41-4.41,2.27-8.86,4.47-13.38,6.49-4.4,1.97-8.92,3.67-13.37,5.53-4.3,1.81-8.88,2.47-13.42,3.32-3.4.64-6.84,1.13-10.26,1.66-.73.11-1.49.13-2.23.07-.25-.02-.63-.37-.68-.61-.04-.24.21-.63.44-.8.32-.23.75-.29,1.13-.44,10.43-3.92,20.87-7.8,31.29-11.76,6.61-2.51,13.07-5.38,19.28-8.78,1.01-.55,2.02-1.13,2.97-1.78,2.33-1.6,4.28-3.51,5.4-6.21,1.13-2.73,2.94-5.02,4.95-7.18,2.73-2.93,5.27-2.16,7.38.35,2.99,3.55,3.49,7.55,2.43,11.87-.57,2.34-1.46,2.9-3.8,2.64-3.58-.39-6.88-1.52-9.76-4ZM402.49,632.45c1.67,1.04,3.31,2.04,5.39,2.32-.15-2.37-.61-3.1-2.05-3.53-1.56-.46-2.31-.22-3.34,1.21Z"/>
          <path d="M144.29,620.77c-2.42,4.13-4.7,8.03-7.08,12.11-4.25-2.58-8.33-5.06-12.59-7.64-1.93,3.19-3.78,6.24-5.72,9.44-4.68-2.82-9.18-5.54-13.82-8.34,2.38-4.1,4.65-8.02,7.05-12.16,4.27,2.53,8.43,5.01,12.82,7.62,1.78-3.13,3.51-6.17,5.34-9.4,4.69,2.8,9.21,5.5,13.99,8.36Z"/>
          <path d="M323.16,511.2c-6.48-1.71-13.15-1.81-20.04-1.88.22-.74.23-1.25.48-1.58,2.16-2.88,4.34-5.75,6.59-8.55.36-.45,1.14-.68,1.77-.77,4.01-.59,8-.27,11.95.56,2.39.51,4.76,1.11,7.11,1.79,3.6,1.05,4.55,3.29,2.95,6.72-.17.37-.35.74-.57,1.08-1.75,2.87-4.04,5.28-6.5,7.54-3.04,2.79-6.83,3.86-10.75,4.52-2.54.43-5.12.66-7.69.9-1.09.1-2.62.62-2.99-.86-.35-1.42,1.25-1.54,2.17-1.95,4.52-2.03,9.07-4.01,13.61-6.02.67-.3,1.32-.64,1.99-.96-.03-.18-.06-.36-.09-.54Z"/>
          <path d="M61.75,528.42c-1.72-.32-3.44-.8-5.17-.93-4.39-.33-8.8-.49-13.2-.74-.5-.03-1.21-.13-1.42-.45-.19-.3.04-1.05.32-1.42,2.08-2.77,4.18-5.52,6.36-8.21.38-.46,1.09-.79,1.7-.91,2.83-.57,5.7-.53,8.51-.04,3.4.58,6.79,1.32,10.14,2.16,4.2,1.06,5.5,3.83,3.26,7.46-4.01,6.51-9.14,11.66-17.27,12.6-2.9.34-5.79.71-8.69,1.07-.13.02-.27.03-.41.03-.85,0-1.75-.07-1.91-1.09-.14-.89.63-1.28,1.32-1.58,3.49-1.51,7-2.98,10.48-4.49,1.68-.73,3.34-1.51,5-2.3.41-.19.77-.48,1.15-.72-.05-.15-.11-.29-.16-.44Z"/>
          <path d="M657.33,619.71c-.44-.22-.66-.4-.9-.44-2.77-.39-5.56-.64-8.3.13-1.1.31-2.1.95-3.17,1.33-.39.14-1.06.16-1.28-.07-.3-.32-.53-1.02-.38-1.4.77-1.97,1.68-3.89,3.28-5.34,1.18-1.07,2.58-1.68,4.21-1.87,3.13-.36,6.24-.37,9.34.15.46.08.93.18,1.37.35,2.09.81,2.65,1.73,2.29,3.91-.43,2.65-1.73,4.89-3.61,6.71-1.95,1.88-4.11,3.54-6.19,5.28-1.3,1.09-2.62,2.16-3.93,3.24-.16.13-.3.28-.44.43-2.72,2.85-2.28,4.89,1.26,6.57,3.26,1.55,6.64,1.11,10.01.83,3.63-.3,7.05-1.4,10.31-3,.79-.39,1.6-.77,2.45-.99,1.02-.26,1.58.45,1.15,1.43-.18.43-.49.82-.8,1.16-2.87,3.2-6.32,5.58-10.38,6.97-4.25,1.45-8.62,1.88-13.06.92-.99-.21-1.96-.57-2.89-.97-2.85-1.22-4.06-3.53-3.95-6.51.17-5.02,2.33-9.17,5.95-12.55,1.73-1.62,3.68-3.02,5.52-4.52.67-.55,1.33-1.11,2.13-1.78Z"/>
          <path d="M713.56,483.31c-1.99-.36-3.98-.89-5.99-1.04-3.99-.31-7.99-.41-11.99-.62-.56-.03-1.11-.16-1.98-.3.43-.83.63-1.4.98-1.85,1.98-2.59,3.96-5.18,6.03-7.69.42-.5,1.22-.82,1.89-.96,2.9-.58,5.84-.43,8.71.04,3.21.52,6.36,1.36,9.53,2.12,4.37,1.04,5,3.99,2.97,7.37-2.07,3.45-4.72,6.48-7.94,8.93-2.61,1.99-5.77,2.71-8.9,3.28-2.8.51-5.65.7-8.49.99-.85.09-1.94.31-2.23-.82-.3-1.14.76-1.43,1.56-1.78,4.66-2.06,9.32-4.11,13.97-6.17.66-.29,1.29-.64,1.93-.96-.02-.18-.04-.36-.06-.54Z"/>
          <path d="M539.39,486.02c-.89-.11-1.87,0-2.64-.36-1.66-.76-3.25-1.69-4.8-2.66-1.49-.93-2.28-2.33-2.14-4.12.1-1.28.14-2.59.47-3.82.52-1.9,1.76-2.58,3.72-2.29,2.49.36,4.42,1.75,6.05,3.52,3.43,3.74,6.01,8.04,7.85,12.77.31.8.69,1.56,1.03,2.35.15-.02.3-.04.45-.06.11-.63.23-1.26.33-1.89.81-5.1,1.56-10.22,3.27-15.12.57-1.64,1.48-3.19,2.43-4.65,1.05-1.59,2.68-1.96,4.51-1.54,2.62.61,4.42,2.3,5.84,4.46.21.32.33.79.28,1.16-.23,1.61-.47,3.22-.87,4.79-.2.78-.73,1.47-1.8,1.51-.74-.9-1.48-1.87-2.29-2.78-1.73-1.94-3.51-1.81-4.71.46-.66,1.24-1.17,2.62-1.43,4-.91,4.87-1.64,9.78-2.52,14.66-.35,1.93-.81,3.86-1.4,5.73-.53,1.69-1.53,1.84-2.56.38-.74-1.03-1.23-2.25-1.71-3.44-1.06-2.64-1.94-5.36-3.09-7.97-.91-2.05-2.26-3.86-4.27-5.08Z"/>
          <path d="M509.9,632.73c-3.12.29-5.42-1.11-7.38-3.04-1.56-1.53-1.55-4.95-.22-6.65.84-1.06,1.94-1.44,3.26-1.18,2.02.4,3.68,1.44,4.88,3.09,2.48,3.41,4.91,6.85,6.16,10.96.09.3.27.57.59,1.24.22-.76.37-1.16.45-1.57.81-3.99,1.5-8.01,2.48-11.95.38-1.53,1.27-2.99,2.2-4.29,1-1.39,2.51-1.8,4.17-1.06.68.3,1.38.58,2,.99,2.91,1.92,3.5,5.14,1.5,8-.55.79-1.14.83-1.81.05-.58-.66-1.05-1.44-1.69-2.03-1.33-1.21-2.54-1.04-3.22.63-.79,1.94-1.46,3.96-1.85,6-.64,3.33-.99,6.72-1.51,10.07-.46,2.97-1.73,5.6-3.84,7.72-1.48,1.48-3.09,2.87-4.8,4.07-6.19,4.36-13.2,6.91-20.41,8.97-.18.05-.39-.03-.93-.09.75-.63,1.31-1.09,1.86-1.55,4.06-3.34,8.73-5.74,13.12-8.58,3.25-2.1,6.33-4.45,9.44-6.75,1.36-1.01,1.26-1.08.76-2.74-.8-2.59-1.37-5.27-3.08-7.49-.74-.96-1.47-1.94-2.14-2.83Z"/>
          <path d="M491.38,481.86c-2.48-1.32-5.03-1.6-7.58-1.73-3.31-.16-6.63-.2-9.95-.33-.42-.02-1.02-.24-1.17-.55-.15-.3.04-.93.29-1.25,2.05-2.7,4.1-5.41,6.28-8,.44-.53,1.4-.77,2.16-.86,3.88-.46,7.72.03,11.52.84,1.99.42,3.97.9,5.92,1.48,3.19.96,4.15,3.04,2.91,6.12-.2.5-.41,1.01-.71,1.46-2.18,3.33-4.89,6.16-8.09,8.5-2.25,1.64-4.99,2.15-7.64,2.63-2.86.53-5.78.69-8.68,1.01-.27.03-.6.1-.8-.01-.43-.25-.97-.53-1.14-.94-.11-.26.28-.87.61-1.12.47-.36,1.09-.54,1.64-.79,4.28-1.89,8.57-3.77,12.85-5.66.54-.24,1.06-.53,1.59-.8Z"/>
          <path d="M325.41,467.62c-.8-1.02-1.46-1.96-2.22-2.82-1.71-1.95-3.49-1.84-4.69.46-.74,1.42-1.29,3.01-1.59,4.59-.79,4.27-1.38,8.57-2.1,12.85-.29,1.74-.72,3.45-1.13,5.16-.13.52-.35,1.04-.62,1.5-.6,1.01-1.33,1.08-2.08.14-.5-.63-.92-1.36-1.2-2.11-.75-1.96-1.38-3.97-2.1-5.95-1.14-3.16-2.79-6.02-5.31-8.43-1.6.6-3.04.09-4.42-.72-.7-.41-1.38-.86-2.08-1.27-3.57-2.09-3.71-4.6-2.47-8.84.36-1.23,1.36-1.79,2.66-1.83,1.87-.06,3.53.61,4.83,1.83,1.62,1.52,3.19,3.15,4.5,4.94,2.13,2.9,3.88,6.05,5.14,9.45.21.56.5,1.09.91,1.96.21-.63.36-.95.43-1.29.81-4.13,1.53-8.27,2.43-12.38.53-2.45,1.41-4.8,2.82-6.94,1.47-2.24,3.48-2.78,6.23-1.53,1.54.7,2.73,2.16,4.07,3.3.15.12.23.33.32.51.91,1.93-.28,5.98-2.31,7.42Z"/>
          <path d="M608.63,651.71c-1.19-.35-1.76-1.23-2.14-2.16-.8-2.01-1.5-4.07-2.21-6.12-1.16-3.32-2.9-6.26-5.48-8.89-1.06.84-2.16.58-3.19.01-1.43-.78-2.85-1.59-4.19-2.51-1.44-.98-2.24-2.35-2.06-4.16.1-1.01.09-2.05.33-3.02.57-2.34,1.68-3.03,4.02-2.58,2.45.47,4.33,1.88,5.93,3.72,3.15,3.62,5.57,7.69,7.26,12.19.17.44.37.87.58,1.3.05.1.21.15.45.31.13-.39.28-.72.35-1.08.76-3.86,1.48-7.74,2.27-11.6.52-2.55,1.36-4.99,2.77-7.19,1.62-2.54,3.36-3.12,6.47-1.6,1.47.72,2.75,2.01,3.83,3.28,1.46,1.72.27,6.32-1.95,7.65-.48-.58-.96-1.21-1.49-1.8-.54-.6-1.06-1.26-1.73-1.7-1.3-.86-2.52-.62-3.32.71-.59.97-1.1,2.06-1.34,3.17-.77,3.65-1.42,7.33-2.07,11-.44,2.47-.72,4.98-1.21,7.44-.26,1.3-.46,2.71-1.86,3.63Z"/>
          <path d="M768.06,569.78c-1.04.77-2.02.58-2.96.07-1.43-.78-2.9-1.51-4.22-2.45-2.45-1.73-3.06-6.39-1.27-8.82.72-.97,1.66-1.32,2.85-1.17,1.73.23,3.35.83,4.57,2.05,1.53,1.53,3.01,3.14,4.28,4.89,2.04,2.8,3.75,5.81,4.94,9.1.2.55.53,1.05,1.14,1.54.14-.71.27-1.42.42-2.13,1.02-4.71,1.97-9.43,3.13-14.1.35-1.4,1.19-2.72,1.99-3.96,1.33-2.08,3.06-2.59,6.08-1.31,1.66.71,2.88,2.01,3.98,3.41,1.21,1.55.31,3.15.05,4.7-.2,1.17-.45,2.46-2.06,2.88-.32-.36-.67-.75-1-1.15-.44-.52-.82-1.09-1.29-1.57-1.87-1.88-3.52-1.67-4.63.71-.66,1.4-1.2,2.9-1.48,4.42-.76,4.14-1.34,8.31-2.04,12.46-.29,1.74-.66,3.47-1.1,5.17-.21.83-.66,1.6-1,2.37-1.64.08-2.19-1.04-2.62-2.06-.86-2.06-1.57-4.19-2.29-6.3-1.11-3.27-2.86-6.13-5.46-8.75Z"/>
          <path d="M471.83,561.29c.41-2.41,1.01-7,1.98-11.5,1.63-7.59,4.08-14.95,6.94-22.16.65-1.63,1.55-3.17,2.47-4.67.26-.43.97-.59,1.47-.87.22.53.66,1.07.62,1.58-.11,1.14-.34,2.29-.72,3.37-2.85,8.1-4.8,16.43-6.69,24.78-.79,3.51-1.28,7.12-.5,10.72.31,1.44.76,2.91,1.45,4.21,1.81,3.39,5.55,3.56,7.73.44.82-1.17,1.56-2.39,2.33-3.59.35-.54.8-1.13,1.45-.78.45.24.69.89.98,1.38.09.16.08.4.05.6-.67,4.64-1.84,9.08-5.32,12.49-2.38,2.33-6.17,2.74-8.83,1-.77-.5-1.53-1.2-1.99-1.99-2.28-3.96-3.53-8.23-3.41-15.02Z"/>
          <path d="M394.19,480.26c.88.64,1.81,1.3,2.73,1.98.99.73,1.33,1.64.88,2.85-.51,1.37-.93,2.77-1.49,4.48-1.04-.78-1.77-1.36-2.53-1.9-.77-.54-1.56-1.05-2.41-1.63-.97,1.11-1.83,2.14-2.75,3.12-4.95,5.29-11.21,8.51-17.82,11.16-1.07.43-2.16.82-3.25,1.2-.64.22-1.29.43-1.96.54-.74.12-1.59.21-1.92-.68-.31-.82.38-1.25.94-1.61,1.43-.91,2.87-1.82,4.35-2.65,4.98-2.79,10.11-5.34,14.47-9.1,1.27-1.1,2.6-2.15,3.43-3.79-1.25-.54-2.45-.99-3.6-1.56-3.48-1.71-4.55-4.2-3.33-7.89,1.39-4.21,4.31-7.17,8.08-9.33.52-.3,1.13-.46,1.73-.58,2.83-.57,4.77.62,5.52,3.46.54,2.06.65,4.17.24,6.27-.36,1.86-.86,3.68-1.32,5.64ZM390.1,478.63c.21-1.87.45-3.19.47-4.52.02-1.05-.36-2.02-1.54-2.36-1.29-.37-2.56-.28-3.72.41-1.49.88-1.61,2.66-.19,3.6,1.44.96,3,1.74,4.98,2.87Z"/>
          <path d="M75.71,478.95c-.77-1-1.31-1.78-1.92-2.49-2.1-2.42-4.08-2.22-5.19.75-.89,2.4-1.47,4.94-1.94,7.46-.77,4.14-1.32,8.31-2.03,12.46-.17.99-.51,1.98-.92,2.9-.46,1.04-1.31,1.17-2.08.33-.5-.53-.91-1.2-1.17-1.88-.72-1.9-1.35-3.84-1.99-5.77-1.09-3.28-2.91-6.09-5.38-8.66-1.3.85-2.5.4-3.62-.27-1.4-.83-2.78-1.69-4.11-2.62-1.12-.79-1.71-1.9-1.6-3.33.09-1.15,0-2.33.26-3.44.51-2.23,1.89-3.13,4.06-2.48,1.45.44,2.95,1.12,4.1,2.09,3.71,3.12,6.12,7.22,8.06,11.6.54,1.21,1.06,2.44,1.59,3.66.14-.03.28-.05.42-.08.4-2.18.73-4.38,1.22-6.54.74-3.31,1.52-6.61,2.44-9.87.34-1.21.98-2.4,1.71-3.43,1.47-2.06,2.9-2.49,5.31-1.75,2.1.64,3.63,2.07,4.88,3.82.22.31.34.75.37,1.14.14,1.95-.4,3.77-1.28,5.48-.19.36-.68.56-1.19.95Z"/>
          <path d="M113.35,651.86c-1.21-.1-1.59-1.09-2.2-1.76-1.88-2.09-2.93-2.05-3.89.61-.92,2.53-1.43,5.22-1.96,7.87-.47,2.33-.67,4.71-1.08,7.05-.25,1.45-.49,2.95-1.66,4.05-1.12-.26-1.62-1.08-1.98-1.95-.62-1.5-1.18-3.04-1.71-4.58-.78-2.27-1.84-4.38-3.48-6.16-.29-.32-.75-.65-1.14-.67-3.39-.18-5.76-1.92-7.55-4.92-5.28,6.65-12.56,10.24-20.15,13.32-1.46.59-3.01,1.15-4.69,1.18-.2-1.04.58-1.23,1.1-1.56,2.64-1.68,5.29-3.34,7.94-4.99,5.66-3.53,11.01-7.48,16.04-11.86,2.39-2.09,3.44-2.07,6.16-.35,1.77,1.13,3.05,2.7,4.2,4.38,1.57,2.3,3.02,4.68,3.91,7.36.09.29.29.54.7,1.26.44-2.24.74-4.01,1.15-5.76.63-2.7,1.34-5.39,2.02-8.08.03-.13.1-.25.16-.38.79-1.7,1.65-3.36,3.83-3.5,1.72-.11,4.97,1.95,5.58,3.63.25.7.12,1.58.01,2.36-.17,1.24-.22,2.57-1.29,3.46Z"/>
          <path d="M175.99,509.8c1.01.67.87,1.52.67,2.3-.35,1.38-.84,2.72-1.21,4.1-1.79,6.75-3.7,13.48-5.26,20.28-.72,3.16-.75,6.48.38,9.65.18.51.38,1.02.66,1.48,1.66,2.71,4.33,2.94,6.32.49.76-.94,1.3-2.07,2.03-3.04.29-.38.83-.8,1.25-.8.74,0,.9.7.95,1.34.01.14.03.27.02.41-.48,4.07-1.71,7.83-4.72,10.76-2.55,2.47-7.48,2.42-9.56-1.84-2.25-4.59-2.69-9.35-2.04-14.28,1.27-9.63,4.3-18.76,7.97-27.7.51-1.24,1.11-2.47,2.53-3.14Z"/>
          <path d="M156.89,627.68c1.1,1.21.55,2.28.27,3.27-.9,3.2-1.97,6.35-2.81,9.57-1.08,4.13-2.13,8.28-2.94,12.47-.59,3.06-.88,6.21.35,9.23.3.74.71,1.49,1.25,2.06,1.66,1.77,3.71,1.65,5.21-.28.75-.96,1.35-2.04,2.1-3,.25-.33.87-.75,1.08-.65.41.2.78.7.95,1.16.15.41.12.97-.03,1.39-.88,2.48-1.59,5.07-2.81,7.38-1.59,3.03-4.75,4.1-7.6,3.02-1.25-.48-2.21-1.29-2.84-2.49-2.24-4.22-2.94-8.7-2.29-13.42,1.19-8.66,3.74-16.95,6.89-25.07.46-1.19,1.11-2.33,1.8-3.41.31-.5.91-.82,1.42-1.25Z"/>
          <path d="M62.4,581.47c-4.71-2.86-9.15-5.56-13.84-8.4,2.37-4.06,4.67-8,7.1-12.15,4.71,2.87,9.25,5.63,13.91,8.47-2.41,4.06-4.71,7.94-7.17,12.09Z"/>
          <path d="M335.54,538.59c-2.4,4.05-4.71,7.95-7.16,12.08-4.59-2.78-9.09-5.5-13.83-8.38,2.36-4.07,4.66-8.02,7.08-12.17,4.7,2.86,9.24,5.63,13.91,8.48Z"/>
          <path d="M717.12,604.23c2.44-4.17,4.72-8.06,7.11-12.14,4.65,2.83,9.14,5.56,13.89,8.45-2.37,4.06-4.68,7.99-7.18,12.07-4.64-2.81-9.13-5.54-13.82-8.38Z"/>
          <path d="M435.99,616.3c.57,1.38.17,2.51-.15,3.69-1.77,6.48-3.54,12.96-5.17,19.47-.65,2.59-.56,5.27.33,7.84.26.75.66,1.52,1.18,2.1,1.5,1.64,3.26,1.56,4.66-.18.68-.84,1.16-1.84,1.84-2.68.29-.36.96-.79,1.27-.68.38.14.72.79.78,1.26.07.58-.08,1.22-.28,1.79-.69,1.98-1.26,4.04-2.24,5.87-.94,1.75-2.46,3.05-4.66,3.21-2.36.17-4.07-.78-5.19-2.84-1.64-3.01-2.34-6.24-2.04-9.63.65-7.21,2.43-14.17,4.89-20.96.76-2.1,1.61-4.18,2.51-6.23.39-.89.84-1.87,2.24-2.03Z"/>
          <path d="M129.74,498.21c1.21.96.74,2.07.49,3.07-.89,3.55-1.94,7.07-2.76,10.64-1.01,4.44-1.89,8.92-1.61,13.5.08,1.33.35,2.71.85,3.94.69,1.71,2.27,2.04,3.6.77.75-.72,1.24-1.75,1.68-2.72.39-.84.67-1.65,2.05-1.56.14.56.42,1.18.42,1.8,0,2.33-.45,4.6-1.32,6.76-.79,1.95-2.31,3.16-4.36,3.64-2.08.49-3.6-.18-4.62-2.06-1.68-3.11-2.63-6.44-2.36-9.98.23-2.97.6-5.94,1.21-8.86.92-4.45,2.1-8.85,3.17-13.26.44-1.81,1.2-3.47,2.46-4.85.3-.33.71-.55,1.09-.83Z"/>
          <path d="M105.14,507.08c1.02,1.05.55,2.04.27,3-1.13,3.85-2.36,7.66-3.36,11.54-.89,3.41-1.98,6.82-1.8,10.4.07,1.47.39,2.95.77,4.39.33,1.28,1.3,2.06,2.62,2.29,1.35.24,2.15-.62,2.83-1.6.5-.72.94-1.5,1.49-2.18.22-.27.7-.56.98-.5.3.07.58.52.73.86.12.29.1.67.05,1-.39,2.73-1.24,5.29-3.03,7.45-2.51,3.03-6.56,2.59-8.39-.87-1.46-2.78-2.09-5.72-1.85-8.85.49-6.49,2.17-12.71,4.31-18.81.7-1.99,1.48-3.94,2.3-5.88.39-.93.92-1.81,2.08-2.23Z"/>
          <path d="M563.13,645.51c1.2.59,1.31,1.53,1.04,2.35-.72,2.18-1.4,4.42-2.48,6.43-1.01,1.88-2.85,2.93-5.11,2.72-2.12-.19-3.41-1.51-4.16-3.43-.32-.82-.66-1.63-.93-2.47-.82-2.58-.75-5.22-.42-7.87.92-7.48,3.24-14.57,5.98-21.54.48-1.23.93-2.58,2.56-3.38.2.5.51.94.51,1.38,0,.59-.21,1.2-.37,1.78-1.46,5.3-3.04,10.57-4.33,15.92-.55,2.28-.64,4.7-.66,7.06-.01,1.24.39,2.57.94,3.71,1.14,2.38,3.38,2.54,5,.47.42-.53.74-1.14,1.15-1.68.4-.51.85-.98,1.28-1.45Z"/>
          <path d="M663.41,636.24c-2.38-1.45-4.62-2.81-7.07-4.3,1.22-2.1,2.37-4.06,3.65-6.26,2.39,1.45,4.63,2.81,7.12,4.32-1.23,2.07-2.42,4.08-3.7,6.23Z"/>
        </g>
      </g>
    </g>
  </g>
</svg>