<?xml version="1.0" encoding="UTF-8"?>
<svg id="Layer_2" data-name="Layer 2" xmlns="http://www.w3.org/2000/svg" viewBox="0 0 343.37 122.62">
  <defs>
    <style>
      .cls-1 {
        fill: #e33f24;
      }

      .cls-2 {
        fill: #0060b2;
      }
    </style>
  </defs>
  <g id="Layer_1-2" data-name="Layer 1">
    <g>
      <path id="path9" class="cls-2" d="M192.72,107.45c-2.19-.53-4.91-1.98-6.36-3.39-1.21-1.17-1.27-1.3-.9-1.87.22-.34,1.12-1.9,2-3.47s1.7-2.86,1.81-2.86.37.31.57.7c1.31,2.45,6.89,4.63,9.45,3.69,1.18-.43,1.56-1.01,1.31-2-.29-1.17-1.28-1.9-4.34-3.21-2.34-1-3.03-1.44-4.18-2.7-1.8-1.97-2.61-4.05-2.64-6.8-.02-1.76.1-2.34.76-3.68.96-1.96,2.79-3.62,4.89-4.44,2.12-.83,6.6-1.02,9.52-.41,2.37.49,6.8,2.54,6.61,3.06-.07.18-.96,1.62-1.98,3.19l-1.86,2.86-.93-.71c-1.34-1.02-3.33-1.63-4.8-1.46-1.57.18-2.34.85-2.34,2.05,0,1.38,1.09,2.21,4.15,3.18,1.44.45,2.95,1.03,3.35,1.28,3.08,1.95,4.19,4.83,3.24,8.37-1.12,4.15-4.59,7.47-8.96,8.59-2.04.52-6.3.54-8.39.04h0ZM122.95,106.81c0-.42,3.88-26.17,4.33-28.73l.16-.91,5.05.08,5.05.08,3.37,8.13c1.85,4.47,3.47,8.23,3.58,8.34.11.11.21-1.14.21-2.78,0-2.51.86-9.74,1.56-13.06l.16-.77h10l-.19,1.18c-.11.65-1.14,7.39-2.3,14.98l-2.11,13.8-4.96.08-4.96.08-.92-2.03c-.51-1.12-2.03-4.6-3.38-7.74-1.35-3.14-2.54-5.81-2.65-5.94-.11-.12-.28,1.2-.38,2.93-.11,1.73-.53,5.28-.95,7.89l-.76,4.74-4.95.08c-4.58.07-4.95.04-4.95-.42h0ZM153.61,107.2c0-.06,3.32-6.83,7.39-15.07l7.39-14.97,5.92.08,5.92.08.35,2.09c.19,1.15,1.34,7.89,2.54,14.98l2.19,12.89h-10.18l-.19-1.81-.19-1.81h-8.75l-.56,1.74-.56,1.74-5.63.08c-3.1.04-5.63.03-5.63-.02ZM173.89,95.51c-.08-.65-.38-3.41-.65-6.13s-.57-4.95-.66-4.95-1.02,2.6-2.08,5.78c-1.05,3.18-1.97,5.94-2.05,6.13-.1.26.56.35,2.73.35h2.86l-.15-1.18ZM210.49,107.19c0-.06,1.13-6.7,2.51-14.77s2.51-14.8,2.51-14.95c0-.19,1.86-.29,5.3-.29,2.91,0,5.3.08,5.3.17s-1.13,6.76-2.51,14.82c-1.38,8.06-2.51,14.75-2.51,14.88s-2.38.23-5.3.23-5.3-.05-5.3-.1ZM235.85,106.87c-4.95-1.37-8.69-5.06-9.74-9.64-.42-1.83-.35-5.1.15-7.04,1.08-4.19,4.85-8.98,8.62-10.96,6.61-3.47,13.88-2.78,18.44,1.74,2.69,2.66,3.89,6.03,3.65,10.26-.38,6.75-5.19,12.78-12.09,15.12-2.76.94-6.71,1.16-9.03.52h0ZM242.58,97.77c2.38-.71,4.53-3.59,4.88-6.52.52-4.45-3-7.43-6.75-5.73-3.27,1.48-5.19,5.6-4.2,9,.84,2.91,3.13,4.13,6.07,3.25h0ZM258.44,106.76c0-.55,4.07-27.74,4.34-28.95l.14-.63,5.06.08,5.06.08,3.28,7.95c1.8,4.37,3.41,8.13,3.56,8.36.2.3.29-.48.3-2.65.02-2.54.98-10.76,1.55-13.17.15-.62.19-.63,5.14-.63h5l-.17,1.05c-.09.57-1.13,7.32-2.29,14.98l-2.12,13.94-5.01.07-5.01.07-3.32-7.74c-1.83-4.26-3.41-7.84-3.51-7.96s-.28,1.2-.38,2.93c-.11,1.73-.53,5.28-.95,7.89l-.76,4.74-4.95.08c-4.76.07-4.95.06-4.95-.47ZM289.1,107.01c0-.15,3.32-6.93,7.39-15.05l7.39-14.77h5.84c5.32,0,5.85.04,5.98.49.21.69,4.91,28.64,4.91,29.17,0,.39-.6.45-4.98.45h-4.98l-.17-1.05c-.1-.57-.17-1.39-.18-1.81v-.77h-8.88l-.6,1.81-.6,1.81h-5.55c-3.53,0-5.55-.1-5.55-.28ZM309.35,95.51c-.09-.65-.36-3.19-.6-5.65-.24-2.45-.51-4.77-.6-5.16-.12-.52-.69.88-2.22,5.43-1.13,3.37-2.06,6.22-2.06,6.34s1.27.21,2.82.21h2.82l-.16-1.18ZM322.75,107.09c-.07-.12.9-6.89,2.14-15.06l2.26-14.85h5.23c2.88,0,5.23.09,5.23.21,0,.26-2.71,18.82-2.93,20.07l-.16.91h8.85l-.73,4.39-.73,4.39-9.52.07c-5.24.04-9.58-.02-9.64-.14h0ZM242.55,70.02c-5.45-.91-9.93-4.64-11.44-9.52-.72-2.31-.78-6.88-.13-9.38,1.16-4.49,4.28-8.6,7.91-10.44,4.98-2.51,11.46-2.63,16.35-.29,1.91.91,4.93,3.51,5.78,4.97.47.81.47.85,0,.99-.27.08-2.35.72-4.63,1.44l-4.14,1.3-.45-.65c-1.42-2.04-3.02-2.7-5.29-2.19-4.05.91-6.59,6.71-5.24,11.99.59,2.29,1.39,3.48,2.83,4.19,2.87,1.4,5.15.1,5.6-3.21l.17-1.26h-3.98v-5.58h7.42c7.35,0,7.42,0,7.27.57-.08.32-.74,3.42-1.46,6.9-.75,3.6-1.5,6.54-1.75,6.83-.77.89-4.3,2.42-6.88,2.98-2.32.51-6.07.68-7.95.37h0ZM144.41,69.33c0-.18.82-5.42,1.82-11.64,1-6.22,2.06-12.8,2.35-14.62.29-1.82.58-3.35.65-3.42s4.63-.08,10.14-.04l10.02.07-.57,3.62-.57,3.62-4.64.08-4.64.08-.28,1.6c-.15.88-.22,1.69-.15,1.81.07.11,1.94.21,4.15.21,3.04,0,4.03.09,4.02.35,0,.19-.25,1.79-.56,3.55s-.55,3.3-.56,3.42c0,.11-1.88.21-4.17.21s-4.22.09-4.29.21-.21.87-.32,1.67l-.2,1.46h4.77c4.36,0,4.76.04,4.75.49,0,.27-.3,2.06-.64,3.97l-.63,3.48-10.23.07c-7.74.06-10.23,0-10.23-.26ZM168.12,69.59s1.05-6.85,2.32-15.13l2.3-15.05h10.23l3.16,7.53c1.74,4.14,3.31,7.84,3.5,8.22.29.6.36.22.53-2.79.1-1.92.53-5.65.96-8.29l.77-4.81h4.98c4.74,0,4.98.03,4.98.54,0,.48-3.94,26.65-4.36,28.95l-.17.91-5.04-.08-5.04-.08-3.37-7.87c-1.86-4.33-3.44-7.94-3.52-8.02s-.23,1.2-.34,2.85-.53,5.26-.95,8.02l-.76,5.02-5.09.08c-2.8.04-5.08.04-5.08,0h0ZM199.06,69.38c0-.16,3.36-7,7.46-15.2l7.46-14.92h11.81l.16.77c.37,1.82,4.91,28.82,4.91,29.21s-.68.42-5.09.35l-5.09-.08-.07-1.12c-.17-2.56.2-2.37-4.76-2.37h-4.4l-.56,1.74-.56,1.74-5.63.08c-3.68.05-5.63-.02-5.63-.21ZM219.41,58.16c0-.92-1.07-11.26-1.22-11.78-.04-.15-1,2.48-2.12,5.85s-2.1,6.29-2.17,6.48c-.1.26.55.35,2.69.35h2.82v-.91s0,0,0,0ZM259.27,69.57c0-.05,3.33-6.83,7.39-15.06l7.39-14.96h5.99q5.98,0,6.13.63c.31,1.29,4.88,28.42,4.88,28.94s-.23.54-5.01.54c-5.66,0-5.2.2-5.37-2.37l-.07-1.12h-8.92l-.59,1.67-.59,1.67-5.61.08c-3.09.04-5.61.03-5.61-.02h0ZM279.76,58.3c-.07-.42-.39-3.28-.71-6.34-.32-3.07-.61-5.6-.64-5.63s-1.01,2.82-2.18,6.34l-2.13,6.4h5.79l-.13-.77ZM125.29,68.47c.1-.5.87-5.05,1.71-10.11.84-5.06,1.6-9.54,1.69-9.97l.16-.77h-3.37c-2.66,0-3.37-.08-3.37-.38,0-.21.31-2.05.7-4.08s.7-3.74.7-3.8,5.14-.1,11.43-.1,11.43.08,11.43.18c0,.26-1.1,6.82-1.26,7.56-.14.6-.27.63-2.92.63s-2.78.03-2.92.63c-.19.86-3.49,20.59-3.49,20.88,0,.13-2.4.23-5.33.23h-5.33l.18-.91Z"/>
      <path id="path42" class="cls-1" d="M28.02,106.6c-1.43-.5-3.57-2.8-4.13-4.43-.98-2.88.7-5.17,4.36-5.94,1.31-.27,6.38-.36,21.26-.37h19.54s.95-.63.95-.63c.53-.35,1.25-1.24,1.64-2.02l.7-1.39.16-11.29c.17-12.15.21-12.52,1.75-15.14,1.58-2.69,4.87-4.82,8.71-5.63,1.21-.26,3.54-.41,6.28-.41,4.05,0,4.42-.05,5.3-.64.52-.35,1.18-1.1,1.46-1.67.48-.99.51-2.15.48-20.67-.02-10.79-.14-19.99-.27-20.43-.59-2.06-1.7-3.39-3.43-4.11-.91-.38-5.35-.43-38.9-.43H16.01l-1.24.63c-.87.44-1.45,1-1.94,1.88l-.7,1.25v40.14l.64,1.3c1.11,2.24,1.3,2.3,8.14,2.46,5.86.14,6.03.16,7.58.92,2.9,1.43,5.43,4.93,6.49,8.99.29,1.13.43,2.98.43,5.93v4.28l.81.81c.92.92,1.32.98,2.61.43,2-.86,3.33-2.81,9.79-14.28,3.46-6.15,6.38-11.58,6.48-12.07.24-1.22-.31-2.13-1.62-2.65-.89-.36-2.52-.43-9.31-.43-8.74,0-9.76-.13-10.42-1.35-.58-1.08-.34-2.68.73-4.81.95-1.89,2.11-3.15,14.97-16.21,7.67-7.78,13.98-14.15,14.03-14.15.14,0-.45,1.29-4.65,10.15-4.36,9.21-4.84,10.67-4.02,12.33.63,1.27,1.59,2.01,3.05,2.35.6.14,3.92.26,7.37.26,7.19,0,7.82.16,8.75,2.07,1.12,2.3,1.1,2.35-11.46,23.96-6.26,10.76-11.69,20.19-12.07,20.96-.89,1.8-3.15,4.07-4.97,4.99-4.04,2.05-10.27,2.06-14.28.02-.81-.41-2.15-1.38-2.97-2.16-2.8-2.65-4.07-5.76-4.66-11.38-.35-3.32-.45-3.72-1.2-4.66-.45-.56-1.5-1.4-2.33-1.85-1.37-.74-1.84-.84-5-1-2.6-.13-3.88-.33-5.05-.78-4.7-1.83-8.01-5.89-9.46-11.61C.02,55.95,0,55.03,0,35.69,0,18.32.07,15.24.45,13.52,1.86,7.17,5.99,2.94,12.97.73l1.95-.62L54.89.03C89.85-.04,95.07,0,96.51.37c5.56,1.42,9.29,5.51,11.24,12.32l.72,2.5-.1,21.03c-.09,19.21-.14,21.17-.59,22.7-1.4,4.69-4.35,8.11-8.88,10.28-2.89,1.38-5.04,1.98-8.67,2.38-2.92.33-4.11.96-5.01,2.62-.59,1.11-.62,1.53-.77,10.64-.15,9.41-.16,9.49-.92,11.68-1.82,5.26-5.46,8.41-11.45,9.93-2.11.53-3.11.56-22.58.55-16.74-.01-20.58-.08-21.49-.4h0Z"/>
      <path id="path11" class="cls-1" d="M39.87,122.18c-2.21-.96-3.35-2.82-3.34-5.47,0-2.08.68-3.47,2.32-4.79l1.07-.86,14.26-.07,14.26-.07,1.1.63c.61.35,1.49,1.17,1.95,1.84.77,1.1.85,1.41.85,3.39s-.08,2.3-.84,3.37c-.46.65-1.39,1.48-2.07,1.84l-1.23.65h-13.69c-11.59-.02-13.84-.09-14.66-.44h0Z"/>
    </g>
  </g>
</svg>