<?xml version="1.0" encoding="UTF-8"?>
<svg id="Layer_2" data-name="Layer 2" xmlns="http://www.w3.org/2000/svg" viewBox="0 0 388 455.72">
  <defs>
    <style>
      .cls-1 {
        fill: #e52561;
      }

      .cls-2 {
        fill: #fff;
      }

      .cls-3 {
        fill: #e52561;
      }

      .cls-4 {
        font-family: 'GoogleSansFlex_144.000opsz_104.380wdth_410.590wght_100.000ROND', 'Google Sans Flex';
        font-size: 85.27px;
        font-variation-settings: 'opsz' 144, 'wdth' 104, 'wght' 410, 'GRAD' 0, 'ROND' 100, 'slnt' 0;
      }

      .cls-5 {
        fill: #020102;
      }
    </style>
  </defs>
  <g id="Layer_1-2" data-name="Layer 1">
    <g>
      <g>
        <path class="cls-3" d="M194.52,0c-69.35,0-125.57,56.22-125.57,125.57v125.57h125.57c69.35,0,125.57-56.22,125.57-125.57S263.87,0,194.52,0Z"/>
        <path class="cls-5" d="M6.39,352.2c-1.76,0-3.32-.64-4.54-1.86-1.21-1.21-1.86-2.78-1.86-4.54v-54.25c0-1.74.63-3.31,1.83-4.55,1.22-1.26,2.8-1.93,4.57-1.93h17.96c7.22,0,13.46,1.64,18.57,4.88,5.08,3.23,8.96,7.47,11.53,12.6,2.54,5.08,3.83,10.49,3.83,16.08s-1.29,11-3.83,16.07c-2.57,5.14-6.45,9.38-11.53,12.61-5.1,3.24-11.35,4.88-18.57,4.88H6.39ZM23.37,339.86c4.47,0,8.42-.91,11.74-2.71,3.33-1.8,5.83-4.22,7.65-7.4,1.81-3.17,2.73-6.9,2.73-11.11s-.92-7.94-2.73-11.11c-1.82-3.18-4.32-5.6-7.65-7.4-3.33-1.8-7.28-2.71-11.74-2.71h-10.5v42.44h10.5Z"/>
        <path class="cls-5" d="M130.53,352.2c-1.75,0-3.32-.64-4.54-1.86-1.21-1.21-1.86-2.78-1.86-4.54v-38.34c0-1.74.63-3.31,1.83-4.55,1.21-1.26,2.79-1.93,4.57-1.93s3.41.64,4.63,1.86c1.22,1.22,1.86,2.82,1.86,4.63v38.34c0,1.77-.67,3.35-1.93,4.57-1.24,1.19-2.82,1.82-4.55,1.82ZM130.35,296.84c-1.87,0-3.56-.7-4.9-2.04-1.33-1.33-2.04-3.02-2.04-4.89v-.36c0-1.87.7-3.56,2.04-4.9,1.33-1.33,3.02-2.04,4.9-2.04h.54c1.87,0,3.56.7,4.9,2.03,1.33,1.33,2.04,3.02,2.04,4.9v.36c0,1.87-.7,3.56-2.04,4.89-1.33,1.33-3.02,2.04-4.9,2.04h-.54Z"/>
        <path class="cls-5" d="M106.32,300.53c-1.74,0-3.31.63-4.55,1.83-1.26,1.22-1.93,2.8-1.93,4.57v.4s-.01.09-.01.14v23.82c0,5.97-5.16,8.66-9.97,8.66-5.23,0-9.76-2.55-9.76-8.53v-24.49c0-1.75-.64-3.32-1.86-4.54-1.22-1.21-2.78-1.86-4.54-1.86s-3.31.63-4.55,1.83c-1.27,1.22-1.93,2.8-1.93,4.57v25.38c0,3.56.72,6.88,2.15,9.87,1.47,3.07,3.62,5.54,6.4,7.32,2.79,1.79,6.09,2.7,9.82,2.7,3.97,0,7.43-.57,9.94-2.9,1.98-1.85,3.03-4.15,3.6-4.17.56-.02.66.35.7.68.16,1.95.64,3.33,1.86,4.54,1.21,1.21,2.78,1.86,4.54,1.86s3.31-.63,4.55-1.82c1.27-1.22,1.93-2.8,1.93-4.57v-15.29s.01-.04.01-.05v-23.53c0-1.75-.64-3.32-1.86-4.54-1.22-1.21-2.78-1.86-4.54-1.86Z"/>
        <path class="cls-1" d="M237.15,352.2c-1.35,0-2.62-.32-3.8-.95-1.13-.61-2.09-1.42-2.83-2.41l-.05-.07-30.26-42.15v39.19c0,1.77-.67,3.35-1.93,4.57-1.24,1.19-2.81,1.82-4.55,1.82s-3.32-.64-4.54-1.86c-1.21-1.21-1.86-2.78-1.86-4.54v-51.79c0-2.24.8-4.2,2.37-5.81,1.57-1.61,3.58-2.46,5.81-2.46h1.16c1.84,0,4.51.63,6.8,3.61l.04.05,30.12,40.37v-37.55c0-1.74.63-3.31,1.83-4.55,1.21-1.26,2.8-1.93,4.57-1.93s3.34.66,4.58,1.9c1.24,1.24,1.9,2.83,1.9,4.58v51.79c0,2.23-.85,4.24-2.46,5.81-1.61,1.57-3.57,2.37-5.81,2.37h-1.07Z"/>
        <path class="cls-3" d="M366.38,352.2c-1.8,0-3.45-.52-4.89-1.55-1.39-.99-2.41-2.29-3.01-3.85l-.03-.09-7.6-22.53-7.62,22.57-.02.05c-.61,1.56-1.62,2.86-3.01,3.85-1.44,1.03-3.09,1.55-4.89,1.55s-3.45-.52-4.89-1.55c-1.41-1-2.4-2.29-2.94-3.83l-13.37-37.16c-.28-.79-.42-1.56-.42-2.29,0-1.75.68-3.32,1.96-4.54,1.28-1.21,2.93-1.86,4.78-1.86,1.37,0,2.63.35,3.77,1.05,1.21.75,2.03,1.75,2.47,2.98l8.66,27.05,8.52-26.2c.48-1.45,1.36-2.63,2.64-3.53,1.29-.9,2.75-1.36,4.36-1.36s3.08.46,4.36,1.36c1.28.9,2.16,2.08,2.64,3.52l8.52,26.21,8.66-27.05c.43-1.23,1.26-2.24,2.47-2.98,1.13-.7,2.4-1.05,3.77-1.05,1.85,0,3.5.64,4.78,1.86,1.28,1.22,1.96,2.79,1.96,4.54,0,.73-.14,1.49-.41,2.27l-13.38,37.19c-.53,1.52-1.52,2.81-2.94,3.81-1.44,1.03-3.09,1.55-4.89,1.55Z"/>
        <path class="cls-5" d="M166.56,352.2c-9.94,0-15.42-5.03-15.42-14.17v-25.33s-.53,0-.53,0c-1.66,0-3.11-.61-4.22-1.76-1.07-1.12-1.64-2.54-1.64-4.1s.58-3.08,1.68-4.18c1.1-1.1,2.55-1.68,4.18-1.68h.53v-6.62c0-1.82.67-3.42,1.93-4.63,1.23-1.18,2.79-1.8,4.51-1.8,1.8,0,3.39.64,4.59,1.84,1.21,1.21,1.84,2.8,1.84,4.6v1.67s0,.17,0,.17v4.78h7.73c1.63,0,3.08.58,4.18,1.68,1.1,1.1,1.68,2.55,1.68,4.18s-.57,2.98-1.64,4.1c-1.1,1.15-2.56,1.76-4.22,1.76h-7.73v24.62c0,1.94,1.24,3.91,2.77,4.01,1.81.11,6.87-.18,8.32.59,1.18.64,2.44,2.24,2.45,3.97.02,2.25-1.18,4.11-3.33,5.23l-.05.03-.05.02c-2.63,1.21-4.6,1.04-7.56,1.04Z"/>
        <path class="cls-2" d="M194.52,56.11c-38.37,0-69.47,31.1-69.47,69.47v69.47h69.47c38.37,0,69.47-31.1,69.47-69.47s-31.1-69.47-69.47-69.47ZM194.52,156.6h-31.03v-31.03c0-17.14,13.89-31.03,31.03-31.03s31.03,13.89,31.03,31.03-13.89,31.03-31.03,31.03Z"/>
        <path class="cls-3" d="M283.09,299.34c-14.59,0-26.41,11.83-26.41,26.41s11.83,26.41,26.41,26.41,26.41-11.83,26.41-26.41-11.83-26.41-26.41-26.41ZM283.09,339.96c-7.85,0-14.21-6.36-14.21-14.21s6.36-14.21,14.21-14.21,14.21,6.36,14.21,14.21-6.36,14.21-14.21,14.21Z"/>
      </g>
      <text class="cls-4" transform="translate(113.15 431.89)"><tspan x="0" y="0">QR</tspan></text>
    </g>
  </g>
</svg>